<svg width="106" height="28" viewBox="0 0 106 28" fill="none" xmlns="http://www.w3.org/2000/svg">
<path d="M0.812378 13.8802C0.812378 6.48514 6.37052 0.490234 13.2268 0.490234H93.4433C100.3 0.490234 105.858 6.48514 105.858 13.8802C105.858 21.2753 100.3 27.2702 93.4433 27.2702H13.2268C6.37052 27.2702 0.812378 21.2753 0.812378 13.8802Z" fill="#1C152E"/>
<path fill-rule="evenodd" clip-rule="evenodd" d="M93.4433 1.52023H13.2268C6.89793 1.52023 1.76734 7.054 1.76734 13.8802C1.76734 20.7065 6.89793 26.2402 13.2268 26.2402H93.4433C99.7722 26.2402 104.903 20.7065 104.903 13.8802C104.903 7.054 99.7722 1.52023 93.4433 1.52023ZM13.2268 0.490234C6.37052 0.490234 0.812378 6.48514 0.812378 13.8802C0.812378 21.2753 6.37052 27.2702 13.2268 27.2702H93.4433C100.3 27.2702 105.858 21.2753 105.858 13.8802C105.858 6.48514 100.3 0.490234 93.4433 0.490234H13.2268Z" fill="#0D0928"/>
<path d="M16.847 6.9401L18.0687 9.40375C18.2353 9.74669 18.6796 10.0756 19.0545 10.1386L21.2688 10.5096C22.6849 10.7475 23.0182 11.7834 21.9977 12.8053L20.2762 14.541C19.9846 14.8349 19.825 15.4018 19.9152 15.8078L20.4081 17.9565C20.7968 19.6572 19.9013 20.3152 18.4089 19.4263L16.3333 18.1875C15.9585 17.9635 15.3407 17.9635 14.9589 18.1875L12.8834 19.4263C11.3979 20.3152 10.4955 19.6502 10.8842 17.9565L11.377 15.8078C11.4673 15.4018 11.3076 14.8349 11.0161 14.541L9.29456 12.8053C8.28108 11.7834 8.60734 10.7475 10.0234 10.5096L12.2378 10.1386C12.6057 10.0756 13.05 9.74669 13.2166 9.40375L14.4383 6.9401C15.1047 5.6033 16.1876 5.6033 16.847 6.9401Z" fill="url(#paint0_linear_28_5695)"/>
<path d="M35.6909 6.9401L36.9126 9.40375C37.0792 9.74669 37.5235 10.0756 37.8984 10.1386L40.1127 10.5096C41.5288 10.7475 41.862 11.7834 40.8416 12.8053L39.1201 14.541C38.8285 14.8349 38.6689 15.4018 38.7591 15.8078L39.252 17.9565C39.6407 19.6572 38.7452 20.3152 37.2528 19.4263L35.1772 18.1875C34.8024 17.9635 34.1846 17.9635 33.8028 18.1875L31.7272 19.4263C30.2417 20.3152 29.3393 19.6502 29.7281 17.9565L30.2209 15.8078C30.3112 15.4018 30.1515 14.8349 29.8599 14.541L28.1384 12.8053C27.125 11.7834 27.4512 10.7475 28.8673 10.5096L31.0817 10.1386C31.4496 10.0756 31.8938 9.74669 32.0604 9.40375L33.2822 6.9401C33.9486 5.6033 35.0314 5.6033 35.6909 6.9401Z" fill="url(#paint1_linear_28_5695)"/>
<path d="M54.5338 6.9401L55.7556 9.40375C55.9222 9.74669 56.3664 10.0756 56.7413 10.1386L58.9557 10.5096C60.3718 10.7475 60.705 11.7834 59.6845 12.8053L57.963 14.541C57.6715 14.8349 57.5118 15.4018 57.602 15.8078L58.0949 17.9565C58.4836 19.6572 57.5881 20.3152 56.0957 19.4263L54.0202 18.1875C53.6454 17.9635 53.0276 17.9635 52.6457 18.1875L50.5702 19.4263C49.0847 20.3152 48.1823 19.6502 48.571 17.9565L49.0639 15.8078C49.1541 15.4018 48.9945 14.8349 48.7029 14.541L46.9814 12.8053C45.9679 11.7834 46.2942 10.7475 47.7103 10.5096L49.9246 10.1386C50.2925 10.0756 50.7368 9.74669 50.9034 9.40375L52.1251 6.9401C52.7915 5.6033 53.8744 5.6033 54.5338 6.9401Z" fill="url(#paint2_linear_28_5695)"/>
<path d="M73.3779 6.9401L74.5996 9.40375C74.7662 9.74669 75.2105 10.0756 75.5854 10.1386L77.7997 10.5096C79.2158 10.7475 79.549 11.7834 78.5286 12.8053L76.8071 14.541C76.5155 14.8349 76.3559 15.4018 76.4461 15.8078L76.939 17.9565C77.3277 19.6572 76.4322 20.3152 74.9398 19.4263L72.8642 18.1875C72.4894 17.9635 71.8716 17.9635 71.4898 18.1875L69.4143 19.4263C67.9287 20.3152 67.0263 19.6502 67.4151 17.9565L67.9079 15.8078C67.9982 15.4018 67.8385 14.8349 67.547 14.541L65.8254 12.8053C64.812 11.7834 65.1382 10.7475 66.5543 10.5096L68.7687 10.1386C69.1366 10.0756 69.5809 9.74669 69.7475 9.40375L70.9692 6.9401C71.6356 5.6033 72.7184 5.6033 73.3779 6.9401Z" fill="url(#paint3_linear_28_5695)"/>
<path d="M92.2217 6.9401L93.4434 9.40375C93.61 9.74669 94.0543 10.0756 94.4292 10.1386L96.6435 10.5096C98.0596 10.7475 98.3929 11.7834 97.3724 12.8053L95.6509 14.541C95.3593 14.8349 95.1997 15.4018 95.2899 15.8078L95.7828 17.9565C96.1715 19.6572 95.276 20.3152 93.7836 19.4263L91.708 18.1875C91.3332 17.9635 90.7154 17.9635 90.3336 18.1875L88.2581 19.4263C86.7726 20.3152 85.8702 19.6502 86.2589 17.9565L86.7517 15.8078C86.842 15.4018 86.6823 14.8349 86.3908 14.541L84.6693 12.8053C83.6558 11.7834 83.982 10.7475 85.3981 10.5096L87.6125 10.1386C87.9804 10.0756 88.4247 9.74669 88.5913 9.40375L89.813 6.9401C90.4794 5.6033 91.5622 5.6033 92.2217 6.9401Z" fill="url(#paint4_linear_28_5695)"/>
<defs>
<linearGradient id="paint0_linear_28_5695" x1="15.6476" y1="5.9375" x2="15.6476" y2="19.8223" gradientUnits="userSpaceOnUse">
<stop stop-color="#3D47AD"/>
<stop offset="1" stop-color="#6973DA"/>
</linearGradient>
<linearGradient id="paint1_linear_28_5695" x1="34.4915" y1="5.9375" x2="34.4915" y2="19.8223" gradientUnits="userSpaceOnUse">
<stop stop-color="#3D47AD"/>
<stop offset="1" stop-color="#6973DA"/>
</linearGradient>
<linearGradient id="paint2_linear_28_5695" x1="53.3345" y1="5.9375" x2="53.3345" y2="19.8223" gradientUnits="userSpaceOnUse">
<stop stop-color="#3D47AD"/>
<stop offset="1" stop-color="#6973DA"/>
</linearGradient>
<linearGradient id="paint3_linear_28_5695" x1="72.1785" y1="5.9375" x2="72.1785" y2="19.8223" gradientUnits="userSpaceOnUse">
<stop stop-color="#3D47AD"/>
<stop offset="1" stop-color="#6973DA"/>
</linearGradient>
<linearGradient id="paint4_linear_28_5695" x1="91.0223" y1="5.9375" x2="91.0223" y2="19.8223" gradientUnits="userSpaceOnUse">
<stop stop-color="#3D47AD"/>
<stop offset="1" stop-color="#6973DA"/>
</linearGradient>
</defs>
</svg>
