<svg width="25" height="25" viewBox="0 0 25 25" fill="none" xmlns="http://www.w3.org/2000/svg">
<g clip-path="url(#clip0_28_5498)">
<path fill-rule="evenodd" clip-rule="evenodd" d="M12.1094 22.3281C16.5277 22.3281 20.1094 18.7464 20.1094 14.3281C20.1094 9.90984 16.5277 6.32812 12.1094 6.32812C7.69109 6.32812 4.10938 9.90984 4.10938 14.3281C4.10938 18.7464 7.69109 22.3281 12.1094 22.3281ZM12.1094 24.3281C17.6322 24.3281 22.1094 19.8509 22.1094 14.3281C22.1094 8.80527 17.6322 4.32812 12.1094 4.32812C6.58652 4.32812 2.10938 8.80527 2.10938 14.3281C2.10938 19.8509 6.58652 24.3281 12.1094 24.3281Z" fill="#8A8F98"/>
<path d="M14.4516 9.77305C14.7927 9.33869 15.4214 9.26309 15.8557 9.60418C16.2901 9.94528 16.3657 10.5739 16.0246 11.0082L13.3519 14.4117C13.0108 14.8461 12.3821 14.9217 11.9478 14.5806C11.5134 14.2395 11.4378 13.6109 11.7789 13.1765L14.4516 9.77305Z" fill="#8A8F98"/>
<path d="M14.1094 14.3281C14.1094 15.4327 13.214 16.3281 12.1094 16.3281C11.0048 16.3281 10.1094 15.4327 10.1094 14.3281C10.1094 13.2235 11.0048 12.3281 12.1094 12.3281C13.214 12.3281 14.1094 13.2235 14.1094 14.3281Z" fill="#8A8F98"/>
<path d="M9.10938 2.32812C9.10938 1.77584 9.55709 1.32812 10.1094 1.32812H14.1094C14.6617 1.32812 15.1094 1.77584 15.1094 2.32812C15.1094 2.8804 14.6617 3.32812 14.1094 3.32812H10.1094C9.55709 3.32812 9.10938 2.8804 9.10938 2.32812Z" fill="#8A8F98"/>
<path d="M11.1094 2.32812C11.1094 1.77584 11.5571 1.32812 12.1094 1.32812C12.6617 1.32812 13.1094 1.77584 13.1094 2.32812V5.32812C13.1094 5.8804 12.6617 6.32812 12.1094 6.32812C11.5571 6.32812 11.1094 5.8804 11.1094 5.32812V2.32812Z" fill="#8A8F98"/>
</g>
<defs>
<clipPath id="clip0_28_5498">
<rect width="24" height="24" fill="white" transform="translate(0.109375 0.328125)"/>
</clipPath>
</defs>
</svg>
