<svg width="119" height="44" viewBox="0 0 119 44" fill="none" xmlns="http://www.w3.org/2000/svg">
<rect width="119" height="44" rx="22" fill="#160C18"/>
<path d="M17.6005 27V16.8182H21.2297C22.0186 16.8182 22.6732 16.9541 23.1935 17.2259C23.7172 17.4976 24.1083 17.8738 24.3668 18.3544C24.6253 18.8317 24.7546 19.3835 24.7546 20.0099C24.7546 20.633 24.6237 21.1816 24.3618 21.6555C24.1033 22.1262 23.7122 22.4924 23.1886 22.7543C22.6682 23.0161 22.0136 23.147 21.2248 23.147H18.4755V21.8246H21.0856C21.5827 21.8246 21.9871 21.7533 22.2986 21.6108C22.6135 21.4683 22.8439 21.2611 22.9897 20.9893C23.1355 20.7176 23.2084 20.3911 23.2084 20.0099C23.2084 19.6255 23.1339 19.2924 22.9847 19.0107C22.8389 18.7289 22.6085 18.5135 22.2937 18.3643C21.9821 18.2119 21.5728 18.1357 21.0657 18.1357H19.1367V27H17.6005ZM22.6268 22.4062L25.1424 27H23.3924L20.9265 22.4062H22.6268ZM29.5601 27.1541C28.8077 27.1541 28.1598 26.9934 27.6162 26.6719C27.076 26.3471 26.6583 25.8913 26.3634 25.3047C26.0717 24.7147 25.9259 24.0237 25.9259 23.2315C25.9259 22.4493 26.0717 21.7599 26.3634 21.1634C26.6583 20.5668 27.0693 20.1011 27.5963 19.7663C28.1266 19.4316 28.7464 19.2642 29.4557 19.2642C29.8866 19.2642 30.3042 19.3355 30.7085 19.478C31.1129 19.6205 31.4758 19.8442 31.7973 20.1491C32.1188 20.4541 32.3724 20.8501 32.558 21.3374C32.7436 21.8213 32.8364 22.4096 32.8364 23.1023V23.6293H26.7661V22.5156H31.3797C31.3797 22.1245 31.3002 21.7782 31.1411 21.4766C30.982 21.1716 30.7582 20.9313 30.4699 20.7557C30.1849 20.58 29.8501 20.4922 29.4656 20.4922C29.048 20.4922 28.6834 20.5949 28.3719 20.8004C28.0636 21.0026 27.825 21.2678 27.656 21.5959C27.4903 21.9207 27.4074 22.2737 27.4074 22.6548V23.5249C27.4074 24.0353 27.4969 24.4695 27.6759 24.8274C27.8582 25.1854 28.1117 25.4588 28.4365 25.6477C28.7613 25.8333 29.1408 25.9261 29.575 25.9261C29.8567 25.9261 30.1136 25.8864 30.3456 25.8068C30.5776 25.724 30.7781 25.6013 30.9472 25.4389C31.1162 25.2765 31.2455 25.076 31.335 24.8374L32.7419 25.0909C32.6292 25.5052 32.427 25.8681 32.1354 26.1797C31.847 26.4879 31.4841 26.7282 31.0466 26.9006C30.6124 27.0696 30.1169 27.1541 29.5601 27.1541ZM36.568 27.169C36.0841 27.169 35.6466 27.0795 35.2555 26.9006C34.8644 26.7183 34.5545 26.4548 34.3258 26.1101C34.1004 25.7654 33.9877 25.3428 33.9877 24.8423C33.9877 24.4115 34.0706 24.0568 34.2363 23.7784C34.402 23.5 34.6258 23.2796 34.9075 23.1172C35.1892 22.9548 35.5041 22.8321 35.8521 22.7493C36.2001 22.6664 36.5547 22.6035 36.916 22.5604C37.3734 22.5073 37.7446 22.4643 38.0296 22.4311C38.3147 22.3946 38.5218 22.3366 38.6511 22.2571C38.7804 22.1776 38.845 22.0483 38.845 21.8693V21.8345C38.845 21.4003 38.7224 21.0639 38.4771 20.8253C38.2351 20.5866 37.8739 20.4673 37.3933 20.4673C36.8928 20.4673 36.4984 20.5784 36.21 20.8004C35.925 21.0192 35.7278 21.2628 35.6184 21.5312L34.2214 21.2131C34.3871 20.7491 34.6291 20.3745 34.9473 20.0895C35.2688 19.8011 35.6383 19.5923 36.0559 19.4631C36.4735 19.3305 36.9127 19.2642 37.3734 19.2642C37.6783 19.2642 38.0015 19.3007 38.3429 19.3736C38.6876 19.4432 39.009 19.5724 39.3073 19.7614C39.609 19.9503 39.8559 20.2204 40.0481 20.5717C40.2403 20.9197 40.3365 21.3722 40.3365 21.929V27H38.8848V25.956H38.8251C38.729 26.1482 38.5848 26.3371 38.3926 26.5227C38.2003 26.7083 37.9534 26.8625 37.6518 26.9851C37.3502 27.1077 36.9889 27.169 36.568 27.169ZM36.8912 25.9759C37.3021 25.9759 37.6535 25.8946 37.9451 25.7322C38.2401 25.5698 38.4638 25.3577 38.6163 25.0959C38.7721 24.8307 38.85 24.5473 38.85 24.2457V23.2614C38.7969 23.3144 38.6942 23.3641 38.5417 23.4105C38.3926 23.4536 38.2219 23.4917 38.0296 23.5249C37.8374 23.5547 37.6501 23.5829 37.4679 23.6094C37.2856 23.6326 37.1331 23.6525 37.0105 23.669C36.7221 23.7055 36.4586 23.7668 36.22 23.853C35.9847 23.9392 35.7957 24.0634 35.6532 24.2259C35.514 24.3849 35.4444 24.5971 35.4444 24.8622C35.4444 25.2301 35.5803 25.5085 35.8521 25.6974C36.1239 25.883 36.4702 25.9759 36.8912 25.9759ZM45.393 27.1541C44.6539 27.1541 44.0175 26.9867 43.4839 26.652C42.9536 26.3139 42.546 25.8482 42.2609 25.255C41.9759 24.6617 41.8334 23.9822 41.8334 23.2166C41.8334 22.4411 41.9792 21.7566 42.2709 21.1634C42.5625 20.5668 42.9735 20.1011 43.5038 19.7663C44.0341 19.4316 44.6589 19.2642 45.3781 19.2642C45.9581 19.2642 46.4752 19.3719 46.9292 19.5874C47.3833 19.7995 47.7496 20.0978 48.028 20.4822C48.3097 20.8667 48.4771 21.3158 48.5301 21.8295H47.0834C47.0038 21.4716 46.8215 21.1634 46.5365 20.9048C46.2548 20.6463 45.8769 20.517 45.403 20.517C44.9887 20.517 44.6257 20.6264 44.3142 20.8452C44.0059 21.0606 43.7657 21.3688 43.5933 21.7699C43.421 22.1676 43.3348 22.6383 43.3348 23.1818C43.3348 23.7386 43.4193 24.2192 43.5883 24.6236C43.7574 25.0279 43.996 25.3411 44.3042 25.5632C44.6158 25.7853 44.982 25.8963 45.403 25.8963C45.6847 25.8963 45.9399 25.8449 46.1686 25.7422C46.4006 25.6361 46.5945 25.4853 46.7503 25.2898C46.9094 25.0942 47.0204 24.8589 47.0834 24.5838H48.5301C48.4771 25.0777 48.3163 25.5185 48.0478 25.9062C47.7794 26.294 47.4198 26.599 46.969 26.821C46.5216 27.0431 45.9962 27.1541 45.393 27.1541ZM51.4663 22.4659V27H49.9798V16.8182H51.4464V20.6065H51.5408C51.7198 20.1955 51.9933 19.8691 52.3612 19.6271C52.729 19.3852 53.2096 19.2642 53.8029 19.2642C54.3266 19.2642 54.784 19.3719 55.1751 19.5874C55.5695 19.8028 55.8744 20.1243 56.0898 20.5518C56.3086 20.9761 56.418 21.5064 56.418 22.1428V27H54.9315V22.3217C54.9315 21.7616 54.7873 21.3274 54.4989 21.0192C54.2106 20.7076 53.8095 20.5518 53.2958 20.5518C52.9445 20.5518 52.6296 20.6264 52.3512 20.7756C52.0761 20.9247 51.859 21.1435 51.6999 21.4318C51.5442 21.7169 51.4663 22.0616 51.4663 22.4659ZM65.0433 27.1541C64.3274 27.1541 63.7027 26.9901 63.169 26.6619C62.6354 26.3338 62.2211 25.8748 61.9261 25.2848C61.6312 24.6948 61.4837 24.0054 61.4837 23.2166C61.4837 22.4245 61.6312 21.7318 61.9261 21.1385C62.2211 20.5452 62.6354 20.0845 63.169 19.7564C63.7027 19.4283 64.3274 19.2642 65.0433 19.2642C65.7592 19.2642 66.384 19.4283 66.9176 19.7564C67.4512 20.0845 67.8655 20.5452 68.1605 21.1385C68.4555 21.7318 68.603 22.4245 68.603 23.2166C68.603 24.0054 68.4555 24.6948 68.1605 25.2848C67.8655 25.8748 67.4512 26.3338 66.9176 26.6619C66.384 26.9901 65.7592 27.1541 65.0433 27.1541ZM65.0483 25.9062C65.5123 25.9062 65.8968 25.7836 66.2017 25.5384C66.5066 25.2931 66.732 24.9666 66.8778 24.5589C67.027 24.1513 67.1016 23.7022 67.1016 23.2116C67.1016 22.7244 67.027 22.277 66.8778 21.8693C66.732 21.4583 66.5066 21.1286 66.2017 20.88C65.8968 20.6314 65.5123 20.5071 65.0483 20.5071C64.581 20.5071 64.1932 20.6314 63.885 20.88C63.58 21.1286 63.353 21.4583 63.2038 21.8693C63.058 22.277 62.9851 22.7244 62.9851 23.2116C62.9851 23.7022 63.058 24.1513 63.2038 24.5589C63.353 24.9666 63.58 25.2931 63.885 25.5384C64.1932 25.7836 64.581 25.9062 65.0483 25.9062ZM74.9596 23.8331V19.3636H76.4511V27H74.9894V25.6776H74.9099C74.7342 26.0852 74.4525 26.425 74.0647 26.6967C73.6803 26.9652 73.2013 27.0994 72.6279 27.0994C72.1374 27.0994 71.7032 26.9917 71.3254 26.7763C70.9509 26.5575 70.6559 26.2344 70.4404 25.8068C70.2283 25.3793 70.1223 24.8506 70.1223 24.2209V19.3636H71.6088V24.0419C71.6088 24.5623 71.7529 24.9766 72.0413 25.2848C72.3296 25.593 72.7042 25.7472 73.1649 25.7472C73.4433 25.7472 73.72 25.6776 73.9951 25.5384C74.2735 25.3991 74.5039 25.1887 74.6862 24.907C74.8718 24.6252 74.9629 24.2673 74.9596 23.8331ZM81.8731 19.3636V20.5568H77.7019V19.3636H81.8731ZM78.8205 17.5341H80.307V24.7578C80.307 25.0462 80.3501 25.2633 80.4363 25.4091C80.5224 25.5516 80.6335 25.6494 80.7694 25.7024C80.9086 25.7521 81.0594 25.777 81.2218 25.777C81.3411 25.777 81.4455 25.7687 81.535 25.7521C81.6245 25.7356 81.6941 25.7223 81.7438 25.7124L82.0123 26.9403C81.9261 26.9735 81.8035 27.0066 81.6444 27.0398C81.4853 27.0762 81.2864 27.0961 81.0478 27.0994C80.6567 27.1061 80.2921 27.0365 79.954 26.8906C79.616 26.7448 79.3425 26.5194 79.1337 26.2145C78.9249 25.9096 78.8205 25.5268 78.8205 25.0661V17.5341Z" fill="#EEF2FF"/>
<path d="M97.3333 27.3334L102.667 22L97.3333 16.6667" stroke="white" stroke-width="1.5" stroke-linecap="round" stroke-linejoin="round"/>
</svg>
