<svg width="246" height="124" viewBox="0 0 246 124" fill="none" xmlns="http://www.w3.org/2000/svg">
<g filter="url(#filter0_di_28_1040)">
<rect x="40" y="30" width="166" height="44" rx="22" fill="url(#paint0_linear_28_1040)" shape-rendering="crispEdges"/>
<rect x="40.5" y="30.5" width="165" height="43" rx="21.5" stroke="url(#paint1_linear_28_1040)" shape-rendering="crispEdges"/>
<rect x="40.5" y="30.5" width="165" height="43" rx="21.5" stroke="white" stroke-opacity="0.2" shape-rendering="crispEdges"/>
<rect x="40.5" y="30.5" width="165" height="43" rx="21.5" stroke="url(#paint2_linear_28_1040)" stroke-opacity="0.3" shape-rendering="crispEdges"/>
<path d="M78.1401 50.0348C78.044 49.7332 77.9147 49.4631 77.7523 49.2244C77.5932 48.9825 77.4026 48.777 77.1806 48.608C76.9585 48.4356 76.705 48.3047 76.4199 48.2152C76.1382 48.1257 75.8283 48.081 75.4902 48.081C74.9168 48.081 74.3998 48.2285 73.9391 48.5234C73.4784 48.8184 73.1138 49.2509 72.8453 49.821C72.5802 50.3878 72.4476 51.0821 72.4476 51.9041C72.4476 52.7294 72.5819 53.4271 72.8503 53.9972C73.1188 54.5672 73.4867 54.9998 73.954 55.2947C74.4213 55.5897 74.9533 55.7372 75.5499 55.7372C76.1034 55.7372 76.5856 55.6245 76.9966 55.3991C77.4109 55.1738 77.7308 54.8556 77.9561 54.4446C78.1848 54.0303 78.2992 53.5431 78.2992 52.983L78.6969 53.0575H75.7836V51.7898H79.7857V52.9482C79.7857 53.8033 79.6034 54.5457 79.2388 55.1754C78.8775 55.8018 78.3771 56.2857 77.7374 56.6271C77.101 56.9685 76.3719 57.1392 75.5499 57.1392C74.6285 57.1392 73.8198 56.9271 73.1238 56.5028C72.431 56.0786 71.8908 55.477 71.503 54.6982C71.1152 53.916 70.9213 52.9879 70.9213 51.9141C70.9213 51.102 71.034 50.3729 71.2594 49.7266C71.4848 49.0803 71.8013 48.5317 72.209 48.081C72.62 47.6269 73.1022 47.2805 73.6557 47.0419C74.2125 46.8 74.8207 46.679 75.4803 46.679C76.0305 46.679 76.5426 46.7602 77.0165 46.9226C77.4938 47.085 77.918 47.3153 78.2892 47.6136C78.6638 47.9119 78.9737 48.2666 79.2189 48.6776C79.4642 49.0852 79.6299 49.5376 79.7161 50.0348H78.1401ZM84.9077 57.1541C84.1553 57.1541 83.5073 56.9934 82.9638 56.6719C82.4235 56.3471 82.0059 55.8913 81.7109 55.3047C81.4193 54.7147 81.2734 54.0237 81.2734 53.2315C81.2734 52.4493 81.4193 51.7599 81.7109 51.1634C82.0059 50.5668 82.4169 50.1011 82.9439 49.7663C83.4742 49.4316 84.094 49.2642 84.8033 49.2642C85.2341 49.2642 85.6518 49.3355 86.0561 49.478C86.4605 49.6205 86.8234 49.8442 87.1449 50.1491C87.4664 50.4541 87.7199 50.8501 87.9055 51.3374C88.0911 51.8213 88.1839 52.4096 88.1839 53.1023V53.6293H82.1136V52.5156H86.7273C86.7273 52.1245 86.6477 51.7782 86.4886 51.4766C86.3295 51.1716 86.1058 50.9313 85.8175 50.7557C85.5324 50.58 85.1977 50.4922 84.8132 50.4922C84.3956 50.4922 84.031 50.5949 83.7195 50.8004C83.4112 51.0026 83.1726 51.2678 83.0036 51.5959C82.8378 51.9207 82.755 52.2737 82.755 52.6548V53.5249C82.755 54.0353 82.8445 54.4695 83.0234 54.8274C83.2057 55.1854 83.4593 55.4588 83.7841 55.6477C84.1089 55.8333 84.4884 55.9261 84.9226 55.9261C85.2043 55.9261 85.4612 55.8864 85.6932 55.8068C85.9252 55.724 86.1257 55.6013 86.2947 55.4389C86.4638 55.2765 86.593 55.076 86.6825 54.8374L88.0895 55.0909C87.9768 55.5052 87.7746 55.8681 87.483 56.1797C87.1946 56.4879 86.8317 56.7282 86.3942 56.9006C85.96 57.0696 85.4645 57.1541 84.9077 57.1541ZM93.3979 49.3636V50.5568H89.2267V49.3636H93.3979ZM90.3453 47.5341H91.8319V54.7578C91.8319 55.0462 91.8749 55.2633 91.9611 55.4091C92.0473 55.5516 92.1583 55.6494 92.2942 55.7024C92.4334 55.7521 92.5842 55.777 92.7466 55.777C92.8659 55.777 92.9703 55.7687 93.0598 55.7521C93.1493 55.7356 93.2189 55.7223 93.2686 55.7124L93.5371 56.9403C93.4509 56.9735 93.3283 57.0066 93.1692 57.0398C93.0101 57.0762 92.8113 57.0961 92.5726 57.0994C92.1815 57.1061 91.8169 57.0365 91.4789 56.8906C91.1408 56.7448 90.8674 56.5194 90.6586 56.2145C90.4498 55.9096 90.3453 55.5268 90.3453 55.0661V47.5341ZM104.42 49.4929C104.367 49.0223 104.148 48.6577 103.764 48.3991C103.379 48.1373 102.895 48.0064 102.312 48.0064C101.894 48.0064 101.533 48.0727 101.228 48.2053C100.923 48.3345 100.686 48.5135 100.517 48.7422C100.352 48.9676 100.269 49.2244 100.269 49.5128C100.269 49.7547 100.325 49.9635 100.438 50.1392C100.554 50.3149 100.704 50.4624 100.89 50.5817C101.079 50.6977 101.281 50.7955 101.497 50.875C101.712 50.9512 101.919 51.0142 102.118 51.0639L103.112 51.3224C103.437 51.402 103.77 51.5097 104.112 51.6456C104.453 51.7815 104.77 51.9605 105.061 52.1825C105.353 52.4046 105.588 52.6797 105.767 53.0078C105.95 53.3359 106.041 53.7287 106.041 54.1861C106.041 54.7628 105.892 55.2749 105.593 55.7223C105.298 56.1697 104.869 56.5227 104.306 56.7812C103.745 57.0398 103.068 57.169 102.272 57.169C101.51 57.169 100.85 57.0481 100.294 56.8061C99.7367 56.5642 99.3008 56.2211 98.986 55.777C98.6711 55.3295 98.4971 54.7992 98.464 54.1861H100.005C100.035 54.554 100.154 54.8606 100.363 55.1058C100.575 55.3478 100.845 55.5284 101.173 55.6477C101.505 55.7637 101.868 55.8217 102.262 55.8217C102.696 55.8217 103.083 55.7538 103.421 55.6179C103.762 55.4787 104.03 55.2865 104.226 55.0412C104.422 54.7926 104.519 54.5026 104.519 54.1712C104.519 53.8696 104.433 53.6226 104.261 53.4304C104.092 53.2382 103.861 53.0791 103.57 52.9531C103.281 52.8272 102.955 52.7161 102.59 52.62L101.387 52.2919C100.572 52.0698 99.9256 51.7434 99.4483 51.3125C98.9744 50.8816 98.7374 50.3116 98.7374 49.6023C98.7374 49.0156 98.8965 48.5036 99.2147 48.0661C99.5328 47.6286 99.9637 47.2888 100.507 47.0469C101.051 46.8016 101.664 46.679 102.347 46.679C103.036 46.679 103.644 46.8 104.171 47.0419C104.702 47.2839 105.119 47.617 105.424 48.0412C105.729 48.4621 105.888 48.946 105.901 49.4929H104.42ZM111.322 49.3636V50.5568H107.151V49.3636H111.322ZM108.269 47.5341H109.756V54.7578C109.756 55.0462 109.799 55.2633 109.885 55.4091C109.971 55.5516 110.082 55.6494 110.218 55.7024C110.357 55.7521 110.508 55.777 110.67 55.777C110.79 55.777 110.894 55.7687 110.984 55.7521C111.073 55.7356 111.143 55.7223 111.192 55.7124L111.461 56.9403C111.375 56.9735 111.252 57.0066 111.093 57.0398C110.934 57.0762 110.735 57.0961 110.496 57.0994C110.105 57.1061 109.741 57.0365 109.403 56.8906C109.065 56.7448 108.791 56.5194 108.582 56.2145C108.374 55.9096 108.269 55.5268 108.269 55.0661V47.5341ZM115.188 57.169C114.704 57.169 114.267 57.0795 113.876 56.9006C113.485 56.7183 113.175 56.4548 112.946 56.1101C112.721 55.7654 112.608 55.3428 112.608 54.8423C112.608 54.4115 112.691 54.0568 112.857 53.7784C113.022 53.5 113.246 53.2796 113.528 53.1172C113.81 52.9548 114.124 52.8321 114.472 52.7493C114.82 52.6664 115.175 52.6035 115.536 52.5604C115.994 52.5073 116.365 52.4643 116.65 52.4311C116.935 52.3946 117.142 52.3366 117.271 52.2571C117.401 52.1776 117.465 52.0483 117.465 51.8693V51.8345C117.465 51.4003 117.343 51.0639 117.097 50.8253C116.856 50.5866 116.494 50.4673 116.014 50.4673C115.513 50.4673 115.119 50.5784 114.83 50.8004C114.545 51.0192 114.348 51.2628 114.239 51.5312L112.842 51.2131C113.008 50.7491 113.249 50.3745 113.568 50.0895C113.889 49.8011 114.259 49.5923 114.676 49.4631C115.094 49.3305 115.533 49.2642 115.994 49.2642C116.299 49.2642 116.622 49.3007 116.963 49.3736C117.308 49.4432 117.629 49.5724 117.928 49.7614C118.229 49.9503 118.476 50.2204 118.669 50.5717C118.861 50.9197 118.957 51.3722 118.957 51.929V57H117.505V55.956H117.445C117.349 56.1482 117.205 56.3371 117.013 56.5227C116.821 56.7083 116.574 56.8625 116.272 56.9851C115.971 57.1077 115.609 57.169 115.188 57.169ZM115.512 55.9759C115.923 55.9759 116.274 55.8946 116.566 55.7322C116.86 55.5698 117.084 55.3577 117.237 55.0959C117.392 54.8307 117.47 54.5473 117.47 54.2457V53.2614C117.417 53.3144 117.315 53.3641 117.162 53.4105C117.013 53.4536 116.842 53.4917 116.65 53.5249C116.458 53.5547 116.271 53.5829 116.088 53.6094C115.906 53.6326 115.753 53.6525 115.631 53.669C115.343 53.7055 115.079 53.7668 114.84 53.853C114.605 53.9392 114.416 54.0634 114.274 54.2259C114.134 54.3849 114.065 54.5971 114.065 54.8622C114.065 55.2301 114.201 55.5085 114.472 55.6974C114.744 55.883 115.091 55.9759 115.512 55.9759ZM120.937 57V49.3636H122.374V50.5767H122.453C122.592 50.1657 122.838 49.8426 123.189 49.6072C123.544 49.3686 123.945 49.2493 124.392 49.2493C124.485 49.2493 124.594 49.2526 124.72 49.2592C124.849 49.2659 124.951 49.2741 125.023 49.2841V50.706C124.964 50.6894 124.858 50.6712 124.705 50.6513C124.553 50.6281 124.4 50.6165 124.248 50.6165C123.897 50.6165 123.583 50.6911 123.308 50.8402C123.036 50.986 122.821 51.1899 122.662 51.4517C122.503 51.7102 122.423 52.0052 122.423 52.3366V57H120.937ZM130.326 49.3636V50.5568H126.154V49.3636H130.326ZM127.273 47.5341H128.76V54.7578C128.76 55.0462 128.803 55.2633 128.889 55.4091C128.975 55.5516 129.086 55.6494 129.222 55.7024C129.361 55.7521 129.512 55.777 129.674 55.777C129.794 55.777 129.898 55.7687 129.988 55.7521C130.077 55.7356 130.147 55.7223 130.196 55.7124L130.465 56.9403C130.379 56.9735 130.256 57.0066 130.097 57.0398C129.938 57.0762 129.739 57.0961 129.5 57.0994C129.109 57.1061 128.745 57.0365 128.407 56.8906C128.069 56.7448 127.795 56.5194 127.586 56.2145C127.377 55.9096 127.273 55.5268 127.273 55.0661V47.5341ZM135.179 57.1541C134.427 57.1541 133.779 56.9934 133.235 56.6719C132.695 56.3471 132.277 55.8913 131.982 55.3047C131.691 54.7147 131.545 54.0237 131.545 53.2315C131.545 52.4493 131.691 51.7599 131.982 51.1634C132.277 50.5668 132.688 50.1011 133.215 49.7663C133.746 49.4316 134.365 49.2642 135.075 49.2642C135.506 49.2642 135.923 49.3355 136.328 49.478C136.732 49.6205 137.095 49.8442 137.416 50.1491C137.738 50.4541 137.991 50.8501 138.177 51.3374C138.363 51.8213 138.455 52.4096 138.455 53.1023V53.6293H132.385V52.5156H136.999C136.999 52.1245 136.919 51.7782 136.76 51.4766C136.601 51.1716 136.377 50.9313 136.089 50.7557C135.804 50.58 135.469 50.4922 135.085 50.4922C134.667 50.4922 134.302 50.5949 133.991 50.8004C133.683 51.0026 133.444 51.2678 133.275 51.5959C133.109 51.9207 133.026 52.2737 133.026 52.6548V53.5249C133.026 54.0353 133.116 54.4695 133.295 54.8274C133.477 55.1854 133.731 55.4588 134.056 55.6477C134.38 55.8333 134.76 55.9261 135.194 55.9261C135.476 55.9261 135.733 55.8864 135.965 55.8068C136.197 55.724 136.397 55.6013 136.566 55.4389C136.735 55.2765 136.865 55.076 136.954 54.8374L138.361 55.0909C138.248 55.5052 138.046 55.8681 137.754 56.1797C137.466 56.4879 137.103 56.7282 136.666 56.9006C136.231 57.0696 135.736 57.1541 135.179 57.1541ZM142.963 57.1491C142.347 57.1491 141.797 56.9917 141.313 56.6768C140.832 56.3587 140.454 55.9062 140.179 55.3196C139.908 54.7296 139.772 54.022 139.772 53.1967C139.772 52.3714 139.909 51.6655 140.184 51.0788C140.463 50.4922 140.844 50.0431 141.328 49.7315C141.812 49.42 142.36 49.2642 142.973 49.2642C143.447 49.2642 143.828 49.3438 144.117 49.5028C144.408 49.6586 144.634 49.8409 144.793 50.0497C144.955 50.2585 145.081 50.4425 145.171 50.6016H145.26V46.8182H146.747V57H145.295V55.8118H145.171C145.081 55.9742 144.952 56.1598 144.783 56.3686C144.617 56.5774 144.389 56.7597 144.097 56.9155C143.805 57.0713 143.427 57.1491 142.963 57.1491ZM143.292 55.8814C143.719 55.8814 144.08 55.7687 144.375 55.5433C144.674 55.3146 144.899 54.9981 145.051 54.5938C145.207 54.1894 145.285 53.7187 145.285 53.1818C145.285 52.6515 145.209 52.1875 145.056 51.7898C144.904 51.392 144.68 51.0821 144.385 50.8601C144.09 50.638 143.726 50.527 143.292 50.527C142.844 50.527 142.471 50.643 142.173 50.875C141.875 51.107 141.649 51.4235 141.497 51.8246C141.348 52.2256 141.273 52.678 141.273 53.1818C141.273 53.6922 141.349 54.1513 141.502 54.5589C141.654 54.9666 141.88 55.2898 142.178 55.5284C142.48 55.7637 142.851 55.8814 143.292 55.8814Z" fill="white"/>
<path d="M165.333 57.3334L170.667 52L165.333 46.6667" stroke="white" stroke-width="1.5" stroke-linecap="round" stroke-linejoin="round"/>
</g>
<defs>
<filter id="filter0_di_28_1040" x="0" y="0" width="246" height="124" filterUnits="userSpaceOnUse" color-interpolation-filters="sRGB">
<feFlood flood-opacity="0" result="BackgroundImageFix"/>
<feColorMatrix in="SourceAlpha" type="matrix" values="0 0 0 0 0 0 0 0 0 0 0 0 0 0 0 0 0 0 127 0" result="hardAlpha"/>
<feOffset dy="10"/>
<feGaussianBlur stdDeviation="20"/>
<feComposite in2="hardAlpha" operator="out"/>
<feColorMatrix type="matrix" values="0 0 0 0 0.247992 0 0 0 0 0.291839 0 0 0 0 0.686458 0 0 0 0.5 0"/>
<feBlend mode="normal" in2="BackgroundImageFix" result="effect1_dropShadow_28_1040"/>
<feBlend mode="normal" in="SourceGraphic" in2="effect1_dropShadow_28_1040" result="shape"/>
<feColorMatrix in="SourceAlpha" type="matrix" values="0 0 0 0 0 0 0 0 0 0 0 0 0 0 0 0 0 0 127 0" result="hardAlpha"/>
<feOffset dy="10"/>
<feGaussianBlur stdDeviation="15"/>
<feComposite in2="hardAlpha" operator="arithmetic" k2="-1" k3="1"/>
<feColorMatrix type="matrix" values="0 0 0 0 0.28571 0 0 0 0 0.480516 0 0 0 0 1 0 0 0 0.7 0"/>
<feBlend mode="normal" in2="shape" result="effect2_innerShadow_28_1040"/>
</filter>
<linearGradient id="paint0_linear_28_1040" x1="123" y1="12" x2="123" y2="88.5" gradientUnits="userSpaceOnUse">
<stop stop-opacity="0"/>
<stop offset="1" stop-color="#402788"/>
</linearGradient>
<linearGradient id="paint1_linear_28_1040" x1="123" y1="30" x2="123" y2="74" gradientUnits="userSpaceOnUse">
<stop offset="0.171875" stop-color="#2737CF" stop-opacity="0.4"/>
<stop offset="1" stop-color="#6562FB" stop-opacity="0.77"/>
</linearGradient>
<linearGradient id="paint2_linear_28_1040" x1="123" y1="27.9375" x2="123" y2="74" gradientUnits="userSpaceOnUse">
<stop stop-color="#2737CF" stop-opacity="0"/>
<stop offset="1" stop-color="#BDFCFE"/>
</linearGradient>
</defs>
</svg>
