<svg width="307" height="438" viewBox="0 0 307 438" fill="none" xmlns="http://www.w3.org/2000/svg">
<path d="M302.493 350.662L301.61 350.193L302.493 350.662ZM302.493 350.662L301.61 350.193L264.142 420.721L265.025 421.19L265.908 421.659L303.376 351.131L302.493 350.662ZM238.531 437.115V436.115H31V437.115V438.115H238.531V437.115ZM1 407.115H2V30.5H1H0V407.115H1ZM31 0.5V1.5H276V0.5V-0.5H31V0.5ZM306 30.5H305V336.587H306H307V30.5H306ZM276 0.5V1.5C292.016 1.5 305 14.4837 305 30.5H306H307C307 13.3792 293.121 -0.5 276 -0.5V0.5ZM1 30.5H2C2 14.4837 14.9837 1.5 31 1.5V0.5V-0.5C13.8792 -0.5 0 13.3792 0 30.5H1ZM31 437.115V436.115C14.9837 436.115 2 423.131 2 407.115H1H0C0 424.236 13.8792 438.115 31 438.115V437.115ZM265.025 421.19L264.142 420.721C259.109 430.194 249.258 436.115 238.531 436.115V437.115V438.115C249.998 438.115 260.528 431.786 265.908 421.659L265.025 421.19ZM302.493 350.662L303.376 351.131C305.756 346.653 307 341.659 307 336.587H306H305C305 341.332 303.836 346.003 301.61 350.193L302.493 350.662Z" fill="url(#paint0_linear_24105_1816)"/>
<path opacity="0.996" d="M68.3542 165.561L130.55 129.781C133 128.366 136.602 128.505 138.811 129.781L200.865 165.561C201.548 165.949 202.117 166.512 202.512 167.191C202.908 167.87 203.116 168.642 203.116 169.428C203.116 170.214 202.908 170.986 202.512 171.665C202.117 172.345 201.548 172.907 200.865 173.295L136.861 210.068C136.178 210.468 135.4 210.679 134.609 210.679C133.818 210.679 133.04 210.468 132.357 210.068L68.3542 173.296C65.2153 171.667 65.2153 167.325 68.3542 165.561Z" fill="url(#paint1_radial_24105_1816)" stroke="#1F8885" stroke-opacity="0.49"/>
<mask id="mask0_24105_1816" style="mask-type:luminance" maskUnits="userSpaceOnUse" x="66" y="128" width="138" height="83">
<path d="M68.3542 165.561L130.55 129.781C133 128.366 136.602 128.505 138.811 129.781L200.865 165.561C201.548 165.949 202.117 166.512 202.512 167.191C202.908 167.87 203.116 168.642 203.116 169.428C203.116 170.214 202.908 170.986 202.512 171.665C202.117 172.345 201.548 172.907 200.865 173.295L136.861 210.068C136.178 210.468 135.4 210.679 134.609 210.679C133.818 210.679 133.04 210.468 132.357 210.068L68.3542 173.296C65.2153 171.667 65.2153 167.325 68.3542 165.561Z" fill="white"/>
</mask>
<g mask="url(#mask0_24105_1816)">
<path d="M68.3542 172.713L130.55 136.933C133 135.518 136.602 135.657 138.811 136.933L200.865 172.713C201.548 173.101 202.117 173.663 202.512 174.343C202.908 175.022 203.116 175.794 203.116 176.58C203.116 177.366 202.908 178.138 202.512 178.817C202.117 179.497 201.548 180.059 200.865 180.447L136.861 217.22C136.178 217.62 135.4 217.831 134.609 217.831C133.818 217.831 133.04 217.62 132.357 217.22L68.3542 180.447C65.2153 178.819 65.2153 174.477 68.3542 172.713Z" fill="url(#paint2_linear_24105_1816)"/>
</g>
<path opacity="0.996" d="M78.16 166.122L131.103 135.665C133.19 134.461 136.255 134.579 138.136 135.665L190.957 166.122C191.539 166.452 192.023 166.931 192.359 167.509C192.696 168.088 192.874 168.745 192.874 169.414C192.874 170.083 192.696 170.74 192.359 171.319C192.023 171.897 191.539 172.376 190.957 172.706L136.475 204.008C135.894 204.348 135.232 204.528 134.558 204.528C133.885 204.528 133.223 204.348 132.642 204.008L78.16 172.706C75.4882 171.32 75.4882 167.624 78.16 166.122Z" fill="url(#paint3_radial_24105_1816)" stroke="#1F8885" stroke-opacity="0.49"/>
<mask id="mask1_24105_1816" style="mask-type:luminance" maskUnits="userSpaceOnUse" x="76" y="134" width="117" height="71">
<path d="M78.16 166.122L131.103 135.665C133.19 134.461 136.255 134.579 138.136 135.665L190.957 166.122C191.539 166.452 192.023 166.931 192.359 167.509C192.696 168.088 192.874 168.745 192.874 169.414C192.874 170.083 192.696 170.74 192.359 171.319C192.023 171.897 191.539 172.376 190.957 172.706L136.475 204.008C135.894 204.348 135.232 204.528 134.558 204.528C133.885 204.528 133.223 204.348 132.642 204.008L78.16 172.706C75.4882 171.32 75.4882 167.624 78.16 166.122Z" fill="white"/>
</mask>
<g mask="url(#mask1_24105_1816)">
<path d="M78.1601 160.481L131.103 130.023C133.19 128.819 136.255 128.938 138.136 130.023L190.957 160.481C191.539 160.811 192.023 161.29 192.36 161.868C192.696 162.446 192.874 163.103 192.874 163.772C192.874 164.442 192.696 165.099 192.36 165.677C192.023 166.255 191.539 166.734 190.957 167.064L136.475 198.366C135.894 198.707 135.232 198.886 134.558 198.886C133.885 198.886 133.223 198.707 132.642 198.366L78.1601 167.064C75.4883 165.678 75.4883 161.982 78.1601 160.481Z" fill="#2B3E5B"/>
</g>
<path opacity="0.769" d="M149.656 81.2748L201.869 110.543C204.712 112.44 204.537 112.74 204.698 115.47L204.838 158.542C204.838 160.567 203.157 162.807 201.171 161.779L148.178 131.689C146.13 130.479 145.875 129.514 145.875 127.488V84.0287C146.12 79.4093 149.656 81.2748 149.656 81.2748Z" fill="url(#paint4_linear_24105_1816)"/>
<path opacity="0.459" d="M152.676 79.8724L204.889 109.141C207.733 111.038 207.557 111.338 207.718 114.067L207.858 157.139C207.858 159.165 206.177 161.405 204.191 160.377L151.198 130.287C149.151 129.077 148.895 128.111 148.895 126.086V82.6263C149.14 78.0069 152.676 79.8724 152.676 79.8724Z" fill="url(#paint5_linear_24105_1816)"/>
<path d="M94.8169 163.605L132.246 142.073C133.72 141.222 135.888 141.306 137.217 142.073L174.56 163.605C174.972 163.839 175.314 164.177 175.552 164.586C175.79 164.995 175.915 165.46 175.915 165.933C175.915 166.406 175.79 166.87 175.552 167.279C175.314 167.688 174.972 168.026 174.56 168.26L136.044 190.39C135.633 190.63 135.165 190.757 134.689 190.757C134.212 190.757 133.745 190.63 133.334 190.39L94.8169 168.26C92.9281 167.28 92.9281 164.667 94.8169 163.605Z" fill="url(#paint6_linear_24105_1816)"/>
<path d="M101.387 163.52L132.48 145.633C133.705 144.925 135.505 144.995 136.61 145.633L167.631 163.52C167.973 163.714 168.257 163.995 168.455 164.334C168.653 164.674 168.757 165.06 168.757 165.453C168.757 165.846 168.653 166.232 168.455 166.572C168.257 166.912 167.973 167.193 167.631 167.387L135.634 185.77C135.293 185.969 134.904 186.075 134.509 186.075C134.113 186.075 133.724 185.969 133.383 185.77L101.387 167.386C99.8177 166.572 99.8177 164.402 101.387 163.52Z" fill="url(#paint7_linear_24105_1816)"/>
<path d="M101.387 141.205L132.48 123.318C133.705 122.61 135.505 122.68 136.61 123.318L167.631 141.205C167.973 141.399 168.257 141.68 168.455 142.019C168.653 142.359 168.757 142.745 168.757 143.138C168.757 143.531 168.653 143.917 168.455 144.257C168.257 144.597 167.973 144.878 167.631 145.072L135.634 163.455C135.293 163.654 134.904 163.76 134.509 163.76C134.113 163.76 133.724 163.654 133.383 163.455L101.387 145.071C99.8177 144.257 99.8177 142.087 101.387 141.205Z" fill="url(#paint8_linear_24105_1816)"/>
<path d="M104.034 140.955L132.639 124.498C133.766 123.848 135.423 123.912 136.439 124.498L164.979 140.954C165.293 141.133 165.555 141.391 165.737 141.704C165.919 142.016 166.015 142.371 166.015 142.733C166.015 143.094 165.919 143.45 165.737 143.762C165.555 144.074 165.293 144.333 164.979 144.511L135.542 161.425C135.228 161.609 134.871 161.706 134.507 161.706C134.143 161.706 133.785 161.609 133.471 161.425L104.034 144.512C102.59 143.763 102.59 141.766 104.034 140.955Z" fill="url(#paint9_linear_24105_1816)"/>
<path d="M105.052 140.389L132.701 124.483C133.791 123.854 135.392 123.916 136.374 124.483L163.96 140.389C164.264 140.562 164.516 140.812 164.692 141.114C164.868 141.416 164.961 141.759 164.961 142.108C164.961 142.458 164.868 142.801 164.692 143.103C164.516 143.405 164.264 143.655 163.96 143.827L135.507 160.175C135.203 160.352 134.858 160.446 134.506 160.446C134.154 160.446 133.809 160.352 133.505 160.175L105.052 143.828C103.657 143.104 103.657 141.173 105.052 140.389Z" fill="url(#paint10_linear_24105_1816)"/>
<path d="M101.387 121.322L132.479 103.434C133.704 102.727 135.505 102.797 136.609 103.434L167.631 121.322C167.973 121.516 168.257 121.797 168.455 122.136C168.653 122.476 168.757 122.862 168.757 123.255C168.757 123.648 168.653 124.034 168.455 124.374C168.257 124.714 167.973 124.995 167.631 125.189L135.908 143.571C135.634 143.875 133.939 143.978 133.256 143.571L101.387 125.41C99.8175 124.596 99.8175 122.203 101.387 121.322Z" fill="url(#paint11_linear_24105_1816)"/>
<path d="M100.21 143C100.074 141.48 100.21 165.699 100.21 165.699C100.21 165.699 100.096 166.718 101.68 167.6C103.263 168.482 131.167 184.504 132.095 184.981C133.022 185.458 134.075 186.888 136.769 185.115C139.462 183.341 167.422 167.6 167.422 167.6C167.422 167.6 168.869 166.828 168.982 165.699C169.094 164.571 168.787 143 168.787 143C168.516 143.824 167.969 144.53 167.238 144.997C166.032 145.743 136.53 162.559 136.53 162.559C136.53 162.559 134.856 164.166 132.27 162.559C129.684 160.951 101.68 144.997 101.68 144.997C101.275 144.831 100.924 144.557 100.665 144.205C100.405 143.853 100.248 143.436 100.21 143Z" fill="url(#paint12_linear_24105_1816)"/>
<path d="M100.21 143C100.074 141.48 100.21 165.699 100.21 165.699C100.21 165.699 100.096 166.718 101.68 167.6C103.263 168.482 131.167 184.504 132.095 184.981C133.022 185.458 134.075 186.888 136.769 185.115C139.462 183.341 167.422 167.6 167.422 167.6C167.422 167.6 168.869 166.828 168.982 165.699C169.094 164.571 168.787 143 168.787 143C168.516 143.824 167.969 144.53 167.238 144.997C166.032 145.743 136.53 162.559 136.53 162.559C136.53 162.559 134.856 164.166 132.27 162.559C129.684 160.951 101.68 144.997 101.68 144.997C101.275 144.831 100.924 144.557 100.665 144.205C100.405 143.853 100.248 143.436 100.21 143Z" fill="url(#paint13_linear_24105_1816)"/>
<path d="M100.21 123.403C100.074 121.883 100.21 137.662 100.21 137.662C100.21 137.662 100.096 138.681 101.68 139.563C103.263 140.444 131.167 156.467 132.095 156.944C133.023 157.421 134.075 158.851 136.769 157.078C139.462 155.304 167.423 139.562 167.423 139.562C167.423 139.562 168.869 138.791 168.982 137.662C169.095 136.534 168.787 123.403 168.787 123.403C168.517 124.227 167.969 124.932 167.238 125.399C166.033 126.146 136.53 142.961 136.53 142.961C136.53 142.961 134.857 144.569 132.27 142.961C129.684 141.354 101.68 125.399 101.68 125.399C101.276 125.233 100.924 124.96 100.665 124.607C100.406 124.255 100.248 123.839 100.21 123.403Z" fill="url(#paint14_linear_24105_1816)"/>
<g filter="url(#filter0_d_24105_1816)">
<g opacity="0.322">
<path d="M134.574 132.313C142.485 132.313 148.898 128.077 148.898 122.852C148.898 117.627 142.485 113.392 134.574 113.392C126.663 113.392 120.25 117.627 120.25 122.852C120.25 128.077 126.663 132.313 134.574 132.313Z" stroke="#3F3C58" stroke-width="10"/>
</g>
</g>
<g filter="url(#filter1_d_24105_1816)">
<g opacity="0.322">
<path d="M134.718 129.367C140.764 129.367 145.666 126.258 145.666 122.423C145.666 118.588 140.764 115.479 134.718 115.479C128.671 115.479 123.769 118.588 123.769 122.423C123.769 126.258 128.671 129.367 134.718 129.367Z" stroke="#3F3C58" stroke-width="3"/>
</g>
</g>
<path opacity="0.697" d="M203.896 111.987C203.472 111.529 206.5 110.333 206.5 110.333C206.5 110.333 207.654 110.832 207.701 112.62C207.749 114.408 207.828 156.556 207.828 156.556C207.828 156.556 208.159 158.58 206.699 160.032C205.239 161.483 202.419 162.128 202.419 162.128C202.419 162.128 203.438 161.813 204.052 160.977C204.665 160.141 204.875 158.784 204.875 158.784L204.68 114.138C204.68 114.138 204.318 112.445 203.896 111.987Z" fill="url(#paint15_linear_24105_1816)"/>
<g filter="url(#filter2_d_24105_1816)">
<path opacity="0.085" d="M129.226 140.817C129.267 140.859 133.05 143.5 134.751 143.404C135.443 143.366 168.577 125.031 168.613 123.368C168.65 121.705 166.094 120.631 166.094 120.631L136.886 103.921C136.886 103.921 134.757 102.319 132.153 103.921C124.026 108.594 105.611 119.074 102.457 120.877C98.4039 123.194 101.896 125.201 101.896 125.201C101.896 125.201 129.166 140.757 129.226 140.817Z" stroke="#1ABFB4" stroke-width="4" stroke-linecap="round"/>
</g>
<path opacity="0.848" d="M147.933 80.9023C147.327 81.0502 150.517 79.6322 150.517 79.6322C150.517 79.6322 151.297 79.2231 152.884 80.0481C154.471 80.8731 192.683 102.26 192.683 102.26L189.993 103.949L150.517 81.7239C150.517 81.7239 148.539 80.7545 147.933 80.9023Z" fill="url(#paint16_linear_24105_1816)"/>
<path d="M131.619 106.593L134.397 105.015C134.504 104.997 134.614 104.997 134.721 105.015L137.458 106.593C137.488 106.61 137.513 106.635 137.53 106.665C137.548 106.695 137.557 106.729 137.557 106.764C137.557 106.798 137.548 106.832 137.53 106.862C137.513 106.892 137.488 106.917 137.458 106.934L134.637 108.554C134.607 108.572 134.573 108.581 134.538 108.581C134.503 108.581 134.469 108.572 134.439 108.554L131.619 106.934C131.588 106.918 131.562 106.893 131.543 106.863C131.525 106.833 131.515 106.799 131.515 106.764C131.515 106.728 131.525 106.694 131.543 106.664C131.562 106.634 131.588 106.609 131.619 106.593Z" fill="url(#paint17_linear_24105_1816)"/>
<path d="M131.619 106.593L134.359 105.017C134.416 104.987 134.478 104.972 134.541 104.972C134.605 104.972 134.667 104.987 134.723 105.017L137.458 106.593C137.488 106.61 137.513 106.635 137.53 106.665C137.548 106.695 137.557 106.729 137.557 106.764C137.557 106.798 137.548 106.832 137.53 106.862C137.513 106.892 137.488 106.917 137.458 106.934L134.637 108.554C134.607 108.572 134.573 108.581 134.538 108.581C134.503 108.581 134.469 108.572 134.439 108.554L131.619 106.934C131.588 106.918 131.562 106.893 131.543 106.863C131.525 106.833 131.515 106.799 131.515 106.764C131.515 106.728 131.525 106.694 131.543 106.664C131.562 106.634 131.588 106.609 131.619 106.593Z" fill="url(#paint18_linear_24105_1816)"/>
<path opacity="0.399" d="M137.553 106.79C137.558 106.888 137.43 106.95 137.43 106.95C137.43 106.95 136.959 107.22 136.404 107.54C135.711 107.939 134.883 108.415 134.745 108.495C134.683 108.537 134.611 108.56 134.536 108.56C134.462 108.56 134.389 108.537 134.328 108.495L131.579 106.906C131.579 106.906 131.519 106.881 131.517 106.773" stroke="white" stroke-linecap="round" stroke-linejoin="round"/>
<path d="M132.373 106.641L134.46 105.478C134.482 105.465 134.507 105.458 134.533 105.458C134.559 105.458 134.584 105.465 134.607 105.478L136.693 106.641C136.715 106.654 136.734 106.672 136.747 106.694C136.76 106.716 136.767 106.741 136.767 106.767C136.767 106.793 136.76 106.818 136.747 106.84C136.734 106.862 136.715 106.881 136.693 106.893L134.607 108.092C134.584 108.105 134.559 108.112 134.533 108.112C134.507 108.112 134.482 108.105 134.46 108.092L132.373 106.893C132.35 106.881 132.331 106.863 132.317 106.841C132.304 106.819 132.297 106.793 132.297 106.767C132.297 106.741 132.304 106.715 132.317 106.693C132.331 106.671 132.35 106.653 132.373 106.641Z" fill="url(#paint19_linear_24105_1816)"/>
<path d="M133.329 106.644L134.479 105.991C134.523 105.983 134.568 105.983 134.613 105.991L135.745 106.644C135.757 106.651 135.767 106.662 135.775 106.674C135.782 106.686 135.786 106.701 135.786 106.715C135.786 106.729 135.782 106.743 135.775 106.756C135.767 106.768 135.757 106.778 135.745 106.785L134.578 107.455C134.566 107.462 134.551 107.466 134.537 107.466C134.523 107.466 134.508 107.462 134.496 107.455L133.329 106.785C133.316 106.778 133.306 106.768 133.298 106.756C133.291 106.743 133.287 106.729 133.287 106.715C133.287 106.7 133.291 106.686 133.298 106.674C133.306 106.661 133.316 106.651 133.329 106.644Z" fill="url(#paint20_linear_24105_1816)"/>
<path d="M133.329 106.644L134.463 105.992C134.486 105.979 134.512 105.973 134.538 105.973C134.565 105.973 134.59 105.979 134.614 105.992L135.745 106.644C135.757 106.651 135.767 106.661 135.775 106.674C135.782 106.686 135.786 106.7 135.786 106.714C135.786 106.729 135.782 106.743 135.775 106.755C135.767 106.768 135.757 106.778 135.745 106.785L134.578 107.455C134.566 107.462 134.551 107.466 134.537 107.466C134.523 107.466 134.508 107.462 134.496 107.455L133.329 106.785C133.316 106.778 133.306 106.768 133.298 106.756C133.29 106.743 133.286 106.729 133.286 106.714C133.286 106.7 133.29 106.685 133.298 106.673C133.306 106.661 133.316 106.65 133.329 106.644Z" fill="url(#paint21_linear_24105_1816)"/>
<path opacity="0.399" d="M135.784 106.726C135.785 106.766 135.733 106.792 135.733 106.792C135.733 106.792 135.538 106.903 135.308 107.036C135.021 107.201 134.679 107.397 134.622 107.431C134.597 107.448 134.566 107.458 134.535 107.458C134.504 107.458 134.474 107.448 134.449 107.431L133.312 106.773C133.312 106.773 133.287 106.763 133.287 106.718" stroke="white" stroke-linecap="round" stroke-linejoin="round"/>
<path d="M133.641 106.664L134.505 106.183C134.514 106.177 134.524 106.174 134.535 106.174C134.546 106.174 134.556 106.177 134.566 106.183L135.429 106.664C135.438 106.669 135.446 106.677 135.451 106.686C135.457 106.695 135.459 106.705 135.459 106.716C135.459 106.726 135.457 106.737 135.451 106.746C135.446 106.755 135.438 106.763 135.429 106.768L134.566 107.264C134.556 107.269 134.546 107.272 134.535 107.272C134.524 107.272 134.514 107.269 134.505 107.264L133.641 106.768C133.631 106.763 133.623 106.756 133.618 106.746C133.612 106.737 133.609 106.727 133.609 106.716C133.609 106.705 133.612 106.695 133.618 106.685C133.623 106.676 133.631 106.669 133.641 106.664Z" fill="url(#paint22_linear_24105_1816)"/>
<path d="M134.574 125.713C137.655 125.713 140.153 123.983 140.153 121.85C140.153 119.717 137.655 117.988 134.574 117.988C131.493 117.988 128.996 119.717 128.996 121.85C128.996 123.983 131.493 125.713 134.574 125.713Z" fill="url(#paint23_linear_24105_1816)"/>
<path d="M134.574 125.643C137.617 125.643 140.084 123.945 140.084 121.851C140.084 119.756 137.617 118.058 134.574 118.058C131.532 118.058 129.065 119.756 129.065 121.851C129.065 123.945 131.532 125.643 134.574 125.643Z" stroke="#3F3C58"/>
<path d="M129.091 122.912C128.82 122.979 129.296 80.4805 129.296 80.4805C129.296 80.4805 140.043 86.9044 140.043 89.9729V122.553C140.043 122.553 134.307 117.651 129.091 122.912Z" fill="url(#paint24_linear_24105_1816)"/>
<g opacity="0.206">
<path d="M134.402 108.826C134.306 108.894 134.234 108.989 134.194 109.1C134.154 109.211 134.148 109.331 134.179 109.444C134.209 109.558 134.273 109.659 134.363 109.735C134.453 109.811 134.564 109.858 134.681 109.869C134.798 109.88 134.915 109.855 135.018 109.797C135.12 109.74 135.203 109.652 135.254 109.546C135.305 109.44 135.322 109.321 135.304 109.205C135.285 109.089 135.232 108.981 135.15 108.897C135.145 108.888 135.139 108.881 135.131 108.875C135.06 108.825 135.002 108.76 134.96 108.685C134.918 108.609 134.894 108.525 134.889 108.439C134.889 108.275 134.928 108.19 135.131 107.994L135.127 107.988C135.212 107.909 135.271 107.806 135.296 107.693C135.322 107.58 135.313 107.462 135.27 107.354C135.228 107.246 135.153 107.154 135.057 107.089C134.961 107.024 134.848 106.99 134.732 106.99C134.616 106.991 134.503 107.026 134.408 107.092C134.312 107.158 134.239 107.251 134.198 107.36C134.156 107.468 134.148 107.586 134.175 107.699C134.202 107.812 134.262 107.914 134.348 107.992L134.346 107.995C134.548 108.19 134.588 108.276 134.588 108.44C134.584 108.513 134.566 108.585 134.534 108.652C134.502 108.718 134.457 108.777 134.402 108.826Z" fill="white"/>
<path d="M136.738 111.604C136.738 111.508 136.714 111.414 136.669 111.33C136.623 111.245 136.557 111.174 136.477 111.121C136.396 111.069 136.304 111.037 136.208 111.03C136.113 111.022 136.017 111.038 135.929 111.077C135.841 111.116 135.765 111.176 135.706 111.252C135.647 111.328 135.609 111.417 135.593 111.512C135.578 111.606 135.586 111.703 135.618 111.794C135.649 111.884 135.703 111.966 135.774 112.03L135.772 112.032C135.975 112.227 136.014 112.313 136.014 112.477C136.011 112.551 135.993 112.624 135.961 112.69C135.929 112.757 135.884 112.816 135.829 112.864C135.733 112.932 135.66 113.028 135.62 113.139C135.58 113.249 135.575 113.369 135.605 113.483C135.635 113.596 135.7 113.698 135.789 113.774C135.879 113.85 135.99 113.897 136.107 113.908C136.224 113.919 136.342 113.894 136.444 113.836C136.546 113.779 136.629 113.691 136.68 113.585C136.731 113.479 136.749 113.36 136.73 113.244C136.712 113.128 136.658 113.02 136.577 112.936C136.572 112.927 136.565 112.92 136.557 112.914C136.487 112.864 136.428 112.799 136.386 112.724C136.344 112.648 136.32 112.564 136.315 112.478C136.315 112.314 136.354 112.229 136.557 112.033L136.553 112.026C136.612 111.973 136.658 111.907 136.69 111.835C136.722 111.762 136.739 111.684 136.738 111.604Z" fill="white"/>
<path d="M132.975 112.863C132.879 112.931 132.806 113.026 132.766 113.137C132.726 113.247 132.721 113.368 132.751 113.481C132.782 113.595 132.846 113.696 132.936 113.772C133.026 113.848 133.136 113.895 133.253 113.906C133.37 113.917 133.488 113.892 133.59 113.834C133.693 113.777 133.775 113.689 133.826 113.583C133.877 113.477 133.895 113.358 133.877 113.242C133.858 113.126 133.805 113.019 133.723 112.934C133.718 112.925 133.711 112.918 133.704 112.912C133.633 112.862 133.575 112.797 133.533 112.722C133.491 112.646 133.466 112.562 133.462 112.476C133.462 112.312 133.501 112.227 133.704 112.031L133.699 112.025C133.784 111.946 133.843 111.843 133.869 111.73C133.895 111.617 133.886 111.499 133.843 111.391C133.8 111.283 133.726 111.191 133.63 111.126C133.534 111.061 133.42 111.027 133.305 111.027C133.189 111.028 133.076 111.064 132.98 111.129C132.885 111.195 132.812 111.289 132.77 111.397C132.729 111.505 132.721 111.623 132.748 111.736C132.774 111.849 132.835 111.951 132.92 112.029L132.918 112.032C133.121 112.227 133.16 112.313 133.16 112.477C133.157 112.551 133.139 112.623 133.107 112.689C133.076 112.755 133.03 112.814 132.975 112.863Z" fill="white"/>
<path d="M138.223 112.55C138.223 112.454 138.199 112.36 138.154 112.275C138.108 112.191 138.042 112.119 137.962 112.067C137.881 112.015 137.789 111.983 137.694 111.976C137.598 111.968 137.502 111.984 137.414 112.023C137.326 112.062 137.25 112.122 137.191 112.198C137.132 112.273 137.094 112.363 137.078 112.457C137.063 112.552 137.071 112.649 137.103 112.74C137.135 112.83 137.188 112.912 137.259 112.976L137.257 112.979C137.46 113.174 137.499 113.26 137.499 113.424C137.496 113.498 137.478 113.57 137.446 113.637C137.414 113.703 137.369 113.763 137.314 113.811C137.218 113.879 137.145 113.975 137.105 114.085C137.065 114.196 137.06 114.316 137.09 114.43C137.12 114.543 137.185 114.645 137.274 114.721C137.364 114.797 137.475 114.843 137.592 114.855C137.709 114.866 137.827 114.841 137.929 114.783C138.031 114.725 138.114 114.638 138.165 114.532C138.216 114.426 138.234 114.307 138.215 114.191C138.197 114.075 138.143 113.967 138.062 113.882C138.057 113.874 138.05 113.867 138.042 113.861C137.972 113.811 137.913 113.746 137.871 113.67C137.829 113.595 137.805 113.511 137.8 113.424C137.8 113.261 137.839 113.175 138.042 112.979L138.038 112.973C138.096 112.919 138.143 112.854 138.175 112.781C138.207 112.708 138.223 112.63 138.223 112.55Z" fill="white"/>
<path d="M139.527 113.051C139.457 113.002 139.398 112.936 139.357 112.861C139.315 112.785 139.291 112.701 139.286 112.615C139.286 112.451 139.325 112.366 139.527 112.17L139.523 112.164C139.608 112.085 139.667 111.982 139.693 111.869C139.719 111.756 139.71 111.638 139.667 111.53C139.624 111.422 139.55 111.33 139.454 111.265C139.358 111.2 139.244 111.166 139.129 111.167C139.013 111.167 138.9 111.203 138.804 111.269C138.709 111.335 138.636 111.428 138.594 111.536C138.553 111.644 138.545 111.762 138.572 111.875C138.598 111.988 138.659 112.09 138.744 112.168L138.742 112.171C138.945 112.366 138.984 112.452 138.984 112.616C138.981 112.69 138.963 112.762 138.932 112.829C138.9 112.895 138.855 112.955 138.799 113.003C138.703 113.071 138.63 113.167 138.59 113.277C138.55 113.388 138.545 113.508 138.576 113.622C138.606 113.735 138.67 113.837 138.76 113.913C138.85 113.989 138.961 114.035 139.078 114.046C139.195 114.057 139.312 114.032 139.415 113.975C139.517 113.917 139.599 113.829 139.65 113.724C139.702 113.618 139.719 113.499 139.701 113.383C139.682 113.267 139.629 113.159 139.547 113.074C139.543 113.065 139.536 113.057 139.527 113.051Z" fill="white"/>
<path d="M130.863 111.72C130.863 111.625 130.839 111.53 130.794 111.446C130.748 111.361 130.682 111.29 130.602 111.237C130.521 111.185 130.429 111.154 130.333 111.146C130.238 111.138 130.142 111.154 130.054 111.193C129.966 111.232 129.89 111.292 129.831 111.368C129.772 111.444 129.734 111.533 129.718 111.628C129.703 111.723 129.711 111.82 129.743 111.91C129.774 112.001 129.828 112.082 129.899 112.146L129.897 112.15C130.1 112.344 130.139 112.431 130.139 112.595C130.136 112.668 130.118 112.741 130.086 112.807C130.054 112.874 130.009 112.933 129.954 112.982C129.858 113.05 129.786 113.146 129.746 113.256C129.706 113.367 129.702 113.487 129.732 113.6C129.763 113.714 129.827 113.815 129.917 113.891C130.007 113.966 130.118 114.012 130.235 114.023C130.352 114.034 130.469 114.009 130.571 113.951C130.673 113.893 130.756 113.806 130.807 113.7C130.857 113.594 130.875 113.475 130.856 113.359C130.838 113.243 130.784 113.136 130.703 113.051C130.698 113.043 130.691 113.035 130.683 113.03C130.613 112.98 130.554 112.915 130.512 112.839C130.47 112.764 130.446 112.68 130.441 112.593C130.441 112.43 130.48 112.344 130.683 112.148L130.679 112.142C130.737 112.088 130.784 112.023 130.815 111.951C130.847 111.878 130.863 111.8 130.863 111.72Z" fill="white"/>
<path d="M134.402 113.809C134.306 113.877 134.234 113.972 134.194 114.083C134.154 114.193 134.148 114.313 134.179 114.427C134.209 114.541 134.273 114.642 134.363 114.718C134.453 114.794 134.564 114.841 134.681 114.852C134.798 114.863 134.915 114.838 135.018 114.78C135.12 114.723 135.203 114.635 135.254 114.529C135.305 114.423 135.322 114.304 135.304 114.188C135.285 114.072 135.232 113.965 135.151 113.88C135.146 113.871 135.139 113.864 135.131 113.858C135.06 113.808 135.002 113.743 134.96 113.668C134.918 113.592 134.894 113.508 134.889 113.422C134.887 113.353 134.9 113.285 134.928 113.222C134.956 113.159 134.997 113.103 135.05 113.059C135.13 113.006 135.196 112.935 135.242 112.85C135.287 112.766 135.311 112.672 135.311 112.576V112.548C135.311 112.446 135.284 112.346 135.233 112.258C135.182 112.17 135.108 112.097 135.019 112.047C134.938 111.957 134.892 111.84 134.889 111.719C134.889 111.555 134.928 111.47 135.131 111.274L135.127 111.268C135.212 111.189 135.271 111.086 135.297 110.973C135.322 110.86 135.313 110.742 135.27 110.634C135.228 110.526 135.154 110.434 135.058 110.369C134.962 110.304 134.848 110.27 134.732 110.271C134.616 110.271 134.503 110.307 134.408 110.373C134.313 110.439 134.239 110.532 134.198 110.64C134.156 110.748 134.148 110.866 134.175 110.979C134.202 111.092 134.262 111.194 134.348 111.272L134.346 111.275C134.549 111.47 134.588 111.556 134.588 111.72C134.585 111.839 134.54 111.953 134.463 112.042C134.371 112.092 134.294 112.165 134.241 112.255C134.187 112.344 134.159 112.446 134.159 112.551V112.577C134.159 112.676 134.185 112.774 134.233 112.86C134.282 112.946 134.351 113.019 134.436 113.07C134.486 113.114 134.525 113.169 134.552 113.23C134.578 113.291 134.59 113.357 134.587 113.423C134.584 113.497 134.566 113.569 134.534 113.635C134.502 113.701 134.457 113.76 134.402 113.809Z" fill="white"/>
<path d="M136.155 110.459C136.476 110.459 136.737 110.198 136.737 109.876C136.737 109.555 136.476 109.294 136.155 109.294C135.833 109.294 135.572 109.555 135.572 109.876C135.572 110.198 135.833 110.459 136.155 110.459Z" fill="white"/>
<path d="M133.314 110.459C133.636 110.459 133.897 110.198 133.897 109.876C133.897 109.555 133.636 109.294 133.314 109.294C132.993 109.294 132.732 109.555 132.732 109.876C132.732 110.198 132.993 110.459 133.314 110.459Z" fill="white"/>
<path d="M132.133 113.81C132.078 113.761 132.033 113.702 132.001 113.635C131.97 113.569 131.952 113.496 131.949 113.423C131.949 113.259 131.988 113.174 132.191 112.978L132.187 112.971C132.272 112.893 132.331 112.79 132.356 112.677C132.382 112.564 132.373 112.446 132.33 112.338C132.288 112.23 132.213 112.138 132.117 112.073C132.021 112.008 131.908 111.974 131.792 111.974C131.676 111.975 131.563 112.01 131.468 112.076C131.372 112.142 131.299 112.235 131.258 112.344C131.216 112.452 131.208 112.57 131.235 112.683C131.262 112.796 131.322 112.898 131.408 112.976L131.406 112.979C131.609 113.173 131.648 113.26 131.648 113.424C131.645 113.498 131.627 113.57 131.595 113.636C131.563 113.703 131.518 113.762 131.462 113.811C131.387 113.864 131.326 113.934 131.283 114.016C131.241 114.098 131.219 114.189 131.219 114.281V114.289C131.219 114.389 131.245 114.488 131.294 114.575C131.343 114.662 131.414 114.735 131.5 114.787C131.586 114.838 131.683 114.867 131.783 114.87C131.884 114.873 131.983 114.85 132.071 114.804C132.16 114.757 132.235 114.689 132.29 114.605C132.344 114.521 132.376 114.424 132.382 114.324C132.388 114.224 132.369 114.124 132.325 114.034C132.282 113.944 132.216 113.867 132.133 113.81H132.133Z" fill="white"/>
<path d="M133.314 115.642C133.636 115.642 133.897 115.382 133.897 115.06C133.897 114.738 133.636 114.478 133.314 114.478C132.993 114.478 132.732 114.738 132.732 115.06C132.732 115.382 132.993 115.642 133.314 115.642Z" fill="white"/>
<path d="M136.162 115.642C136.484 115.642 136.745 115.382 136.745 115.06C136.745 114.738 136.484 114.478 136.162 114.478C135.84 114.478 135.58 114.738 135.58 115.06C135.58 115.382 135.84 115.642 136.162 115.642Z" fill="white"/>
</g>
<g opacity="0.206">
<path d="M134.402 109.112C134.306 109.18 134.234 109.276 134.194 109.386C134.154 109.497 134.148 109.617 134.179 109.73C134.209 109.844 134.273 109.946 134.363 110.021C134.453 110.097 134.564 110.144 134.681 110.155C134.798 110.166 134.915 110.141 135.018 110.084C135.12 110.026 135.203 109.938 135.254 109.832C135.305 109.726 135.322 109.607 135.304 109.491C135.285 109.375 135.232 109.268 135.15 109.183C135.145 109.174 135.139 109.167 135.131 109.161C135.06 109.112 135.002 109.046 134.96 108.971C134.918 108.895 134.894 108.811 134.889 108.725C134.889 108.561 134.928 108.476 135.131 108.28L135.127 108.274C135.212 108.195 135.271 108.092 135.296 107.979C135.322 107.866 135.313 107.748 135.27 107.64C135.228 107.532 135.153 107.44 135.057 107.375C134.961 107.31 134.848 107.276 134.732 107.276C134.616 107.277 134.503 107.313 134.408 107.379C134.312 107.444 134.239 107.538 134.198 107.646C134.156 107.754 134.148 107.872 134.175 107.985C134.202 108.098 134.262 108.2 134.348 108.278L134.346 108.281C134.548 108.476 134.588 108.562 134.588 108.726C134.584 108.8 134.566 108.872 134.534 108.938C134.502 109.004 134.457 109.063 134.402 109.112Z" fill="white"/>
<path d="M136.738 111.89C136.738 111.794 136.714 111.7 136.669 111.616C136.623 111.531 136.557 111.46 136.477 111.407C136.396 111.355 136.304 111.324 136.208 111.316C136.113 111.308 136.017 111.324 135.929 111.363C135.841 111.402 135.765 111.462 135.706 111.538C135.647 111.614 135.609 111.703 135.593 111.798C135.578 111.892 135.586 111.989 135.618 112.08C135.649 112.171 135.703 112.252 135.774 112.316L135.772 112.319C135.975 112.513 136.014 112.599 136.014 112.764C136.011 112.837 135.993 112.91 135.961 112.976C135.929 113.043 135.884 113.102 135.829 113.151C135.733 113.219 135.66 113.314 135.62 113.425C135.58 113.535 135.575 113.655 135.605 113.769C135.635 113.883 135.7 113.984 135.789 114.06C135.879 114.136 135.99 114.183 136.107 114.194C136.224 114.205 136.342 114.18 136.444 114.122C136.546 114.065 136.629 113.977 136.68 113.871C136.731 113.765 136.749 113.646 136.73 113.53C136.712 113.414 136.658 113.306 136.577 113.222C136.572 113.213 136.565 113.206 136.557 113.2C136.487 113.15 136.428 113.085 136.386 113.01C136.344 112.934 136.32 112.85 136.315 112.764C136.315 112.6 136.354 112.515 136.557 112.319L136.553 112.312C136.612 112.259 136.658 112.194 136.69 112.121C136.722 112.048 136.739 111.97 136.738 111.89Z" fill="white"/>
<path d="M132.975 113.149C132.879 113.217 132.806 113.313 132.766 113.424C132.726 113.534 132.721 113.654 132.751 113.768C132.782 113.881 132.846 113.983 132.936 114.059C133.026 114.135 133.136 114.182 133.253 114.193C133.37 114.204 133.488 114.179 133.59 114.121C133.693 114.063 133.775 113.976 133.826 113.87C133.877 113.764 133.895 113.645 133.877 113.529C133.858 113.413 133.805 113.305 133.723 113.22C133.718 113.212 133.711 113.205 133.704 113.199C133.633 113.149 133.575 113.084 133.533 113.008C133.491 112.933 133.466 112.849 133.462 112.763C133.462 112.599 133.501 112.514 133.704 112.317L133.699 112.311C133.784 112.232 133.843 112.13 133.869 112.017C133.895 111.904 133.886 111.785 133.843 111.678C133.8 111.57 133.726 111.478 133.63 111.413C133.534 111.348 133.42 111.313 133.305 111.314C133.189 111.315 133.076 111.35 132.98 111.416C132.885 111.482 132.812 111.575 132.77 111.683C132.729 111.792 132.721 111.91 132.748 112.023C132.774 112.135 132.835 112.237 132.92 112.315L132.918 112.319C133.121 112.513 133.16 112.6 133.16 112.764C133.157 112.837 133.139 112.909 133.107 112.976C133.076 113.042 133.03 113.101 132.975 113.149Z" fill="white"/>
<path d="M138.223 112.836C138.223 112.74 138.199 112.646 138.154 112.561C138.108 112.477 138.042 112.406 137.962 112.353C137.881 112.301 137.789 112.269 137.694 112.262C137.598 112.254 137.502 112.27 137.414 112.309C137.326 112.348 137.25 112.408 137.191 112.484C137.132 112.56 137.094 112.649 137.078 112.744C137.063 112.838 137.071 112.935 137.103 113.026C137.135 113.116 137.188 113.198 137.259 113.262L137.257 113.265C137.46 113.46 137.499 113.546 137.499 113.71C137.496 113.784 137.478 113.856 137.446 113.923C137.414 113.99 137.369 114.049 137.314 114.097C137.218 114.165 137.145 114.261 137.105 114.372C137.065 114.482 137.06 114.602 137.09 114.716C137.12 114.829 137.185 114.931 137.274 115.007C137.364 115.083 137.475 115.13 137.592 115.141C137.709 115.152 137.827 115.127 137.929 115.069C138.031 115.011 138.114 114.924 138.165 114.818C138.216 114.712 138.234 114.593 138.215 114.477C138.197 114.361 138.143 114.253 138.062 114.168C138.057 114.16 138.05 114.153 138.042 114.147C137.972 114.097 137.913 114.032 137.871 113.956C137.829 113.881 137.805 113.797 137.8 113.711C137.8 113.547 137.839 113.461 138.042 113.265L138.038 113.259C138.096 113.205 138.143 113.14 138.175 113.067C138.207 112.994 138.223 112.916 138.223 112.836Z" fill="white"/>
<path d="M139.527 113.338C139.457 113.288 139.398 113.223 139.357 113.147C139.315 113.072 139.291 112.987 139.286 112.901C139.286 112.738 139.325 112.652 139.527 112.456L139.523 112.45C139.608 112.371 139.667 112.268 139.693 112.155C139.719 112.042 139.71 111.924 139.667 111.816C139.624 111.709 139.55 111.616 139.454 111.551C139.358 111.486 139.244 111.452 139.129 111.453C139.013 111.453 138.9 111.489 138.804 111.555C138.709 111.621 138.636 111.714 138.594 111.822C138.553 111.93 138.545 112.049 138.572 112.161C138.598 112.274 138.659 112.376 138.744 112.454L138.742 112.457C138.945 112.652 138.984 112.738 138.984 112.902C138.981 112.976 138.963 113.048 138.932 113.115C138.9 113.181 138.855 113.241 138.799 113.289C138.703 113.357 138.63 113.453 138.59 113.563C138.55 113.674 138.545 113.794 138.576 113.908C138.606 114.021 138.67 114.123 138.76 114.199C138.85 114.275 138.961 114.321 139.078 114.332C139.195 114.344 139.312 114.319 139.415 114.261C139.517 114.203 139.599 114.116 139.65 114.01C139.702 113.904 139.719 113.785 139.701 113.669C139.682 113.553 139.629 113.445 139.547 113.36C139.543 113.351 139.536 113.343 139.527 113.338Z" fill="white"/>
<path d="M130.863 112.007C130.863 111.911 130.839 111.816 130.794 111.732C130.748 111.648 130.682 111.576 130.602 111.524C130.521 111.471 130.429 111.44 130.333 111.432C130.238 111.424 130.142 111.441 130.054 111.479C129.966 111.518 129.89 111.578 129.831 111.654C129.772 111.73 129.734 111.819 129.718 111.914C129.703 112.009 129.711 112.106 129.743 112.196C129.774 112.287 129.828 112.368 129.899 112.433L129.897 112.436C130.1 112.63 130.139 112.717 130.139 112.881C130.136 112.955 130.118 113.027 130.086 113.093C130.054 113.16 130.009 113.219 129.954 113.268C129.858 113.336 129.786 113.432 129.746 113.542C129.706 113.653 129.702 113.773 129.732 113.886C129.763 114 129.827 114.101 129.917 114.177C130.007 114.252 130.118 114.299 130.235 114.309C130.352 114.32 130.469 114.295 130.571 114.237C130.673 114.18 130.756 114.092 130.807 113.986C130.857 113.88 130.875 113.761 130.856 113.645C130.838 113.529 130.784 113.422 130.703 113.337C130.698 113.329 130.691 113.322 130.683 113.316C130.613 113.266 130.554 113.201 130.512 113.125C130.47 113.05 130.446 112.966 130.441 112.879C130.441 112.716 130.48 112.63 130.683 112.434L130.679 112.428C130.737 112.374 130.784 112.309 130.815 112.237C130.847 112.164 130.863 112.086 130.863 112.007Z" fill="white"/>
<path d="M134.402 114.095C134.306 114.163 134.234 114.258 134.194 114.369C134.154 114.479 134.148 114.6 134.179 114.713C134.209 114.827 134.273 114.928 134.363 115.004C134.453 115.08 134.564 115.127 134.681 115.138C134.798 115.149 134.915 115.124 135.018 115.067C135.12 115.009 135.203 114.921 135.254 114.815C135.305 114.709 135.322 114.591 135.304 114.474C135.285 114.358 135.232 114.251 135.151 114.166C135.146 114.157 135.139 114.15 135.131 114.144C135.06 114.095 135.002 114.029 134.96 113.954C134.918 113.878 134.894 113.794 134.889 113.708C134.887 113.639 134.9 113.571 134.928 113.508C134.956 113.445 134.997 113.389 135.05 113.345C135.13 113.292 135.196 113.221 135.242 113.137C135.287 113.052 135.311 112.958 135.311 112.862V112.834C135.311 112.732 135.284 112.632 135.233 112.544C135.182 112.456 135.108 112.384 135.019 112.333C134.938 112.243 134.892 112.127 134.889 112.005C134.889 111.842 134.928 111.756 135.131 111.56L135.127 111.554C135.212 111.475 135.271 111.372 135.297 111.259C135.322 111.146 135.313 111.028 135.27 110.92C135.228 110.813 135.154 110.72 135.058 110.655C134.962 110.59 134.848 110.556 134.732 110.557C134.616 110.557 134.503 110.593 134.408 110.659C134.313 110.725 134.239 110.818 134.198 110.926C134.156 111.034 134.148 111.153 134.175 111.265C134.202 111.378 134.262 111.48 134.348 111.558L134.346 111.561C134.549 111.756 134.588 111.842 134.588 112.006C134.585 112.125 134.54 112.239 134.463 112.328C134.371 112.378 134.294 112.451 134.241 112.541C134.187 112.63 134.159 112.733 134.159 112.837V112.864C134.159 112.963 134.185 113.06 134.233 113.146C134.282 113.233 134.351 113.305 134.436 113.357C134.486 113.4 134.525 113.455 134.552 113.516C134.578 113.577 134.59 113.643 134.587 113.71C134.584 113.783 134.566 113.855 134.534 113.921C134.502 113.987 134.457 114.046 134.402 114.095Z" fill="white"/>
<path d="M136.155 110.745C136.476 110.745 136.737 110.484 136.737 110.162C136.737 109.841 136.476 109.58 136.155 109.58C135.833 109.58 135.572 109.841 135.572 110.162C135.572 110.484 135.833 110.745 136.155 110.745Z" fill="white"/>
<path d="M133.314 110.745C133.636 110.745 133.897 110.484 133.897 110.162C133.897 109.841 133.636 109.58 133.314 109.58C132.993 109.58 132.732 109.841 132.732 110.162C132.732 110.484 132.993 110.745 133.314 110.745Z" fill="white"/>
<path d="M132.133 114.096C132.078 114.048 132.033 113.988 132.001 113.922C131.97 113.855 131.952 113.783 131.949 113.709C131.949 113.546 131.988 113.46 132.191 113.264L132.187 113.258C132.272 113.179 132.331 113.076 132.356 112.963C132.382 112.85 132.373 112.732 132.33 112.624C132.288 112.517 132.213 112.424 132.117 112.359C132.021 112.295 131.908 112.26 131.792 112.261C131.676 112.261 131.563 112.297 131.468 112.363C131.372 112.429 131.299 112.522 131.258 112.63C131.216 112.738 131.208 112.857 131.235 112.969C131.262 113.082 131.322 113.184 131.408 113.262L131.406 113.265C131.609 113.46 131.648 113.546 131.648 113.71C131.645 113.784 131.627 113.856 131.595 113.923C131.563 113.99 131.518 114.049 131.462 114.097C131.387 114.151 131.326 114.221 131.283 114.303C131.241 114.385 131.219 114.476 131.219 114.568V114.576C131.219 114.676 131.245 114.774 131.294 114.861C131.343 114.949 131.414 115.022 131.5 115.073C131.586 115.125 131.683 115.154 131.783 115.157C131.884 115.16 131.983 115.137 132.071 115.09C132.16 115.044 132.235 114.975 132.29 114.891C132.344 114.807 132.376 114.711 132.382 114.611C132.388 114.511 132.369 114.411 132.325 114.321C132.282 114.231 132.216 114.153 132.133 114.096H132.133Z" fill="white"/>
<path d="M133.314 115.929C133.636 115.929 133.897 115.668 133.897 115.346C133.897 115.024 133.636 114.764 133.314 114.764C132.993 114.764 132.732 115.024 132.732 115.346C132.732 115.668 132.993 115.929 133.314 115.929Z" fill="white"/>
<path d="M136.162 115.929C136.484 115.929 136.745 115.668 136.745 115.346C136.745 115.024 136.484 114.764 136.162 114.764C135.84 114.764 135.58 115.024 135.58 115.346C135.58 115.668 135.84 115.929 136.162 115.929Z" fill="white"/>
</g>
<path opacity="0.488" d="M83.4434 190.85L112.652 173.88L119.152 177.622L90.8047 195.064L83.4434 190.85Z" fill="url(#paint25_linear_24105_1816)"/>
<path d="M112.605 170.718L119.261 174.501V177.648L112.605 173.865V170.718Z" fill="#23D29E"/>
<path d="M112.605 166.426L119.261 170.21V173.356L112.605 169.573V166.426Z" fill="#23D29E"/>
<path d="M112.605 161.992L119.261 165.776V168.922L112.605 165.139V161.992Z" fill="#23D29E"/>
<path d="M112.605 157.558L119.261 161.341V164.488L112.605 160.705V157.558Z" fill="#23D29E"/>
<path opacity="0.772" d="M112.605 170.718L119.261 174.501V177.648L112.605 173.865V170.718Z" fill="url(#paint26_linear_24105_1816)"/>
<path opacity="0.772" d="M112.605 166.426L119.261 170.21V173.356L112.605 169.573V166.426Z" fill="url(#paint27_linear_24105_1816)"/>
<path opacity="0.772" d="M112.605 161.992L119.261 165.776V168.922L112.605 165.139V161.992Z" fill="url(#paint28_linear_24105_1816)"/>
<path opacity="0.772" d="M112.605 157.558L119.261 161.341V164.488L112.605 160.705V157.558Z" fill="url(#paint29_linear_24105_1816)"/>
<path opacity="0.488" d="M83.4434 190.85L112.652 173.88L119.152 177.622L90.8047 195.064L83.4434 190.85Z" fill="url(#paint30_linear_24105_1816)"/>
<g filter="url(#filter3_d_24105_1816)">
<path opacity="0.086" d="M128.766 140.246C128.806 140.287 132.728 143.056 134.429 142.96C135.12 142.922 135.707 142.842 136.886 142.205C139.766 140.647 142.603 138.956 143.986 138.224C144.792 138.507 144.743 138.477 144.743 138.477V148.112C144.743 148.112 160.647 138.856 154.099 142.439C147.548 146.021 160.873 139.049 160.873 139.049L161.141 128.946L160.383 128.668L166.566 125.002C166.566 125.002 168.531 124.105 168.576 122.926C168.62 121.747 165.993 120.422 165.993 120.422L136.886 103.491C136.886 103.491 134.757 101.89 132.153 103.491C124.026 108.165 105.611 118.645 102.457 120.448C98.4039 122.765 101.896 124.772 101.896 124.772C101.896 124.772 128.706 140.186 128.766 140.246Z" stroke="#48FFF1" stroke-linecap="round"/>
</g>
<path d="M116.895 127.442L124.184 131.703L118.816 134.804L111.527 130.543L116.895 127.442Z" fill="url(#paint31_linear_24105_1816)"/>
<path d="M119.821 134.804H118.815V147.535L119.821 146.876V134.804Z" fill="url(#paint32_linear_24105_1816)"/>
<path d="M124.183 132.926V131.704L118.815 134.804V136.027L124.183 132.926Z" fill="url(#paint33_linear_24105_1816)"/>
<path d="M111.527 130.542L118.815 134.804V147.535L111.527 143.273V130.542Z" fill="url(#paint34_linear_24105_1816)"/>
<path d="M157.868 130.542L150.579 134.804V147.535L157.868 143.274L157.868 130.542Z" fill="url(#paint35_linear_24105_1816)"/>
<path d="M152.499 127.442L145.211 131.703L150.579 134.804L157.868 130.542L152.499 127.442Z" fill="url(#paint36_linear_24105_1816)"/>
<path d="M149.573 134.804H150.579V147.535L149.573 146.876V134.804Z" fill="url(#paint37_linear_24105_1816)"/>
<path d="M145.211 132.926V131.704L150.579 134.804V136.027L145.211 132.926Z" fill="url(#paint38_linear_24105_1816)"/>
<path d="M149.795 108.703L157.084 112.965L151.716 116.065L144.427 111.804L149.795 108.703Z" fill="url(#paint39_linear_24105_1816)"/>
<path d="M144.496 113.043V111.82L151.795 115.973V117.196L144.496 113.043Z" fill="url(#paint40_linear_24105_1816)"/>
<path d="M151.791 117.191V115.968L157.083 112.959V115.83L155.776 115.102L151.791 117.191Z" fill="url(#paint41_linear_24105_1816)"/>
<path d="M118.884 108.703L111.595 112.965L116.964 116.065L124.252 111.804L118.884 108.703Z" fill="url(#paint42_linear_24105_1816)"/>
<path d="M124.183 113.043V111.82L116.883 115.973V117.196L124.183 113.043Z" fill="url(#paint43_linear_24105_1816)"/>
<path d="M116.888 117.191V115.968L111.596 112.959V116.204L113.226 115.175L116.888 117.191Z" fill="url(#paint44_linear_24105_1816)"/>
<path opacity="0.21" d="M116.693 113.282L120.448 111.253L121.936 112.183L118.18 114.212L116.693 113.282Z" fill="url(#paint45_linear_24105_1816)"/>
<path opacity="0.21" d="M148.162 131.019L151.918 128.99L153.406 129.92L149.65 131.949L148.162 131.019Z" fill="url(#paint46_linear_24105_1816)"/>
<path opacity="0.21" d="M121.877 131.159L117.824 128.922L116.369 129.903L120.422 132.14L121.877 131.159Z" fill="url(#paint47_linear_24105_1816)"/>
<path opacity="0.21" d="M152.345 113.565L148.292 111.328L146.838 112.309L150.89 114.546L152.345 113.565Z" fill="url(#paint48_linear_24105_1816)"/>
<path d="M131.619 139.494L134.397 137.916C134.504 137.897 134.614 137.897 134.721 137.916L137.458 139.494C137.488 139.511 137.513 139.535 137.53 139.565C137.548 139.595 137.557 139.629 137.557 139.664C137.557 139.699 137.548 139.733 137.53 139.763C137.513 139.792 137.488 139.817 137.458 139.834L134.637 141.455C134.607 141.472 134.573 141.482 134.538 141.482C134.503 141.482 134.469 141.472 134.439 141.455L131.619 139.834C131.588 139.818 131.562 139.794 131.543 139.764C131.525 139.734 131.515 139.699 131.515 139.664C131.515 139.629 131.525 139.594 131.543 139.564C131.562 139.534 131.588 139.51 131.619 139.494Z" fill="url(#paint49_linear_24105_1816)"/>
<path d="M131.619 139.493L134.359 137.917C134.416 137.887 134.478 137.872 134.541 137.872C134.605 137.872 134.667 137.887 134.723 137.917L137.458 139.493C137.488 139.51 137.513 139.535 137.53 139.565C137.548 139.595 137.557 139.629 137.557 139.664C137.557 139.698 137.548 139.732 137.53 139.762C137.513 139.792 137.488 139.817 137.458 139.834L134.637 141.454C134.607 141.472 134.573 141.481 134.538 141.481C134.503 141.481 134.469 141.472 134.439 141.454L131.619 139.834C131.588 139.818 131.562 139.793 131.543 139.763C131.525 139.733 131.515 139.699 131.515 139.664C131.515 139.628 131.525 139.594 131.543 139.564C131.562 139.534 131.588 139.509 131.619 139.493Z" fill="url(#paint50_linear_24105_1816)"/>
<path opacity="0.399" d="M137.553 139.69C137.558 139.788 137.43 139.85 137.43 139.85C137.43 139.85 136.959 140.12 136.404 140.44C135.711 140.839 134.883 141.315 134.745 141.395C134.683 141.437 134.611 141.459 134.536 141.459C134.462 141.459 134.389 141.437 134.328 141.395L131.579 139.806C131.579 139.806 131.519 139.781 131.517 139.673" stroke="white" stroke-linecap="round" stroke-linejoin="round"/>
<path d="M132.373 139.541L134.46 138.378C134.482 138.365 134.507 138.358 134.533 138.358C134.559 138.358 134.584 138.365 134.607 138.378L136.693 139.541C136.715 139.554 136.734 139.572 136.747 139.594C136.76 139.617 136.767 139.642 136.767 139.667C136.767 139.693 136.76 139.718 136.747 139.74C136.734 139.763 136.715 139.781 136.693 139.794L134.607 140.993C134.584 141.006 134.559 141.013 134.533 141.013C134.507 141.013 134.482 141.006 134.46 140.993L132.373 139.794C132.35 139.782 132.331 139.763 132.317 139.741C132.304 139.719 132.297 139.693 132.297 139.667C132.297 139.641 132.304 139.616 132.317 139.594C132.331 139.571 132.35 139.553 132.373 139.541Z" fill="url(#paint51_linear_24105_1816)"/>
<path d="M102.724 122.757L105.502 121.179C105.609 121.161 105.719 121.161 105.826 121.179L108.563 122.757C108.593 122.774 108.618 122.799 108.635 122.829C108.653 122.859 108.662 122.893 108.662 122.928C108.662 122.962 108.653 122.996 108.635 123.026C108.618 123.056 108.593 123.081 108.563 123.098L105.742 124.718C105.712 124.736 105.678 124.745 105.643 124.745C105.608 124.745 105.574 124.736 105.544 124.718L102.724 123.098C102.693 123.082 102.667 123.057 102.648 123.027C102.63 122.997 102.62 122.963 102.62 122.928C102.62 122.892 102.63 122.858 102.648 122.828C102.667 122.798 102.693 122.773 102.724 122.757Z" fill="url(#paint52_linear_24105_1816)"/>
<path d="M102.724 122.757L105.464 121.181C105.52 121.151 105.583 121.136 105.646 121.136C105.71 121.136 105.772 121.151 105.828 121.181L108.563 122.757C108.593 122.774 108.618 122.799 108.635 122.829C108.653 122.859 108.662 122.893 108.662 122.928C108.662 122.962 108.653 122.996 108.635 123.026C108.618 123.056 108.593 123.081 108.563 123.098L105.742 124.718C105.712 124.736 105.678 124.745 105.643 124.745C105.608 124.745 105.574 124.736 105.544 124.718L102.724 123.098C102.693 123.082 102.667 123.057 102.648 123.027C102.63 122.997 102.62 122.963 102.62 122.928C102.62 122.893 102.63 122.858 102.648 122.828C102.667 122.798 102.693 122.773 102.724 122.757Z" fill="url(#paint53_linear_24105_1816)"/>
<path opacity="0.399" d="M108.659 122.955C108.663 123.052 108.535 123.114 108.535 123.114C108.535 123.114 108.064 123.385 107.509 123.704C106.816 124.103 105.988 124.579 105.85 124.659C105.789 124.701 105.716 124.724 105.641 124.724C105.567 124.724 105.494 124.701 105.433 124.659L102.684 123.07C102.684 123.07 102.624 123.045 102.622 122.937" stroke="white" stroke-linecap="round" stroke-linejoin="round"/>
<path d="M103.478 122.805L105.565 121.642C105.587 121.629 105.612 121.622 105.638 121.622C105.664 121.622 105.689 121.629 105.712 121.642L107.798 122.805C107.82 122.818 107.839 122.836 107.852 122.858C107.865 122.88 107.872 122.905 107.872 122.931C107.872 122.957 107.865 122.982 107.852 123.004C107.839 123.026 107.82 123.045 107.798 123.057L105.712 124.256C105.689 124.269 105.664 124.276 105.638 124.276C105.612 124.276 105.587 124.269 105.565 124.256L103.478 123.057C103.455 123.045 103.436 123.027 103.422 123.005C103.409 122.983 103.401 122.957 103.401 122.931C103.401 122.905 103.409 122.88 103.422 122.857C103.436 122.835 103.455 122.817 103.478 122.805Z" fill="url(#paint54_linear_24105_1816)"/>
<path d="M160.371 122.757L163.149 121.179C163.256 121.161 163.366 121.161 163.473 121.179L166.21 122.757C166.24 122.774 166.265 122.799 166.282 122.829C166.3 122.859 166.309 122.893 166.309 122.928C166.309 122.962 166.3 122.996 166.282 123.026C166.265 123.056 166.24 123.081 166.21 123.098L163.39 124.718C163.359 124.736 163.325 124.745 163.29 124.745C163.255 124.745 163.221 124.736 163.191 124.718L160.371 123.098C160.34 123.082 160.314 123.057 160.295 123.027C160.277 122.997 160.267 122.963 160.267 122.928C160.267 122.892 160.277 122.858 160.295 122.828C160.314 122.798 160.34 122.773 160.371 122.757Z" fill="url(#paint55_linear_24105_1816)"/>
<path d="M160.371 122.757L163.111 121.181C163.168 121.151 163.23 121.136 163.293 121.136C163.357 121.136 163.419 121.151 163.475 121.181L166.21 122.757C166.24 122.774 166.265 122.799 166.282 122.829C166.3 122.859 166.309 122.893 166.309 122.928C166.309 122.962 166.3 122.996 166.282 123.026C166.265 123.056 166.24 123.081 166.21 123.098L163.39 124.718C163.359 124.736 163.325 124.745 163.29 124.745C163.255 124.745 163.221 124.736 163.191 124.718L160.371 123.098C160.34 123.082 160.314 123.057 160.295 123.027C160.277 122.997 160.267 122.963 160.267 122.928C160.267 122.893 160.277 122.858 160.295 122.828C160.314 122.798 160.34 122.773 160.371 122.757Z" fill="url(#paint56_linear_24105_1816)"/>
<path opacity="0.399" d="M166.306 122.955C166.31 123.052 166.182 123.114 166.182 123.114C166.182 123.114 165.711 123.385 165.156 123.704C164.463 124.103 163.635 124.579 163.497 124.659C163.435 124.701 163.363 124.724 163.288 124.724C163.214 124.724 163.141 124.701 163.08 124.659L160.331 123.07C160.331 123.07 160.271 123.045 160.269 122.937" stroke="white" stroke-linecap="round" stroke-linejoin="round"/>
<path d="M161.125 122.805L163.212 121.642C163.234 121.629 163.259 121.622 163.285 121.622C163.311 121.622 163.336 121.629 163.359 121.642L165.445 122.805C165.467 122.818 165.486 122.836 165.499 122.858C165.512 122.88 165.519 122.905 165.519 122.931C165.519 122.957 165.512 122.982 165.499 123.004C165.486 123.026 165.467 123.045 165.445 123.057L163.359 124.256C163.336 124.269 163.311 124.276 163.285 124.276C163.259 124.276 163.234 124.269 163.212 124.256L161.125 123.057C161.102 123.045 161.083 123.027 161.069 123.005C161.056 122.983 161.049 122.957 161.049 122.931C161.049 122.905 161.056 122.88 161.069 122.857C161.083 122.835 161.102 122.817 161.125 122.805Z" fill="url(#paint57_linear_24105_1816)"/>
<path d="M133.329 139.545L134.479 138.891C134.523 138.883 134.568 138.883 134.613 138.891L135.745 139.545C135.757 139.552 135.767 139.562 135.775 139.574C135.782 139.587 135.786 139.601 135.786 139.615C135.786 139.63 135.782 139.644 135.775 139.656C135.767 139.668 135.757 139.679 135.745 139.686L134.578 140.355C134.566 140.363 134.551 140.367 134.537 140.367C134.523 140.367 134.508 140.363 134.496 140.355L133.329 139.685C133.316 139.678 133.306 139.668 133.298 139.656C133.291 139.644 133.287 139.629 133.287 139.615C133.287 139.6 133.291 139.586 133.298 139.574C133.306 139.562 133.316 139.551 133.329 139.545Z" fill="url(#paint58_linear_24105_1816)"/>
<path d="M133.329 139.544L134.463 138.892C134.486 138.88 134.512 138.874 134.538 138.874C134.565 138.874 134.59 138.88 134.614 138.892L135.745 139.544C135.757 139.551 135.767 139.562 135.775 139.574C135.782 139.586 135.786 139.6 135.786 139.615C135.786 139.629 135.782 139.643 135.775 139.656C135.767 139.668 135.757 139.678 135.745 139.685L134.578 140.355C134.566 140.363 134.551 140.367 134.537 140.367C134.523 140.367 134.508 140.363 134.496 140.355L133.329 139.685C133.316 139.678 133.306 139.668 133.298 139.656C133.29 139.643 133.286 139.629 133.286 139.615C133.286 139.6 133.29 139.586 133.298 139.573C133.306 139.561 133.316 139.551 133.329 139.544Z" fill="url(#paint59_linear_24105_1816)"/>
<path opacity="0.399" d="M135.784 139.626C135.785 139.666 135.733 139.692 135.733 139.692C135.733 139.692 135.538 139.803 135.308 139.936C135.021 140.101 134.679 140.298 134.622 140.331C134.597 140.349 134.566 140.358 134.535 140.358C134.504 140.358 134.474 140.349 134.449 140.331L133.312 139.674C133.312 139.674 133.287 139.664 133.287 139.618" stroke="white" stroke-linecap="round" stroke-linejoin="round"/>
<path d="M133.641 139.564L134.505 139.083C134.514 139.078 134.524 139.075 134.535 139.075C134.546 139.075 134.556 139.078 134.566 139.083L135.429 139.564C135.438 139.569 135.446 139.577 135.451 139.586C135.457 139.595 135.459 139.606 135.459 139.616C135.459 139.627 135.457 139.637 135.451 139.646C135.446 139.656 135.438 139.663 135.429 139.668L134.566 140.164C134.556 140.17 134.546 140.173 134.535 140.173C134.524 140.173 134.514 140.17 134.505 140.164L133.641 139.668C133.631 139.663 133.623 139.656 133.618 139.647C133.612 139.638 133.609 139.627 133.609 139.616C133.609 139.606 133.612 139.595 133.618 139.586C133.623 139.577 133.631 139.569 133.641 139.564Z" fill="url(#paint60_linear_24105_1816)"/>
<path d="M162.081 122.808L163.231 122.155C163.275 122.147 163.32 122.147 163.365 122.155L164.497 122.808C164.509 122.815 164.52 122.826 164.527 122.838C164.534 122.85 164.538 122.865 164.538 122.879C164.538 122.893 164.534 122.907 164.527 122.92C164.52 122.932 164.509 122.942 164.497 122.949L163.33 123.619C163.318 123.626 163.303 123.63 163.289 123.63C163.275 123.63 163.26 123.626 163.248 123.619L162.081 122.949C162.069 122.942 162.058 122.932 162.05 122.92C162.043 122.907 162.039 122.893 162.039 122.879C162.039 122.864 162.043 122.85 162.05 122.838C162.058 122.825 162.069 122.815 162.081 122.808Z" fill="url(#paint61_linear_24105_1816)"/>
<path d="M162.081 122.808L163.215 122.156C163.238 122.144 163.264 122.137 163.29 122.137C163.317 122.137 163.342 122.144 163.366 122.156L164.497 122.808C164.509 122.815 164.52 122.825 164.527 122.838C164.534 122.85 164.538 122.864 164.538 122.878C164.538 122.893 164.534 122.907 164.527 122.919C164.52 122.932 164.509 122.942 164.497 122.949L163.33 123.619C163.318 123.626 163.303 123.63 163.289 123.63C163.275 123.63 163.26 123.626 163.248 123.619L162.081 122.949C162.068 122.942 162.058 122.932 162.05 122.92C162.042 122.907 162.038 122.893 162.038 122.878C162.038 122.864 162.042 122.849 162.05 122.837C162.058 122.825 162.068 122.815 162.081 122.808Z" fill="url(#paint62_linear_24105_1816)"/>
<path opacity="0.399" d="M164.536 122.89C164.538 122.93 164.485 122.956 164.485 122.956C164.485 122.956 164.291 123.067 164.06 123.2C163.773 123.365 163.431 123.562 163.374 123.595C163.349 123.613 163.318 123.622 163.287 123.622C163.257 123.622 163.226 123.613 163.201 123.595L162.064 122.938C162.064 122.938 162.039 122.928 162.039 122.882" stroke="white" stroke-linecap="round" stroke-linejoin="round"/>
<path d="M162.393 122.828L163.257 122.347C163.266 122.341 163.277 122.338 163.287 122.338C163.298 122.338 163.308 122.341 163.318 122.347L164.181 122.828C164.19 122.833 164.198 122.841 164.203 122.85C164.209 122.859 164.211 122.869 164.211 122.88C164.211 122.891 164.209 122.901 164.203 122.91C164.198 122.919 164.19 122.927 164.181 122.932L163.318 123.428C163.308 123.434 163.298 123.436 163.287 123.436C163.277 123.436 163.266 123.434 163.257 123.428L162.393 122.932C162.383 122.927 162.375 122.92 162.37 122.91C162.364 122.901 162.361 122.891 162.361 122.88C162.361 122.869 162.364 122.859 162.37 122.849C162.375 122.84 162.383 122.833 162.393 122.828Z" fill="url(#paint63_linear_24105_1816)"/>
<path d="M104.434 122.808L105.583 122.155C105.628 122.147 105.673 122.147 105.718 122.155L106.849 122.808C106.862 122.815 106.872 122.826 106.88 122.838C106.887 122.85 106.891 122.865 106.891 122.879C106.891 122.893 106.887 122.907 106.88 122.92C106.872 122.932 106.862 122.942 106.849 122.949L105.683 123.619C105.67 123.626 105.656 123.63 105.642 123.63C105.627 123.63 105.613 123.626 105.601 123.619L104.434 122.949C104.421 122.942 104.411 122.932 104.403 122.92C104.396 122.907 104.392 122.893 104.392 122.879C104.392 122.864 104.396 122.85 104.403 122.838C104.411 122.825 104.421 122.815 104.434 122.808Z" fill="url(#paint64_linear_24105_1816)"/>
<path d="M104.434 122.808L105.568 122.156C105.591 122.144 105.617 122.137 105.643 122.137C105.669 122.137 105.695 122.144 105.718 122.156L106.85 122.808C106.862 122.815 106.872 122.825 106.88 122.838C106.887 122.85 106.891 122.864 106.891 122.878C106.891 122.893 106.887 122.907 106.88 122.919C106.872 122.932 106.862 122.942 106.85 122.949L105.683 123.619C105.67 123.626 105.656 123.63 105.642 123.63C105.627 123.63 105.613 123.626 105.601 123.619L104.434 122.949C104.421 122.942 104.41 122.932 104.403 122.92C104.395 122.907 104.391 122.893 104.391 122.878C104.391 122.864 104.395 122.849 104.403 122.837C104.41 122.825 104.421 122.815 104.434 122.808Z" fill="url(#paint65_linear_24105_1816)"/>
<path opacity="0.399" d="M106.889 122.89C106.89 122.93 106.837 122.956 106.837 122.956C106.837 122.956 106.643 123.067 106.412 123.2C106.126 123.365 105.784 123.562 105.727 123.595C105.701 123.613 105.671 123.622 105.64 123.622C105.609 123.622 105.579 123.613 105.554 123.595L104.417 122.938C104.417 122.938 104.392 122.928 104.392 122.882" stroke="white" stroke-linecap="round" stroke-linejoin="round"/>
<path d="M104.746 122.828L105.61 122.347C105.619 122.341 105.629 122.338 105.64 122.338C105.651 122.338 105.661 122.341 105.67 122.347L106.534 122.828C106.543 122.833 106.551 122.841 106.556 122.85C106.561 122.859 106.564 122.869 106.564 122.88C106.564 122.891 106.561 122.901 106.556 122.91C106.551 122.919 106.543 122.927 106.534 122.932L105.67 123.428C105.661 123.434 105.651 123.436 105.64 123.436C105.629 123.436 105.619 123.434 105.61 123.428L104.746 122.932C104.736 122.927 104.728 122.92 104.723 122.91C104.717 122.901 104.714 122.891 104.714 122.88C104.714 122.869 104.717 122.859 104.723 122.849C104.728 122.84 104.736 122.833 104.746 122.828Z" fill="url(#paint66_linear_24105_1816)"/>
<path d="M147.384 170.461L160.937 162.633C161.496 162.312 161.58 162.233 161.573 163.309V169.894C161.572 170.712 161.533 170.737 160.937 171.088L147.268 178.973C147.088 179.1 146.847 179.238 146.827 178.675V171.384C146.827 170.988 146.761 170.811 147.384 170.461Z" fill="url(#paint67_linear_24105_1816)"/>
<path d="M147.292 170.559L157.393 164.725C157.81 164.486 157.872 164.427 157.867 165.229V170.136C157.866 170.746 157.838 170.765 157.393 171.027L147.206 176.903C147.072 176.998 146.892 177.1 146.878 176.68V171.247C146.878 170.952 146.828 170.82 147.292 170.559Z" fill="url(#paint68_linear_24105_1816)"/>
<path d="M147.384 159.59L160.937 151.762C161.496 151.441 161.58 151.362 161.573 152.438V159.023C161.572 159.841 161.533 159.866 160.937 160.217L147.268 168.102C147.088 168.229 146.847 168.366 146.827 167.804V160.513C146.827 160.117 146.761 159.94 147.384 159.59Z" fill="url(#paint69_linear_24105_1816)"/>
<path d="M147.292 159.687L157.393 153.853C157.81 153.614 157.872 153.556 157.867 154.358V159.265C157.866 159.875 157.838 159.894 157.393 160.155L147.206 166.031C147.072 166.126 146.892 166.228 146.878 165.809V160.376C146.878 160.08 146.828 159.948 147.292 159.687Z" fill="url(#paint70_linear_24105_1816)"/>
<path d="M147.153 159.691L153.883 155.803C154.161 155.644 154.202 155.605 154.199 156.139V159.409C154.198 159.815 154.179 159.827 153.883 160.001L147.095 163.917C147.006 163.98 146.887 164.048 146.876 163.769V160.149C146.877 159.952 146.844 159.864 147.153 159.691Z" fill="url(#paint71_linear_24105_1816)"/>
<path d="M147.153 170.562L153.883 166.675C154.161 166.516 154.202 166.477 154.199 167.011V170.28C154.198 170.686 154.179 170.699 153.883 170.873L147.095 174.789C147.006 174.852 146.887 174.92 146.876 174.641V171.021C146.877 170.824 146.844 170.736 147.153 170.562Z" fill="url(#paint72_linear_24105_1816)"/>
<path d="M147.433 159.619L160.94 151.818C161.496 151.498 161.58 151.42 161.574 152.492V159.054C161.572 159.869 161.534 159.895 160.94 160.244L147.318 168.103C147.138 168.229 146.898 168.366 146.878 167.806V160.54C146.878 160.145 146.812 159.968 147.433 159.619Z" stroke="#312FB7"/>
<path d="M147.433 165.198L160.94 157.397C161.496 157.077 161.58 156.998 161.574 158.071V164.633C161.572 165.448 161.534 165.474 160.94 165.823L147.318 173.682C147.138 173.808 146.898 173.945 146.878 173.384V166.118C146.878 165.723 146.812 165.547 147.433 165.198Z" stroke="#2F3E4F"/>
<path d="M147.433 162.051L160.94 154.25C161.496 153.93 161.58 153.852 161.574 154.924V161.486C161.572 162.301 161.534 162.327 160.94 162.676L147.318 170.535C147.138 170.661 146.898 170.798 146.878 170.238V162.971C146.878 162.576 146.812 162.4 147.433 162.051Z" stroke="#2F3E4F"/>
<path d="M147.433 168.059L160.94 160.258C161.496 159.938 161.58 159.859 161.574 160.932V167.493C161.572 168.309 161.534 168.334 160.94 168.683L147.318 176.543C147.138 176.669 146.898 176.806 146.878 176.245V168.979C146.878 168.584 146.812 168.408 147.433 168.059Z" stroke="#2F3E4F"/>
<path d="M147.433 170.49L160.94 162.689C161.496 162.369 161.58 162.291 161.574 163.363V169.925C161.572 170.741 161.534 170.766 160.94 171.115L147.318 178.974C147.138 179.101 146.898 179.237 146.878 178.677V171.411C146.878 171.016 146.812 170.839 147.433 170.49Z" stroke="#21828F" stroke-width="2"/>
<path d="M147.433 159.619L160.94 151.818C161.496 151.498 161.58 151.42 161.574 152.492V159.054C161.572 159.869 161.534 159.895 160.94 160.244L147.318 168.103C147.138 168.229 146.898 168.366 146.878 167.806V160.54C146.878 160.145 146.812 159.968 147.433 159.619Z" stroke="#21828F" stroke-width="2"/>
<path opacity="0.69" d="M98.2099 174.859C98.1014 174.906 98.001 174.97 97.9125 175.048C97.892 175.051 97.873 175.06 97.8584 175.075L84.8807 167.559C84.7155 167.462 84.5785 167.324 84.4836 167.158C84.3887 166.992 84.3392 166.804 84.34 166.612C84.3458 166.423 84.3982 166.237 84.4925 166.072C84.5867 165.907 84.72 165.768 84.8807 165.667L87.7201 164.044C87.8619 164.126 88.0175 164.181 88.1792 164.206L85.07 166.018C84.9652 166.078 84.8779 166.165 84.8163 166.269C84.7548 166.373 84.7211 166.491 84.7185 166.612C84.7207 166.737 84.754 166.859 84.8154 166.968C84.8768 167.076 84.9643 167.168 85.07 167.234L98.2099 174.859Z" fill="#39FFEE"/>
<path opacity="0.69" d="M100.914 175.508C100.914 175.995 100.184 176.373 99.2915 176.373C98.3993 176.373 97.6693 175.994 97.6693 175.508C97.6713 175.428 97.6919 175.35 97.7294 175.279C97.767 175.209 97.8204 175.148 97.8856 175.102L97.9397 175.048C98.0349 174.978 98.1342 174.915 98.2371 174.858C98.2641 174.858 98.2912 174.831 98.3182 174.831C98.637 174.707 98.9763 174.643 99.3186 174.643C100.184 174.643 100.914 175.021 100.914 175.508Z" fill="#39FFEE"/>
<path opacity="0.69" d="M90.5315 163.449C90.5315 163.936 89.8015 164.314 88.8822 164.314C88.6455 164.316 88.4094 164.289 88.1792 164.233C88.017 164.179 87.8548 164.125 87.7201 164.071C87.4227 163.909 87.2611 163.693 87.2611 163.476C87.2611 162.99 87.9911 162.611 88.8833 162.611C89.8015 162.584 90.5315 162.99 90.5315 163.449Z" fill="#39FFEE"/>
<path opacity="0.643" d="M87.3141 159.961V163.26C87.3141 164.167 88.9093 164.206 88.9093 164.206C88.9093 164.206 90.5045 164.247 90.5045 163.26V158.826" fill="url(#paint73_linear_24105_1816)"/>
<path opacity="0.643" d="M97.6693 172.047V175.345C97.6693 176.314 99.2915 176.265 99.2915 176.265C99.2915 176.265 100.887 176.296 100.887 175.345V170.911" fill="url(#paint74_linear_24105_1816)"/>
<g opacity="0.266">
<path opacity="0.69" d="M98.2099 170.964C98.1014 171.011 98.001 171.075 97.9125 171.153C97.892 171.156 97.873 171.165 97.8584 171.18L84.8807 163.664C84.7155 163.567 84.5785 163.429 84.4836 163.263C84.3887 163.097 84.3392 162.909 84.34 162.717C84.3458 162.528 84.3982 162.342 84.4925 162.177C84.5867 162.012 84.72 161.873 84.8807 161.772L87.7201 160.149C87.8619 160.231 88.0175 160.286 88.1792 160.311L85.07 162.123C84.9652 162.183 84.8779 162.27 84.8163 162.374C84.7548 162.478 84.7211 162.596 84.7185 162.717C84.7207 162.842 84.754 162.964 84.8154 163.073C84.8768 163.181 84.9643 163.273 85.07 163.339L98.2099 170.964Z" fill="#39FFEE"/>
<path opacity="0.69" d="M100.914 171.613C100.914 172.1 100.184 172.478 99.2915 172.478C98.3993 172.478 97.6693 172.099 97.6693 171.613C97.6713 171.533 97.6919 171.455 97.7294 171.384C97.767 171.314 97.8204 171.253 97.8856 171.207L97.9397 171.152C98.0349 171.083 98.1342 171.02 98.2371 170.963C98.2641 170.963 98.2912 170.936 98.3182 170.936C98.637 170.812 98.9763 170.748 99.3186 170.748C100.184 170.748 100.914 171.126 100.914 171.613Z" fill="#39FFEE"/>
<path opacity="0.69" d="M90.5315 159.554C90.5315 160.041 89.8015 160.419 88.8822 160.419C88.6455 160.421 88.4094 160.394 88.1792 160.338C88.017 160.284 87.8548 160.23 87.7201 160.176C87.4227 160.014 87.2611 159.798 87.2611 159.581C87.2611 159.094 87.9911 158.716 88.8833 158.716C89.8015 158.689 90.5315 159.095 90.5315 159.554Z" fill="#39FFEE"/>
<path opacity="0.643" d="M87.3141 156.066V159.365C87.3141 160.272 88.9093 160.311 88.9093 160.311C88.9093 160.311 90.5045 160.352 90.5045 159.365V154.931" fill="url(#paint75_linear_24105_1816)"/>
<path opacity="0.643" d="M97.6693 168.291V171.589C97.6693 172.558 99.2915 172.509 99.2915 172.509C99.2915 172.509 100.887 172.54 100.887 171.589V167.155" fill="url(#paint76_linear_24105_1816)"/>
</g>
<path opacity="0.69" d="M143.655 190.808C143.655 190.808 143.397 191.076 144.201 191.128C144.23 191.128 171.954 174.987 185.963 167.47C186.314 167.281 186.548 167.018 186.548 166.612C186.538 166.418 186.48 166.229 186.378 166.063C186.276 165.898 186.133 165.761 185.963 165.666L182.899 164.044C182.744 164.126 182.576 164.181 182.403 164.206L185.759 166.018C185.87 166.074 185.963 166.159 186.03 166.264C186.096 166.368 186.134 166.489 186.139 166.612C186.139 166.856 185.993 166.983 185.759 167.118L143.655 190.808Z" fill="#39FFEE"/>
<path opacity="0.69" d="M168.656 175.786C168.656 176.273 169.444 176.651 170.407 176.651C171.37 176.651 172.158 176.273 172.158 175.786C172.155 175.705 172.132 175.625 172.092 175.554C172.051 175.483 171.994 175.424 171.925 175.38L171.867 175.326C171.763 175.256 171.656 175.193 171.546 175.137C171.516 175.137 171.487 175.11 171.458 175.11C171.112 174.984 170.746 174.921 170.378 174.921C169.444 174.921 168.656 175.299 168.656 175.786Z" fill="#39FFEE"/>
<path opacity="0.69" d="M179.864 163.449C179.864 163.936 180.652 164.314 181.644 164.314C181.899 164.316 182.154 164.289 182.403 164.233C182.578 164.179 182.753 164.125 182.899 164.071C183.22 163.909 183.395 163.693 183.395 163.476C183.395 162.99 182.607 162.611 181.644 162.611C180.652 162.584 179.864 162.99 179.864 163.449Z" fill="#39FFEE"/>
<path opacity="0.69" d="M141.114 191.644C141.114 192.13 141.902 192.509 142.865 192.509C143.828 192.509 144.616 192.13 144.616 191.644C144.613 191.562 144.59 191.482 144.55 191.412C144.509 191.341 144.452 191.281 144.383 191.237L144.325 191.183C144.221 191.114 144.114 191.051 144.004 190.994C143.974 190.994 143.945 190.967 143.916 190.967C143.57 190.842 143.204 190.778 142.836 190.778C141.902 190.778 141.114 191.157 141.114 191.644Z" fill="#39FFEE"/>
<path opacity="0.231" d="M141.114 187.053C141.114 187.54 141.902 187.918 142.865 187.918C143.828 187.918 144.616 187.54 144.616 187.053C144.613 186.972 144.59 186.892 144.55 186.821C144.509 186.751 144.452 186.691 144.383 186.647L144.325 186.593C144.221 186.523 144.114 186.46 144.004 186.404C143.974 186.404 143.945 186.377 143.916 186.377C143.57 186.252 143.204 186.188 142.836 186.188C141.902 186.188 141.114 186.566 141.114 187.053Z" fill="#39FFEE"/>
<path opacity="0.643" d="M183.336 159.961V163.26C183.336 164.167 181.615 164.206 181.615 164.206C181.615 164.206 179.893 164.248 179.893 163.26V158.826" fill="url(#paint77_linear_24105_1816)"/>
<path opacity="0.643" d="M172.158 172.464V175.763C172.158 176.732 170.407 176.682 170.407 176.682C170.407 176.682 168.685 176.714 168.685 175.763V171.329" fill="url(#paint78_linear_24105_1816)"/>
<g opacity="0.266">
<path opacity="0.69" d="M143.772 186.319C143.811 186.447 144.031 186.498 144.347 186.636C144.664 186.773 185.963 163.664 185.963 163.664C186.138 163.574 186.284 163.439 186.387 163.272C186.49 163.105 186.545 162.914 186.548 162.718C186.539 162.524 186.48 162.335 186.378 162.169C186.276 162.004 186.133 161.867 185.963 161.772L182.899 160.149C182.744 160.231 182.576 160.286 182.403 160.311L185.759 162.123C185.87 162.179 185.963 162.264 186.03 162.369C186.096 162.473 186.134 162.594 186.139 162.717C186.135 162.845 186.097 162.969 186.031 163.078C185.964 163.187 185.871 163.277 185.759 163.339L143.772 186.319Z" fill="#39FFEE"/>
<path opacity="0.69" d="M168.656 172.169C168.656 172.656 169.444 173.034 170.407 173.034C171.371 173.034 172.159 172.656 172.159 172.169C172.155 172.087 172.133 172.008 172.092 171.937C172.051 171.866 171.994 171.806 171.925 171.763L171.867 171.709C171.764 171.639 171.656 171.576 171.546 171.519C171.516 171.519 171.487 171.492 171.458 171.492C171.112 171.367 170.746 171.303 170.378 171.304C169.444 171.304 168.656 171.682 168.656 172.169Z" fill="#39FFEE"/>
<path opacity="0.69" d="M179.864 159.554C179.864 160.041 180.652 160.419 181.644 160.419C181.899 160.421 182.154 160.394 182.403 160.338C182.578 160.284 182.753 160.23 182.899 160.176C183.22 160.014 183.395 159.798 183.395 159.581C183.395 159.094 182.607 158.716 181.644 158.716C180.652 158.689 179.864 159.095 179.864 159.554Z" fill="#39FFEE"/>
<path opacity="0.643" d="M183.336 156.066V159.365C183.336 160.272 181.615 160.311 181.615 160.311C181.615 160.311 179.893 160.353 179.893 159.365V154.931" fill="url(#paint79_linear_24105_1816)"/>
<path opacity="0.643" d="M172.158 168.708V172.007C172.158 172.976 170.407 172.926 170.407 172.926C170.407 172.926 168.685 172.958 168.685 172.007V167.573" fill="url(#paint80_linear_24105_1816)"/>
</g>
<path opacity="0.643" d="M144.616 188.322V191.62C144.616 192.589 142.865 192.539 142.865 192.539C142.865 192.539 141.143 192.571 141.143 191.62V187.186" fill="url(#paint81_linear_24105_1816)"/>
<path opacity="0.209" d="M144.616 183.731V187.03C144.616 187.999 142.865 187.949 142.865 187.949C142.865 187.949 141.143 187.981 141.143 187.03V182.596" fill="url(#paint82_linear_24105_1816)"/>
<path opacity="0.69" d="M98.2099 170.964C98.1014 171.011 98.001 171.075 97.9125 171.153C97.892 171.156 97.873 171.165 97.8584 171.18L91.3697 167.422L84.8807 163.664C84.7155 163.567 84.5785 163.429 84.4836 163.263C84.3887 163.097 84.3392 162.909 84.34 162.717C84.3458 162.528 84.3982 162.342 84.4925 162.177C84.5867 162.012 84.72 161.873 84.8807 161.772L87.7201 160.149C87.8619 160.231 88.0175 160.286 88.1792 160.311L85.07 162.123C84.9652 162.183 84.8779 162.27 84.8163 162.374C84.7548 162.478 84.7211 162.596 84.7185 162.717C84.7207 162.842 84.754 162.964 84.8154 163.073C84.8768 163.181 84.9643 163.273 85.07 163.339L98.2099 170.964Z" fill="#39FFEE"/>
<path opacity="0.69" d="M117.049 185.523C117.049 186.01 116.319 186.388 115.427 186.388C114.535 186.388 113.805 186.01 113.805 185.523C113.807 185.443 113.828 185.365 113.865 185.294C113.903 185.224 113.956 185.163 114.021 185.117L114.075 185.063C114.171 184.993 114.27 184.93 114.373 184.873C114.4 184.873 114.427 184.846 114.454 184.846C114.773 184.722 115.112 184.658 115.454 184.658C116.319 184.658 117.049 185.036 117.049 185.523Z" fill="#39FFEE"/>
<path opacity="0.69" d="M116.743 185.91C116.761 186.063 116.647 185.907 116.619 186.047C116.637 186.077 116.437 186.159 116.437 186.159L124.615 190.765L133.203 195.66C133.791 195.999 134.406 196.357 135.614 195.659C136.004 195.415 137.425 194.714 137.425 194.714L142.012 192.436C141.869 192.359 141.496 192.214 141.496 192.214L135.71 195.104C135.053 195.446 134.882 195.588 134.282 195.575C133.682 195.562 133.099 195.11 132.696 194.874L116.743 185.91Z" fill="#39FFEE"/>
<path opacity="0.643" d="M113.805 182.062V185.361C113.805 186.33 115.427 186.28 115.427 186.28C115.427 186.28 117.022 186.312 117.022 185.361V180.927" fill="url(#paint83_linear_24105_1816)"/>
<path opacity="0.239" d="M117.012 181.484C117.03 181.637 116.982 181.519 116.954 181.659C116.972 181.689 116.77 181.832 116.77 181.832L133.203 190.93C133.791 191.27 134.405 191.627 135.614 190.93C136.004 190.686 137.425 189.985 137.425 189.985L142.012 187.707C141.868 187.63 141.495 187.485 141.495 187.485L135.709 190.374C135.053 190.717 134.881 190.859 134.282 190.846C133.682 190.832 133.099 190.381 132.695 190.145L117.012 181.484Z" fill="#39FFEE"/>
<path opacity="0.146" d="M117.049 181.35C117.049 181.836 116.319 182.215 115.427 182.215C114.535 182.215 113.805 181.836 113.805 181.35C113.807 181.27 113.828 181.191 113.865 181.121C113.903 181.05 113.956 180.99 114.021 180.943L114.075 180.889C114.171 180.82 114.27 180.757 114.373 180.7C114.4 180.7 114.427 180.673 114.454 180.673C114.773 180.548 115.112 180.484 115.454 180.484C116.319 180.484 117.049 180.863 117.049 181.35Z" fill="#39FFEE"/>
<path opacity="0.172" d="M113.805 178.028V181.327C113.805 182.296 115.427 182.246 115.427 182.246C115.427 182.246 117.022 182.278 117.022 181.327V176.893" fill="url(#paint84_linear_24105_1816)"/>
<g filter="url(#filter4_f_24105_1816)">
<path d="M156.174 104.113C164.785 104.113 171.766 98.6053 171.766 91.8111C171.766 85.017 164.785 79.5093 156.174 79.5093C147.563 79.5093 140.582 85.017 140.582 91.8111C140.582 98.6053 147.563 104.113 156.174 104.113Z" fill="#26DFCD" fill-opacity="0.6"/>
</g>
<defs>
<filter id="filter0_d_24105_1816" x="115.25" y="107.392" width="38.6484" height="29.9214" filterUnits="userSpaceOnUse" color-interpolation-filters="sRGB">
<feFlood flood-opacity="0" result="BackgroundImageFix"/>
<feColorMatrix in="SourceAlpha" type="matrix" values="0 0 0 0 0 0 0 0 0 0 0 0 0 0 0 0 0 0 127 0" result="hardAlpha"/>
<feOffset dy="-1"/>
<feColorMatrix type="matrix" values="0 0 0 0 0 0 0 0 0 0 0 0 0 0 0 0 0 0 0.957 0"/>
<feBlend mode="normal" in2="BackgroundImageFix" result="effect1_dropShadow_24105_1816"/>
<feBlend mode="normal" in="SourceGraphic" in2="effect1_dropShadow_24105_1816" result="shape"/>
</filter>
<filter id="filter1_d_24105_1816" x="122.269" y="112.979" width="24.8976" height="17.8872" filterUnits="userSpaceOnUse" color-interpolation-filters="sRGB">
<feFlood flood-opacity="0" result="BackgroundImageFix"/>
<feColorMatrix in="SourceAlpha" type="matrix" values="0 0 0 0 0 0 0 0 0 0 0 0 0 0 0 0 0 0 127 0" result="hardAlpha"/>
<feOffset dy="-1"/>
<feColorMatrix type="matrix" values="0 0 0 0 0 0 0 0 0 0 0 0 0 0 0 0 0 0 0.957 0"/>
<feBlend mode="normal" in2="BackgroundImageFix" result="effect1_dropShadow_24105_1816"/>
<feBlend mode="normal" in="SourceGraphic" in2="effect1_dropShadow_24105_1816" result="shape"/>
</filter>
<filter id="filter2_d_24105_1816" x="98.4976" y="101.209" width="72.1162" height="46.1973" filterUnits="userSpaceOnUse" color-interpolation-filters="sRGB">
<feFlood flood-opacity="0" result="BackgroundImageFix"/>
<feColorMatrix in="SourceAlpha" type="matrix" values="0 0 0 0 0 0 0 0 0 0 0 0 0 0 0 0 0 0 127 0" result="hardAlpha"/>
<feOffset dy="2"/>
<feColorMatrix type="matrix" values="0 0 0 0 0 0 0 0 0 0 0 0 0 0 0 0 0 0 0.749 0"/>
<feBlend mode="normal" in2="BackgroundImageFix" result="effect1_dropShadow_24105_1816"/>
<feBlend mode="normal" in="SourceGraphic" in2="effect1_dropShadow_24105_1816" result="shape"/>
</filter>
<filter id="filter3_d_24105_1816" x="99.9977" y="102.28" width="69.0784" height="48.7021" filterUnits="userSpaceOnUse" color-interpolation-filters="sRGB">
<feFlood flood-opacity="0" result="BackgroundImageFix"/>
<feColorMatrix in="SourceAlpha" type="matrix" values="0 0 0 0 0 0 0 0 0 0 0 0 0 0 0 0 0 0 127 0" result="hardAlpha"/>
<feOffset dy="2"/>
<feColorMatrix type="matrix" values="0 0 0 0 0 0 0 0 0 0 0 0 0 0 0 0 0 0 0.749 0"/>
<feBlend mode="normal" in2="BackgroundImageFix" result="effect1_dropShadow_24105_1816"/>
<feBlend mode="normal" in="SourceGraphic" in2="effect1_dropShadow_24105_1816" result="shape"/>
</filter>
<filter id="filter4_f_24105_1816" x="82.5823" y="21.5093" width="147.184" height="140.604" filterUnits="userSpaceOnUse" color-interpolation-filters="sRGB">
<feFlood flood-opacity="0" result="BackgroundImageFix"/>
<feBlend mode="normal" in="SourceGraphic" in2="BackgroundImageFix" result="shape"/>
<feGaussianBlur stdDeviation="29" result="effect1_foregroundBlur_24105_1816"/>
</filter>
<linearGradient id="paint0_linear_24105_1816" x1="-72.5429" y1="-111.822" x2="504.982" y2="42.258" gradientUnits="userSpaceOnUse">
<stop offset="0.180668" stop-color="#5952EA" stop-opacity="0"/>
<stop offset="0.353858" stop-color="#3B09B2" stop-opacity="0.28"/>
<stop offset="0.669966" stop-color="#211A3D"/>
<stop offset="0.817188" stop-color="#759EF7" stop-opacity="0"/>
</linearGradient>
<radialGradient id="paint1_radial_24105_1816" cx="0" cy="0" r="1" gradientUnits="userSpaceOnUse" gradientTransform="translate(72.4561 91.7482) rotate(-87.2437) scale(172.037 69.9742)">
<stop stop-color="#00F2CD"/>
<stop offset="0.274" stop-color="#37364E"/>
<stop offset="0.946" stop-color="#262536"/>
<stop offset="1" stop-color="#222222"/>
</radialGradient>
<linearGradient id="paint2_linear_24105_1816" x1="133.461" y1="261.405" x2="133.852" y2="102.995" gradientUnits="userSpaceOnUse">
<stop stop-color="#BDA0FF"/>
<stop offset="0.244" stop-color="#37364E"/>
<stop offset="0.731" stop-color="#262536"/>
<stop offset="1" stop-color="#222222"/>
</linearGradient>
<radialGradient id="paint3_radial_24105_1816" cx="0" cy="0" r="1" gradientUnits="userSpaceOnUse" gradientTransform="translate(0.358154 122.517) rotate(170.929) scale(86.7829 96.9725)">
<stop stop-color="#00F2CD"/>
<stop offset="0.274" stop-color="#37364E"/>
<stop offset="0.946" stop-color="#262536"/>
<stop offset="1" stop-color="#222222"/>
</radialGradient>
<linearGradient id="paint4_linear_24105_1816" x1="175.357" y1="80.9023" x2="175.357" y2="162.037" gradientUnits="userSpaceOnUse">
<stop stop-color="#0BB5E3"/>
<stop offset="1" stop-color="#2AF698"/>
</linearGradient>
<linearGradient id="paint5_linear_24105_1816" x1="178.377" y1="79.5" x2="178.377" y2="160.635" gradientUnits="userSpaceOnUse">
<stop stop-color="#0BB5E3"/>
<stop offset="1" stop-color="#2AF698"/>
</linearGradient>
<linearGradient id="paint6_linear_24105_1816" x1="134.658" y1="106.568" x2="134.658" y2="190.757" gradientUnits="userSpaceOnUse">
<stop stop-color="#BDA0FF"/>
<stop offset="0.244" stop-color="#37364E"/>
<stop offset="0.731" stop-color="#262536"/>
<stop offset="1" stop-color="#222222"/>
</linearGradient>
<linearGradient id="paint7_linear_24105_1816" x1="135.512" y1="213.632" x2="135.512" y2="139.723" gradientUnits="userSpaceOnUse">
<stop stop-color="#BDA0FF"/>
<stop offset="0.244" stop-color="#37364E"/>
<stop offset="0.731" stop-color="#262536"/>
<stop offset="1" stop-color="#222222"/>
</linearGradient>
<linearGradient id="paint8_linear_24105_1816" x1="135.512" y1="191.317" x2="135.512" y2="117.408" gradientUnits="userSpaceOnUse">
<stop stop-color="#BDA0FF"/>
<stop offset="0.244" stop-color="#37364E"/>
<stop offset="0.731" stop-color="#262536"/>
<stop offset="1" stop-color="#222222"/>
</linearGradient>
<linearGradient id="paint9_linear_24105_1816" x1="137.636" y1="175.983" x2="138.356" y2="101.682" gradientUnits="userSpaceOnUse">
<stop stop-color="#0BB5E3"/>
<stop offset="1" stop-color="#2AF698"/>
</linearGradient>
<linearGradient id="paint10_linear_24105_1816" x1="137.775" y1="195.074" x2="138.384" y2="102.435" gradientUnits="userSpaceOnUse">
<stop stop-color="#BDA0FF"/>
<stop offset="0.244" stop-color="#37364E"/>
<stop offset="0.731" stop-color="#262536"/>
<stop offset="1" stop-color="#222222"/>
</linearGradient>
<linearGradient id="paint11_linear_24105_1816" x1="135.511" y1="171.371" x2="135.511" y2="97.5296" gradientUnits="userSpaceOnUse">
<stop stop-color="#BDA0FF"/>
<stop offset="0.244" stop-color="#37364E"/>
<stop offset="0.731" stop-color="#262536"/>
<stop offset="1" stop-color="#222222"/>
</linearGradient>
<linearGradient id="paint12_linear_24105_1816" x1="220.099" y1="159.849" x2="-5.27088" y2="159.408" gradientUnits="userSpaceOnUse">
<stop stop-color="#BDA0FF"/>
<stop offset="0.244" stop-color="#37364E"/>
<stop offset="0.397" stop-color="#262536"/>
<stop offset="1" stop-color="#222222"/>
</linearGradient>
<linearGradient id="paint13_linear_24105_1816" x1="192.349" y1="159.031" x2="89.0829" y2="164.2" gradientUnits="userSpaceOnUse">
<stop stop-color="#6AFFD8"/>
<stop offset="0.263" stop-color="#37364E"/>
<stop offset="0.559" stop-color="#262536"/>
<stop offset="1" stop-color="#222222"/>
</linearGradient>
<linearGradient id="paint14_linear_24105_1816" x1="192.625" y1="132.445" x2="98.0325" y2="133.95" gradientUnits="userSpaceOnUse">
<stop stop-color="#6AFFD8"/>
<stop offset="0.289" stop-color="#37364E"/>
<stop offset="0.654" stop-color="#262536"/>
<stop offset="1" stop-color="#222222"/>
</linearGradient>
<linearGradient id="paint15_linear_24105_1816" x1="206.07" y1="109.906" x2="176.574" y2="160.167" gradientUnits="userSpaceOnUse">
<stop stop-color="#BDA0FF" stop-opacity="0"/>
<stop offset="0.384" stop-color="#1A12ED"/>
<stop offset="0.837" stop-color="#1B1786" stop-opacity="0"/>
<stop offset="1"/>
</linearGradient>
<linearGradient id="paint16_linear_24105_1816" x1="145.077" y1="74.9157" x2="167.385" y2="125.668" gradientUnits="userSpaceOnUse">
<stop stop-color="#BDA0FF"/>
<stop offset="0.286" stop-color="#1A12ED"/>
<stop offset="0.837" stop-color="#1B1786" stop-opacity="0"/>
<stop offset="1"/>
</linearGradient>
<linearGradient id="paint17_linear_24105_1816" x1="134.536" y1="108.807" x2="134.536" y2="104.601" gradientUnits="userSpaceOnUse">
<stop stop-color="#0BB5E3" stop-opacity="0.282"/>
<stop offset="1" stop-color="#2AF698"/>
</linearGradient>
<linearGradient id="paint18_linear_24105_1816" x1="134.536" y1="104.608" x2="134.536" y2="108.581" gradientUnits="userSpaceOnUse">
<stop stop-color="#0BB5E3"/>
<stop offset="1" stop-color="#00FFC4"/>
</linearGradient>
<linearGradient id="paint19_linear_24105_1816" x1="134.532" y1="107.956" x2="134.532" y2="105.182" gradientUnits="userSpaceOnUse">
<stop stop-color="#007FFF"/>
<stop offset="1" stop-color="#2AF698"/>
</linearGradient>
<linearGradient id="paint20_linear_24105_1816" x1="134.536" y1="107.559" x2="134.536" y2="105.819" gradientUnits="userSpaceOnUse">
<stop stop-color="#0BB5E3" stop-opacity="0.282"/>
<stop offset="1" stop-color="#2AF698"/>
</linearGradient>
<linearGradient id="paint21_linear_24105_1816" x1="134.536" y1="105.822" x2="134.536" y2="107.466" gradientUnits="userSpaceOnUse">
<stop stop-color="#0BB5E3"/>
<stop offset="1" stop-color="#00FFC4"/>
</linearGradient>
<linearGradient id="paint22_linear_24105_1816" x1="134.534" y1="107.208" x2="134.534" y2="106.06" gradientUnits="userSpaceOnUse">
<stop stop-color="#007FFF"/>
<stop offset="1" stop-color="#2AF698"/>
</linearGradient>
<linearGradient id="paint23_linear_24105_1816" x1="134.574" y1="117.988" x2="134.574" y2="125.713" gradientUnits="userSpaceOnUse">
<stop stop-color="#0BB5E3"/>
<stop offset="1" stop-color="#2AF698"/>
</linearGradient>
<linearGradient id="paint24_linear_24105_1816" x1="134.768" y1="98.9805" x2="117.941" y2="118.231" gradientUnits="userSpaceOnUse">
<stop stop-color="#0BB5E3" stop-opacity="0"/>
<stop offset="0.438" stop-color="#34BCBC" stop-opacity="0.4"/>
<stop offset="0.729" stop-color="#28DBF2" stop-opacity="0.376"/>
<stop offset="1" stop-color="#2AE6F6" stop-opacity="0.404"/>
</linearGradient>
<linearGradient id="paint25_linear_24105_1816" x1="103.868" y1="170.49" x2="99.3509" y2="192.721" gradientUnits="userSpaceOnUse">
<stop stop-color="#0BB5E3"/>
<stop offset="0.298" stop-color="#23E8A8"/>
<stop offset="1" stop-color="#2AF698" stop-opacity="0"/>
</linearGradient>
<linearGradient id="paint26_linear_24105_1816" x1="115.933" y1="170.718" x2="115.933" y2="177.648" gradientUnits="userSpaceOnUse">
<stop stop-color="#24D8B5"/>
<stop offset="1" stop-color="#43BEFF"/>
</linearGradient>
<linearGradient id="paint27_linear_24105_1816" x1="115.933" y1="166.426" x2="115.933" y2="173.356" gradientUnits="userSpaceOnUse">
<stop stop-color="#24D8B5"/>
<stop offset="1" stop-color="#43BEFF"/>
</linearGradient>
<linearGradient id="paint28_linear_24105_1816" x1="115.933" y1="161.992" x2="115.933" y2="168.922" gradientUnits="userSpaceOnUse">
<stop stop-color="#24D8B5"/>
<stop offset="1" stop-color="#43BEFF"/>
</linearGradient>
<linearGradient id="paint29_linear_24105_1816" x1="115.933" y1="157.558" x2="115.933" y2="164.488" gradientUnits="userSpaceOnUse">
<stop stop-color="#24D8B5"/>
<stop offset="1" stop-color="#43BEFF"/>
</linearGradient>
<linearGradient id="paint30_linear_24105_1816" x1="103.868" y1="170.49" x2="99.3509" y2="192.721" gradientUnits="userSpaceOnUse">
<stop stop-color="#0BB5E3"/>
<stop offset="0.298" stop-color="#23E8A8"/>
<stop offset="1" stop-color="#2AF698" stop-opacity="0"/>
</linearGradient>
<linearGradient id="paint31_linear_24105_1816" x1="97.2494" y1="113.38" x2="117.452" y2="164.353" gradientUnits="userSpaceOnUse">
<stop stop-color="#BDA0FF"/>
<stop offset="0.331" stop-color="#37364E"/>
<stop offset="0.451" stop-color="#3F3C59"/>
<stop offset="1" stop-color="#222222"/>
</linearGradient>
<linearGradient id="paint32_linear_24105_1816" x1="123.122" y1="123.741" x2="118.396" y2="123.925" gradientUnits="userSpaceOnUse">
<stop stop-color="#BDA0FF"/>
<stop offset="0.244" stop-color="#37364E"/>
<stop offset="0.355" stop-color="#262536"/>
<stop offset="1" stop-color="#222222"/>
</linearGradient>
<linearGradient id="paint33_linear_24105_1816" x1="141.802" y1="127.947" x2="123.451" y2="139.207" gradientUnits="userSpaceOnUse">
<stop stop-color="#BDA0FF"/>
<stop offset="0.244" stop-color="#37364E"/>
<stop offset="0.355" stop-color="#262536"/>
<stop offset="1" stop-color="#222222"/>
</linearGradient>
<linearGradient id="paint34_linear_24105_1816" x1="111.527" y1="125.445" x2="129.156" y2="148.545" gradientUnits="userSpaceOnUse">
<stop stop-color="#BDA0FF"/>
<stop offset="0.151" stop-color="#37364E"/>
<stop offset="0.731" stop-color="#262536"/>
<stop offset="1" stop-color="#222222"/>
</linearGradient>
<linearGradient id="paint35_linear_24105_1816" x1="150.579" y1="125.445" x2="168.208" y2="148.546" gradientUnits="userSpaceOnUse">
<stop stop-color="#BDA0FF"/>
<stop offset="0.151" stop-color="#37364E"/>
<stop offset="0.731" stop-color="#262536"/>
<stop offset="1" stop-color="#222222"/>
</linearGradient>
<linearGradient id="paint36_linear_24105_1816" x1="130.934" y1="113.38" x2="151.136" y2="164.353" gradientUnits="userSpaceOnUse">
<stop stop-color="#BDA0FF"/>
<stop offset="0.331" stop-color="#37364E"/>
<stop offset="0.451" stop-color="#3F3C59"/>
<stop offset="1" stop-color="#222222"/>
</linearGradient>
<linearGradient id="paint37_linear_24105_1816" x1="153.88" y1="123.741" x2="149.154" y2="123.925" gradientUnits="userSpaceOnUse">
<stop stop-color="#BDA0FF"/>
<stop offset="0.244" stop-color="#37364E"/>
<stop offset="0.355" stop-color="#262536"/>
<stop offset="1" stop-color="#222222"/>
</linearGradient>
<linearGradient id="paint38_linear_24105_1816" x1="168.198" y1="127.947" x2="149.846" y2="139.207" gradientUnits="userSpaceOnUse">
<stop stop-color="#BDA0FF"/>
<stop offset="0.244" stop-color="#37364E"/>
<stop offset="0.355" stop-color="#262536"/>
<stop offset="1" stop-color="#222222"/>
</linearGradient>
<linearGradient id="paint39_linear_24105_1816" x1="130.15" y1="94.6416" x2="150.353" y2="145.614" gradientUnits="userSpaceOnUse">
<stop stop-color="#BDA0FF"/>
<stop offset="0.331" stop-color="#37364E"/>
<stop offset="0.451" stop-color="#3F3C59"/>
<stop offset="1" stop-color="#222222"/>
</linearGradient>
<linearGradient id="paint40_linear_24105_1816" x1="175.753" y1="107.149" x2="152.069" y2="123.042" gradientUnits="userSpaceOnUse">
<stop stop-color="#BDA0FF"/>
<stop offset="0.244" stop-color="#37364E"/>
<stop offset="0.355" stop-color="#262536"/>
<stop offset="1" stop-color="#222222"/>
</linearGradient>
<linearGradient id="paint41_linear_24105_1816" x1="174.451" y1="109.281" x2="156.43" y2="120.417" gradientUnits="userSpaceOnUse">
<stop stop-color="#BDA0FF"/>
<stop offset="0.244" stop-color="#37364E"/>
<stop offset="0.355" stop-color="#262536"/>
<stop offset="1" stop-color="#222222"/>
</linearGradient>
<linearGradient id="paint42_linear_24105_1816" x1="97.3181" y1="94.6416" x2="117.521" y2="145.614" gradientUnits="userSpaceOnUse">
<stop stop-color="#BDA0FF"/>
<stop offset="0.331" stop-color="#37364E"/>
<stop offset="0.451" stop-color="#3F3C59"/>
<stop offset="1" stop-color="#222222"/>
</linearGradient>
<linearGradient id="paint43_linear_24105_1816" x1="148.141" y1="107.149" x2="124.457" y2="123.042" gradientUnits="userSpaceOnUse">
<stop stop-color="#BDA0FF"/>
<stop offset="0.244" stop-color="#37364E"/>
<stop offset="0.355" stop-color="#262536"/>
<stop offset="1" stop-color="#222222"/>
</linearGradient>
<linearGradient id="paint44_linear_24105_1816" x1="134.256" y1="109.281" x2="116.235" y2="120.417" gradientUnits="userSpaceOnUse">
<stop stop-color="#BDA0FF"/>
<stop offset="0.244" stop-color="#37364E"/>
<stop offset="0.355" stop-color="#262536"/>
<stop offset="1" stop-color="#222222"/>
</linearGradient>
<linearGradient id="paint45_linear_24105_1816" x1="117.676" y1="111.708" x2="120.952" y2="113.756" gradientUnits="userSpaceOnUse">
<stop stop-color="#24D8B5"/>
<stop offset="1" stop-color="#43BEFF"/>
</linearGradient>
<linearGradient id="paint46_linear_24105_1816" x1="149.146" y1="129.446" x2="152.422" y2="131.493" gradientUnits="userSpaceOnUse">
<stop stop-color="#24D8B5"/>
<stop offset="1" stop-color="#43BEFF"/>
</linearGradient>
<linearGradient id="paint47_linear_24105_1816" x1="120.724" y1="129.451" x2="117.521" y2="131.611" gradientUnits="userSpaceOnUse">
<stop stop-color="#24D8B5"/>
<stop offset="1" stop-color="#43BEFF"/>
</linearGradient>
<linearGradient id="paint48_linear_24105_1816" x1="151.193" y1="111.857" x2="147.99" y2="114.017" gradientUnits="userSpaceOnUse">
<stop stop-color="#24D8B5"/>
<stop offset="1" stop-color="#43BEFF"/>
</linearGradient>
<linearGradient id="paint49_linear_24105_1816" x1="134.536" y1="141.707" x2="134.536" y2="137.501" gradientUnits="userSpaceOnUse">
<stop stop-color="#0BB5E3" stop-opacity="0.282"/>
<stop offset="1" stop-color="#2AF698"/>
</linearGradient>
<linearGradient id="paint50_linear_24105_1816" x1="134.536" y1="137.508" x2="134.536" y2="141.481" gradientUnits="userSpaceOnUse">
<stop stop-color="#0BB5E3"/>
<stop offset="1" stop-color="#00FFC4"/>
</linearGradient>
<linearGradient id="paint51_linear_24105_1816" x1="134.532" y1="140.856" x2="134.532" y2="138.082" gradientUnits="userSpaceOnUse">
<stop stop-color="#007FFF"/>
<stop offset="1" stop-color="#2AF698"/>
</linearGradient>
<linearGradient id="paint52_linear_24105_1816" x1="105.641" y1="124.971" x2="105.641" y2="120.765" gradientUnits="userSpaceOnUse">
<stop stop-color="#0BB5E3" stop-opacity="0.282"/>
<stop offset="1" stop-color="#2AF698"/>
</linearGradient>
<linearGradient id="paint53_linear_24105_1816" x1="105.641" y1="120.772" x2="105.641" y2="124.745" gradientUnits="userSpaceOnUse">
<stop stop-color="#0BB5E3"/>
<stop offset="1" stop-color="#00FFC4"/>
</linearGradient>
<linearGradient id="paint54_linear_24105_1816" x1="105.637" y1="124.12" x2="105.637" y2="121.346" gradientUnits="userSpaceOnUse">
<stop stop-color="#007FFF"/>
<stop offset="1" stop-color="#2AF698"/>
</linearGradient>
<linearGradient id="paint55_linear_24105_1816" x1="163.288" y1="124.971" x2="163.288" y2="120.765" gradientUnits="userSpaceOnUse">
<stop stop-color="#0BB5E3" stop-opacity="0.282"/>
<stop offset="1" stop-color="#2AF698"/>
</linearGradient>
<linearGradient id="paint56_linear_24105_1816" x1="163.288" y1="120.772" x2="163.288" y2="124.745" gradientUnits="userSpaceOnUse">
<stop stop-color="#0BB5E3"/>
<stop offset="1" stop-color="#00FFC4"/>
</linearGradient>
<linearGradient id="paint57_linear_24105_1816" x1="163.284" y1="124.12" x2="163.284" y2="121.346" gradientUnits="userSpaceOnUse">
<stop stop-color="#007FFF"/>
<stop offset="1" stop-color="#2AF698"/>
</linearGradient>
<linearGradient id="paint58_linear_24105_1816" x1="134.536" y1="140.46" x2="134.536" y2="138.719" gradientUnits="userSpaceOnUse">
<stop stop-color="#0BB5E3" stop-opacity="0.282"/>
<stop offset="1" stop-color="#2AF698"/>
</linearGradient>
<linearGradient id="paint59_linear_24105_1816" x1="134.536" y1="138.723" x2="134.536" y2="140.367" gradientUnits="userSpaceOnUse">
<stop stop-color="#0BB5E3"/>
<stop offset="1" stop-color="#00FFC4"/>
</linearGradient>
<linearGradient id="paint60_linear_24105_1816" x1="134.534" y1="140.108" x2="134.534" y2="138.961" gradientUnits="userSpaceOnUse">
<stop stop-color="#007FFF"/>
<stop offset="1" stop-color="#2AF698"/>
</linearGradient>
<linearGradient id="paint61_linear_24105_1816" x1="163.288" y1="123.724" x2="163.288" y2="121.983" gradientUnits="userSpaceOnUse">
<stop stop-color="#0BB5E3" stop-opacity="0.282"/>
<stop offset="1" stop-color="#2AF698"/>
</linearGradient>
<linearGradient id="paint62_linear_24105_1816" x1="163.288" y1="121.986" x2="163.288" y2="123.63" gradientUnits="userSpaceOnUse">
<stop stop-color="#0BB5E3"/>
<stop offset="1" stop-color="#00FFC4"/>
</linearGradient>
<linearGradient id="paint63_linear_24105_1816" x1="163.286" y1="123.372" x2="163.286" y2="122.224" gradientUnits="userSpaceOnUse">
<stop stop-color="#007FFF"/>
<stop offset="1" stop-color="#2AF698"/>
</linearGradient>
<linearGradient id="paint64_linear_24105_1816" x1="105.641" y1="123.724" x2="105.641" y2="121.983" gradientUnits="userSpaceOnUse">
<stop stop-color="#0BB5E3" stop-opacity="0.282"/>
<stop offset="1" stop-color="#2AF698"/>
</linearGradient>
<linearGradient id="paint65_linear_24105_1816" x1="105.641" y1="121.986" x2="105.641" y2="123.63" gradientUnits="userSpaceOnUse">
<stop stop-color="#0BB5E3"/>
<stop offset="1" stop-color="#00FFC4"/>
</linearGradient>
<linearGradient id="paint66_linear_24105_1816" x1="105.639" y1="123.372" x2="105.639" y2="122.224" gradientUnits="userSpaceOnUse">
<stop stop-color="#007FFF"/>
<stop offset="1" stop-color="#2AF698"/>
</linearGradient>
<linearGradient id="paint67_linear_24105_1816" x1="154.421" y1="190.301" x2="154.421" y2="160.222" gradientUnits="userSpaceOnUse">
<stop stop-color="#BDA0FF"/>
<stop offset="0.244" stop-color="#37364E"/>
<stop offset="0.731" stop-color="#262536"/>
<stop offset="1" stop-color="#222222"/>
</linearGradient>
<linearGradient id="paint68_linear_24105_1816" x1="128.85" y1="189.208" x2="155.356" y2="166.173" gradientUnits="userSpaceOnUse">
<stop stop-color="#BDA0FF"/>
<stop offset="0.244" stop-color="#37364E"/>
<stop offset="0.731" stop-color="#262536"/>
<stop offset="1" stop-color="#222222"/>
</linearGradient>
<linearGradient id="paint69_linear_24105_1816" x1="154.421" y1="179.43" x2="154.421" y2="149.351" gradientUnits="userSpaceOnUse">
<stop stop-color="#BDA0FF"/>
<stop offset="0.244" stop-color="#37364E"/>
<stop offset="0.731" stop-color="#262536"/>
<stop offset="1" stop-color="#222222"/>
</linearGradient>
<linearGradient id="paint70_linear_24105_1816" x1="128.85" y1="178.336" x2="155.356" y2="155.302" gradientUnits="userSpaceOnUse">
<stop stop-color="#BDA0FF"/>
<stop offset="0.244" stop-color="#37364E"/>
<stop offset="0.731" stop-color="#262536"/>
<stop offset="1" stop-color="#222222"/>
</linearGradient>
<linearGradient id="paint71_linear_24105_1816" x1="117.266" y1="183.766" x2="153.591" y2="158.908" gradientUnits="userSpaceOnUse">
<stop stop-color="#BDA0FF"/>
<stop offset="0.244" stop-color="#37364E"/>
<stop offset="0.731" stop-color="#262536"/>
<stop offset="1" stop-color="#222222"/>
</linearGradient>
<linearGradient id="paint72_linear_24105_1816" x1="117.266" y1="194.637" x2="153.591" y2="169.779" gradientUnits="userSpaceOnUse">
<stop stop-color="#BDA0FF"/>
<stop offset="0.244" stop-color="#37364E"/>
<stop offset="0.731" stop-color="#262536"/>
<stop offset="1" stop-color="#222222"/>
</linearGradient>
<linearGradient id="paint73_linear_24105_1816" x1="88.9093" y1="160.822" x2="88.9093" y2="163.442" gradientUnits="userSpaceOnUse">
<stop stop-color="#0BB5E3" stop-opacity="0"/>
<stop offset="1" stop-color="#2AF698"/>
</linearGradient>
<linearGradient id="paint74_linear_24105_1816" x1="99.278" y1="172.282" x2="99.278" y2="174.996" gradientUnits="userSpaceOnUse">
<stop stop-color="#0BB5E3" stop-opacity="0"/>
<stop offset="1" stop-color="#2AF698"/>
</linearGradient>
<linearGradient id="paint75_linear_24105_1816" x1="88.9093" y1="156.927" x2="88.9093" y2="159.547" gradientUnits="userSpaceOnUse">
<stop stop-color="#0BB5E3" stop-opacity="0"/>
<stop offset="1" stop-color="#2AF698"/>
</linearGradient>
<linearGradient id="paint76_linear_24105_1816" x1="99.278" y1="168.526" x2="99.278" y2="171.24" gradientUnits="userSpaceOnUse">
<stop stop-color="#0BB5E3" stop-opacity="0"/>
<stop offset="1" stop-color="#2AF698"/>
</linearGradient>
<linearGradient id="paint77_linear_24105_1816" x1="181.615" y1="160.822" x2="181.615" y2="163.442" gradientUnits="userSpaceOnUse">
<stop stop-color="#0BB5E3" stop-opacity="0"/>
<stop offset="1" stop-color="#2AF698"/>
</linearGradient>
<linearGradient id="paint78_linear_24105_1816" x1="170.422" y1="172.699" x2="170.422" y2="175.414" gradientUnits="userSpaceOnUse">
<stop stop-color="#0BB5E3" stop-opacity="0"/>
<stop offset="1" stop-color="#2AF698"/>
</linearGradient>
<linearGradient id="paint79_linear_24105_1816" x1="181.615" y1="156.927" x2="181.615" y2="159.547" gradientUnits="userSpaceOnUse">
<stop stop-color="#0BB5E3" stop-opacity="0"/>
<stop offset="1" stop-color="#2AF698"/>
</linearGradient>
<linearGradient id="paint80_linear_24105_1816" x1="170.422" y1="168.943" x2="170.422" y2="171.658" gradientUnits="userSpaceOnUse">
<stop stop-color="#0BB5E3" stop-opacity="0"/>
<stop offset="1" stop-color="#2AF698"/>
</linearGradient>
<linearGradient id="paint81_linear_24105_1816" x1="142.88" y1="188.557" x2="142.88" y2="191.271" gradientUnits="userSpaceOnUse">
<stop stop-color="#0BB5E3" stop-opacity="0"/>
<stop offset="1" stop-color="#2AF698"/>
</linearGradient>
<linearGradient id="paint82_linear_24105_1816" x1="142.88" y1="183.966" x2="142.88" y2="186.681" gradientUnits="userSpaceOnUse">
<stop stop-color="#0BB5E3" stop-opacity="0"/>
<stop offset="1" stop-color="#2AF698"/>
</linearGradient>
<linearGradient id="paint83_linear_24105_1816" x1="115.414" y1="182.297" x2="115.414" y2="185.012" gradientUnits="userSpaceOnUse">
<stop stop-color="#0BB5E3" stop-opacity="0"/>
<stop offset="1" stop-color="#2AF698"/>
</linearGradient>
<linearGradient id="paint84_linear_24105_1816" x1="115.414" y1="178.263" x2="115.414" y2="180.978" gradientUnits="userSpaceOnUse">
<stop stop-color="#0BB5E3" stop-opacity="0"/>
<stop offset="1" stop-color="#2AF698"/>
</linearGradient>
</defs>
</svg>
