<svg width="32" height="33" viewBox="0 0 32 33" fill="none" xmlns="http://www.w3.org/2000/svg">
<path d="M30.6667 5.83365C30.6667 4.36699 29.4667 3.16699 28 3.16699H3.99999C2.53333 3.16699 1.33333 4.36699 1.33333 5.83365V23.1817C1.33333 24.5285 2.53333 25.8484 3.99999 25.8484H10.3448L13.9699 29.8336C14.6429 30.5026 15.0888 30.6751 16 30.7682C16.552 30.7763 17.4003 30.5126 18 29.8336L21.6552 25.8484H28C29.4667 25.8484 30.6667 24.6484 30.6667 23.1817V5.83365ZM3.99999 5.83365H28V23.1817H20.6667L16 28.0622L11.3333 23.1817H3.99999V5.83365Z" fill="white"/>
<path d="M10.6667 9.8335H21.3333C22.0697 9.8335 22.6667 10.4304 22.6667 11.1668C22.6667 11.9032 22.0697 12.5002 21.3333 12.5002H10.6667C9.9303 12.5002 9.33334 11.9032 9.33334 11.1668C9.33334 10.4304 9.9303 9.8335 10.6667 9.8335Z" fill="#BDA0FF"/>
<path d="M10.6667 15.167H16C16.7364 15.167 17.3333 15.764 17.3333 16.5004C17.3333 17.2367 16.7364 17.8337 16 17.8337H10.6667C9.9303 17.8337 9.33334 17.2367 9.33334 16.5004C9.33334 15.764 9.9303 15.167 10.6667 15.167Z" fill="#BDA0FF"/>
</svg>
