<svg width="107" height="37" viewBox="0 0 107 37" fill="none" xmlns="http://www.w3.org/2000/svg">
<path d="M8 1H99C103.142 1 106.5 4.35786 106.5 8.5V28.5C106.5 32.6421 103.142 36 99 36H8C3.85786 36 0.5 32.6421 0.5 28.5V8.5C0.5 4.35786 3.85786 1 8 1Z" stroke="white" stroke-opacity="0.6"/>
<path d="M17.0387 23.5V14.0455H22.9663V15.2734H18.4652V18.1541H22.657V19.3775H18.4652V22.272H23.0217V23.5H17.0387ZM25.8504 16.4091L27.4154 19.1697L28.9942 16.4091H30.5038L28.2925 19.9545L30.5223 23.5H29.0127L27.4154 20.8501L25.8227 23.5H24.3085L26.5152 19.9545L24.3362 16.4091H25.8504ZM31.9211 26.1591V16.4091H33.2691V17.5586H33.3845C33.4645 17.4109 33.5799 17.2401 33.7307 17.0462C33.8815 16.8523 34.0908 16.683 34.3586 16.5384C34.6263 16.3906 34.9803 16.3168 35.4204 16.3168C35.9928 16.3168 36.5037 16.4614 36.953 16.7507C37.4024 17.04 37.7548 17.457 38.0102 18.0018C38.2687 18.5465 38.398 19.2021 38.398 19.9684C38.398 20.7347 38.2703 21.3918 38.0148 21.9396C37.7594 22.4844 37.4085 22.9045 36.9623 23.1999C36.516 23.4923 36.0067 23.6385 35.4342 23.6385C35.0033 23.6385 34.651 23.5662 34.377 23.4215C34.1062 23.2769 33.8939 23.1076 33.74 22.9137C33.5861 22.7198 33.4676 22.5475 33.3845 22.3967H33.3014V26.1591H31.9211ZM33.2737 19.9545C33.2737 20.4531 33.346 20.8902 33.4907 21.2656C33.6353 21.6411 33.8446 21.935 34.1185 22.1474C34.3924 22.3567 34.7279 22.4613 35.1249 22.4613C35.5373 22.4613 35.882 22.352 36.159 22.1335C36.436 21.9119 36.6453 21.6119 36.7868 21.2333C36.9315 20.8548 37.0038 20.4285 37.0038 19.9545C37.0038 19.4867 36.933 19.0666 36.7915 18.6942C36.653 18.3219 36.4437 18.0279 36.1636 17.8125C35.8866 17.5971 35.5404 17.4893 35.1249 17.4893C34.7248 17.4893 34.3863 17.5924 34.1093 17.7987C33.8354 18.0049 33.6276 18.2926 33.4861 18.6619C33.3445 19.0312 33.2737 19.4621 33.2737 19.9545ZM41.3248 14.0455V23.5H39.9445V14.0455H41.3248ZM46.1687 23.6431C45.5039 23.6431 44.9238 23.4908 44.4283 23.1861C43.9328 22.8814 43.5481 22.4551 43.2741 21.9073C43.0002 21.3595 42.8633 20.7193 42.8633 19.9869C42.8633 19.2513 43.0002 18.6081 43.2741 18.0572C43.5481 17.5063 43.9328 17.0785 44.4283 16.7738C44.9238 16.4691 45.5039 16.3168 46.1687 16.3168C46.8335 16.3168 47.4136 16.4691 47.9091 16.7738C48.4046 17.0785 48.7893 17.5063 49.0632 18.0572C49.3371 18.6081 49.4741 19.2513 49.4741 19.9869C49.4741 20.7193 49.3371 21.3595 49.0632 21.9073C48.7893 22.4551 48.4046 22.8814 47.9091 23.1861C47.4136 23.4908 46.8335 23.6431 46.1687 23.6431ZM46.1733 22.4844C46.6042 22.4844 46.9612 22.3705 47.2443 22.1428C47.5275 21.915 47.7367 21.6119 47.8722 21.2333C48.0107 20.8548 48.0799 20.4377 48.0799 19.9822C48.0799 19.5298 48.0107 19.1143 47.8722 18.7358C47.7367 18.3542 47.5275 18.0479 47.2443 17.8171C46.9612 17.5863 46.6042 17.4709 46.1733 17.4709C45.7393 17.4709 45.3793 17.5863 45.093 17.8171C44.8099 18.0479 44.5991 18.3542 44.4606 18.7358C44.3252 19.1143 44.2575 19.5298 44.2575 19.9822C44.2575 20.4377 44.3252 20.8548 44.4606 21.2333C44.5991 21.6119 44.8099 21.915 45.093 22.1428C45.3793 22.3705 45.7393 22.4844 46.1733 22.4844ZM51.0148 23.5V16.4091H52.349V17.5355H52.4229C52.5521 17.1539 52.7799 16.8538 53.1061 16.6353C53.4354 16.4137 53.8078 16.3029 54.2233 16.3029C54.3095 16.3029 54.411 16.306 54.528 16.3121C54.648 16.3183 54.7419 16.326 54.8096 16.3352V17.6555C54.7542 17.6402 54.6557 17.6232 54.5141 17.6048C54.3725 17.5832 54.231 17.5724 54.0894 17.5724C53.7632 17.5724 53.4723 17.6417 53.2169 17.7802C52.9645 17.9156 52.7645 18.1049 52.6167 18.348C52.469 18.5881 52.3952 18.862 52.3952 19.1697V23.5H51.0148ZM58.8063 23.6431C58.1077 23.6431 57.506 23.4938 57.0012 23.1953C56.4996 22.8937 56.1118 22.4705 55.8379 21.9258C55.5671 21.378 55.4316 20.7363 55.4316 20.0007C55.4316 19.2744 55.5671 18.6342 55.8379 18.0803C56.1118 17.5263 56.4934 17.0939 56.9828 16.783C57.4752 16.4722 58.0507 16.3168 58.7093 16.3168C59.1094 16.3168 59.4972 16.3829 59.8727 16.5153C60.2482 16.6476 60.5852 16.8554 60.8837 17.1385C61.1822 17.4216 61.4177 17.7894 61.59 18.2418C61.7624 18.6912 61.8485 19.2375 61.8485 19.8807V20.37H56.2118V19.3359H60.4959C60.4959 18.9728 60.4221 18.6512 60.2743 18.3711C60.1266 18.0879 59.9189 17.8648 59.6511 17.7017C59.3864 17.5386 59.0756 17.457 58.7186 17.457C58.3308 17.457 57.9922 17.5524 57.7029 17.7433C57.4167 17.931 57.1951 18.1772 57.0382 18.4819C56.8843 18.7835 56.8074 19.1113 56.8074 19.4652V20.2731C56.8074 20.747 56.8904 21.1502 57.0566 21.4826C57.2259 21.815 57.4614 22.0689 57.763 22.2443C58.0646 22.4167 58.417 22.5028 58.8201 22.5028C59.0817 22.5028 59.3203 22.4659 59.5357 22.392C59.7511 22.3151 59.9373 22.2012 60.0943 22.0504C60.2512 21.8996 60.3713 21.7134 60.4544 21.4918L61.7608 21.7273C61.6562 22.112 61.4685 22.449 61.1976 22.7383C60.9299 23.0245 60.5929 23.2476 60.1866 23.4077C59.7834 23.5646 59.3233 23.6431 58.8063 23.6431Z" fill="white" fill-opacity="0.6"/>
<path d="M89 18.5H77" stroke="white" stroke-opacity="0.6" stroke-width="1.5" stroke-linecap="round" stroke-linejoin="round"/>
<path d="M85 14.5L89 18.5L85 22.5" stroke="white" stroke-opacity="0.6" stroke-width="1.5" stroke-linecap="round" stroke-linejoin="round"/>
</svg>
