<svg width="32" height="33" viewBox="0 0 32 33" fill="none" xmlns="http://www.w3.org/2000/svg">
<path fill-rule="evenodd" clip-rule="evenodd" d="M25.3333 5.83365H6.66667C5.93029 5.83365 5.33334 6.43061 5.33334 7.16699V25.8336C5.33334 26.57 5.93029 27.1669 6.66667 27.1669H25.3333C26.0697 27.1669 26.6667 26.57 26.6667 25.8336V7.16699C26.6667 6.43061 26.0697 5.83365 25.3333 5.83365ZM6.66667 3.16699C4.45753 3.16699 2.66667 4.95785 2.66667 7.16699V25.8336C2.66667 28.0428 4.45753 29.8336 6.66667 29.8336H25.3333C27.5425 29.8336 29.3333 28.0428 29.3333 25.8336V7.16699C29.3333 4.95785 27.5425 3.16699 25.3333 3.16699H6.66667Z" fill="white"/>
<path d="M10.6667 21.8331V27.1664H13.3333V21.8331H26.6667V19.1664H13.3333V13.8331H26.6667V11.1664H13.3333V5.83301H10.6667V11.1664H5.33333V13.8331H10.6667V19.1664H5.33333V21.8331H10.6667Z" fill="#BDA0FF"/>
</svg>
