<svg width="1440" height="352" viewBox="0 0 1440 352" fill="none" xmlns="http://www.w3.org/2000/svg">
<g opacity="0.9">
<g opacity="0.406997">
<path d="M375 228.5C375 224.082 378.582 220.5 383 220.5H407C411.418 220.5 415 224.082 415 228.5V252.5C415 256.918 411.418 260.5 407 260.5H383C378.582 260.5 375 256.918 375 252.5V228.5Z" fill="white" fill-opacity="0.12"/>
</g>
<g opacity="0.01">
<path d="M331 228.5C331 224.082 334.582 220.5 339 220.5H363C367.418 220.5 371 224.082 371 228.5V252.5C371 256.918 367.418 260.5 363 260.5H339C334.582 260.5 331 256.918 331 252.5V228.5Z" fill="white" fill-opacity="0.12"/>
</g>
<g opacity="0.870639">
<path d="M287 228.5C287 224.082 290.582 220.5 295 220.5H319C323.418 220.5 327 224.082 327 228.5V252.5C327 256.918 323.418 260.5 319 260.5H295C290.582 260.5 287 256.918 287 252.5V228.5Z" fill="white" fill-opacity="0.12"/>
</g>
<g opacity="0.550602">
<path d="M243 228.5C243 224.082 246.582 220.5 251 220.5H275C279.418 220.5 283 224.082 283 228.5V252.5C283 256.918 279.418 260.5 275 260.5H251C246.582 260.5 243 256.918 243 252.5V228.5Z" fill="white" fill-opacity="0.12"/>
</g>
<g opacity="0.597494">
<path d="M199 228.5C199 224.082 202.582 220.5 207 220.5H231C235.418 220.5 239 224.082 239 228.5V252.5C239 256.918 235.418 260.5 231 260.5H207C202.582 260.5 199 256.918 199 252.5V228.5Z" fill="white" fill-opacity="0.12"/>
</g>
<g opacity="0.713385">
<path d="M111 228.5C111 224.082 114.582 220.5 119 220.5H143C147.418 220.5 151 224.082 151 228.5V252.5C151 256.918 147.418 260.5 143 260.5H119C114.582 260.5 111 256.918 111 252.5V228.5Z" fill="white" fill-opacity="0.12"/>
</g>
<g opacity="0.63104">
<path d="M375 184.5C375 180.082 378.582 176.5 383 176.5H407C411.418 176.5 415 180.082 415 184.5V208.5C415 212.918 411.418 216.5 407 216.5H383C378.582 216.5 375 212.918 375 208.5V184.5Z" fill="white" fill-opacity="0.12"/>
</g>
<g opacity="0.428746">
<path d="M331 184.5C331 180.082 334.582 176.5 339 176.5H363C367.418 176.5 371 180.082 371 184.5V208.5C371 212.918 367.418 216.5 363 216.5H339C334.582 216.5 331 212.918 331 208.5V184.5Z" fill="white" fill-opacity="0.12"/>
</g>
<g opacity="0.339668">
<path d="M199 184.5C199 180.082 202.582 176.5 207 176.5H231C235.418 176.5 239 180.082 239 184.5V208.5C239 212.918 235.418 216.5 231 216.5H207C202.582 216.5 199 212.918 199 208.5V184.5Z" fill="white" fill-opacity="0.12"/>
</g>
<g opacity="0.032285">
<path d="M155 184.5C155 180.082 158.582 176.5 163 176.5H187C191.418 176.5 195 180.082 195 184.5V208.5C195 212.918 191.418 216.5 187 216.5H163C158.582 216.5 155 212.918 155 208.5V184.5Z" fill="white" fill-opacity="0.12"/>
</g>
<g opacity="0.115114">
<path d="M111 184.5C111 180.082 114.582 176.5 119 176.5H143C147.418 176.5 151 180.082 151 184.5V208.5C151 212.918 147.418 216.5 143 216.5H119C114.582 216.5 111 212.918 111 208.5V184.5Z" fill="white" fill-opacity="0.12"/>
</g>
<g opacity="0.753539">
<path d="M67 184.5C67 180.082 70.5817 176.5 75 176.5H99C103.418 176.5 107 180.082 107 184.5V208.5C107 212.918 103.418 216.5 99 216.5H75C70.5817 216.5 67 212.918 67 208.5V184.5Z" fill="white" fill-opacity="0.12"/>
</g>
<g opacity="0.970147">
<path d="M243 140.5C243 136.082 246.582 132.5 251 132.5H275C279.418 132.5 283 136.082 283 140.5V164.5C283 168.918 279.418 172.5 275 172.5H251C246.582 172.5 243 168.918 243 164.5V140.5Z" fill="white" fill-opacity="0.12"/>
</g>
<g opacity="0.795098">
<path d="M199 140.5C199 136.082 202.582 132.5 207 132.5H231C235.418 132.5 239 136.082 239 140.5V164.5C239 168.918 235.418 172.5 231 172.5H207C202.582 172.5 199 168.918 199 164.5V140.5Z" fill="white" fill-opacity="0.12"/>
</g>
<g opacity="0.380384">
<path d="M155 140.5C155 136.082 158.582 132.5 163 132.5H187C191.418 132.5 195 136.082 195 140.5V164.5C195 168.918 191.418 172.5 187 172.5H163C158.582 172.5 155 168.918 155 164.5V140.5Z" fill="white" fill-opacity="0.12"/>
</g>
<g opacity="0.01">
<path d="M111 140.5C111 136.082 114.582 132.5 119 132.5H143C147.418 132.5 151 136.082 151 140.5V164.5C151 168.918 147.418 172.5 143 172.5H119C114.582 172.5 111 168.918 111 164.5V140.5Z" fill="white" fill-opacity="0.12"/>
</g>
<g opacity="0.920591">
<path d="M67 140.5C67 136.082 70.5817 132.5 75 132.5H99C103.418 132.5 107 136.082 107 140.5V164.5C107 168.918 103.418 172.5 99 172.5H75C70.5817 172.5 67 168.918 67 164.5V140.5Z" fill="white" fill-opacity="0.12"/>
</g>
<g opacity="0.175989">
<path d="M243 96.5C243 92.0817 246.582 88.5 251 88.5H275C279.418 88.5 283 92.0817 283 96.5V120.5C283 124.918 279.418 128.5 275 128.5H251C246.582 128.5 243 124.918 243 120.5V96.5Z" fill="white" fill-opacity="0.12"/>
</g>
<g opacity="0.163747">
<path d="M199 96.5C199 92.0817 202.582 88.5 207 88.5H231C235.418 88.5 239 92.0817 239 96.5V120.5C239 124.918 235.418 128.5 231 128.5H207C202.582 128.5 199 124.918 199 120.5V96.5Z" fill="white" fill-opacity="0.12"/>
</g>
<g opacity="0.127446">
<path d="M155 96.5C155 92.0817 158.582 88.5 163 88.5H187C191.418 88.5 195 92.0817 195 96.5V120.5C195 124.918 191.418 128.5 187 128.5H163C158.582 128.5 155 124.918 155 120.5V96.5Z" fill="white" fill-opacity="0.12"/>
</g>
<g opacity="0.105189">
<path d="M111 96.5C111 92.0817 114.582 88.5 119 88.5H143C147.418 88.5 151 92.0817 151 96.5V120.5C151 124.918 147.418 128.5 143 128.5H119C114.582 128.5 111 124.918 111 120.5V96.5Z" fill="white" fill-opacity="0.12"/>
</g>
<g opacity="0.613539">
<path d="M67 96.5C67 92.0817 70.5817 88.5 75 88.5H99C103.418 88.5 107 92.0817 107 96.5V120.5C107 124.918 103.418 128.5 99 128.5H75C70.5817 128.5 67 124.918 67 120.5V96.5Z" fill="white" fill-opacity="0.12"/>
</g>
<g opacity="0.115307">
<path d="M287 52.5C287 48.0817 290.582 44.5 295 44.5H319C323.418 44.5 327 48.0817 327 52.5V76.5C327 80.9183 323.418 84.5 319 84.5H295C290.582 84.5 287 80.9183 287 76.5V52.5Z" fill="white" fill-opacity="0.12"/>
</g>
<g opacity="0.0289743">
<path d="M243 52.5C243 48.0817 246.582 44.5 251 44.5H275C279.418 44.5 283 48.0817 283 52.5V76.5C283 80.9183 279.418 84.5 275 84.5H251C246.582 84.5 243 80.9183 243 76.5V52.5Z" fill="white" fill-opacity="0.12"/>
</g>
<g opacity="0.283677">
<path d="M199 52.5C199 48.0817 202.582 44.5 207 44.5H231C235.418 44.5 239 48.0817 239 52.5V76.5C239 80.9183 235.418 84.5 231 84.5H207C202.582 84.5 199 80.9183 199 76.5V52.5Z" fill="white" fill-opacity="0.12"/>
</g>
<g opacity="0.610042">
<path d="M155 52.5C155 48.0817 158.582 44.5 163 44.5H187C191.418 44.5 195 48.0817 195 52.5V76.5C195 80.9183 191.418 84.5 187 84.5H163C158.582 84.5 155 80.9183 155 76.5V52.5Z" fill="white" fill-opacity="0.12"/>
</g>
<g opacity="0.538233">
<path d="M111 52.5C111 48.0817 114.582 44.5 119 44.5H143C147.418 44.5 151 48.0817 151 52.5V76.5C151 80.9183 147.418 84.5 143 84.5H119C114.582 84.5 111 80.9183 111 76.5V52.5Z" fill="white" fill-opacity="0.12"/>
</g>
<g opacity="0.6292">
<path d="M67 52.5C67 48.0817 70.5817 44.5 75 44.5H99C103.418 44.5 107 48.0817 107 52.5V76.5C107 80.9183 103.418 84.5 99 84.5H75C70.5817 84.5 67 80.9183 67 76.5V52.5Z" fill="white" fill-opacity="0.12"/>
</g>
<g opacity="0.416315">
<path d="M375 8.5C375 4.08172 378.582 0.5 383 0.5H407C411.418 0.5 415 4.08172 415 8.5V32.5C415 36.9183 411.418 40.5 407 40.5H383C378.582 40.5 375 36.9183 375 32.5V8.5Z" fill="white" fill-opacity="0.12"/>
</g>
<g opacity="0.0642537">
<path d="M331 8.5C331 4.08172 334.582 0.5 339 0.5H363C367.418 0.5 371 4.08172 371 8.5V32.5C371 36.9183 367.418 40.5 363 40.5H339C334.582 40.5 331 36.9183 331 32.5V8.5Z" fill="white" fill-opacity="0.12"/>
</g>
<g opacity="0.925682">
<path d="M287 8.5C287 4.08172 290.582 0.5 295 0.5H319C323.418 0.5 327 4.08172 327 8.5V32.5C327 36.9183 323.418 40.5 319 40.5H295C290.582 40.5 287 36.9183 287 32.5V8.5Z" fill="white" fill-opacity="0.12"/>
</g>
<g opacity="0.151291">
<path d="M243 8.5C243 4.08172 246.582 0.5 251 0.5H275C279.418 0.5 283 4.08172 283 8.5V32.5C283 36.9183 279.418 40.5 275 40.5H251C246.582 40.5 243 36.9183 243 32.5V8.5Z" fill="white" fill-opacity="0.12"/>
</g>
<g opacity="0.729212">
<path d="M199 8.5C199 4.08172 202.582 0.5 207 0.5H231C235.418 0.5 239 4.08172 239 8.5V32.5C239 36.9183 235.418 40.5 231 40.5H207C202.582 40.5 199 36.9183 199 32.5V8.5Z" fill="white" fill-opacity="0.12"/>
</g>
<g opacity="0.284549">
<path d="M111 8.5C111 4.08172 114.582 0.5 119 0.5H143C147.418 0.5 151 4.08172 151 8.5V32.5C151 36.9183 147.418 40.5 143 40.5H119C114.582 40.5 111 36.9183 111 32.5V8.5Z" fill="white" fill-opacity="0.12"/>
</g>
<g opacity="0.406997">
<path d="M1333 228.5C1333 224.082 1336.58 220.5 1341 220.5H1365C1369.42 220.5 1373 224.082 1373 228.5V252.5C1373 256.918 1369.42 260.5 1365 260.5H1341C1336.58 260.5 1333 256.918 1333 252.5V228.5Z" fill="white" fill-opacity="0.12"/>
</g>
<g opacity="0.01">
<path d="M1289 228.5C1289 224.082 1292.58 220.5 1297 220.5H1321C1325.42 220.5 1329 224.082 1329 228.5V252.5C1329 256.918 1325.42 260.5 1321 260.5H1297C1292.58 260.5 1289 256.918 1289 252.5V228.5Z" fill="white" fill-opacity="0.12"/>
</g>
<g opacity="0.870639">
<path d="M1245 228.5C1245 224.082 1248.58 220.5 1253 220.5H1277C1281.42 220.5 1285 224.082 1285 228.5V252.5C1285 256.918 1281.42 260.5 1277 260.5H1253C1248.58 260.5 1245 256.918 1245 252.5V228.5Z" fill="white" fill-opacity="0.12"/>
</g>
<g opacity="0.550602">
<path d="M1201 228.5C1201 224.082 1204.58 220.5 1209 220.5H1233C1237.42 220.5 1241 224.082 1241 228.5V252.5C1241 256.918 1237.42 260.5 1233 260.5H1209C1204.58 260.5 1201 256.918 1201 252.5V228.5Z" fill="white" fill-opacity="0.12"/>
</g>
<g opacity="0.597494">
<path d="M1157 228.5C1157 224.082 1160.58 220.5 1165 220.5H1189C1193.42 220.5 1197 224.082 1197 228.5V252.5C1197 256.918 1193.42 260.5 1189 260.5H1165C1160.58 260.5 1157 256.918 1157 252.5V228.5Z" fill="white" fill-opacity="0.12"/>
</g>
<g opacity="0.713385">
<path d="M1069 228.5C1069 224.082 1072.58 220.5 1077 220.5H1101C1105.42 220.5 1109 224.082 1109 228.5V252.5C1109 256.918 1105.42 260.5 1101 260.5H1077C1072.58 260.5 1069 256.918 1069 252.5V228.5Z" fill="white" fill-opacity="0.12"/>
</g>
<g opacity="0.63104">
<path d="M1333 184.5C1333 180.082 1336.58 176.5 1341 176.5H1365C1369.42 176.5 1373 180.082 1373 184.5V208.5C1373 212.918 1369.42 216.5 1365 216.5H1341C1336.58 216.5 1333 212.918 1333 208.5V184.5Z" fill="white" fill-opacity="0.12"/>
</g>
<g opacity="0.428746">
<path d="M1289 184.5C1289 180.082 1292.58 176.5 1297 176.5H1321C1325.42 176.5 1329 180.082 1329 184.5V208.5C1329 212.918 1325.42 216.5 1321 216.5H1297C1292.58 216.5 1289 212.918 1289 208.5V184.5Z" fill="white" fill-opacity="0.12"/>
</g>
<g opacity="0.339668">
<path d="M1157 184.5C1157 180.082 1160.58 176.5 1165 176.5H1189C1193.42 176.5 1197 180.082 1197 184.5V208.5C1197 212.918 1193.42 216.5 1189 216.5H1165C1160.58 216.5 1157 212.918 1157 208.5V184.5Z" fill="white" fill-opacity="0.12"/>
</g>
<g opacity="0.032285">
<path d="M1113 184.5C1113 180.082 1116.58 176.5 1121 176.5H1145C1149.42 176.5 1153 180.082 1153 184.5V208.5C1153 212.918 1149.42 216.5 1145 216.5H1121C1116.58 216.5 1113 212.918 1113 208.5V184.5Z" fill="white" fill-opacity="0.12"/>
</g>
<g opacity="0.115114">
<path d="M1069 184.5C1069 180.082 1072.58 176.5 1077 176.5H1101C1105.42 176.5 1109 180.082 1109 184.5V208.5C1109 212.918 1105.42 216.5 1101 216.5H1077C1072.58 216.5 1069 212.918 1069 208.5V184.5Z" fill="white" fill-opacity="0.12"/>
</g>
<g opacity="0.753539">
<path d="M1025 184.5C1025 180.082 1028.58 176.5 1033 176.5H1057C1061.42 176.5 1065 180.082 1065 184.5V208.5C1065 212.918 1061.42 216.5 1057 216.5H1033C1028.58 216.5 1025 212.918 1025 208.5V184.5Z" fill="white" fill-opacity="0.12"/>
</g>
<g opacity="0.970147">
<path d="M1201 140.5C1201 136.082 1204.58 132.5 1209 132.5H1233C1237.42 132.5 1241 136.082 1241 140.5V164.5C1241 168.918 1237.42 172.5 1233 172.5H1209C1204.58 172.5 1201 168.918 1201 164.5V140.5Z" fill="white" fill-opacity="0.12"/>
</g>
<g opacity="0.795098">
<path d="M1157 140.5C1157 136.082 1160.58 132.5 1165 132.5H1189C1193.42 132.5 1197 136.082 1197 140.5V164.5C1197 168.918 1193.42 172.5 1189 172.5H1165C1160.58 172.5 1157 168.918 1157 164.5V140.5Z" fill="white" fill-opacity="0.12"/>
</g>
<g opacity="0.380384">
<path d="M1113 140.5C1113 136.082 1116.58 132.5 1121 132.5H1145C1149.42 132.5 1153 136.082 1153 140.5V164.5C1153 168.918 1149.42 172.5 1145 172.5H1121C1116.58 172.5 1113 168.918 1113 164.5V140.5Z" fill="white" fill-opacity="0.12"/>
</g>
<g opacity="0.01">
<path d="M1069 140.5C1069 136.082 1072.58 132.5 1077 132.5H1101C1105.42 132.5 1109 136.082 1109 140.5V164.5C1109 168.918 1105.42 172.5 1101 172.5H1077C1072.58 172.5 1069 168.918 1069 164.5V140.5Z" fill="white" fill-opacity="0.12"/>
</g>
<g opacity="0.920591">
<path d="M1025 140.5C1025 136.082 1028.58 132.5 1033 132.5H1057C1061.42 132.5 1065 136.082 1065 140.5V164.5C1065 168.918 1061.42 172.5 1057 172.5H1033C1028.58 172.5 1025 168.918 1025 164.5V140.5Z" fill="white" fill-opacity="0.12"/>
</g>
<g opacity="0.175989">
<path d="M1201 96.5C1201 92.0817 1204.58 88.5 1209 88.5H1233C1237.42 88.5 1241 92.0817 1241 96.5V120.5C1241 124.918 1237.42 128.5 1233 128.5H1209C1204.58 128.5 1201 124.918 1201 120.5V96.5Z" fill="white" fill-opacity="0.12"/>
</g>
<g opacity="0.163747">
<path d="M1157 96.5C1157 92.0817 1160.58 88.5 1165 88.5H1189C1193.42 88.5 1197 92.0817 1197 96.5V120.5C1197 124.918 1193.42 128.5 1189 128.5H1165C1160.58 128.5 1157 124.918 1157 120.5V96.5Z" fill="white" fill-opacity="0.12"/>
</g>
<g opacity="0.127446">
<path d="M1113 96.5C1113 92.0817 1116.58 88.5 1121 88.5H1145C1149.42 88.5 1153 92.0817 1153 96.5V120.5C1153 124.918 1149.42 128.5 1145 128.5H1121C1116.58 128.5 1113 124.918 1113 120.5V96.5Z" fill="white" fill-opacity="0.12"/>
</g>
<g opacity="0.105189">
<path d="M1069 96.5C1069 92.0817 1072.58 88.5 1077 88.5H1101C1105.42 88.5 1109 92.0817 1109 96.5V120.5C1109 124.918 1105.42 128.5 1101 128.5H1077C1072.58 128.5 1069 124.918 1069 120.5V96.5Z" fill="white" fill-opacity="0.12"/>
</g>
<g opacity="0.613539">
<path d="M1025 96.5C1025 92.0817 1028.58 88.5 1033 88.5H1057C1061.42 88.5 1065 92.0817 1065 96.5V120.5C1065 124.918 1061.42 128.5 1057 128.5H1033C1028.58 128.5 1025 124.918 1025 120.5V96.5Z" fill="white" fill-opacity="0.12"/>
</g>
<g opacity="0.115307">
<path d="M1245 52.5C1245 48.0817 1248.58 44.5 1253 44.5L1277 44.5C1281.42 44.5 1285 48.0817 1285 52.5V76.5C1285 80.9183 1281.42 84.5 1277 84.5H1253C1248.58 84.5 1245 80.9183 1245 76.5V52.5Z" fill="white" fill-opacity="0.12"/>
</g>
<g opacity="0.0289743">
<path d="M1201 52.5C1201 48.0817 1204.58 44.5 1209 44.5L1233 44.5C1237.42 44.5 1241 48.0817 1241 52.5V76.5C1241 80.9183 1237.42 84.5 1233 84.5H1209C1204.58 84.5 1201 80.9183 1201 76.5V52.5Z" fill="white" fill-opacity="0.12"/>
</g>
<g opacity="0.283677">
<path d="M1157 52.5C1157 48.0817 1160.58 44.5 1165 44.5L1189 44.5C1193.42 44.5 1197 48.0817 1197 52.5V76.5C1197 80.9183 1193.42 84.5 1189 84.5H1165C1160.58 84.5 1157 80.9183 1157 76.5V52.5Z" fill="white" fill-opacity="0.12"/>
</g>
<g opacity="0.610042">
<path d="M1113 52.5C1113 48.0817 1116.58 44.5 1121 44.5L1145 44.5C1149.42 44.5 1153 48.0817 1153 52.5V76.5C1153 80.9183 1149.42 84.5 1145 84.5H1121C1116.58 84.5 1113 80.9183 1113 76.5V52.5Z" fill="white" fill-opacity="0.12"/>
</g>
<g opacity="0.538233">
<path d="M1069 52.5C1069 48.0817 1072.58 44.5 1077 44.5L1101 44.5C1105.42 44.5 1109 48.0817 1109 52.5V76.5C1109 80.9183 1105.42 84.5 1101 84.5H1077C1072.58 84.5 1069 80.9183 1069 76.5V52.5Z" fill="white" fill-opacity="0.12"/>
</g>
<g opacity="0.6292">
<path d="M1025 52.5C1025 48.0817 1028.58 44.5 1033 44.5L1057 44.5C1061.42 44.5 1065 48.0817 1065 52.5V76.5C1065 80.9183 1061.42 84.5 1057 84.5H1033C1028.58 84.5 1025 80.9183 1025 76.5V52.5Z" fill="white" fill-opacity="0.12"/>
</g>
<g opacity="0.416315">
<path d="M1333 8.5C1333 4.08172 1336.58 0.5 1341 0.5L1365 0.5C1369.42 0.5 1373 4.08172 1373 8.5V32.5C1373 36.9183 1369.42 40.5 1365 40.5L1341 40.5C1336.58 40.5 1333 36.9183 1333 32.5V8.5Z" fill="white" fill-opacity="0.12"/>
</g>
<g opacity="0.0642537">
<path d="M1289 8.5C1289 4.08172 1292.58 0.5 1297 0.5L1321 0.5C1325.42 0.5 1329 4.08172 1329 8.5V32.5C1329 36.9183 1325.42 40.5 1321 40.5L1297 40.5C1292.58 40.5 1289 36.9183 1289 32.5V8.5Z" fill="white" fill-opacity="0.12"/>
</g>
<g opacity="0.925682">
<path d="M1245 8.5C1245 4.08172 1248.58 0.5 1253 0.5L1277 0.5C1281.42 0.5 1285 4.08172 1285 8.5V32.5C1285 36.9183 1281.42 40.5 1277 40.5L1253 40.5C1248.58 40.5 1245 36.9183 1245 32.5V8.5Z" fill="white" fill-opacity="0.12"/>
</g>
<g opacity="0.151291">
<path d="M1201 8.5C1201 4.08172 1204.58 0.5 1209 0.5L1233 0.5C1237.42 0.5 1241 4.08172 1241 8.5V32.5C1241 36.9183 1237.42 40.5 1233 40.5L1209 40.5C1204.58 40.5 1201 36.9183 1201 32.5V8.5Z" fill="white" fill-opacity="0.12"/>
</g>
<g opacity="0.729212">
<path d="M1157 8.5C1157 4.08172 1160.58 0.5 1165 0.5L1189 0.5C1193.42 0.5 1197 4.08172 1197 8.5V32.5C1197 36.9183 1193.42 40.5 1189 40.5L1165 40.5C1160.58 40.5 1157 36.9183 1157 32.5V8.5Z" fill="white" fill-opacity="0.12"/>
</g>
<g opacity="0.284549">
<path d="M1069 8.5C1069 4.08172 1072.58 0.5 1077 0.5L1101 0.5C1105.42 0.5 1109 4.08172 1109 8.5V32.5C1109 36.9183 1105.42 40.5 1101 40.5L1077 40.5C1072.58 40.5 1069 36.9183 1069 32.5V8.5Z" fill="white" fill-opacity="0.12"/>
</g>
</g>
</svg>
