<svg width="56" height="56" viewBox="0 0 56 56" fill="none" xmlns="http://www.w3.org/2000/svg">
<g filter="url(#filter0_ddd_28_6082)">
<rect x="10" width="36" height="36" rx="18" fill="black" fill-opacity="0.6" shape-rendering="crispEdges"/>
<rect x="10.5" y="0.5" width="35" height="35" rx="17.5" stroke="white" stroke-opacity="0.1" shape-rendering="crispEdges"/>
<g clip-path="url(#clip0_28_6082)">
<path d="M32.8933 24.6668H23.1067C22.1267 24.6668 21.3333 23.8735 21.3333 22.8935V13.1068C21.3333 12.1268 22.1267 11.3335 23.1067 11.3335H32.8867C33.8733 11.3335 34.6667 12.1268 34.6667 13.1068V22.8868C34.6667 23.8735 33.8733 24.6668 32.8933 24.6668Z" stroke="white" stroke-width="1.5" stroke-miterlimit="10" stroke-linecap="round" stroke-linejoin="round"/>
<path d="M30.6667 18.0002C30.6667 19.4735 29.4733 20.6668 28 20.6668C26.5267 20.6668 25.3333 19.4735 25.3333 18.0002C25.3333 16.5268 26.5267 15.3335 28 15.3335C29.4733 15.3335 30.6667 16.5268 30.6667 18.0002Z" stroke="white" stroke-width="1.5" stroke-miterlimit="10" stroke-linecap="round" stroke-linejoin="round"/>
<path d="M32.6667 13.6668C32.6667 13.8535 32.52 14.0002 32.3333 14.0002C32.1467 14.0002 32 13.8535 32 13.6668C32 13.4802 32.1467 13.3335 32.3333 13.3335C32.52 13.3335 32.6667 13.4802 32.6667 13.6668Z" stroke="white" stroke-width="1.5" stroke-miterlimit="10" stroke-linecap="round" stroke-linejoin="round"/>
</g>
</g>
<defs>
<filter id="filter0_ddd_28_6082" x="-10" y="-20" width="76" height="76" filterUnits="userSpaceOnUse" color-interpolation-filters="sRGB">
<feFlood flood-opacity="0" result="BackgroundImageFix"/>
<feColorMatrix in="SourceAlpha" type="matrix" values="0 0 0 0 0 0 0 0 0 0 0 0 0 0 0 0 0 0 127 0" result="hardAlpha"/>
<feOffset dy="10"/>
<feGaussianBlur stdDeviation="5"/>
<feComposite in2="hardAlpha" operator="out"/>
<feColorMatrix type="matrix" values="0 0 0 0 0 0 0 0 0 0 0 0 0 0 0 0 0 0 0.1 0"/>
<feBlend mode="normal" in2="BackgroundImageFix" result="effect1_dropShadow_28_6082"/>
<feColorMatrix in="SourceAlpha" type="matrix" values="0 0 0 0 0 0 0 0 0 0 0 0 0 0 0 0 0 0 127 0" result="hardAlpha"/>
<feOffset dy="4"/>
<feGaussianBlur stdDeviation="2"/>
<feComposite in2="hardAlpha" operator="out"/>
<feColorMatrix type="matrix" values="0 0 0 0 0 0 0 0 0 0 0 0 0 0 0 0 0 0 0.05 0"/>
<feBlend mode="normal" in2="effect1_dropShadow_28_6082" result="effect2_dropShadow_28_6082"/>
<feColorMatrix in="SourceAlpha" type="matrix" values="0 0 0 0 0 0 0 0 0 0 0 0 0 0 0 0 0 0 127 0" result="hardAlpha"/>
<feOffset dy="1"/>
<feComposite in2="hardAlpha" operator="out"/>
<feColorMatrix type="matrix" values="0 0 0 0 0 0 0 0 0 0 0 0 0 0 0 0 0 0 0.05 0"/>
<feBlend mode="normal" in2="effect2_dropShadow_28_6082" result="effect3_dropShadow_28_6082"/>
<feBlend mode="normal" in="SourceGraphic" in2="effect3_dropShadow_28_6082" result="shape"/>
</filter>
<clipPath id="clip0_28_6082">
<rect width="16" height="16" fill="white" transform="translate(20 10)"/>
</clipPath>
</defs>
</svg>
