<svg width="670" height="670" viewBox="0 0 670 670" fill="none" xmlns="http://www.w3.org/2000/svg">
<rect x="122" y="555" width="165" height="41" rx="12" fill="#908092" fill-opacity="0.15"/>
<rect x="122.5" y="555.5" width="164" height="40" rx="11.5" stroke="white" stroke-opacity="0.2"/>
<path d="M139.546 582V568.909H144.212C145.23 568.909 146.074 569.094 146.743 569.465C147.412 569.836 147.913 570.343 148.245 570.987C148.578 571.626 148.744 572.346 148.744 573.147C148.744 573.952 148.575 574.677 148.239 575.32C147.906 575.96 147.404 576.467 146.73 576.842C146.061 577.212 145.22 577.398 144.205 577.398H140.997V575.723H144.026C144.67 575.723 145.192 575.612 145.593 575.391C145.993 575.165 146.287 574.858 146.475 574.47C146.662 574.082 146.756 573.641 146.756 573.147C146.756 572.653 146.662 572.214 146.475 571.83C146.287 571.447 145.991 571.146 145.586 570.929C145.186 570.712 144.657 570.603 144.001 570.603H141.521V582H139.546ZM153.675 582.217C153.053 582.217 152.491 582.102 151.988 581.872C151.485 581.638 151.086 581.299 150.792 580.856C150.503 580.413 150.358 579.869 150.358 579.226C150.358 578.672 150.464 578.216 150.677 577.858C150.89 577.5 151.178 577.217 151.54 577.008C151.903 576.799 152.307 576.641 152.755 576.535C153.202 576.428 153.658 576.347 154.123 576.292C154.711 576.224 155.188 576.168 155.555 576.126C155.921 576.079 156.187 576.004 156.354 575.902C156.52 575.8 156.603 575.634 156.603 575.403V575.359C156.603 574.8 156.445 574.368 156.13 574.061C155.819 573.754 155.354 573.601 154.736 573.601C154.093 573.601 153.586 573.744 153.215 574.029C152.849 574.31 152.595 574.624 152.454 574.969L150.658 574.56C150.871 573.963 151.182 573.482 151.591 573.115C152.005 572.744 152.48 572.476 153.017 572.31C153.554 572.139 154.118 572.054 154.711 572.054C155.103 572.054 155.518 572.101 155.957 572.195C156.4 572.284 156.814 572.45 157.197 572.693C157.585 572.936 157.903 573.283 158.15 573.735C158.397 574.183 158.52 574.764 158.52 575.48V582H156.654V580.658H156.577C156.454 580.905 156.268 581.148 156.021 581.386C155.774 581.625 155.456 581.823 155.069 581.981C154.681 582.138 154.216 582.217 153.675 582.217ZM154.091 580.683C154.619 580.683 155.071 580.579 155.446 580.37C155.825 580.161 156.113 579.888 156.309 579.552C156.509 579.211 156.609 578.847 156.609 578.459V577.193C156.541 577.261 156.409 577.325 156.213 577.385C156.021 577.44 155.802 577.489 155.555 577.532C155.307 577.57 155.067 577.607 154.832 577.641C154.598 577.67 154.402 577.696 154.244 577.717C153.873 577.764 153.535 577.843 153.228 577.954C152.925 578.065 152.682 578.224 152.499 578.433C152.32 578.638 152.231 578.911 152.231 579.251C152.231 579.724 152.405 580.082 152.755 580.325C153.104 580.564 153.55 580.683 154.091 580.683ZM161.923 585.682C161.637 585.682 161.377 585.658 161.143 585.612C160.908 585.569 160.734 585.522 160.619 585.471L161.079 583.905C161.428 583.999 161.739 584.039 162.012 584.026C162.285 584.013 162.526 583.911 162.734 583.719C162.947 583.528 163.135 583.214 163.297 582.78L163.533 582.128L159.941 572.182H161.987L164.473 579.801H164.575L167.062 572.182H169.114L165.067 583.31C164.88 583.822 164.641 584.254 164.352 584.608C164.062 584.966 163.717 585.234 163.316 585.413C162.915 585.592 162.451 585.682 161.923 585.682ZM174.711 582.198C173.791 582.198 172.988 581.987 172.302 581.565C171.616 581.143 171.083 580.553 170.704 579.795C170.324 579.036 170.135 578.15 170.135 577.136C170.135 576.117 170.324 575.227 170.704 574.464C171.083 573.701 171.616 573.109 172.302 572.687C172.988 572.265 173.791 572.054 174.711 572.054C175.632 572.054 176.435 572.265 177.121 572.687C177.807 573.109 178.34 573.701 178.719 574.464C179.099 575.227 179.288 576.117 179.288 577.136C179.288 578.15 179.099 579.036 178.719 579.795C178.34 580.553 177.807 581.143 177.121 581.565C176.435 581.987 175.632 582.198 174.711 582.198ZM174.718 580.594C175.314 580.594 175.809 580.436 176.201 580.121C176.593 579.805 176.883 579.386 177.07 578.862C177.262 578.337 177.358 577.76 177.358 577.129C177.358 576.503 177.262 575.928 177.07 575.403C176.883 574.875 176.593 574.451 176.201 574.131C175.809 573.812 175.314 573.652 174.718 573.652C174.117 573.652 173.618 573.812 173.222 574.131C172.83 574.451 172.538 574.875 172.346 575.403C172.159 575.928 172.065 576.503 172.065 577.129C172.065 577.76 172.159 578.337 172.346 578.862C172.538 579.386 172.83 579.805 173.222 580.121C173.618 580.436 174.117 580.594 174.718 580.594ZM187.641 577.928V572.182H189.559V582H187.679V580.3H187.577C187.351 580.824 186.989 581.261 186.49 581.61C185.996 581.955 185.38 582.128 184.643 582.128C184.012 582.128 183.454 581.989 182.968 581.712C182.487 581.431 182.108 581.016 181.831 580.466C181.558 579.916 181.422 579.237 181.422 578.427V572.182H183.333V578.197C183.333 578.866 183.518 579.398 183.889 579.795C184.26 580.191 184.741 580.389 185.333 580.389C185.691 580.389 186.047 580.3 186.401 580.121C186.759 579.942 187.055 579.671 187.289 579.309C187.528 578.947 187.645 578.487 187.641 577.928ZM196.71 572.182V573.716H191.347V572.182H196.71ZM192.785 569.83H194.696V579.117C194.696 579.488 194.752 579.767 194.862 579.955C194.973 580.138 195.116 580.263 195.291 580.332C195.47 580.396 195.664 580.428 195.872 580.428C196.026 580.428 196.16 580.417 196.275 580.396C196.39 580.374 196.48 580.357 196.544 580.344L196.889 581.923C196.778 581.966 196.62 582.009 196.416 582.051C196.211 582.098 195.955 582.124 195.649 582.128C195.146 582.136 194.677 582.047 194.242 581.859C193.808 581.672 193.456 581.382 193.188 580.99C192.919 580.598 192.785 580.106 192.785 579.513V569.83ZM203.588 585.682V572.182H205.454V573.773H205.614C205.725 573.569 205.884 573.332 206.093 573.064C206.302 572.795 206.592 572.561 206.963 572.361C207.333 572.156 207.823 572.054 208.433 572.054C209.225 572.054 209.933 572.254 210.555 572.655C211.177 573.055 211.665 573.633 212.019 574.387C212.377 575.141 212.556 576.049 212.556 577.11C212.556 578.171 212.379 579.081 212.025 579.839C211.671 580.594 211.186 581.175 210.568 581.585C209.95 581.989 209.244 582.192 208.452 582.192C207.855 582.192 207.367 582.092 206.988 581.891C206.613 581.691 206.319 581.457 206.106 581.188C205.893 580.92 205.729 580.681 205.614 580.472H205.499V585.682H203.588ZM205.46 577.091C205.46 577.781 205.561 578.386 205.761 578.906C205.961 579.426 206.251 579.833 206.63 580.127C207.009 580.417 207.474 580.562 208.024 580.562C208.595 580.562 209.072 580.411 209.455 580.108C209.839 579.801 210.129 579.386 210.325 578.862C210.525 578.337 210.625 577.747 210.625 577.091C210.625 576.443 210.527 575.862 210.331 575.346C210.139 574.83 209.85 574.423 209.462 574.125C209.078 573.827 208.599 573.678 208.024 573.678C207.47 573.678 207.001 573.82 206.617 574.106C206.238 574.391 205.95 574.79 205.754 575.301C205.558 575.812 205.46 576.409 205.46 577.091ZM214.697 582V572.182H216.544V573.741H216.646C216.825 573.213 217.141 572.798 217.593 572.495C218.048 572.188 218.564 572.035 219.139 572.035C219.259 572.035 219.399 572.039 219.561 572.048C219.727 572.056 219.857 572.067 219.951 572.08V573.908C219.874 573.886 219.738 573.863 219.542 573.837C219.346 573.808 219.15 573.793 218.954 573.793C218.502 573.793 218.1 573.888 217.746 574.08C217.396 574.268 217.119 574.53 216.915 574.866C216.71 575.199 216.608 575.578 216.608 576.004V582H214.697ZM225.389 582.198C224.469 582.198 223.665 581.987 222.979 581.565C222.293 581.143 221.761 580.553 221.381 579.795C221.002 579.036 220.812 578.15 220.812 577.136C220.812 576.117 221.002 575.227 221.381 574.464C221.761 573.701 222.293 573.109 222.979 572.687C223.665 572.265 224.469 572.054 225.389 572.054C226.31 572.054 227.113 572.265 227.799 572.687C228.485 573.109 229.018 573.701 229.397 574.464C229.776 575.227 229.966 576.117 229.966 577.136C229.966 578.15 229.776 579.036 229.397 579.795C229.018 580.553 228.485 581.143 227.799 581.565C227.113 581.987 226.31 582.198 225.389 582.198ZM225.396 580.594C225.992 580.594 226.487 580.436 226.879 580.121C227.271 579.805 227.56 579.386 227.748 578.862C227.94 578.337 228.036 577.76 228.036 577.129C228.036 576.503 227.94 575.928 227.748 575.403C227.56 574.875 227.271 574.451 226.879 574.131C226.487 573.812 225.992 573.652 225.396 573.652C224.795 573.652 224.296 573.812 223.9 574.131C223.508 574.451 223.216 574.875 223.024 575.403C222.837 575.928 222.743 576.503 222.743 577.129C222.743 577.76 222.837 578.337 223.024 578.862C223.216 579.386 223.508 579.805 223.9 580.121C224.296 580.436 224.795 580.594 225.396 580.594ZM236.235 582.198C235.285 582.198 234.466 581.983 233.78 581.553C233.099 581.118 232.574 580.519 232.208 579.756C231.841 578.994 231.658 578.12 231.658 577.136C231.658 576.138 231.846 575.259 232.221 574.496C232.596 573.729 233.124 573.13 233.806 572.7C234.488 572.269 235.291 572.054 236.216 572.054C236.961 572.054 237.626 572.192 238.21 572.469C238.794 572.742 239.265 573.126 239.623 573.62C239.985 574.114 240.2 574.692 240.268 575.352H238.408C238.306 574.892 238.072 574.496 237.705 574.163C237.343 573.831 236.857 573.665 236.248 573.665C235.715 573.665 235.248 573.805 234.848 574.087C234.452 574.364 234.143 574.76 233.921 575.276C233.699 575.787 233.589 576.392 233.589 577.091C233.589 577.807 233.697 578.425 233.915 578.945C234.132 579.464 234.439 579.867 234.835 580.153C235.236 580.438 235.706 580.581 236.248 580.581C236.61 580.581 236.938 580.515 237.232 580.383C237.53 580.246 237.78 580.053 237.98 579.801C238.184 579.55 238.327 579.247 238.408 578.893H240.268C240.2 579.528 239.993 580.095 239.648 580.594C239.303 581.092 238.841 581.484 238.261 581.77C237.686 582.055 237.01 582.198 236.235 582.198ZM246.544 582.198C245.576 582.198 244.743 581.991 244.044 581.578C243.35 581.161 242.813 580.575 242.434 579.82C242.059 579.062 241.871 578.173 241.871 577.155C241.871 576.149 242.059 575.263 242.434 574.496C242.813 573.729 243.341 573.13 244.019 572.7C244.701 572.269 245.498 572.054 246.409 572.054C246.963 572.054 247.5 572.146 248.02 572.329C248.54 572.512 249.007 572.8 249.42 573.192C249.833 573.584 250.159 574.093 250.398 574.719C250.637 575.342 250.756 576.098 250.756 576.989V577.666H242.951V576.234H248.883C248.883 575.732 248.781 575.286 248.576 574.898C248.372 574.506 248.084 574.197 247.713 573.972C247.347 573.746 246.917 573.633 246.422 573.633C245.885 573.633 245.417 573.765 245.016 574.029C244.62 574.289 244.313 574.63 244.096 575.052C243.882 575.469 243.776 575.923 243.776 576.413V577.532C243.776 578.188 243.891 578.746 244.121 579.207C244.355 579.667 244.681 580.018 245.099 580.261C245.517 580.5 246.005 580.619 246.563 580.619C246.925 580.619 247.255 580.568 247.554 580.466C247.852 580.359 248.11 580.202 248.327 579.993C248.544 579.784 248.711 579.526 248.826 579.219L250.635 579.545C250.49 580.078 250.23 580.545 249.855 580.945C249.484 581.342 249.017 581.651 248.455 581.872C247.897 582.089 247.26 582.198 246.544 582.198ZM260.234 574.579L258.502 574.886C258.429 574.664 258.314 574.453 258.156 574.253C258.003 574.053 257.794 573.888 257.53 573.761C257.266 573.633 256.936 573.569 256.539 573.569C255.998 573.569 255.546 573.69 255.184 573.933C254.822 574.172 254.641 574.481 254.641 574.86C254.641 575.188 254.762 575.452 255.005 575.653C255.248 575.853 255.64 576.017 256.181 576.145L257.741 576.503C258.644 576.712 259.318 577.033 259.761 577.468C260.204 577.903 260.426 578.467 260.426 579.162C260.426 579.75 260.255 580.274 259.914 580.734C259.578 581.19 259.107 581.548 258.502 581.808C257.901 582.068 257.204 582.198 256.411 582.198C255.312 582.198 254.415 581.964 253.72 581.495C253.026 581.022 252.6 580.351 252.442 579.482L254.289 579.2C254.404 579.682 254.641 580.046 254.999 580.293C255.357 580.536 255.823 580.658 256.399 580.658C257.025 580.658 257.526 580.528 257.901 580.268C258.276 580.004 258.463 579.682 258.463 579.303C258.463 578.996 258.348 578.738 258.118 578.529C257.892 578.32 257.545 578.163 257.076 578.056L255.414 577.692C254.498 577.483 253.82 577.151 253.382 576.695C252.947 576.239 252.73 575.661 252.73 574.962C252.73 574.383 252.892 573.876 253.215 573.441C253.539 573.006 253.987 572.668 254.558 572.425C255.129 572.178 255.783 572.054 256.52 572.054C257.581 572.054 258.416 572.284 259.026 572.744C259.635 573.2 260.038 573.812 260.234 574.579ZM269.884 574.579L268.152 574.886C268.08 574.664 267.964 574.453 267.807 574.253C267.653 574.053 267.445 573.888 267.18 573.761C266.916 573.633 266.586 573.569 266.19 573.569C265.648 573.569 265.197 573.69 264.835 573.933C264.472 574.172 264.291 574.481 264.291 574.86C264.291 575.188 264.413 575.452 264.656 575.653C264.898 575.853 265.29 576.017 265.832 576.145L267.391 576.503C268.295 576.712 268.968 577.033 269.411 577.468C269.854 577.903 270.076 578.467 270.076 579.162C270.076 579.75 269.906 580.274 269.565 580.734C269.228 581.19 268.757 581.548 268.152 581.808C267.551 582.068 266.854 582.198 266.062 582.198C264.962 582.198 264.065 581.964 263.371 581.495C262.676 581.022 262.25 580.351 262.092 579.482L263.94 579.2C264.055 579.682 264.291 580.046 264.649 580.293C265.007 580.536 265.474 580.658 266.049 580.658C266.675 580.658 267.176 580.528 267.551 580.268C267.926 580.004 268.114 579.682 268.114 579.303C268.114 578.996 267.999 578.738 267.768 578.529C267.543 578.32 267.195 578.163 266.727 578.056L265.065 577.692C264.148 577.483 263.471 577.151 263.032 576.695C262.597 576.239 262.38 575.661 262.38 574.962C262.38 574.383 262.542 573.876 262.866 573.441C263.19 573.006 263.637 572.668 264.208 572.425C264.779 572.178 265.433 572.054 266.17 572.054C267.232 572.054 268.067 572.284 268.676 572.744C269.286 573.2 269.688 573.812 269.884 574.579Z" fill="white"/>
<rect x="376" y="461" width="144" height="41" rx="12" fill="#908092" fill-opacity="0.15"/>
<rect x="376.5" y="461.5" width="143" height="40" rx="11.5" stroke="white" stroke-opacity="0.2"/>
<path d="M393.255 476.609V474.909H403.386V476.609H399.301V488H397.333V476.609H393.255ZM404.452 488V478.182H406.299V479.741H406.401C406.58 479.213 406.896 478.798 407.347 478.495C407.803 478.188 408.319 478.035 408.894 478.035C409.014 478.035 409.154 478.039 409.316 478.048C409.482 478.056 409.612 478.067 409.706 478.08V479.908C409.629 479.886 409.493 479.863 409.297 479.837C409.101 479.808 408.905 479.793 408.709 479.793C408.257 479.793 407.854 479.888 407.501 480.08C407.151 480.268 406.874 480.53 406.67 480.866C406.465 481.199 406.363 481.578 406.363 482.004V488H404.452ZM414.129 488.217C413.507 488.217 412.945 488.102 412.442 487.872C411.939 487.638 411.541 487.299 411.247 486.856C410.957 486.413 410.812 485.869 410.812 485.226C410.812 484.672 410.918 484.216 411.131 483.858C411.345 483.5 411.632 483.217 411.994 483.008C412.357 482.799 412.761 482.641 413.209 482.535C413.656 482.428 414.112 482.347 414.577 482.292C415.165 482.224 415.642 482.168 416.009 482.126C416.375 482.079 416.641 482.004 416.808 481.902C416.974 481.8 417.057 481.634 417.057 481.403V481.359C417.057 480.8 416.899 480.368 416.584 480.061C416.273 479.754 415.808 479.601 415.19 479.601C414.547 479.601 414.04 479.744 413.669 480.029C413.303 480.31 413.049 480.624 412.908 480.969L411.112 480.56C411.325 479.963 411.636 479.482 412.046 479.115C412.459 478.744 412.934 478.476 413.471 478.31C414.008 478.139 414.573 478.054 415.165 478.054C415.557 478.054 415.972 478.101 416.411 478.195C416.854 478.284 417.268 478.45 417.651 478.693C418.039 478.936 418.357 479.283 418.604 479.735C418.851 480.183 418.975 480.764 418.975 481.48V488H417.108V486.658H417.031C416.908 486.905 416.722 487.148 416.475 487.386C416.228 487.625 415.911 487.823 415.523 487.981C415.135 488.138 414.671 488.217 414.129 488.217ZM414.545 486.683C415.073 486.683 415.525 486.579 415.9 486.37C416.279 486.161 416.567 485.888 416.763 485.552C416.963 485.211 417.063 484.847 417.063 484.459V483.193C416.995 483.261 416.863 483.325 416.667 483.385C416.475 483.44 416.256 483.489 416.009 483.532C415.761 483.57 415.521 483.607 415.286 483.641C415.052 483.67 414.856 483.696 414.698 483.717C414.328 483.764 413.989 483.843 413.682 483.954C413.379 484.065 413.136 484.224 412.953 484.433C412.774 484.638 412.685 484.911 412.685 485.251C412.685 485.724 412.859 486.082 413.209 486.325C413.558 486.564 414.004 486.683 414.545 486.683ZM423.431 482.17V488H421.52V478.182H423.355V479.78H423.476C423.702 479.26 424.056 478.842 424.537 478.527C425.023 478.212 425.634 478.054 426.372 478.054C427.041 478.054 427.627 478.195 428.13 478.476C428.632 478.753 429.022 479.166 429.299 479.716C429.576 480.266 429.715 480.945 429.715 481.755V488H427.804V481.985C427.804 481.273 427.618 480.717 427.247 480.317C426.877 479.912 426.367 479.71 425.72 479.71C425.277 479.71 424.882 479.805 424.537 479.997C424.196 480.189 423.926 480.47 423.725 480.841C423.529 481.207 423.431 481.651 423.431 482.17ZM439.635 480.579L437.903 480.886C437.831 480.664 437.715 480.453 437.558 480.253C437.404 480.053 437.196 479.888 436.931 479.761C436.667 479.633 436.337 479.569 435.941 479.569C435.399 479.569 434.948 479.69 434.585 479.933C434.223 480.172 434.042 480.481 434.042 480.86C434.042 481.188 434.164 481.452 434.407 481.653C434.649 481.853 435.041 482.017 435.583 482.145L437.142 482.503C438.046 482.712 438.719 483.033 439.162 483.468C439.605 483.903 439.827 484.467 439.827 485.162C439.827 485.75 439.657 486.274 439.316 486.734C438.979 487.19 438.508 487.548 437.903 487.808C437.302 488.068 436.605 488.198 435.813 488.198C434.713 488.198 433.816 487.964 433.122 487.495C432.427 487.022 432.001 486.351 431.843 485.482L433.691 485.2C433.806 485.682 434.042 486.046 434.4 486.293C434.758 486.536 435.225 486.658 435.8 486.658C436.426 486.658 436.927 486.528 437.302 486.268C437.677 486.004 437.865 485.682 437.865 485.303C437.865 484.996 437.75 484.738 437.519 484.529C437.294 484.32 436.946 484.163 436.478 484.056L434.816 483.692C433.899 483.483 433.222 483.151 432.783 482.695C432.348 482.239 432.131 481.661 432.131 480.962C432.131 480.383 432.293 479.876 432.617 479.441C432.941 479.006 433.388 478.668 433.959 478.425C434.53 478.178 435.184 478.054 435.921 478.054C436.983 478.054 437.818 478.284 438.427 478.744C439.036 479.2 439.439 479.812 439.635 480.579ZM444.786 488.217C444.163 488.217 443.601 488.102 443.098 487.872C442.595 487.638 442.197 487.299 441.903 486.856C441.613 486.413 441.468 485.869 441.468 485.226C441.468 484.672 441.575 484.216 441.788 483.858C442.001 483.5 442.288 483.217 442.651 483.008C443.013 482.799 443.418 482.641 443.865 482.535C444.313 482.428 444.769 482.347 445.233 482.292C445.821 482.224 446.298 482.168 446.665 482.126C447.031 482.079 447.298 482.004 447.464 481.902C447.63 481.8 447.713 481.634 447.713 481.403V481.359C447.713 480.8 447.555 480.368 447.24 480.061C446.929 479.754 446.465 479.601 445.847 479.601C445.203 479.601 444.696 479.744 444.325 480.029C443.959 480.31 443.705 480.624 443.565 480.969L441.769 480.56C441.982 479.963 442.293 479.482 442.702 479.115C443.115 478.744 443.59 478.476 444.127 478.31C444.664 478.139 445.229 478.054 445.821 478.054C446.213 478.054 446.629 478.101 447.068 478.195C447.511 478.284 447.924 478.45 448.308 478.693C448.695 478.936 449.013 479.283 449.26 479.735C449.507 480.183 449.631 480.764 449.631 481.48V488H447.764V486.658H447.688C447.564 486.905 447.379 487.148 447.131 487.386C446.884 487.625 446.567 487.823 446.179 487.981C445.791 488.138 445.327 488.217 444.786 488.217ZM445.201 486.683C445.729 486.683 446.181 486.579 446.556 486.37C446.935 486.161 447.223 485.888 447.419 485.552C447.619 485.211 447.72 484.847 447.72 484.459V483.193C447.651 483.261 447.519 483.325 447.323 483.385C447.131 483.44 446.912 483.489 446.665 483.532C446.418 483.57 446.177 483.607 445.943 483.641C445.708 483.67 445.512 483.696 445.354 483.717C444.984 483.764 444.645 483.843 444.338 483.954C444.036 484.065 443.793 484.224 443.609 484.433C443.43 484.638 443.341 484.911 443.341 485.251C443.341 485.724 443.516 486.082 443.865 486.325C444.215 486.564 444.66 486.683 445.201 486.683ZM456.312 488.198C455.362 488.198 454.544 487.983 453.858 487.553C453.176 487.118 452.652 486.519 452.285 485.756C451.919 484.994 451.735 484.12 451.735 483.136C451.735 482.138 451.923 481.259 452.298 480.496C452.673 479.729 453.201 479.13 453.883 478.7C454.565 478.269 455.368 478.054 456.293 478.054C457.039 478.054 457.703 478.192 458.287 478.469C458.871 478.742 459.342 479.126 459.7 479.62C460.062 480.114 460.277 480.692 460.345 481.352H458.485C458.383 480.892 458.149 480.496 457.782 480.163C457.42 479.831 456.934 479.665 456.325 479.665C455.792 479.665 455.326 479.805 454.925 480.087C454.529 480.364 454.22 480.76 453.998 481.276C453.777 481.787 453.666 482.392 453.666 483.091C453.666 483.807 453.774 484.425 453.992 484.945C454.209 485.464 454.516 485.867 454.912 486.153C455.313 486.438 455.784 486.581 456.325 486.581C456.687 486.581 457.015 486.515 457.309 486.383C457.608 486.246 457.857 486.053 458.057 485.801C458.262 485.55 458.404 485.247 458.485 484.893H460.345C460.277 485.528 460.071 486.095 459.725 486.594C459.38 487.092 458.918 487.484 458.338 487.77C457.763 488.055 457.088 488.198 456.312 488.198ZM466.972 478.182V479.716H461.609V478.182H466.972ZM463.048 475.83H464.959V485.117C464.959 485.488 465.014 485.767 465.125 485.955C465.236 486.138 465.379 486.263 465.553 486.332C465.732 486.396 465.926 486.428 466.135 486.428C466.288 486.428 466.423 486.417 466.538 486.396C466.653 486.374 466.742 486.357 466.806 486.344L467.151 487.923C467.041 487.966 466.883 488.009 466.678 488.051C466.474 488.098 466.218 488.124 465.911 488.128C465.408 488.136 464.94 488.047 464.505 487.859C464.07 487.672 463.719 487.382 463.45 486.99C463.182 486.598 463.048 486.106 463.048 485.513V475.83ZM469.087 488V478.182H470.998V488H469.087ZM470.052 476.667C469.719 476.667 469.434 476.556 469.195 476.335C468.961 476.109 468.844 475.84 468.844 475.529C468.844 475.214 468.961 474.945 469.195 474.724C469.434 474.498 469.719 474.385 470.052 474.385C470.384 474.385 470.668 474.498 470.902 474.724C471.141 474.945 471.26 475.214 471.26 475.529C471.26 475.84 471.141 476.109 470.902 476.335C470.668 476.556 470.384 476.667 470.052 476.667ZM477.705 488.198C476.784 488.198 475.981 487.987 475.295 487.565C474.609 487.143 474.076 486.553 473.697 485.795C473.318 485.036 473.128 484.15 473.128 483.136C473.128 482.117 473.318 481.227 473.697 480.464C474.076 479.701 474.609 479.109 475.295 478.687C475.981 478.265 476.784 478.054 477.705 478.054C478.625 478.054 479.428 478.265 480.114 478.687C480.801 479.109 481.333 479.701 481.712 480.464C482.092 481.227 482.281 482.117 482.281 483.136C482.281 484.15 482.092 485.036 481.712 485.795C481.333 486.553 480.801 487.143 480.114 487.565C479.428 487.987 478.625 488.198 477.705 488.198ZM477.711 486.594C478.308 486.594 478.802 486.436 479.194 486.121C479.586 485.805 479.876 485.386 480.063 484.862C480.255 484.337 480.351 483.76 480.351 483.129C480.351 482.503 480.255 481.928 480.063 481.403C479.876 480.875 479.586 480.451 479.194 480.131C478.802 479.812 478.308 479.652 477.711 479.652C477.11 479.652 476.612 479.812 476.215 480.131C475.823 480.451 475.531 480.875 475.34 481.403C475.152 481.928 475.058 482.503 475.058 483.129C475.058 483.76 475.152 484.337 475.34 484.862C475.531 485.386 475.823 485.805 476.215 486.121C476.612 486.436 477.11 486.594 477.711 486.594ZM486.326 482.17V488H484.415V478.182H486.249V479.78H486.371C486.597 479.26 486.95 478.842 487.432 478.527C487.918 478.212 488.529 478.054 489.266 478.054C489.935 478.054 490.521 478.195 491.024 478.476C491.527 478.753 491.917 479.166 492.194 479.716C492.471 480.266 492.609 480.945 492.609 481.755V488H490.698V481.985C490.698 481.273 490.513 480.717 490.142 480.317C489.771 479.912 489.262 479.71 488.614 479.71C488.171 479.71 487.777 479.805 487.432 479.997C487.091 480.189 486.82 480.47 486.62 480.841C486.424 481.207 486.326 481.651 486.326 482.17ZM502.53 480.579L500.797 480.886C500.725 480.664 500.61 480.453 500.452 480.253C500.299 480.053 500.09 479.888 499.826 479.761C499.562 479.633 499.231 479.569 498.835 479.569C498.294 479.569 497.842 479.69 497.48 479.933C497.118 480.172 496.937 480.481 496.937 480.86C496.937 481.188 497.058 481.452 497.301 481.653C497.544 481.853 497.936 482.017 498.477 482.145L500.037 482.503C500.94 482.712 501.614 483.033 502.057 483.468C502.5 483.903 502.722 484.467 502.722 485.162C502.722 485.75 502.551 486.274 502.21 486.734C501.873 487.19 501.403 487.548 500.797 487.808C500.197 488.068 499.5 488.198 498.707 488.198C497.608 488.198 496.711 487.964 496.016 487.495C495.322 487.022 494.896 486.351 494.738 485.482L496.585 485.2C496.7 485.682 496.937 486.046 497.295 486.293C497.653 486.536 498.119 486.658 498.695 486.658C499.321 486.658 499.822 486.528 500.197 486.268C500.572 486.004 500.759 485.682 500.759 485.303C500.759 484.996 500.644 484.738 500.414 484.529C500.188 484.32 499.841 484.163 499.372 484.056L497.71 483.692C496.794 483.483 496.116 483.151 495.677 482.695C495.243 482.239 495.025 481.661 495.025 480.962C495.025 480.383 495.187 479.876 495.511 479.441C495.835 479.006 496.283 478.668 496.854 478.425C497.425 478.178 498.079 478.054 498.816 478.054C499.877 478.054 500.712 478.284 501.322 478.744C501.931 479.2 502.334 479.812 502.53 480.579Z" fill="white"/>
<rect x="113" y="294" width="243" height="41" rx="12" fill="#908092" fill-opacity="0.15"/>
<rect x="113.5" y="294.5" width="242" height="40" rx="11.5" stroke="white" stroke-opacity="0.2"/>
<path d="M137.855 311.348C137.787 310.743 137.506 310.274 137.012 309.942C136.517 309.605 135.895 309.437 135.145 309.437C134.608 309.437 134.144 309.522 133.752 309.692C133.36 309.859 133.055 310.089 132.838 310.383C132.625 310.673 132.518 311.003 132.518 311.374C132.518 311.685 132.591 311.953 132.735 312.179C132.885 312.405 133.078 312.594 133.317 312.748C133.56 312.897 133.82 313.023 134.097 313.125C134.374 313.223 134.64 313.304 134.896 313.368L136.174 313.7C136.592 313.803 137.02 313.941 137.459 314.116C137.898 314.29 138.305 314.521 138.68 314.806C139.055 315.092 139.358 315.445 139.588 315.867C139.822 316.289 139.939 316.794 139.939 317.382C139.939 318.124 139.748 318.782 139.364 319.357C138.985 319.933 138.433 320.386 137.708 320.719C136.988 321.051 136.117 321.217 135.094 321.217C134.114 321.217 133.266 321.062 132.55 320.751C131.834 320.44 131.274 319.999 130.869 319.428C130.464 318.852 130.24 318.17 130.198 317.382H132.179C132.218 317.855 132.371 318.249 132.64 318.565C132.912 318.876 133.26 319.108 133.681 319.261C134.108 319.411 134.574 319.485 135.081 319.485C135.64 319.485 136.136 319.398 136.571 319.223C137.01 319.044 137.355 318.797 137.606 318.482C137.858 318.162 137.983 317.789 137.983 317.363C137.983 316.975 137.873 316.658 137.651 316.411C137.434 316.163 137.137 315.959 136.762 315.797C136.392 315.635 135.972 315.492 135.503 315.369L133.956 314.947C132.908 314.661 132.077 314.241 131.463 313.688C130.854 313.134 130.549 312.401 130.549 311.489C130.549 310.734 130.754 310.076 131.163 309.513C131.572 308.951 132.126 308.514 132.825 308.203C133.524 307.888 134.312 307.73 135.19 307.73C136.076 307.73 136.858 307.886 137.536 308.197C138.218 308.508 138.755 308.936 139.147 309.482C139.539 310.023 139.743 310.645 139.76 311.348H137.855ZM145.003 321.217C144.381 321.217 143.819 321.102 143.316 320.872C142.813 320.638 142.415 320.299 142.121 319.856C141.831 319.413 141.686 318.869 141.686 318.226C141.686 317.672 141.792 317.216 142.006 316.858C142.219 316.5 142.506 316.217 142.868 316.008C143.231 315.799 143.635 315.641 144.083 315.535C144.53 315.428 144.986 315.347 145.451 315.292C146.039 315.224 146.516 315.168 146.883 315.126C147.249 315.079 147.515 315.004 147.682 314.902C147.848 314.8 147.931 314.634 147.931 314.403V314.359C147.931 313.8 147.773 313.368 147.458 313.061C147.147 312.754 146.682 312.601 146.064 312.601C145.421 312.601 144.914 312.744 144.543 313.029C144.177 313.31 143.923 313.624 143.782 313.969L141.986 313.56C142.199 312.963 142.51 312.482 142.92 312.115C143.333 311.744 143.808 311.476 144.345 311.31C144.882 311.139 145.447 311.054 146.039 311.054C146.431 311.054 146.846 311.101 147.285 311.195C147.729 311.284 148.142 311.45 148.525 311.693C148.913 311.936 149.231 312.283 149.478 312.735C149.725 313.183 149.849 313.764 149.849 314.48V321H147.982V319.658H147.905C147.782 319.905 147.596 320.148 147.349 320.386C147.102 320.625 146.785 320.823 146.397 320.981C146.009 321.138 145.545 321.217 145.003 321.217ZM145.419 319.683C145.947 319.683 146.399 319.579 146.774 319.37C147.153 319.161 147.441 318.888 147.637 318.552C147.837 318.211 147.937 317.847 147.937 317.459V316.193C147.869 316.261 147.737 316.325 147.541 316.385C147.349 316.44 147.13 316.489 146.883 316.532C146.635 316.57 146.395 316.607 146.16 316.641C145.926 316.67 145.73 316.696 145.572 316.717C145.202 316.764 144.863 316.843 144.556 316.954C144.253 317.065 144.01 317.224 143.827 317.433C143.648 317.638 143.559 317.911 143.559 318.251C143.559 318.724 143.733 319.082 144.083 319.325C144.432 319.564 144.878 319.683 145.419 319.683ZM154.305 307.909V321H152.394V307.909H154.305ZM161.108 321.198C160.141 321.198 159.308 320.991 158.609 320.578C157.914 320.161 157.377 319.575 156.998 318.82C156.623 318.062 156.436 317.173 156.436 316.155C156.436 315.149 156.623 314.263 156.998 313.496C157.377 312.729 157.906 312.13 158.583 311.7C159.265 311.269 160.062 311.054 160.974 311.054C161.528 311.054 162.065 311.146 162.585 311.329C163.105 311.512 163.571 311.8 163.985 312.192C164.398 312.584 164.724 313.093 164.963 313.719C165.201 314.342 165.32 315.098 165.32 315.989V316.666H157.516V315.234H163.448C163.448 314.732 163.345 314.286 163.141 313.898C162.936 313.506 162.649 313.197 162.278 312.972C161.911 312.746 161.481 312.633 160.987 312.633C160.45 312.633 159.981 312.765 159.58 313.029C159.184 313.289 158.877 313.63 158.66 314.052C158.447 314.469 158.34 314.923 158.34 315.413V316.532C158.34 317.188 158.455 317.746 158.686 318.207C158.92 318.667 159.246 319.018 159.664 319.261C160.081 319.5 160.569 319.619 161.127 319.619C161.49 319.619 161.82 319.568 162.118 319.466C162.416 319.359 162.674 319.202 162.892 318.993C163.109 318.784 163.275 318.526 163.39 318.219L165.199 318.545C165.054 319.078 164.794 319.545 164.419 319.945C164.048 320.342 163.582 320.651 163.019 320.872C162.461 321.089 161.824 321.198 161.108 321.198ZM174.798 313.579L173.066 313.886C172.994 313.664 172.879 313.453 172.721 313.253C172.567 313.053 172.359 312.888 172.094 312.761C171.83 312.633 171.5 312.569 171.104 312.569C170.563 312.569 170.111 312.69 169.749 312.933C169.386 313.172 169.205 313.481 169.205 313.86C169.205 314.188 169.327 314.452 169.57 314.653C169.813 314.853 170.205 315.017 170.746 315.145L172.305 315.503C173.209 315.712 173.882 316.033 174.325 316.468C174.768 316.903 174.99 317.467 174.99 318.162C174.99 318.75 174.82 319.274 174.479 319.734C174.142 320.19 173.671 320.548 173.066 320.808C172.465 321.068 171.768 321.198 170.976 321.198C169.876 321.198 168.979 320.964 168.285 320.495C167.59 320.022 167.164 319.351 167.006 318.482L168.854 318.2C168.969 318.682 169.205 319.046 169.563 319.293C169.921 319.536 170.388 319.658 170.963 319.658C171.589 319.658 172.09 319.528 172.465 319.268C172.84 319.004 173.028 318.682 173.028 318.303C173.028 317.996 172.913 317.738 172.683 317.529C172.457 317.32 172.109 317.163 171.641 317.056L169.979 316.692C169.063 316.483 168.385 316.151 167.946 315.695C167.511 315.239 167.294 314.661 167.294 313.962C167.294 313.383 167.456 312.876 167.78 312.441C168.104 312.006 168.551 311.668 169.122 311.425C169.693 311.178 170.347 311.054 171.085 311.054C172.146 311.054 172.981 311.284 173.59 311.744C174.2 312.2 174.602 312.812 174.798 313.579ZM182.009 321V307.909H186.675C187.693 307.909 188.537 308.094 189.206 308.465C189.875 308.836 190.376 309.343 190.708 309.987C191.04 310.626 191.207 311.346 191.207 312.147C191.207 312.952 191.038 313.677 190.702 314.32C190.369 314.96 189.866 315.467 189.193 315.842C188.524 316.212 187.683 316.398 186.668 316.398H183.46V314.723H186.489C187.133 314.723 187.655 314.612 188.055 314.391C188.456 314.165 188.75 313.858 188.938 313.47C189.125 313.082 189.219 312.641 189.219 312.147C189.219 311.653 189.125 311.214 188.938 310.83C188.75 310.447 188.454 310.146 188.049 309.929C187.648 309.712 187.12 309.603 186.464 309.603H183.984V321H182.009ZM193.369 321V311.182H195.216V312.741H195.318C195.497 312.213 195.813 311.798 196.264 311.495C196.72 311.188 197.236 311.035 197.811 311.035C197.931 311.035 198.071 311.039 198.233 311.048C198.399 311.056 198.529 311.067 198.623 311.08V312.908C198.546 312.886 198.41 312.863 198.214 312.837C198.018 312.808 197.822 312.793 197.626 312.793C197.174 312.793 196.771 312.888 196.418 313.08C196.068 313.268 195.791 313.53 195.587 313.866C195.382 314.199 195.28 314.578 195.28 315.004V321H193.369ZM204.061 321.198C203.141 321.198 202.337 320.987 201.651 320.565C200.965 320.143 200.433 319.553 200.053 318.795C199.674 318.036 199.484 317.15 199.484 316.136C199.484 315.117 199.674 314.227 200.053 313.464C200.433 312.701 200.965 312.109 201.651 311.687C202.337 311.265 203.141 311.054 204.061 311.054C204.982 311.054 205.785 311.265 206.471 311.687C207.157 312.109 207.69 312.701 208.069 313.464C208.448 314.227 208.638 315.117 208.638 316.136C208.638 317.15 208.448 318.036 208.069 318.795C207.69 319.553 207.157 320.143 206.471 320.565C205.785 320.987 204.982 321.198 204.061 321.198ZM204.067 319.594C204.664 319.594 205.158 319.436 205.55 319.121C205.942 318.805 206.232 318.386 206.42 317.862C206.612 317.337 206.707 316.76 206.707 316.129C206.707 315.503 206.612 314.928 206.42 314.403C206.232 313.875 205.942 313.451 205.55 313.131C205.158 312.812 204.664 312.652 204.067 312.652C203.467 312.652 202.968 312.812 202.572 313.131C202.18 313.451 201.888 313.875 201.696 314.403C201.509 314.928 201.415 315.503 201.415 316.129C201.415 316.76 201.509 317.337 201.696 317.862C201.888 318.386 202.18 318.805 202.572 319.121C202.968 319.436 203.467 319.594 204.067 319.594ZM214.447 321.192C213.654 321.192 212.947 320.989 212.324 320.585C211.706 320.175 211.221 319.594 210.867 318.839C210.518 318.081 210.343 317.171 210.343 316.11C210.343 315.049 210.52 314.141 210.873 313.387C211.231 312.633 211.721 312.055 212.344 311.655C212.966 311.254 213.671 311.054 214.459 311.054C215.069 311.054 215.559 311.156 215.93 311.361C216.305 311.561 216.594 311.795 216.799 312.064C217.008 312.332 217.17 312.569 217.285 312.773H217.4V307.909H219.311V321H217.444V319.472H217.285C217.17 319.681 217.003 319.92 216.786 320.188C216.573 320.457 216.279 320.691 215.904 320.891C215.529 321.092 215.043 321.192 214.447 321.192ZM214.868 319.562C215.418 319.562 215.883 319.417 216.262 319.127C216.645 318.833 216.935 318.426 217.131 317.906C217.331 317.386 217.432 316.781 217.432 316.091C217.432 315.409 217.334 314.812 217.138 314.301C216.942 313.79 216.654 313.391 216.275 313.106C215.895 312.82 215.427 312.678 214.868 312.678C214.293 312.678 213.814 312.827 213.43 313.125C213.047 313.423 212.757 313.83 212.561 314.346C212.369 314.862 212.273 315.443 212.273 316.091C212.273 316.747 212.371 317.337 212.567 317.862C212.763 318.386 213.053 318.801 213.437 319.108C213.824 319.411 214.302 319.562 214.868 319.562ZM228.258 316.928V311.182H230.176V321H228.297V319.3H228.194C227.968 319.824 227.606 320.261 227.108 320.61C226.613 320.955 225.998 321.128 225.26 321.128C224.63 321.128 224.071 320.989 223.586 320.712C223.104 320.431 222.725 320.016 222.448 319.466C222.175 318.916 222.039 318.237 222.039 317.427V311.182H223.95V317.197C223.95 317.866 224.135 318.398 224.506 318.795C224.877 319.191 225.358 319.389 225.951 319.389C226.309 319.389 226.664 319.3 227.018 319.121C227.376 318.942 227.672 318.671 227.907 318.309C228.145 317.947 228.262 317.487 228.258 316.928ZM236.879 321.198C235.929 321.198 235.111 320.983 234.425 320.553C233.743 320.118 233.219 319.519 232.852 318.756C232.486 317.994 232.303 317.12 232.303 316.136C232.303 315.138 232.49 314.259 232.865 313.496C233.24 312.729 233.769 312.13 234.45 311.7C235.132 311.269 235.936 311.054 236.86 311.054C237.606 311.054 238.271 311.192 238.855 311.469C239.438 311.742 239.909 312.126 240.267 312.62C240.629 313.114 240.845 313.692 240.913 314.352H239.053C238.95 313.892 238.716 313.496 238.35 313.163C237.987 312.831 237.502 312.665 236.892 312.665C236.36 312.665 235.893 312.805 235.492 313.087C235.096 313.364 234.787 313.76 234.566 314.276C234.344 314.787 234.233 315.392 234.233 316.091C234.233 316.807 234.342 317.425 234.559 317.945C234.776 318.464 235.083 318.867 235.48 319.153C235.88 319.438 236.351 319.581 236.892 319.581C237.254 319.581 237.583 319.515 237.877 319.383C238.175 319.246 238.424 319.053 238.624 318.801C238.829 318.55 238.972 318.247 239.053 317.893H240.913C240.845 318.528 240.638 319.095 240.293 319.594C239.948 320.092 239.485 320.484 238.906 320.77C238.33 321.055 237.655 321.198 236.879 321.198ZM247.54 311.182V312.716H242.177V311.182H247.54ZM243.615 308.83H245.526V318.117C245.526 318.488 245.582 318.767 245.692 318.955C245.803 319.138 245.946 319.263 246.121 319.332C246.3 319.396 246.494 319.428 246.702 319.428C246.856 319.428 246.99 319.417 247.105 319.396C247.22 319.374 247.31 319.357 247.374 319.344L247.719 320.923C247.608 320.966 247.45 321.009 247.246 321.051C247.041 321.098 246.786 321.124 246.479 321.128C245.976 321.136 245.507 321.047 245.072 320.859C244.638 320.672 244.286 320.382 244.018 319.99C243.749 319.598 243.615 319.106 243.615 318.513V308.83ZM261.711 311.348C261.643 310.743 261.362 310.274 260.867 309.942C260.373 309.605 259.751 309.437 259.001 309.437C258.464 309.437 257.999 309.522 257.607 309.692C257.215 309.859 256.911 310.089 256.693 310.383C256.48 310.673 256.374 311.003 256.374 311.374C256.374 311.685 256.446 311.953 256.591 312.179C256.74 312.405 256.934 312.594 257.173 312.748C257.415 312.897 257.675 313.023 257.952 313.125C258.229 313.223 258.496 313.304 258.751 313.368L260.03 313.7C260.447 313.803 260.876 313.941 261.315 314.116C261.754 314.29 262.161 314.521 262.536 314.806C262.911 315.092 263.213 315.445 263.443 315.867C263.678 316.289 263.795 316.794 263.795 317.382C263.795 318.124 263.603 318.782 263.219 319.357C262.84 319.933 262.288 320.386 261.564 320.719C260.844 321.051 259.972 321.217 258.95 321.217C257.969 321.217 257.121 321.062 256.406 320.751C255.69 320.44 255.129 319.999 254.724 319.428C254.32 318.852 254.096 318.17 254.053 317.382H256.035C256.073 317.855 256.227 318.249 256.495 318.565C256.768 318.876 257.115 319.108 257.537 319.261C257.963 319.411 258.43 319.485 258.937 319.485C259.495 319.485 259.991 319.398 260.426 319.223C260.865 319.044 261.21 318.797 261.462 318.482C261.713 318.162 261.839 317.789 261.839 317.363C261.839 316.975 261.728 316.658 261.506 316.411C261.289 316.163 260.993 315.959 260.618 315.797C260.247 315.635 259.827 315.492 259.359 315.369L257.812 314.947C256.763 314.661 255.933 314.241 255.319 313.688C254.71 313.134 254.405 312.401 254.405 311.489C254.405 310.734 254.609 310.076 255.018 309.513C255.428 308.951 255.982 308.514 256.68 308.203C257.379 307.888 258.168 307.73 259.045 307.73C259.932 307.73 260.714 307.886 261.391 308.197C262.073 308.508 262.61 308.936 263.002 309.482C263.394 310.023 263.599 310.645 263.616 311.348H261.711ZM270.137 321.198C269.187 321.198 268.369 320.983 267.683 320.553C267.001 320.118 266.477 319.519 266.11 318.756C265.744 317.994 265.561 317.12 265.561 316.136C265.561 315.138 265.748 314.259 266.123 313.496C266.498 312.729 267.026 312.13 267.708 311.7C268.39 311.269 269.193 311.054 270.118 311.054C270.864 311.054 271.529 311.192 272.112 311.469C272.696 311.742 273.167 312.126 273.525 312.62C273.887 313.114 274.102 313.692 274.171 314.352H272.311C272.208 313.892 271.974 313.496 271.607 313.163C271.245 312.831 270.759 312.665 270.15 312.665C269.617 312.665 269.151 312.805 268.75 313.087C268.354 313.364 268.045 313.76 267.823 314.276C267.602 314.787 267.491 315.392 267.491 316.091C267.491 316.807 267.6 317.425 267.817 317.945C268.034 318.464 268.341 318.867 268.737 319.153C269.138 319.438 269.609 319.581 270.15 319.581C270.512 319.581 270.84 319.515 271.134 319.383C271.433 319.246 271.682 319.053 271.882 318.801C272.087 318.55 272.23 318.247 272.311 317.893H274.171C274.102 318.528 273.896 319.095 273.551 319.594C273.205 320.092 272.743 320.484 272.164 320.77C271.588 321.055 270.913 321.198 270.137 321.198ZM276.214 321V311.182H278.062V312.741H278.164C278.343 312.213 278.658 311.798 279.11 311.495C279.566 311.188 280.082 311.035 280.657 311.035C280.776 311.035 280.917 311.039 281.079 311.048C281.245 311.056 281.375 311.067 281.469 311.08V312.908C281.392 312.886 281.256 312.863 281.06 312.837C280.864 312.808 280.668 312.793 280.472 312.793C280.02 312.793 279.617 312.888 279.263 313.08C278.914 313.268 278.637 313.53 278.433 313.866C278.228 314.199 278.126 314.578 278.126 315.004V321H276.214ZM287.003 321.198C286.035 321.198 285.202 320.991 284.503 320.578C283.809 320.161 283.272 319.575 282.893 318.82C282.518 318.062 282.33 317.173 282.33 316.155C282.33 315.149 282.518 314.263 282.893 313.496C283.272 312.729 283.8 312.13 284.478 311.7C285.16 311.269 285.956 311.054 286.868 311.054C287.422 311.054 287.959 311.146 288.479 311.329C288.999 311.512 289.466 311.8 289.879 312.192C290.292 312.584 290.618 313.093 290.857 313.719C291.096 314.342 291.215 315.098 291.215 315.989V316.666H283.41V315.234H289.342C289.342 314.732 289.24 314.286 289.035 313.898C288.831 313.506 288.543 313.197 288.172 312.972C287.806 312.746 287.376 312.633 286.881 312.633C286.344 312.633 285.876 312.765 285.475 313.029C285.079 313.289 284.772 313.63 284.555 314.052C284.341 314.469 284.235 314.923 284.235 315.413V316.532C284.235 317.188 284.35 317.746 284.58 318.207C284.814 318.667 285.14 319.018 285.558 319.261C285.976 319.5 286.464 319.619 287.022 319.619C287.384 319.619 287.714 319.568 288.013 319.466C288.311 319.359 288.569 319.202 288.786 318.993C289.003 318.784 289.17 318.526 289.285 318.219L291.094 318.545C290.949 319.078 290.689 319.545 290.314 319.945C289.943 320.342 289.476 320.651 288.914 320.872C288.356 321.089 287.719 321.198 287.003 321.198ZM297.567 321.198C296.6 321.198 295.767 320.991 295.068 320.578C294.373 320.161 293.836 319.575 293.457 318.82C293.082 318.062 292.895 317.173 292.895 316.155C292.895 315.149 293.082 314.263 293.457 313.496C293.836 312.729 294.365 312.13 295.042 311.7C295.724 311.269 296.521 311.054 297.433 311.054C297.987 311.054 298.524 311.146 299.044 311.329C299.564 311.512 300.03 311.8 300.444 312.192C300.857 312.584 301.183 313.093 301.422 313.719C301.66 314.342 301.779 315.098 301.779 315.989V316.666H293.975V315.234H299.907C299.907 314.732 299.804 314.286 299.6 313.898C299.395 313.506 299.108 313.197 298.737 312.972C298.37 312.746 297.94 312.633 297.446 312.633C296.909 312.633 296.44 312.765 296.039 313.029C295.643 313.289 295.336 313.63 295.119 314.052C294.906 314.469 294.799 314.923 294.799 315.413V316.532C294.799 317.188 294.914 317.746 295.145 318.207C295.379 318.667 295.705 319.018 296.123 319.261C296.54 319.5 297.028 319.619 297.586 319.619C297.949 319.619 298.279 319.568 298.577 319.466C298.875 319.359 299.133 319.202 299.35 318.993C299.568 318.784 299.734 318.526 299.849 318.219L301.658 318.545C301.513 319.078 301.253 319.545 300.878 319.945C300.507 320.342 300.041 320.651 299.478 320.872C298.92 321.089 298.283 321.198 297.567 321.198ZM305.811 315.17V321H303.9V311.182H305.735V312.78H305.856C306.082 312.26 306.436 311.842 306.917 311.527C307.403 311.212 308.014 311.054 308.752 311.054C309.421 311.054 310.007 311.195 310.509 311.476C311.012 311.753 311.402 312.166 311.679 312.716C311.956 313.266 312.095 313.945 312.095 314.755V321H310.183V314.985C310.183 314.273 309.998 313.717 309.627 313.317C309.257 312.912 308.747 312.71 308.1 312.71C307.656 312.71 307.262 312.805 306.917 312.997C306.576 313.189 306.306 313.47 306.105 313.841C305.909 314.207 305.811 314.651 305.811 315.17ZM314.658 321V311.182H316.569V321H314.658ZM315.623 309.667C315.291 309.667 315.005 309.556 314.767 309.335C314.532 309.109 314.415 308.84 314.415 308.529C314.415 308.214 314.532 307.945 314.767 307.724C315.005 307.498 315.291 307.385 315.623 307.385C315.955 307.385 316.239 307.498 316.473 307.724C316.712 307.945 316.831 308.214 316.831 308.529C316.831 308.84 316.712 309.109 316.473 309.335C316.239 309.556 315.955 309.667 315.623 309.667ZM321.051 315.17V321H319.14V311.182H320.975V312.78H321.096C321.322 312.26 321.676 311.842 322.157 311.527C322.643 311.212 323.255 311.054 323.992 311.054C324.661 311.054 325.247 311.195 325.75 311.476C326.252 311.753 326.642 312.166 326.919 312.716C327.196 313.266 327.335 313.945 327.335 314.755V321H325.424V314.985C325.424 314.273 325.238 313.717 324.868 313.317C324.497 312.912 323.988 312.71 323.34 312.71C322.897 312.71 322.502 312.805 322.157 312.997C321.816 313.189 321.546 313.47 321.346 313.841C321.15 314.207 321.051 314.651 321.051 315.17ZM334.015 324.886C333.235 324.886 332.564 324.784 332.001 324.58C331.443 324.375 330.987 324.104 330.633 323.768C330.279 323.431 330.015 323.063 329.841 322.662L331.483 321.984C331.598 322.172 331.752 322.37 331.944 322.579C332.14 322.792 332.404 322.973 332.736 323.122C333.073 323.271 333.505 323.346 334.034 323.346C334.758 323.346 335.357 323.169 335.83 322.815C336.303 322.466 336.539 321.908 336.539 321.141V319.21H336.418C336.303 319.419 336.137 319.651 335.919 319.907C335.706 320.163 335.412 320.384 335.037 320.572C334.662 320.759 334.174 320.853 333.574 320.853C332.798 320.853 332.099 320.672 331.477 320.31C330.859 319.943 330.369 319.404 330.007 318.692C329.649 317.977 329.47 317.097 329.47 316.053C329.47 315.009 329.647 314.114 330 313.368C330.358 312.622 330.848 312.051 331.471 311.655C332.093 311.254 332.798 311.054 333.586 311.054C334.196 311.054 334.688 311.156 335.063 311.361C335.438 311.561 335.73 311.795 335.939 312.064C336.152 312.332 336.316 312.569 336.431 312.773H336.571V311.182H338.444V321.217C338.444 322.061 338.248 322.754 337.856 323.295C337.464 323.836 336.934 324.237 336.265 324.496C335.6 324.756 334.85 324.886 334.015 324.886ZM333.995 319.268C334.545 319.268 335.01 319.14 335.389 318.884C335.772 318.624 336.062 318.254 336.258 317.772C336.458 317.286 336.559 316.705 336.559 316.027C336.559 315.366 336.461 314.785 336.265 314.282C336.069 313.779 335.781 313.387 335.402 313.106C335.022 312.82 334.554 312.678 333.995 312.678C333.42 312.678 332.941 312.827 332.557 313.125C332.174 313.419 331.884 313.82 331.688 314.327C331.496 314.834 331.4 315.401 331.4 316.027C331.4 316.67 331.498 317.235 331.694 317.721C331.89 318.207 332.18 318.586 332.564 318.859C332.951 319.131 333.429 319.268 333.995 319.268Z" fill="white"/>
</svg>
