<svg width="819" height="172" viewBox="0 0 819 172" fill="none" xmlns="http://www.w3.org/2000/svg">
<path d="M301.488 33.5V16.0455H312.023V17.9205H303.602V23.8182H311.477V25.6932H303.602V31.625H312.159V33.5H301.488ZM316.611 25.625V33.5H314.6V20.4091H316.543V22.4545H316.713C317.02 21.7898 317.486 21.2557 318.111 20.8523C318.736 20.4432 319.543 20.2386 320.531 20.2386C321.418 20.2386 322.193 20.4205 322.858 20.7841C323.523 21.142 324.04 21.6875 324.409 22.4205C324.778 23.1477 324.963 24.0682 324.963 25.1818V33.5H322.952V25.3182C322.952 24.2898 322.685 23.4886 322.151 22.9148C321.617 22.3352 320.884 22.0455 319.952 22.0455C319.31 22.0455 318.736 22.1847 318.23 22.4631C317.73 22.7415 317.335 23.1477 317.046 23.6818C316.756 24.2159 316.611 24.8636 316.611 25.625ZM329.69 25.625V33.5H327.679V16.0455H329.69V22.4545H329.86C330.167 21.7784 330.627 21.2415 331.241 20.8438C331.86 20.4403 332.684 20.2386 333.713 20.2386C334.605 20.2386 335.386 20.4176 336.056 20.7756C336.727 21.1278 337.247 21.6705 337.616 22.4034C337.991 23.1307 338.179 24.0568 338.179 25.1818V33.5H336.167V25.3182C336.167 24.2784 335.897 23.4744 335.358 22.9062C334.823 22.3324 334.082 22.0455 333.133 22.0455C332.474 22.0455 331.883 22.1847 331.36 22.4631C330.843 22.7415 330.434 23.1477 330.133 23.6818C329.838 24.2159 329.69 24.8636 329.69 25.625ZM344.751 33.8068C343.921 33.8068 343.168 33.6506 342.492 33.3381C341.816 33.0199 341.279 32.5625 340.881 31.9659C340.483 31.3636 340.285 30.6364 340.285 29.7841C340.285 29.0341 340.432 28.4261 340.728 27.9602C341.023 27.4886 341.418 27.1193 341.912 26.8523C342.407 26.5852 342.952 26.3864 343.549 26.2557C344.151 26.1193 344.756 26.0114 345.364 25.9318C346.16 25.8295 346.805 25.7528 347.299 25.7017C347.799 25.6449 348.162 25.5511 348.39 25.4205C348.623 25.2898 348.739 25.0625 348.739 24.7386V24.6705C348.739 23.8295 348.509 23.1761 348.049 22.7102C347.594 22.2443 346.904 22.0114 345.978 22.0114C345.018 22.0114 344.265 22.2216 343.719 22.642C343.174 23.0625 342.79 23.5114 342.569 23.9886L340.66 23.3068C341.001 22.5114 341.455 21.892 342.023 21.4489C342.597 21 343.222 20.6875 343.898 20.5114C344.58 20.3295 345.251 20.2386 345.91 20.2386C346.33 20.2386 346.813 20.2898 347.358 20.392C347.91 20.4886 348.441 20.6903 348.952 20.9972C349.469 21.304 349.898 21.767 350.239 22.3864C350.58 23.0057 350.751 23.8352 350.751 24.875V33.5H348.739V31.7273H348.637C348.501 32.0114 348.273 32.3153 347.955 32.6392C347.637 32.9631 347.214 33.2386 346.685 33.4659C346.157 33.6932 345.512 33.8068 344.751 33.8068ZM345.057 32C345.853 32 346.523 31.8438 347.069 31.5312C347.62 31.2188 348.035 30.8153 348.313 30.321C348.597 29.8267 348.739 29.3068 348.739 28.7614V26.9205C348.654 27.0227 348.466 27.1165 348.177 27.2017C347.893 27.2812 347.563 27.3523 347.188 27.4148C346.819 27.4716 346.458 27.5227 346.106 27.5682C345.759 27.608 345.478 27.642 345.262 27.6705C344.739 27.7386 344.251 27.8494 343.796 28.0028C343.347 28.1506 342.983 28.375 342.705 28.6761C342.432 28.9716 342.296 29.375 342.296 29.8864C342.296 30.5852 342.555 31.1136 343.072 31.4716C343.594 31.8239 344.256 32 345.057 32ZM355.473 25.625V33.5H353.462V20.4091H355.405V22.4545H355.575C355.882 21.7898 356.348 21.2557 356.973 20.8523C357.598 20.4432 358.405 20.2386 359.394 20.2386C360.28 20.2386 361.055 20.4205 361.72 20.7841C362.385 21.142 362.902 21.6875 363.271 22.4205C363.641 23.1477 363.825 24.0682 363.825 25.1818V33.5H361.814V25.3182C361.814 24.2898 361.547 23.4886 361.013 22.9148C360.479 22.3352 359.746 22.0455 358.814 22.0455C358.172 22.0455 357.598 22.1847 357.092 22.4631C356.592 22.7415 356.197 23.1477 355.908 23.6818C355.618 24.2159 355.473 24.8636 355.473 25.625ZM371.859 33.7727C370.632 33.7727 369.575 33.483 368.688 32.9034C367.802 32.3239 367.12 31.5256 366.643 30.5085C366.166 29.4915 365.927 28.3295 365.927 27.0227C365.927 25.6932 366.171 24.5199 366.66 23.5028C367.154 22.4801 367.842 21.6818 368.723 21.108C369.609 20.5284 370.643 20.2386 371.825 20.2386C372.745 20.2386 373.575 20.4091 374.313 20.75C375.052 21.0909 375.657 21.5682 376.129 22.1818C376.6 22.7955 376.893 23.5114 377.007 24.3295H374.995C374.842 23.733 374.501 23.2045 373.973 22.7443C373.45 22.2784 372.745 22.0455 371.859 22.0455C371.075 22.0455 370.387 22.25 369.796 22.6591C369.211 23.0625 368.754 23.6335 368.424 24.3722C368.1 25.1051 367.938 25.9659 367.938 26.9545C367.938 27.9659 368.098 28.8466 368.416 29.5966C368.74 30.3466 369.194 30.929 369.779 31.3438C370.37 31.7585 371.063 31.9659 371.859 31.9659C372.382 31.9659 372.856 31.875 373.282 31.6932C373.708 31.5114 374.069 31.25 374.365 30.9091C374.66 30.5682 374.87 30.1591 374.995 29.6818H377.007C376.893 30.4545 376.612 31.1506 376.163 31.7699C375.72 32.3835 375.132 32.8722 374.399 33.2358C373.671 33.5938 372.825 33.7727 371.859 33.7727ZM378.987 33.5V20.4091H380.998V33.5H378.987ZM380.01 18.2273C379.618 18.2273 379.28 18.0938 378.996 17.8267C378.717 17.5597 378.578 17.2386 378.578 16.8636C378.578 16.4886 378.717 16.1676 378.996 15.9006C379.28 15.6335 379.618 15.5 380.01 15.5C380.402 15.5 380.737 15.6335 381.015 15.9006C381.299 16.1676 381.442 16.4886 381.442 16.8636C381.442 17.2386 381.299 17.5597 381.015 17.8267C380.737 18.0938 380.402 18.2273 380.01 18.2273ZM385.734 25.625V33.5H383.722V20.4091H385.665V22.4545H385.836C386.143 21.7898 386.609 21.2557 387.234 20.8523C387.859 20.4432 388.665 20.2386 389.654 20.2386C390.54 20.2386 391.316 20.4205 391.981 20.7841C392.646 21.142 393.163 21.6875 393.532 22.4205C393.901 23.1477 394.086 24.0682 394.086 25.1818V33.5H392.075V25.3182C392.075 24.2898 391.808 23.4886 391.273 22.9148C390.739 22.3352 390.006 22.0455 389.075 22.0455C388.433 22.0455 387.859 22.1847 387.353 22.4631C386.853 22.7415 386.458 23.1477 386.168 23.6818C385.879 24.2159 385.734 24.8636 385.734 25.625ZM402.085 38.6818C401.114 38.6818 400.279 38.5568 399.58 38.3068C398.881 38.0625 398.299 37.7386 397.833 37.3352C397.372 36.9375 397.006 36.5114 396.733 36.0568L398.335 34.9318C398.517 35.1705 398.747 35.4432 399.026 35.75C399.304 36.0625 399.685 36.3324 400.168 36.5597C400.657 36.7926 401.296 36.9091 402.085 36.9091C403.142 36.9091 404.014 36.6534 404.702 36.142C405.389 35.6307 405.733 34.8295 405.733 33.7386V31.0795H405.563C405.415 31.3182 405.205 31.6136 404.932 31.9659C404.665 32.3125 404.279 32.6222 403.773 32.8949C403.273 33.1619 402.597 33.2955 401.745 33.2955C400.688 33.2955 399.739 33.0455 398.898 32.5455C398.063 32.0455 397.401 31.3182 396.912 30.3636C396.429 29.4091 396.188 28.25 396.188 26.8864C396.188 25.5455 396.424 24.3778 396.895 23.3835C397.367 22.3835 398.023 21.6108 398.864 21.0653C399.705 20.5142 400.676 20.2386 401.779 20.2386C402.631 20.2386 403.307 20.3807 403.807 20.6648C404.313 20.9432 404.699 21.2614 404.966 21.6193C405.239 21.9716 405.449 22.2614 405.597 22.4886H405.801V20.4091H407.745V33.875C407.745 35 407.489 35.9148 406.978 36.6193C406.472 37.3295 405.79 37.8494 404.932 38.179C404.08 38.5142 403.131 38.6818 402.085 38.6818ZM402.017 31.4886C402.824 31.4886 403.506 31.304 404.063 30.9347C404.62 30.5653 405.043 30.0341 405.333 29.3409C405.622 28.6477 405.767 27.8182 405.767 26.8523C405.767 25.9091 405.625 25.0767 405.341 24.3551C405.057 23.6335 404.637 23.0682 404.08 22.6591C403.523 22.25 402.835 22.0455 402.017 22.0455C401.165 22.0455 400.455 22.2614 399.887 22.6932C399.324 23.125 398.901 23.7045 398.617 24.4318C398.338 25.1591 398.199 25.9659 398.199 26.8523C398.199 27.7614 398.341 28.5653 398.625 29.2642C398.915 29.9574 399.341 30.5028 399.904 30.9006C400.472 31.2926 401.176 31.4886 402.017 31.4886ZM416.256 38.4091V20.4091H418.2V22.4886H418.438C418.586 22.2614 418.79 21.9716 419.052 21.6193C419.319 21.2614 419.7 20.9432 420.194 20.6648C420.694 20.3807 421.37 20.2386 422.222 20.2386C423.325 20.2386 424.296 20.5142 425.137 21.0653C425.978 21.6165 426.634 22.3977 427.106 23.4091C427.577 24.4205 427.813 25.6136 427.813 26.9886C427.813 28.375 427.577 29.5767 427.106 30.5938C426.634 31.6051 425.981 32.3892 425.146 32.946C424.31 33.4972 423.347 33.7727 422.256 33.7727C421.415 33.7727 420.742 33.6335 420.236 33.3551C419.731 33.071 419.342 32.75 419.069 32.392C418.796 32.0284 418.586 31.7273 418.438 31.4886H418.268V38.4091H416.256ZM418.234 26.9545C418.234 27.9432 418.379 28.8153 418.668 29.571C418.958 30.321 419.381 30.9091 419.938 31.3352C420.495 31.7557 421.177 31.9659 421.984 31.9659C422.825 31.9659 423.526 31.7443 424.089 31.3011C424.657 30.8523 425.083 30.25 425.367 29.4943C425.657 28.733 425.802 27.8864 425.802 26.9545C425.802 26.0341 425.66 25.2045 425.376 24.4659C425.097 23.7216 424.674 23.1335 424.106 22.7017C423.543 22.2642 422.836 22.0455 421.984 22.0455C421.165 22.0455 420.478 22.2528 419.921 22.6676C419.364 23.0767 418.944 23.6506 418.66 24.3892C418.376 25.1222 418.234 25.9773 418.234 26.9545ZM433.774 33.8068C432.944 33.8068 432.191 33.6506 431.515 33.3381C430.839 33.0199 430.302 32.5625 429.904 31.9659C429.507 31.3636 429.308 30.6364 429.308 29.7841C429.308 29.0341 429.455 28.4261 429.751 27.9602C430.046 27.4886 430.441 27.1193 430.936 26.8523C431.43 26.5852 431.975 26.3864 432.572 26.2557C433.174 26.1193 433.779 26.0114 434.387 25.9318C435.183 25.8295 435.828 25.7528 436.322 25.7017C436.822 25.6449 437.186 25.5511 437.413 25.4205C437.646 25.2898 437.762 25.0625 437.762 24.7386V24.6705C437.762 23.8295 437.532 23.1761 437.072 22.7102C436.617 22.2443 435.927 22.0114 435.001 22.0114C434.041 22.0114 433.288 22.2216 432.742 22.642C432.197 23.0625 431.813 23.5114 431.592 23.9886L429.683 23.3068C430.024 22.5114 430.478 21.892 431.046 21.4489C431.62 21 432.245 20.6875 432.921 20.5114C433.603 20.3295 434.274 20.2386 434.933 20.2386C435.353 20.2386 435.836 20.2898 436.382 20.392C436.933 20.4886 437.464 20.6903 437.975 20.9972C438.492 21.304 438.921 21.767 439.262 22.3864C439.603 23.0057 439.774 23.8352 439.774 24.875V33.5H437.762V31.7273H437.66C437.524 32.0114 437.296 32.3153 436.978 32.6392C436.66 32.9631 436.237 33.2386 435.708 33.4659C435.18 33.6932 434.535 33.8068 433.774 33.8068ZM434.08 32C434.876 32 435.546 31.8438 436.092 31.5312C436.643 31.2188 437.058 30.8153 437.336 30.321C437.62 29.8267 437.762 29.3068 437.762 28.7614V26.9205C437.677 27.0227 437.49 27.1165 437.2 27.2017C436.916 27.2812 436.586 27.3523 436.211 27.4148C435.842 27.4716 435.481 27.5227 435.129 27.5682C434.782 27.608 434.501 27.642 434.285 27.6705C433.762 27.7386 433.274 27.8494 432.819 28.0028C432.37 28.1506 432.007 28.375 431.728 28.6761C431.455 28.9716 431.319 29.375 431.319 29.8864C431.319 30.5852 431.578 31.1136 432.095 31.4716C432.617 31.8239 433.279 32 434.08 32ZM443.312 38.4091C442.971 38.4091 442.667 38.3807 442.4 38.3239C442.133 38.2727 441.948 38.2216 441.846 38.1705L442.357 36.3977C442.846 36.5227 443.277 36.5682 443.652 36.5341C444.027 36.5 444.36 36.3324 444.65 36.0312C444.945 35.7358 445.215 35.2557 445.459 34.5909L445.834 33.5682L440.993 20.4091H443.175L446.789 30.8409H446.925L450.539 20.4091H452.721L447.164 35.4091C446.914 36.0852 446.604 36.6449 446.235 37.0881C445.866 37.5369 445.437 37.8693 444.948 38.0852C444.465 38.3011 443.919 38.4091 443.312 38.4091ZM454.415 33.5V20.4091H456.359V22.4545H456.529C456.802 21.7557 457.242 21.2131 457.85 20.8267C458.458 20.4347 459.188 20.2386 460.04 20.2386C460.904 20.2386 461.623 20.4347 462.197 20.8267C462.776 21.2131 463.228 21.7557 463.552 22.4545H463.688C464.023 21.7784 464.526 21.2415 465.197 20.8438C465.867 20.4403 466.671 20.2386 467.609 20.2386C468.779 20.2386 469.736 20.6051 470.481 21.3381C471.225 22.0653 471.597 23.1989 471.597 24.7386V33.5H469.586V24.7386C469.586 23.7727 469.322 23.0824 468.793 22.6676C468.265 22.2528 467.643 22.0455 466.927 22.0455C466.006 22.0455 465.293 22.3239 464.788 22.8807C464.282 23.4318 464.029 24.1307 464.029 24.9773V33.5H461.984V24.5341C461.984 23.7898 461.742 23.1903 461.259 22.7358C460.776 22.2756 460.154 22.0455 459.393 22.0455C458.87 22.0455 458.381 22.1847 457.927 22.4631C457.478 22.7415 457.114 23.1278 456.836 23.6222C456.563 24.1108 456.427 24.6761 456.427 25.3182V33.5H454.415ZM479.803 33.7727C478.542 33.7727 477.454 33.4943 476.539 32.9375C475.63 32.375 474.928 31.5909 474.434 30.5852C473.945 29.5739 473.701 28.3977 473.701 27.0568C473.701 25.7159 473.945 24.5341 474.434 23.5114C474.928 22.483 475.616 21.6818 476.497 21.108C477.383 20.5284 478.417 20.2386 479.599 20.2386C480.281 20.2386 480.954 20.3523 481.619 20.5795C482.284 20.8068 482.889 21.1761 483.434 21.6875C483.98 22.1932 484.414 22.8636 484.738 23.6989C485.062 24.5341 485.224 25.5625 485.224 26.7841V27.6364H475.133V25.8977H483.178C483.178 25.1591 483.031 24.5 482.735 23.9205C482.445 23.3409 482.031 22.8835 481.491 22.5483C480.957 22.2131 480.326 22.0455 479.599 22.0455C478.798 22.0455 478.105 22.2443 477.519 22.642C476.94 23.0341 476.494 23.5455 476.181 24.1761C475.869 24.8068 475.713 25.483 475.713 26.2045V27.3636C475.713 28.3523 475.883 29.1903 476.224 29.8778C476.57 30.5597 477.051 31.0795 477.664 31.4375C478.278 31.7898 478.991 31.9659 479.803 31.9659C480.332 31.9659 480.809 31.892 481.235 31.7443C481.667 31.5909 482.039 31.3636 482.352 31.0625C482.664 30.7557 482.906 30.375 483.076 29.9205L485.019 30.4659C484.815 31.125 484.471 31.7045 483.988 32.2045C483.505 32.6989 482.909 33.0852 482.198 33.3636C481.488 33.6364 480.69 33.7727 479.803 33.7727ZM489.335 25.625V33.5H487.324V20.4091H489.267V22.4545H489.437C489.744 21.7898 490.21 21.2557 490.835 20.8523C491.46 20.4432 492.267 20.2386 493.255 20.2386C494.142 20.2386 494.917 20.4205 495.582 20.7841C496.247 21.142 496.764 21.6875 497.133 22.4205C497.503 23.1477 497.687 24.0682 497.687 25.1818V33.5H495.676V25.3182C495.676 24.2898 495.409 23.4886 494.875 22.9148C494.341 22.3352 493.608 22.0455 492.676 22.0455C492.034 22.0455 491.46 22.1847 490.954 22.4631C490.454 22.7415 490.059 23.1477 489.77 23.6818C489.48 24.2159 489.335 24.8636 489.335 25.625ZM506.096 20.4091V22.1136H499.312V20.4091H506.096ZM501.289 17.2727H503.3V29.75C503.3 30.3182 503.383 30.7443 503.548 31.0284C503.718 31.3068 503.934 31.4943 504.195 31.5909C504.462 31.6818 504.744 31.7273 505.039 31.7273C505.261 31.7273 505.442 31.7159 505.584 31.6932C505.726 31.6648 505.84 31.642 505.925 31.625L506.334 33.4318C506.198 33.483 506.008 33.5341 505.763 33.5852C505.519 33.642 505.209 33.6705 504.834 33.6705C504.266 33.6705 503.709 33.5483 503.164 33.304C502.624 33.0597 502.175 32.6875 501.817 32.1875C501.465 31.6875 501.289 31.0568 501.289 30.2955V17.2727ZM517.2 23.3409L515.393 23.8523C515.279 23.5511 515.112 23.2585 514.89 22.9744C514.674 22.6847 514.379 22.446 514.004 22.2585C513.629 22.071 513.149 21.9773 512.563 21.9773C511.762 21.9773 511.095 22.1619 510.561 22.5312C510.032 22.8949 509.768 23.358 509.768 23.9205C509.768 24.4205 509.95 24.8153 510.313 25.1051C510.677 25.3949 511.245 25.6364 512.018 25.8295L513.961 26.3068C515.132 26.5909 516.004 27.0256 516.578 27.6108C517.151 28.1903 517.438 28.9375 517.438 29.8523C517.438 30.6023 517.222 31.2727 516.791 31.8636C516.365 32.4545 515.768 32.9205 515.001 33.2614C514.234 33.6023 513.342 33.7727 512.325 33.7727C510.99 33.7727 509.884 33.483 509.009 32.9034C508.134 32.3239 507.58 31.4773 507.347 30.3636L509.257 29.8864C509.438 30.5909 509.782 31.1193 510.288 31.4716C510.799 31.8239 511.467 32 512.291 32C513.228 32 513.972 31.8011 514.524 31.4034C515.08 31 515.359 30.517 515.359 29.9545C515.359 29.5 515.2 29.1193 514.882 28.8125C514.563 28.5 514.075 28.267 513.416 28.1136L511.234 27.6023C510.035 27.3182 509.154 26.8778 508.592 26.2812C508.035 25.679 507.757 24.9261 507.757 24.0227C507.757 23.2841 507.964 22.6307 508.379 22.0625C508.799 21.4943 509.37 21.0483 510.092 20.7244C510.819 20.4006 511.643 20.2386 512.563 20.2386C513.859 20.2386 514.876 20.5227 515.615 21.0909C516.359 21.6591 516.887 22.4091 517.2 23.3409Z" fill="url(#paint0_linear_28_5272)"/>
<path d="M111.8 98.5V62.1364H124.761C127.59 62.1364 129.934 62.6513 131.793 63.6811C133.651 64.7109 135.042 66.1196 135.965 67.907C136.888 69.6825 137.35 71.683 137.35 73.9084C137.35 76.1456 136.883 78.1579 135.947 79.9453C135.024 81.7209 133.627 83.1295 131.757 84.1712C129.899 85.201 127.561 85.7159 124.744 85.7159H115.83V81.0639H124.246C126.034 81.0639 127.484 80.7562 128.597 80.1406C129.709 79.5133 130.526 78.661 131.047 77.5838C131.568 76.5066 131.828 75.2815 131.828 73.9084C131.828 72.5353 131.568 71.3161 131.047 70.2507C130.526 69.1854 129.703 68.3509 128.579 67.7472C127.466 67.1435 125.998 66.8416 124.175 66.8416H117.286V98.5H111.8ZM152.502 99.0504C149.945 99.0504 147.714 98.4645 145.808 97.2926C143.902 96.1207 142.423 94.4813 141.369 92.3743C140.316 90.2673 139.789 87.8052 139.789 84.9879C139.789 82.1589 140.316 79.6849 141.369 77.5661C142.423 75.4472 143.902 73.8018 145.808 72.63C147.714 71.4581 149.945 70.8722 152.502 70.8722C155.059 70.8722 157.29 71.4581 159.196 72.63C161.102 73.8018 162.581 75.4472 163.635 77.5661C164.688 79.6849 165.215 82.1589 165.215 84.9879C165.215 87.8052 164.688 90.2673 163.635 92.3743C162.581 94.4813 161.102 96.1207 159.196 97.2926C157.29 98.4645 155.059 99.0504 152.502 99.0504ZM152.52 94.5938C154.177 94.5938 155.55 94.1558 156.639 93.2798C157.728 92.4039 158.533 91.2379 159.054 89.782C159.587 88.326 159.853 86.7221 159.853 84.9702C159.853 83.2301 159.587 81.6321 159.054 80.1761C158.533 78.7083 157.728 77.5305 156.639 76.6428C155.55 75.755 154.177 75.3111 152.52 75.3111C150.851 75.3111 149.466 75.755 148.365 76.6428C147.276 77.5305 146.465 78.7083 145.933 80.1761C145.412 81.6321 145.151 83.2301 145.151 84.9702C145.151 86.7221 145.412 88.326 145.933 89.782C146.465 91.2379 147.276 92.4039 148.365 93.2798C149.466 94.1558 150.851 94.5938 152.52 94.5938ZM174.224 98.5L166.198 71.2273H171.685L177.029 91.2557H177.295L182.658 71.2273H188.144L193.471 91.1669H193.737L199.046 71.2273H204.533L196.525 98.5H191.109L185.57 78.8089H185.161L179.621 98.5H174.224ZM218.495 99.0504C215.808 99.0504 213.494 98.4763 211.553 97.3281C209.623 96.1681 208.132 94.5405 207.078 92.4453C206.036 90.3383 205.516 87.8703 205.516 85.0412C205.516 82.2476 206.036 79.7855 207.078 77.6548C208.132 75.5241 209.599 73.861 211.482 72.6655C213.375 71.4699 215.589 70.8722 218.122 70.8722C219.661 70.8722 221.152 71.1267 222.597 71.6357C224.041 72.1446 225.337 72.9437 226.485 74.0327C227.633 75.1217 228.539 76.5362 229.202 78.2763C229.865 80.0045 230.196 82.1056 230.196 84.5795V86.4616H208.516V82.4844H224.994C224.994 81.0876 224.71 79.8506 224.141 78.7734C223.573 77.6844 222.774 76.8262 221.744 76.1989C220.726 75.5715 219.531 75.2578 218.158 75.2578C216.666 75.2578 215.364 75.6248 214.251 76.3587C213.151 77.0807 212.298 78.0277 211.695 79.1996C211.103 80.3596 210.807 81.6203 210.807 82.9815V86.0888C210.807 87.9117 211.126 89.4624 211.766 90.7408C212.417 92.0192 213.322 92.9957 214.482 93.6705C215.642 94.3333 216.998 94.6648 218.548 94.6648C219.554 94.6648 220.472 94.5227 221.3 94.2386C222.129 93.9427 222.845 93.5047 223.449 92.9247C224.053 92.3447 224.514 91.6286 224.834 90.7763L229.859 91.6818C229.456 93.1615 228.734 94.4576 227.692 95.5703C226.663 96.6712 225.366 97.5294 223.804 98.1449C222.253 98.7486 220.484 99.0504 218.495 99.0504ZM234.086 98.5V71.2273H239.218V75.5597H239.502C239.999 74.0919 240.875 72.9377 242.13 72.0973C243.396 71.245 244.829 70.8189 246.427 70.8189C246.758 70.8189 247.149 70.8307 247.599 70.8544C248.06 70.8781 248.421 70.9077 248.682 70.9432V76.0213C248.469 75.9621 248.09 75.897 247.545 75.826C247.001 75.7431 246.456 75.7017 245.912 75.7017C244.657 75.7017 243.538 75.968 242.556 76.5007C241.585 77.0215 240.816 77.7495 240.248 78.6847C239.68 79.608 239.395 80.6615 239.395 81.8452V98.5H234.086ZM251.276 98.5V71.2273H256.585V98.5H251.276ZM253.957 67.0192C253.034 67.0192 252.241 66.7114 251.578 66.0959C250.927 65.4685 250.601 64.7228 250.601 63.8587C250.601 62.9827 250.927 62.237 251.578 61.6214C252.241 60.9941 253.034 60.6804 253.957 60.6804C254.88 60.6804 255.667 60.9941 256.319 61.6214C256.981 62.237 257.313 62.9827 257.313 63.8587C257.313 64.7228 256.981 65.4685 256.319 66.0959C255.667 66.7114 254.88 67.0192 253.957 67.0192ZM267.036 82.3068V98.5H261.727V71.2273H266.823V75.6662H267.16C267.788 74.2221 268.77 73.062 270.108 72.1861C271.457 71.3101 273.156 70.8722 275.204 70.8722C277.062 70.8722 278.69 71.2628 280.086 72.044C281.483 72.8134 282.566 73.9616 283.336 75.4886C284.105 77.0156 284.49 78.9036 284.49 81.1527V98.5H279.181V81.7919C279.181 79.8151 278.666 78.2704 277.636 77.1577C276.606 76.0331 275.192 75.4709 273.393 75.4709C272.162 75.4709 271.067 75.7372 270.108 76.2699C269.161 76.8026 268.409 77.5838 267.853 78.6136C267.308 79.6316 267.036 80.8627 267.036 82.3068ZM301.045 109.295C298.878 109.295 297.014 109.011 295.452 108.443C293.901 107.875 292.634 107.123 291.652 106.188C290.669 105.253 289.935 104.229 289.45 103.116L294.013 101.234C294.333 101.755 294.759 102.306 295.292 102.886C295.836 103.478 296.57 103.981 297.493 104.395C298.429 104.809 299.63 105.016 301.098 105.016C303.11 105.016 304.773 104.525 306.087 103.543C307.401 102.572 308.058 101.021 308.058 98.8906V93.5284H307.721C307.401 94.1084 306.939 94.7536 306.336 95.4638C305.744 96.174 304.927 96.7895 303.885 97.3104C302.844 97.8312 301.488 98.0916 299.819 98.0916C297.665 98.0916 295.724 97.5885 293.996 96.5824C292.279 95.5644 290.918 94.067 289.912 92.0902C288.917 90.1016 288.42 87.6572 288.42 84.7571C288.42 81.857 288.912 79.3712 289.894 77.2997C290.888 75.2282 292.25 73.642 293.978 72.5412C295.706 71.4285 297.665 70.8722 299.855 70.8722C301.548 70.8722 302.915 71.1562 303.956 71.7244C304.998 72.2808 305.809 72.9318 306.389 73.6776C306.981 74.4233 307.437 75.0803 307.756 75.6484H308.147V71.2273H313.349V99.1037C313.349 101.447 312.805 103.371 311.716 104.874C310.627 106.378 309.153 107.49 307.295 108.212C305.448 108.934 303.365 109.295 301.045 109.295ZM300.991 93.6882C302.518 93.6882 303.809 93.3331 304.862 92.6229C305.927 91.9008 306.732 90.871 307.277 89.5334C307.833 88.1839 308.111 86.5682 308.111 84.6861C308.111 82.8513 307.839 81.2356 307.295 79.8388C306.75 78.442 305.951 77.353 304.898 76.5717C303.844 75.7786 302.542 75.3821 300.991 75.3821C299.393 75.3821 298.062 75.7964 296.996 76.625C295.931 77.4418 295.126 78.5544 294.581 79.9631C294.049 81.3717 293.782 82.946 293.782 84.6861C293.782 86.4735 294.055 88.0419 294.599 89.3913C295.144 90.7408 295.949 91.7943 297.014 92.5518C298.091 93.3094 299.417 93.6882 300.991 93.6882ZM330.128 98.5V62.1364H343.089C345.919 62.1364 348.262 62.6513 350.121 63.6811C351.979 64.7109 353.37 66.1196 354.293 67.907C355.217 69.6825 355.678 71.683 355.678 73.9084C355.678 76.1456 355.211 78.1579 354.276 79.9453C353.352 81.7209 351.955 83.1295 350.085 84.1712C348.227 85.201 345.889 85.7159 343.072 85.7159H334.158V81.0639H342.575C344.362 81.0639 345.812 80.7562 346.925 80.1406C348.037 79.5133 348.854 78.661 349.375 77.5838C349.896 76.5066 350.156 75.2815 350.156 73.9084C350.156 72.5353 349.896 71.3161 349.375 70.2507C348.854 69.1854 348.031 68.3509 346.907 67.7472C345.794 67.1435 344.326 66.8416 342.504 66.8416H335.614V98.5H330.128ZM367.377 99.1037C365.649 99.1037 364.086 98.7841 362.689 98.1449C361.292 97.4938 360.186 96.5528 359.369 95.3217C358.564 94.0907 358.162 92.5814 358.162 90.794C358.162 89.2552 358.458 87.9886 359.049 86.9943C359.641 86 360.44 85.2128 361.446 84.6328C362.453 84.0528 363.577 83.6148 364.82 83.3189C366.063 83.023 367.329 82.7981 368.62 82.6442C370.253 82.4548 371.579 82.3009 372.597 82.1825C373.615 82.0523 374.355 81.8452 374.816 81.5611C375.278 81.277 375.509 80.8153 375.509 80.1761V80.0518C375.509 78.5012 375.071 77.2997 374.195 76.4474C373.331 75.5952 372.041 75.169 370.324 75.169C368.537 75.169 367.128 75.5656 366.098 76.3587C365.08 77.1399 364.376 78.0099 363.985 78.9688L358.996 77.8324C359.588 76.1752 360.452 74.8376 361.588 73.8196C362.737 72.7898 364.056 72.044 365.548 71.5824C367.039 71.1089 368.608 70.8722 370.253 70.8722C371.342 70.8722 372.496 71.0024 373.716 71.2628C374.947 71.5114 376.095 71.973 377.16 72.6477C378.237 73.3224 379.119 74.2872 379.806 75.5419C380.492 76.7848 380.836 78.4006 380.836 80.3892V98.5H375.651V94.7713H375.438C375.095 95.4579 374.58 96.1326 373.893 96.7955C373.207 97.4583 372.325 98.0088 371.248 98.4467C370.17 98.8847 368.88 99.1037 367.377 99.1037ZM368.531 94.8423C369.999 94.8423 371.253 94.5523 372.295 93.9723C373.349 93.3923 374.148 92.6347 374.692 91.6996C375.248 90.7526 375.527 89.7405 375.527 88.6634V85.1477C375.337 85.3371 374.97 85.5147 374.426 85.6804C373.893 85.8343 373.283 85.9704 372.597 86.0888C371.91 86.1953 371.242 86.2959 370.591 86.3906C369.94 86.4735 369.395 86.5445 368.957 86.6037C367.927 86.7339 366.986 86.9529 366.134 87.2607C365.293 87.5684 364.619 88.0123 364.11 88.5923C363.613 89.1605 363.364 89.9181 363.364 90.8651C363.364 92.179 363.849 93.1733 364.82 93.848C365.791 94.5109 367.028 94.8423 368.531 94.8423ZM388.286 108.727C387.493 108.727 386.771 108.662 386.12 108.532C385.469 108.414 384.983 108.283 384.664 108.141L385.942 103.791C386.913 104.052 387.777 104.164 388.535 104.129C389.292 104.093 389.961 103.809 390.541 103.276C391.133 102.744 391.654 101.874 392.104 100.666L392.76 98.8551L382.782 71.2273H388.464L395.371 92.392H395.655L402.562 71.2273H408.261L397.022 102.14C396.501 103.56 395.838 104.762 395.033 105.744C394.228 106.739 393.269 107.484 392.157 107.982C391.044 108.479 389.754 108.727 388.286 108.727ZM411.251 98.5V71.2273H416.346V75.6662H416.684C417.252 74.1629 418.181 72.991 419.471 72.1506C420.762 71.2983 422.306 70.8722 424.106 70.8722C425.929 70.8722 427.456 71.2983 428.687 72.1506C429.93 73.0028 430.847 74.1747 431.439 75.6662H431.723C432.374 74.2102 433.41 73.0502 434.83 72.1861C436.251 71.3101 437.943 70.8722 439.908 70.8722C442.382 70.8722 444.4 71.6475 445.963 73.1982C447.537 74.7488 448.324 77.0866 448.324 80.2116V98.5H443.015V80.7088C443.015 78.8622 442.512 77.5246 441.506 76.696C440.5 75.8674 439.299 75.4531 437.902 75.4531C436.174 75.4531 434.83 75.9858 433.871 77.0511C432.912 78.1046 432.433 79.46 432.433 81.1172V98.5H427.142V80.3714C427.142 78.8918 426.68 77.7022 425.757 76.8026C424.834 75.9029 423.632 75.4531 422.153 75.4531C421.146 75.4531 420.217 75.7195 419.365 76.2521C418.524 76.773 417.844 77.5009 417.323 78.4361C416.814 79.3712 416.559 80.4543 416.559 81.6854V98.5H411.251ZM465.194 99.0504C462.507 99.0504 460.193 98.4763 458.252 97.3281C456.322 96.1681 454.831 94.5405 453.777 92.4453C452.736 90.3383 452.215 87.8703 452.215 85.0412C452.215 82.2476 452.736 79.7855 453.777 77.6548C454.831 75.5241 456.299 73.861 458.181 72.6655C460.075 71.4699 462.288 70.8722 464.821 70.8722C466.36 70.8722 467.852 71.1267 469.296 71.6357C470.74 72.1446 472.036 72.9437 473.184 74.0327C474.333 75.1217 475.238 76.5362 475.901 78.2763C476.564 80.0045 476.895 82.1056 476.895 84.5795V86.4616H455.216V82.4844H471.693C471.693 81.0876 471.409 79.8506 470.841 78.7734C470.272 77.6844 469.473 76.8262 468.444 76.1989C467.426 75.5715 466.23 75.2578 464.857 75.2578C463.365 75.2578 462.063 75.6248 460.951 76.3587C459.85 77.0807 458.998 78.0277 458.394 79.1996C457.802 80.3596 457.506 81.6203 457.506 82.9815V86.0888C457.506 87.9117 457.826 89.4624 458.465 90.7408C459.116 92.0192 460.021 92.9957 461.181 93.6705C462.342 94.3333 463.697 94.6648 465.248 94.6648C466.254 94.6648 467.171 94.5227 468 94.2386C468.828 93.9427 469.544 93.5047 470.148 92.9247C470.752 92.3447 471.213 91.6286 471.533 90.7763L476.558 91.6818C476.155 93.1615 475.433 94.4576 474.392 95.5703C473.362 96.6712 472.066 97.5294 470.503 98.1449C468.953 98.7486 467.183 99.0504 465.194 99.0504ZM486.095 82.3068V98.5H480.786V71.2273H485.882V75.6662H486.219C486.846 74.2221 487.829 73.062 489.166 72.1861C490.516 71.3101 492.214 70.8722 494.262 70.8722C496.121 70.8722 497.748 71.2628 499.145 72.044C500.542 72.8134 501.625 73.9616 502.394 75.4886C503.164 77.0156 503.548 78.9036 503.548 81.1527V98.5H498.24V81.7919C498.24 79.8151 497.725 78.2704 496.695 77.1577C495.665 76.0331 494.25 75.4709 492.451 75.4709C491.22 75.4709 490.125 75.7372 489.166 76.2699C488.219 76.8026 487.468 77.5838 486.911 78.6136C486.367 79.6316 486.095 80.8627 486.095 82.3068ZM521.399 71.2273V75.4886H506.502V71.2273H521.399ZM510.497 64.6932H515.806V90.4922C515.806 91.522 515.96 92.2973 516.268 92.8182C516.576 93.3272 516.972 93.6764 517.458 93.8658C517.955 94.0433 518.493 94.1321 519.073 94.1321C519.499 94.1321 519.872 94.1025 520.192 94.0433C520.512 93.9841 520.76 93.9368 520.938 93.9013L521.896 98.2869C521.589 98.4053 521.151 98.5237 520.583 98.642C520.014 98.7723 519.304 98.8433 518.452 98.8551C517.055 98.8788 515.753 98.6302 514.546 98.1094C513.338 97.5885 512.362 96.7836 511.616 95.6946C510.87 94.6056 510.497 93.2384 510.497 91.593V64.6932ZM545.269 77.8857L540.458 78.7379C540.256 78.1224 539.937 77.5365 539.499 76.9801C539.073 76.4238 538.493 75.968 537.759 75.6129C537.025 75.2578 536.107 75.0803 535.007 75.0803C533.503 75.0803 532.249 75.4176 531.242 76.0923C530.236 76.7552 529.733 77.6134 529.733 78.6669C529.733 79.5784 530.07 80.3123 530.745 80.8686C531.42 81.425 532.509 81.8807 534.012 82.2358L538.345 83.2301C540.854 83.8101 542.724 84.7038 543.955 85.9112C545.186 87.1186 545.802 88.687 545.802 90.6165C545.802 92.25 545.329 93.706 544.382 94.9844C543.446 96.2509 542.138 97.2453 540.458 97.9673C538.789 98.6894 536.853 99.0504 534.651 99.0504C531.597 99.0504 529.106 98.3994 527.176 97.0973C525.247 95.7834 524.063 93.919 523.625 91.5043L528.757 90.723C529.076 92.0606 529.733 93.0727 530.727 93.7592C531.722 94.4339 533.018 94.7713 534.616 94.7713C536.356 94.7713 537.747 94.4103 538.789 93.6882C539.83 92.9543 540.351 92.0606 540.351 91.0071C540.351 90.1548 540.031 89.4387 539.392 88.8587C538.765 88.2786 537.8 87.8407 536.498 87.5447L531.882 86.5327C529.337 85.9527 527.454 85.0294 526.235 83.7628C525.028 82.4962 524.424 80.8923 524.424 78.951C524.424 77.3411 524.874 75.9325 525.774 74.7251C526.673 73.5178 527.916 72.5767 529.502 71.902C531.088 71.2154 532.905 70.8722 534.953 70.8722C537.901 70.8722 540.221 71.5114 541.914 72.7898C543.606 74.0563 544.725 75.755 545.269 77.8857ZM564.369 98.5H558.546L571.632 62.1364H577.97L591.056 98.5H585.232L574.952 68.7415H574.668L564.369 98.5ZM565.346 84.2599H584.238V88.8764H565.346V84.2599ZM604.93 99.0504C602.29 99.0504 600.017 98.4527 598.112 97.2571C596.218 96.0497 594.762 94.3866 593.744 92.2678C592.726 90.1489 592.217 87.7223 592.217 84.9879C592.217 82.218 592.738 79.7737 593.779 77.6548C594.821 75.5241 596.289 73.861 598.183 72.6655C600.077 71.4699 602.308 70.8722 604.877 70.8722C606.948 70.8722 608.795 71.2569 610.416 72.0263C612.038 72.7839 613.346 73.8492 614.34 75.2223C615.347 76.5954 615.944 78.1993 616.134 80.0341H610.967C610.683 78.7557 610.032 77.6548 609.014 76.7315C608.008 75.8082 606.658 75.3466 604.965 75.3466C603.486 75.3466 602.19 75.7372 601.077 76.5185C599.976 77.2879 599.118 78.3887 598.502 79.821C597.887 81.2415 597.579 82.9223 597.579 84.8636C597.579 86.8523 597.881 88.5687 598.485 90.0128C599.088 91.4569 599.941 92.5755 601.041 93.3686C602.154 94.1617 603.462 94.5582 604.965 94.5582C605.972 94.5582 606.883 94.3748 607.7 94.0078C608.528 93.629 609.221 93.0904 609.777 92.392C610.345 91.6937 610.742 90.8532 610.967 89.8707H616.134C615.944 91.6345 615.37 93.2088 614.411 94.5938C613.453 95.9787 612.168 97.0677 610.558 97.8608C608.96 98.6539 607.084 99.0504 604.93 99.0504ZM619.811 98.5V71.2273H624.942V75.5597H625.227C625.724 74.0919 626.6 72.9377 627.854 72.0973C629.121 71.245 630.553 70.8189 632.151 70.8189C632.483 70.8189 632.873 70.8307 633.323 70.8544C633.785 70.8781 634.146 70.9077 634.406 70.9432V76.0213C634.193 75.9621 633.814 75.897 633.27 75.826C632.725 75.7431 632.181 75.7017 631.636 75.7017C630.382 75.7017 629.263 75.968 628.281 76.5007C627.31 77.0215 626.54 77.7495 625.972 78.6847C625.404 79.608 625.12 80.6615 625.12 81.8452V98.5H619.811ZM647.512 99.0504C644.955 99.0504 642.724 98.4645 640.818 97.2926C638.912 96.1207 637.433 94.4813 636.379 92.3743C635.326 90.2673 634.799 87.8052 634.799 84.9879C634.799 82.1589 635.326 79.6849 636.379 77.5661C637.433 75.4472 638.912 73.8018 640.818 72.63C642.724 71.4581 644.955 70.8722 647.512 70.8722C650.069 70.8722 652.3 71.4581 654.206 72.63C656.112 73.8018 657.591 75.4472 658.645 77.5661C659.698 79.6849 660.225 82.1589 660.225 84.9879C660.225 87.8052 659.698 90.2673 658.645 92.3743C657.591 94.4813 656.112 96.1207 654.206 97.2926C652.3 98.4645 650.069 99.0504 647.512 99.0504ZM647.53 94.5938C649.187 94.5938 650.56 94.1558 651.649 93.2798C652.738 92.4039 653.543 91.2379 654.064 89.782C654.596 88.326 654.863 86.7221 654.863 84.9702C654.863 83.2301 654.596 81.6321 654.064 80.1761C653.543 78.7083 652.738 77.5305 651.649 76.6428C650.56 75.755 649.187 75.3111 647.53 75.3111C645.861 75.3111 644.476 75.755 643.375 76.6428C642.286 77.5305 641.475 78.7083 640.942 80.1761C640.421 81.6321 640.161 83.2301 640.161 84.9702C640.161 86.7221 640.421 88.326 640.942 89.782C641.475 91.2379 642.286 92.4039 643.375 93.2798C644.476 94.1558 645.861 94.5938 647.53 94.5938ZM684.588 77.8857L679.776 78.7379C679.575 78.1224 679.255 77.5365 678.817 76.9801C678.391 76.4238 677.811 75.968 677.077 75.6129C676.343 75.2578 675.426 75.0803 674.325 75.0803C672.822 75.0803 671.567 75.4176 670.561 76.0923C669.555 76.7552 669.051 77.6134 669.051 78.6669C669.051 79.5784 669.389 80.3123 670.064 80.8686C670.738 81.425 671.827 81.8807 673.331 82.2358L677.663 83.2301C680.172 83.8101 682.043 84.7038 683.274 85.9112C684.505 87.1186 685.12 88.687 685.12 90.6165C685.12 92.25 684.647 93.706 683.7 94.9844C682.765 96.2509 681.457 97.2453 679.776 97.9673C678.107 98.6894 676.172 99.0504 673.97 99.0504C670.916 99.0504 668.424 98.3994 666.495 97.0973C664.565 95.7834 663.382 93.919 662.944 91.5043L668.075 90.723C668.395 92.0606 669.051 93.0727 670.046 93.7592C671.04 94.4339 672.336 94.7713 673.934 94.7713C675.674 94.7713 677.065 94.4103 678.107 93.6882C679.149 92.9543 679.669 92.0606 679.669 91.0071C679.669 90.1548 679.35 89.4387 678.711 88.8587C678.083 88.2786 677.118 87.8407 675.816 87.5447L671.2 86.5327C668.655 85.9527 666.773 85.0294 665.554 83.7628C664.346 82.4962 663.743 80.8923 663.743 78.951C663.743 77.3411 664.192 75.9325 665.092 74.7251C665.992 73.5178 667.234 72.5767 668.821 71.902C670.407 71.2154 672.224 70.8722 674.272 70.8722C677.219 70.8722 679.539 71.5114 681.232 72.7898C682.925 74.0563 684.043 75.755 684.588 77.8857ZM709.394 77.8857L704.583 78.7379C704.381 78.1224 704.062 77.5365 703.624 76.9801C703.198 76.4238 702.618 75.968 701.884 75.6129C701.15 75.2578 700.232 75.0803 699.132 75.0803C697.628 75.0803 696.374 75.4176 695.367 76.0923C694.361 76.7552 693.858 77.6134 693.858 78.6669C693.858 79.5784 694.195 80.3123 694.87 80.8686C695.545 81.425 696.634 81.8807 698.137 82.2358L702.47 83.2301C704.979 83.8101 706.849 84.7038 708.08 85.9112C709.311 87.1186 709.927 88.687 709.927 90.6165C709.927 92.25 709.454 93.706 708.507 94.9844C707.571 96.2509 706.263 97.2453 704.583 97.9673C702.914 98.6894 700.978 99.0504 698.776 99.0504C695.722 99.0504 693.231 98.3994 691.301 97.0973C689.372 95.7834 688.188 93.919 687.75 91.5043L692.882 90.723C693.201 92.0606 693.858 93.0727 694.852 93.7592C695.847 94.4339 697.143 94.7713 698.741 94.7713C700.481 94.7713 701.872 94.4103 702.914 93.6882C703.955 92.9543 704.476 92.0606 704.476 91.0071C704.476 90.1548 704.156 89.4387 703.517 88.8587C702.89 88.2786 701.925 87.8407 700.623 87.5447L696.007 86.5327C693.462 85.9527 691.579 85.0294 690.36 83.7628C689.153 82.4962 688.549 80.8923 688.549 78.951C688.549 77.3411 688.999 75.9325 689.899 74.7251C690.798 73.5178 692.041 72.5767 693.627 71.902C695.213 71.2154 697.03 70.8722 699.078 70.8722C702.026 70.8722 704.346 71.5114 706.039 72.7898C707.731 74.0563 708.85 75.755 709.394 77.8857ZM308.683 123.136V159.5H303.196V123.136H308.683ZM319.556 143.307V159.5H314.247V132.227H319.343V136.666H319.68C320.307 135.222 321.29 134.062 322.627 133.186C323.977 132.31 325.675 131.872 327.723 131.872C329.582 131.872 331.209 132.263 332.606 133.044C334.003 133.813 335.086 134.962 335.855 136.489C336.625 138.016 337.009 139.904 337.009 142.153V159.5H331.7V142.792C331.7 140.815 331.186 139.27 330.156 138.158C329.126 137.033 327.711 136.471 325.912 136.471C324.681 136.471 323.586 136.737 322.627 137.27C321.68 137.803 320.929 138.584 320.372 139.614C319.828 140.632 319.556 141.863 319.556 143.307ZM352.339 160.033C350.137 160.033 348.172 159.47 346.444 158.346C344.728 157.21 343.378 155.594 342.396 153.499C341.425 151.392 340.94 148.864 340.94 145.917C340.94 142.969 341.431 140.448 342.414 138.353C343.408 136.258 344.769 134.654 346.497 133.541C348.226 132.429 350.185 131.872 352.374 131.872C354.067 131.872 355.428 132.156 356.458 132.724C357.5 133.281 358.305 133.932 358.873 134.678C359.453 135.423 359.903 136.08 360.222 136.648H360.542V123.136H365.851V159.5H360.666V155.256H360.222C359.903 155.836 359.441 156.499 358.838 157.245C358.246 157.991 357.429 158.642 356.387 159.198C355.346 159.754 353.996 160.033 352.339 160.033ZM353.511 155.505C355.038 155.505 356.328 155.103 357.382 154.298C358.447 153.481 359.252 152.35 359.796 150.906C360.353 149.462 360.631 147.781 360.631 145.864C360.631 143.97 360.359 142.312 359.814 140.892C359.27 139.472 358.471 138.365 357.417 137.572C356.364 136.779 355.061 136.382 353.511 136.382C351.913 136.382 350.581 136.796 349.516 137.625C348.45 138.454 347.646 139.584 347.101 141.016C346.568 142.449 346.302 144.064 346.302 145.864C346.302 147.687 346.574 149.326 347.119 150.782C347.663 152.238 348.468 153.392 349.534 154.244C350.611 155.085 351.936 155.505 353.511 155.505ZM388.705 148.19V132.227H394.031V159.5H388.811V154.777H388.527C387.9 156.233 386.893 157.446 385.509 158.417C384.135 159.376 382.425 159.855 380.377 159.855C378.625 159.855 377.075 159.47 375.725 158.701C374.388 157.92 373.334 156.766 372.565 155.239C371.807 153.712 371.428 151.824 371.428 149.575V132.227H376.737V148.935C376.737 150.794 377.252 152.273 378.282 153.374C379.312 154.475 380.649 155.026 382.295 155.026C383.289 155.026 384.277 154.777 385.26 154.28C386.254 153.783 387.077 153.031 387.728 152.025C388.391 151.019 388.716 149.74 388.705 148.19ZM419.601 138.886L414.79 139.738C414.588 139.122 414.269 138.536 413.831 137.98C413.405 137.424 412.825 136.968 412.091 136.613C411.357 136.258 410.439 136.08 409.339 136.08C407.835 136.08 406.581 136.418 405.574 137.092C404.568 137.755 404.065 138.613 404.065 139.667C404.065 140.578 404.403 141.312 405.077 141.869C405.752 142.425 406.841 142.881 408.344 143.236L412.677 144.23C415.186 144.81 417.056 145.704 418.287 146.911C419.519 148.119 420.134 149.687 420.134 151.616C420.134 153.25 419.661 154.706 418.714 155.984C417.778 157.251 416.47 158.245 414.79 158.967C413.121 159.689 411.185 160.05 408.983 160.05C405.93 160.05 403.438 159.399 401.508 158.097C399.579 156.783 398.395 154.919 397.957 152.504L403.089 151.723C403.408 153.061 404.065 154.073 405.059 154.759C406.054 155.434 407.35 155.771 408.948 155.771C410.688 155.771 412.079 155.41 413.121 154.688C414.162 153.954 414.683 153.061 414.683 152.007C414.683 151.155 414.363 150.439 413.724 149.859C413.097 149.279 412.132 148.841 410.83 148.545L406.214 147.533C403.669 146.953 401.787 146.029 400.567 144.763C399.36 143.496 398.756 141.892 398.756 139.951C398.756 138.341 399.206 136.933 400.106 135.725C401.005 134.518 402.248 133.577 403.834 132.902C405.421 132.215 407.238 131.872 409.285 131.872C412.233 131.872 414.553 132.511 416.246 133.79C417.938 135.056 419.057 136.755 419.601 138.886ZM436.702 132.227V136.489H421.805V132.227H436.702ZM425.8 125.693H431.109V151.492C431.109 152.522 431.263 153.297 431.571 153.818C431.878 154.327 432.275 154.676 432.76 154.866C433.257 155.043 433.796 155.132 434.376 155.132C434.802 155.132 435.175 155.103 435.495 155.043C435.814 154.984 436.063 154.937 436.24 154.901L437.199 159.287C436.891 159.405 436.453 159.524 435.885 159.642C435.317 159.772 434.607 159.843 433.755 159.855C432.358 159.879 431.056 159.63 429.848 159.109C428.641 158.589 427.664 157.784 426.919 156.695C426.173 155.606 425.8 154.238 425.8 152.593V125.693ZM440.575 159.5V132.227H445.706V136.56H445.99C446.487 135.092 447.363 133.938 448.618 133.097C449.885 132.245 451.317 131.819 452.915 131.819C453.246 131.819 453.637 131.831 454.087 131.854C454.548 131.878 454.91 131.908 455.17 131.943V137.021C454.957 136.962 454.578 136.897 454.034 136.826C453.489 136.743 452.945 136.702 452.4 136.702C451.145 136.702 450.027 136.968 449.044 137.501C448.074 138.022 447.304 138.75 446.736 139.685C446.168 140.608 445.884 141.661 445.884 142.845V159.5H440.575ZM457.764 159.5V132.227H463.073V159.5H457.764ZM460.445 128.019C459.522 128.019 458.729 127.711 458.066 127.096C457.415 126.469 457.089 125.723 457.089 124.859C457.089 123.983 457.415 123.237 458.066 122.621C458.729 121.994 459.522 121.68 460.445 121.68C461.369 121.68 462.156 121.994 462.807 122.621C463.47 123.237 463.801 123.983 463.801 124.859C463.801 125.723 463.47 126.469 462.807 127.096C462.156 127.711 461.369 128.019 460.445 128.019ZM479.97 160.05C477.283 160.05 474.968 159.476 473.027 158.328C471.098 157.168 469.606 155.54 468.553 153.445C467.511 151.338 466.99 148.87 466.99 146.041C466.99 143.248 467.511 140.786 468.553 138.655C469.606 136.524 471.074 134.861 472.956 133.665C474.85 132.47 477.064 131.872 479.597 131.872C481.136 131.872 482.627 132.127 484.071 132.636C485.515 133.145 486.811 133.944 487.96 135.033C489.108 136.122 490.013 137.536 490.676 139.276C491.339 141.004 491.671 143.106 491.671 145.58V147.462H469.991V143.484H486.468C486.468 142.088 486.184 140.851 485.616 139.773C485.048 138.684 484.249 137.826 483.219 137.199C482.201 136.571 481.005 136.258 479.632 136.258C478.141 136.258 476.839 136.625 475.726 137.359C474.625 138.081 473.773 139.028 473.169 140.2C472.577 141.36 472.281 142.62 472.281 143.982V147.089C472.281 148.912 472.601 150.462 473.24 151.741C473.891 153.019 474.797 153.996 475.957 154.67C477.117 155.333 478.472 155.665 480.023 155.665C481.029 155.665 481.946 155.523 482.775 155.239C483.604 154.943 484.32 154.505 484.923 153.925C485.527 153.345 485.989 152.629 486.308 151.776L491.333 152.682C490.931 154.161 490.209 155.458 489.167 156.57C488.137 157.671 486.841 158.529 485.279 159.145C483.728 159.749 481.958 160.05 479.97 160.05ZM515.998 138.886L511.186 139.738C510.985 139.122 510.665 138.536 510.227 137.98C509.801 137.424 509.221 136.968 508.487 136.613C507.753 136.258 506.836 136.08 505.735 136.08C504.232 136.08 502.977 136.418 501.971 137.092C500.965 137.755 500.462 138.613 500.462 139.667C500.462 140.578 500.799 141.312 501.474 141.869C502.148 142.425 503.237 142.881 504.741 143.236L509.073 144.23C511.583 144.81 513.453 145.704 514.684 146.911C515.915 148.119 516.531 149.687 516.531 151.616C516.531 153.25 516.057 154.706 515.11 155.984C514.175 157.251 512.867 158.245 511.186 158.967C509.517 159.689 507.582 160.05 505.38 160.05C502.326 160.05 499.834 159.399 497.905 158.097C495.975 156.783 494.792 154.919 494.354 152.504L499.485 151.723C499.805 153.061 500.462 154.073 501.456 154.759C502.45 155.434 503.746 155.771 505.344 155.771C507.085 155.771 508.475 155.41 509.517 154.688C510.559 153.954 511.08 153.061 511.08 152.007C511.08 151.155 510.76 150.439 510.121 149.859C509.493 149.279 508.529 148.841 507.227 148.545L502.61 147.533C500.065 146.953 498.183 146.029 496.964 144.763C495.756 143.496 495.153 141.892 495.153 139.951C495.153 138.341 495.603 136.933 496.502 135.725C497.402 134.518 498.645 133.577 500.231 132.902C501.817 132.215 503.634 131.872 505.682 131.872C508.629 131.872 510.949 132.511 512.642 133.79C514.335 135.056 515.453 136.755 515.998 138.886Z" fill="url(#paint1_linear_28_5272)"/>
<g opacity="0.8" clip-path="url(#clip0_28_5272)">
<path d="M880.125 82L641.375 82L584.875 25.5L518.875 25.5" stroke="url(#paint2_linear_28_5272)" stroke-opacity="0.05"/>
<path d="M880.125 82L641.375 82L584.875 25.5L518.875 25.5" stroke="url(#paint3_linear_28_5272)"/>
<path d="M-61.125 82.5L177.625 82.5L234.125 26L300.125 26" stroke="url(#paint4_linear_28_5272)" stroke-opacity="0.05"/>
<path d="M-61.125 82.5L177.625 82.5L234.125 26L300.125 26" stroke="url(#paint5_linear_28_5272)"/>
</g>
<defs>
<linearGradient id="paint0_linear_28_5272" x1="348.75" y1="10.5" x2="397.706" y2="101.39" gradientUnits="userSpaceOnUse">
<stop stop-color="white"/>
<stop offset="1" stop-color="white" stop-opacity="0"/>
</linearGradient>
<linearGradient id="paint1_linear_28_5272" x1="22.1387" y1="49.4999" x2="838.632" y2="74.3594" gradientUnits="userSpaceOnUse">
<stop stop-color="white"/>
<stop offset="1" stop-color="white" stop-opacity="0"/>
</linearGradient>
<linearGradient id="paint2_linear_28_5272" x1="519.125" y1="25.2498" x2="885.125" y2="99.2498" gradientUnits="userSpaceOnUse">
<stop stop-color="white"/>
<stop offset="1" stop-color="white" stop-opacity="0"/>
</linearGradient>
<linearGradient id="paint3_linear_28_5272" x1="518.875" y1="53.75" x2="614.875" y2="53.75" gradientUnits="userSpaceOnUse">
<stop stop-color="#C9DDFA" stop-opacity="0.38"/>
<stop offset="1" stop-color="white" stop-opacity="0"/>
</linearGradient>
<linearGradient id="paint4_linear_28_5272" x1="299.875" y1="25.7498" x2="-66.125" y2="99.7498" gradientUnits="userSpaceOnUse">
<stop stop-color="white"/>
<stop offset="1" stop-color="white" stop-opacity="0"/>
</linearGradient>
<linearGradient id="paint5_linear_28_5272" x1="300.125" y1="54.25" x2="204.125" y2="54.25" gradientUnits="userSpaceOnUse">
<stop stop-color="#C9DDFA" stop-opacity="0.38"/>
<stop offset="1" stop-color="white" stop-opacity="0"/>
</linearGradient>
<clipPath id="clip0_28_5272">
<rect width="819" height="138" fill="white" transform="translate(0 0.5)"/>
</clipPath>
</defs>
</svg>
