<svg width="819" height="172" viewBox="0 0 819 172" fill="none" xmlns="http://www.w3.org/2000/svg">
<path d="M354.363 24.7727C354.363 26.6136 354.03 28.2045 353.365 29.5455C352.701 30.8864 351.789 31.9205 350.63 32.6477C349.471 33.375 348.147 33.7386 346.658 33.7386C345.169 33.7386 343.846 33.375 342.687 32.6477C341.527 31.9205 340.615 30.8864 339.951 29.5455C339.286 28.2045 338.954 26.6136 338.954 24.7727C338.954 22.9318 339.286 21.3409 339.951 20C340.615 18.6591 341.527 17.625 342.687 16.8977C343.846 16.1705 345.169 15.8068 346.658 15.8068C348.147 15.8068 349.471 16.1705 350.63 16.8977C351.789 17.625 352.701 18.6591 353.365 20C354.03 21.3409 354.363 22.9318 354.363 24.7727ZM352.317 24.7727C352.317 23.2614 352.064 21.9858 351.559 20.946C351.059 19.9062 350.38 19.1193 349.522 18.5852C348.669 18.0511 347.715 17.7841 346.658 17.7841C345.601 17.7841 344.644 18.0511 343.786 18.5852C342.934 19.1193 342.255 19.9062 341.749 20.946C341.249 21.9858 340.999 23.2614 340.999 24.7727C340.999 26.2841 341.249 27.5597 341.749 28.5994C342.255 29.6392 342.934 30.4261 343.786 30.9602C344.644 31.4943 345.601 31.7614 346.658 31.7614C347.715 31.7614 348.669 31.4943 349.522 30.9602C350.38 30.4261 351.059 29.6392 351.559 28.5994C352.064 27.5597 352.317 26.2841 352.317 24.7727ZM364.934 28.1477V20.4091H366.945V33.5H364.934V31.2841H364.798C364.491 31.9489 364.013 32.5142 363.366 32.9801C362.718 33.4403 361.9 33.6705 360.911 33.6705C360.093 33.6705 359.366 33.4915 358.729 33.1335C358.093 32.7699 357.593 32.2244 357.229 31.4972C356.866 30.7642 356.684 29.8409 356.684 28.7273V20.4091H358.695V28.5909C358.695 29.5455 358.962 30.3068 359.496 30.875C360.036 31.4432 360.724 31.7273 361.559 31.7273C362.059 31.7273 362.567 31.5994 363.084 31.3438C363.607 31.0881 364.045 30.696 364.397 30.1676C364.755 29.6392 364.934 28.9659 364.934 28.1477ZM369.669 33.5V20.4091H371.612V22.3864H371.749C371.987 21.7386 372.419 21.2131 373.044 20.8097C373.669 20.4062 374.374 20.2045 375.158 20.2045C375.306 20.2045 375.49 20.2074 375.712 20.2131C375.933 20.2187 376.101 20.2273 376.215 20.2386V22.2841C376.146 22.267 375.99 22.2415 375.746 22.2074C375.507 22.1676 375.254 22.1477 374.987 22.1477C374.351 22.1477 373.783 22.2812 373.283 22.5483C372.789 22.8097 372.396 23.1733 372.107 23.6392C371.823 24.0994 371.681 24.625 371.681 25.2159V33.5H369.669ZM383.702 33.5V16.0455H394.236V17.9205H385.815V23.8182H393.69V25.6932H385.815V31.625H394.372V33.5H383.702ZM398.313 20.4091L401.449 25.7614L404.585 20.4091H406.904L402.676 26.9545L406.904 33.5H404.585L401.449 28.4205L398.313 33.5H395.994L400.154 26.9545L395.994 20.4091H398.313ZM408.814 38.4091V20.4091H410.757V22.4886H410.995C411.143 22.2614 411.348 21.9716 411.609 21.6193C411.876 21.2614 412.257 20.9432 412.751 20.6648C413.251 20.3807 413.927 20.2386 414.779 20.2386C415.882 20.2386 416.853 20.5142 417.694 21.0653C418.535 21.6165 419.191 22.3977 419.663 23.4091C420.135 24.4205 420.37 25.6136 420.37 26.9886C420.37 28.375 420.135 29.5767 419.663 30.5938C419.191 31.6051 418.538 32.3892 417.703 32.946C416.868 33.4972 415.904 33.7727 414.814 33.7727C413.973 33.7727 413.299 33.6335 412.794 33.3551C412.288 33.071 411.899 32.75 411.626 32.392C411.353 32.0284 411.143 31.7273 410.995 31.4886H410.825V38.4091H408.814ZM410.791 26.9545C410.791 27.9432 410.936 28.8153 411.225 29.571C411.515 30.321 411.939 30.9091 412.495 31.3352C413.052 31.7557 413.734 31.9659 414.541 31.9659C415.382 31.9659 416.083 31.7443 416.646 31.3011C417.214 30.8523 417.64 30.25 417.924 29.4943C418.214 28.733 418.359 27.8864 418.359 26.9545C418.359 26.0341 418.217 25.2045 417.933 24.4659C417.654 23.7216 417.231 23.1335 416.663 22.7017C416.1 22.2642 415.393 22.0455 414.541 22.0455C413.723 22.0455 413.035 22.2528 412.478 22.6676C411.922 23.0767 411.501 23.6506 411.217 24.3892C410.933 25.1222 410.791 25.9773 410.791 26.9545ZM427.967 33.7727C426.706 33.7727 425.618 33.4943 424.703 32.9375C423.794 32.375 423.092 31.5909 422.598 30.5852C422.109 29.5739 421.865 28.3977 421.865 27.0568C421.865 25.7159 422.109 24.5341 422.598 23.5114C423.092 22.483 423.78 21.6818 424.66 21.108C425.547 20.5284 426.581 20.2386 427.763 20.2386C428.444 20.2386 429.118 20.3523 429.783 20.5795C430.447 20.8068 431.052 21.1761 431.598 21.6875C432.143 22.1932 432.578 22.8636 432.902 23.6989C433.226 24.5341 433.388 25.5625 433.388 26.7841V27.6364H423.297V25.8977H431.342C431.342 25.1591 431.194 24.5 430.899 23.9205C430.609 23.3409 430.194 22.8835 429.655 22.5483C429.121 22.2131 428.49 22.0455 427.763 22.0455C426.962 22.0455 426.268 22.2443 425.683 22.642C425.104 23.0341 424.658 23.5455 424.345 24.1761C424.033 24.8068 423.876 25.483 423.876 26.2045V27.3636C423.876 28.3523 424.047 29.1903 424.388 29.8778C424.734 30.5597 425.214 31.0795 425.828 31.4375C426.442 31.7898 427.155 31.9659 427.967 31.9659C428.496 31.9659 428.973 31.892 429.399 31.7443C429.831 31.5909 430.203 31.3636 430.516 31.0625C430.828 30.7557 431.069 30.375 431.24 29.9205L433.183 30.4659C432.979 31.125 432.635 31.7045 432.152 32.2045C431.669 32.6989 431.072 33.0852 430.362 33.3636C429.652 33.6364 428.854 33.7727 427.967 33.7727ZM435.487 33.5V20.4091H437.431V22.3864H437.567C437.806 21.7386 438.237 21.2131 438.862 20.8097C439.487 20.4062 440.192 20.2045 440.976 20.2045C441.124 20.2045 441.308 20.2074 441.53 20.2131C441.752 20.2187 441.919 20.2273 442.033 20.2386V22.2841C441.965 22.267 441.808 22.2415 441.564 22.2074C441.325 22.1676 441.073 22.1477 440.806 22.1477C440.169 22.1477 439.601 22.2812 439.101 22.5483C438.607 22.8097 438.215 23.1733 437.925 23.6392C437.641 24.0994 437.499 24.625 437.499 25.2159V33.5H435.487ZM449.97 20.4091V22.1136H443.186V20.4091H449.97ZM445.164 17.2727H447.175V29.75C447.175 30.3182 447.257 30.7443 447.422 31.0284C447.593 31.3068 447.809 31.4943 448.07 31.5909C448.337 31.6818 448.618 31.7273 448.914 31.7273C449.135 31.7273 449.317 31.7159 449.459 31.6932C449.601 31.6648 449.715 31.642 449.8 31.625L450.209 33.4318C450.073 33.483 449.882 33.5341 449.638 33.5852C449.394 33.642 449.084 33.6705 448.709 33.6705C448.141 33.6705 447.584 33.5483 447.039 33.304C446.499 33.0597 446.05 32.6875 445.692 32.1875C445.34 31.6875 445.164 31.0568 445.164 30.2955V17.2727ZM452.036 33.5V20.4091H454.047V33.5H452.036ZM453.059 18.2273C452.667 18.2273 452.329 18.0938 452.045 17.8267C451.766 17.5597 451.627 17.2386 451.627 16.8636C451.627 16.4886 451.766 16.1676 452.045 15.9006C452.329 15.6335 452.667 15.5 453.059 15.5C453.451 15.5 453.786 15.6335 454.064 15.9006C454.349 16.1676 454.491 16.4886 454.491 16.8636C454.491 17.2386 454.349 17.5597 454.064 17.8267C453.786 18.0938 453.451 18.2273 453.059 18.2273ZM466.044 23.3409L464.237 23.8523C464.124 23.5511 463.956 23.2585 463.734 22.9744C463.519 22.6847 463.223 22.446 462.848 22.2585C462.473 22.071 461.993 21.9773 461.408 21.9773C460.607 21.9773 459.939 22.1619 459.405 22.5312C458.877 22.8949 458.612 23.358 458.612 23.9205C458.612 24.4205 458.794 24.8153 459.158 25.1051C459.521 25.3949 460.09 25.6364 460.862 25.8295L462.805 26.3068C463.976 26.5909 464.848 27.0256 465.422 27.6108C465.996 28.1903 466.283 28.9375 466.283 29.8523C466.283 30.6023 466.067 31.2727 465.635 31.8636C465.209 32.4545 464.612 32.9205 463.845 33.2614C463.078 33.6023 462.186 33.7727 461.169 33.7727C459.834 33.7727 458.729 33.483 457.854 32.9034C456.979 32.3239 456.425 31.4773 456.192 30.3636L458.101 29.8864C458.283 30.5909 458.627 31.1193 459.132 31.4716C459.644 31.8239 460.311 32 461.135 32C462.073 32 462.817 31.8011 463.368 31.4034C463.925 31 464.203 30.517 464.203 29.9545C464.203 29.5 464.044 29.1193 463.726 28.8125C463.408 28.5 462.919 28.267 462.26 28.1136L460.078 27.6023C458.879 27.3182 457.999 26.8778 457.436 26.2812C456.879 25.679 456.601 24.9261 456.601 24.0227C456.601 23.2841 456.808 22.6307 457.223 22.0625C457.644 21.4943 458.215 21.0483 458.936 20.7244C459.663 20.4006 460.487 20.2386 461.408 20.2386C462.703 20.2386 463.72 20.5227 464.459 21.0909C465.203 21.6591 465.732 22.4091 466.044 23.3409ZM473.839 33.7727C472.578 33.7727 471.49 33.4943 470.575 32.9375C469.666 32.375 468.964 31.5909 468.47 30.5852C467.981 29.5739 467.737 28.3977 467.737 27.0568C467.737 25.7159 467.981 24.5341 468.47 23.5114C468.964 22.483 469.652 21.6818 470.532 21.108C471.419 20.5284 472.453 20.2386 473.635 20.2386C474.316 20.2386 474.99 20.3523 475.654 20.5795C476.319 20.8068 476.924 21.1761 477.47 21.6875C478.015 22.1932 478.45 22.8636 478.774 23.6989C479.098 24.5341 479.26 25.5625 479.26 26.7841V27.6364H469.169V25.8977H477.214C477.214 25.1591 477.066 24.5 476.771 23.9205C476.481 23.3409 476.066 22.8835 475.527 22.5483C474.992 22.2131 474.362 22.0455 473.635 22.0455C472.833 22.0455 472.14 22.2443 471.555 22.642C470.975 23.0341 470.529 23.5455 470.217 24.1761C469.904 24.8068 469.748 25.483 469.748 26.2045V27.3636C469.748 28.3523 469.919 29.1903 470.26 29.8778C470.606 30.5597 471.086 31.0795 471.7 31.4375C472.313 31.7898 473.027 31.9659 473.839 31.9659C474.367 31.9659 474.845 31.892 475.271 31.7443C475.703 31.5909 476.075 31.3636 476.387 31.0625C476.7 30.7557 476.941 30.375 477.112 29.9205L479.055 30.4659C478.85 31.125 478.507 31.7045 478.024 32.2045C477.541 32.6989 476.944 33.0852 476.234 33.3636C475.524 33.6364 474.725 33.7727 473.839 33.7727Z" fill="url(#paint0_linear_28_1712)"/>
<path d="M185.048 98.5V62.1364H198.009C200.827 62.1364 203.164 62.6217 205.023 63.5923C206.893 64.563 208.29 65.9065 209.213 67.6229C210.137 69.3274 210.598 71.2983 210.598 73.5355C210.598 75.7609 210.131 77.7199 209.195 79.4126C208.272 81.0935 206.875 82.4015 205.005 83.3366C203.147 84.2718 200.809 84.7393 197.992 84.7393H188.173V80.0163H197.494C199.27 80.0163 200.714 79.7618 201.827 79.2528C202.951 78.7438 203.774 78.004 204.295 77.0334C204.816 76.0627 205.076 74.8968 205.076 73.5355C205.076 72.1624 204.81 70.9728 204.277 69.9666C203.756 68.9605 202.934 68.1911 201.809 67.6584C200.696 67.1139 199.235 66.8416 197.423 66.8416H190.534V98.5H185.048ZM202.999 82.0938L211.983 98.5H205.733L196.926 82.0938H202.999ZM226.261 99.0504C223.574 99.0504 221.259 98.4763 219.318 97.3281C217.389 96.1681 215.897 94.5405 214.844 92.4453C213.802 90.3383 213.281 87.8703 213.281 85.0412C213.281 82.2476 213.802 79.7855 214.844 77.6548C215.897 75.5241 217.365 73.861 219.247 72.6655C221.141 71.4699 223.355 70.8722 225.888 70.8722C227.427 70.8722 228.918 71.1267 230.362 71.6357C231.806 72.1446 233.103 72.9437 234.251 74.0327C235.399 75.1217 236.304 76.5362 236.967 78.2763C237.63 80.0045 237.962 82.1056 237.962 84.5795V86.4616H216.282V82.4844H232.759C232.759 81.0876 232.475 79.8506 231.907 78.7734C231.339 77.6844 230.54 76.8262 229.51 76.1989C228.492 75.5715 227.296 75.2578 225.923 75.2578C224.432 75.2578 223.13 75.6248 222.017 76.3587C220.916 77.0807 220.064 78.0277 219.46 79.1996C218.868 80.3596 218.572 81.6203 218.572 82.9815V86.0888C218.572 87.9117 218.892 89.4624 219.531 90.7408C220.182 92.0192 221.088 92.9957 222.248 93.6705C223.408 94.3333 224.763 94.6648 226.314 94.6648C227.32 94.6648 228.237 94.5227 229.066 94.2386C229.895 93.9427 230.611 93.5047 231.214 92.9247C231.818 92.3447 232.28 91.6286 232.599 90.7763L237.624 91.6818C237.222 93.1615 236.5 94.4576 235.458 95.5703C234.428 96.6712 233.132 97.5294 231.57 98.1449C230.019 98.7486 228.249 99.0504 226.261 99.0504ZM252.062 99.0327C249.86 99.0327 247.895 98.4704 246.167 97.3459C244.45 96.2095 243.101 94.5937 242.118 92.4986C241.148 90.3916 240.662 87.8643 240.662 84.9169C240.662 81.9695 241.154 79.4482 242.136 77.353C243.131 75.2578 244.492 73.6539 246.22 72.5412C247.948 71.4285 249.907 70.8722 252.097 70.8722C253.79 70.8722 255.151 71.1562 256.181 71.7244C257.223 72.2808 258.028 72.9318 258.596 73.6776C259.176 74.4233 259.626 75.0803 259.945 75.6484H260.265V62.1364H265.574V98.5H260.389V94.2564H259.945C259.626 94.8364 259.164 95.4993 258.56 96.245C257.968 96.9908 257.152 97.6418 256.11 98.1982C255.068 98.7545 253.719 99.0327 252.062 99.0327ZM253.233 94.505C254.76 94.505 256.051 94.1025 257.104 93.2976C258.17 92.4808 258.974 91.3504 259.519 89.9062C260.075 88.4621 260.354 86.7812 260.354 84.8636C260.354 82.9697 260.081 81.3125 259.537 79.892C258.992 78.4716 258.193 77.3648 257.14 76.5717C256.086 75.7786 254.784 75.3821 253.233 75.3821C251.635 75.3821 250.304 75.7964 249.238 76.625C248.173 77.4536 247.368 78.584 246.824 80.0163C246.291 81.4486 246.025 83.0644 246.025 84.8636C246.025 86.6866 246.297 88.326 246.841 89.782C247.386 91.2379 248.191 92.392 249.256 93.2443C250.333 94.0848 251.659 94.505 253.233 94.505ZM282.905 99.0504C280.218 99.0504 277.904 98.4763 275.963 97.3281C274.033 96.1681 272.542 94.5405 271.488 92.4453C270.447 90.3383 269.926 87.8703 269.926 85.0412C269.926 82.2476 270.447 79.7855 271.488 77.6548C272.542 75.5241 274.01 73.861 275.892 72.6655C277.786 71.4699 279.999 70.8722 282.532 70.8722C284.071 70.8722 285.563 71.1267 287.007 71.6357C288.451 72.1446 289.747 72.9437 290.895 74.0327C292.043 75.1217 292.949 76.5362 293.612 78.2763C294.275 80.0045 294.606 82.1056 294.606 84.5795V86.4616H272.926V82.4844H289.404C289.404 81.0876 289.12 79.8506 288.551 78.7734C287.983 77.6844 287.184 76.8262 286.154 76.1989C285.136 75.5715 283.941 75.2578 282.568 75.2578C281.076 75.2578 279.774 75.6248 278.662 76.3587C277.561 77.0807 276.708 78.0277 276.105 79.1996C275.513 80.3596 275.217 81.6203 275.217 82.9815V86.0888C275.217 87.9117 275.537 89.4624 276.176 90.7408C276.827 92.0192 277.732 92.9957 278.892 93.6705C280.052 94.3333 281.408 94.6648 282.958 94.6648C283.965 94.6648 284.882 94.5227 285.711 94.2386C286.539 93.9427 287.255 93.5047 287.859 92.9247C288.463 92.3447 288.924 91.6286 289.244 90.7763L294.269 91.6818C293.866 93.1615 293.144 94.4576 292.103 95.5703C291.073 96.6712 289.777 97.5294 288.214 98.1449C286.663 98.7486 284.894 99.0504 282.905 99.0504ZM311.476 71.2273V75.4886H296.064V71.2273H311.476ZM300.29 98.5V68.0668C300.29 66.3622 300.663 64.9477 301.409 63.8232C302.154 62.6868 303.143 61.8404 304.374 61.2841C305.605 60.7159 306.942 60.4318 308.387 60.4318C309.452 60.4318 310.363 60.5206 311.121 60.6982C311.878 60.8639 312.441 61.0178 312.808 61.1598L311.565 65.4567C311.316 65.3857 310.997 65.3028 310.606 65.2081C310.215 65.1016 309.742 65.0483 309.186 65.0483C307.895 65.0483 306.972 65.3679 306.416 66.0071C305.871 66.6463 305.599 67.5696 305.599 68.777V98.5H300.29ZM314.954 98.5V71.2273H320.263V98.5H314.954ZM317.635 67.0192C316.711 67.0192 315.918 66.7114 315.256 66.0959C314.604 65.4685 314.279 64.7228 314.279 63.8587C314.279 62.9827 314.604 62.237 315.256 61.6214C315.918 60.9941 316.711 60.6804 317.635 60.6804C318.558 60.6804 319.345 60.9941 319.996 61.6214C320.659 62.237 320.991 62.9827 320.991 63.8587C320.991 64.7228 320.659 65.4685 319.996 66.0959C319.345 66.7114 318.558 67.0192 317.635 67.0192ZM330.714 82.3068V98.5H325.405V71.2273H330.501V75.6662H330.838C331.465 74.2221 332.448 73.062 333.786 72.1861C335.135 71.3101 336.834 70.8722 338.881 70.8722C340.74 70.8722 342.367 71.2628 343.764 72.044C345.161 72.8134 346.244 73.9616 347.013 75.4886C347.783 77.0156 348.168 78.9036 348.168 81.1527V98.5H342.859V81.7919C342.859 79.8151 342.344 78.2704 341.314 77.1577C340.284 76.0331 338.87 75.4709 337.07 75.4709C335.839 75.4709 334.744 75.7372 333.786 76.2699C332.839 76.8026 332.087 77.5838 331.531 78.6136C330.986 79.6316 330.714 80.8627 330.714 82.3068ZM353.288 98.5V71.2273H358.597V98.5H353.288ZM355.969 67.0192C355.045 67.0192 354.252 66.7114 353.589 66.0959C352.938 65.4685 352.613 64.7228 352.613 63.8587C352.613 62.9827 352.938 62.237 353.589 61.6214C354.252 60.9941 355.045 60.6804 355.969 60.6804C356.892 60.6804 357.679 60.9941 358.33 61.6214C358.993 62.237 359.325 62.9827 359.325 63.8587C359.325 64.7228 358.993 65.4685 358.33 66.0959C357.679 66.7114 356.892 67.0192 355.969 67.0192ZM369.048 82.3068V98.5H363.739V71.2273H368.835V75.6662H369.172C369.799 74.2221 370.782 73.062 372.119 72.1861C373.469 71.3101 375.168 70.8722 377.215 70.8722C379.074 70.8722 380.701 71.2628 382.098 72.044C383.495 72.8134 384.578 73.9616 385.347 75.4886C386.117 77.0156 386.502 78.9036 386.502 81.1527V98.5H381.193V81.7919C381.193 79.8151 380.678 78.2704 379.648 77.1577C378.618 76.0331 377.204 75.4709 375.404 75.4709C374.173 75.4709 373.078 75.7372 372.119 76.2699C371.173 76.8026 370.421 77.5838 369.865 78.6136C369.32 79.6316 369.048 80.8627 369.048 82.3068ZM403.056 109.295C400.89 109.295 399.026 109.011 397.463 108.443C395.913 107.875 394.646 107.123 393.664 106.188C392.681 105.253 391.947 104.229 391.462 103.116L396.025 101.234C396.345 101.755 396.771 102.306 397.303 102.886C397.848 103.478 398.582 103.981 399.505 104.395C400.44 104.809 401.642 105.016 403.11 105.016C405.122 105.016 406.785 104.525 408.099 103.543C409.413 102.572 410.07 101.021 410.07 98.8906V93.5284H409.732C409.413 94.1084 408.951 94.7536 408.347 95.4638C407.756 96.174 406.939 96.7895 405.897 97.3104C404.856 97.8312 403.5 98.0916 401.831 98.0916C399.677 98.0916 397.735 97.5885 396.007 96.5824C394.291 95.5644 392.93 94.067 391.923 92.0902C390.929 90.1016 390.432 87.6572 390.432 84.7571C390.432 81.857 390.923 79.3712 391.906 77.2997C392.9 75.2282 394.261 73.642 395.99 72.5412C397.718 71.4285 399.677 70.8722 401.867 70.8722C403.559 70.8722 404.927 71.1562 405.968 71.7244C407.01 72.2808 407.821 72.9318 408.401 73.6776C408.993 74.4233 409.448 75.0803 409.768 75.6484H410.159V71.2273H415.361V99.1037C415.361 101.447 414.816 103.371 413.727 104.874C412.638 106.378 411.165 107.49 409.306 108.212C407.46 108.934 405.376 109.295 403.056 109.295ZM403.003 93.6882C404.53 93.6882 405.82 93.3331 406.874 92.6229C407.939 91.9008 408.744 90.871 409.289 89.5334C409.845 88.1839 410.123 86.5682 410.123 84.6861C410.123 82.8513 409.851 81.2356 409.306 79.8388C408.762 78.442 407.963 77.353 406.909 76.5717C405.856 75.7786 404.554 75.3821 403.003 75.3821C401.405 75.3821 400.073 75.7964 399.008 76.625C397.943 77.4418 397.138 78.5544 396.593 79.9631C396.061 81.3717 395.794 82.946 395.794 84.6861C395.794 86.4735 396.066 88.0419 396.611 89.3913C397.155 90.7408 397.96 91.7943 399.026 92.5518C400.103 93.3094 401.429 93.6882 403.003 93.6882ZM432.14 98.5V62.1364H445.101C447.93 62.1364 450.274 62.6513 452.132 63.6811C453.991 64.7109 455.382 66.1196 456.305 67.907C457.228 69.6825 457.69 71.683 457.69 73.9084C457.69 76.1456 457.222 78.1579 456.287 79.9453C455.364 81.7209 453.967 83.1295 452.097 84.1712C450.239 85.201 447.901 85.7159 445.083 85.7159H436.17V81.0639H444.586C446.374 81.0639 447.824 80.7562 448.936 80.1406C450.049 79.5133 450.866 78.661 451.387 77.5838C451.908 76.5066 452.168 75.2815 452.168 73.9084C452.168 72.5353 451.908 71.3161 451.387 70.2507C450.866 69.1854 450.043 68.3509 448.919 67.7472C447.806 67.1435 446.338 66.8416 444.515 66.8416H437.626V98.5H432.14ZM469.388 99.1037C467.66 99.1037 466.098 98.7841 464.701 98.1449C463.304 97.4938 462.197 96.5528 461.381 95.3217C460.576 94.0907 460.173 92.5814 460.173 90.794C460.173 89.2552 460.469 87.9886 461.061 86.9943C461.653 86 462.452 85.2128 463.458 84.6328C464.464 84.0528 465.589 83.6148 466.832 83.3189C468.075 83.023 469.341 82.7981 470.631 82.6442C472.265 82.4548 473.591 82.3009 474.609 82.1825C475.627 82.0523 476.366 81.8452 476.828 81.5611C477.29 81.277 477.521 80.8153 477.521 80.1761V80.0518C477.521 78.5012 477.083 77.2997 476.207 76.4474C475.343 75.5952 474.052 75.169 472.336 75.169C470.549 75.169 469.14 75.5656 468.11 76.3587C467.092 77.1399 466.388 78.0099 465.997 78.9688L461.008 77.8324C461.6 76.1752 462.464 74.8376 463.6 73.8196C464.748 72.7898 466.068 72.044 467.56 71.5824C469.051 71.1089 470.62 70.8722 472.265 70.8722C473.354 70.8722 474.508 71.0024 475.727 71.2628C476.958 71.5114 478.107 71.973 479.172 72.6477C480.249 73.3224 481.131 74.2872 481.817 75.5419C482.504 76.7848 482.847 78.4006 482.847 80.3892V98.5H477.663V94.7713H477.45C477.106 95.4579 476.591 96.1326 475.905 96.7955C475.218 97.4583 474.336 98.0088 473.259 98.4467C472.182 98.8847 470.892 99.1037 469.388 99.1037ZM470.543 94.8423C472.01 94.8423 473.265 94.5523 474.307 93.9723C475.36 93.3923 476.159 92.6347 476.704 91.6996C477.26 90.7526 477.538 89.7405 477.538 88.6634V85.1477C477.349 85.3371 476.982 85.5147 476.438 85.6804C475.905 85.8343 475.295 85.9704 474.609 86.0888C473.922 86.1953 473.253 86.2959 472.602 86.3906C471.951 86.4735 471.407 86.5445 470.969 86.6037C469.939 86.7339 468.998 86.9529 468.146 87.2607C467.305 87.5684 466.63 88.0123 466.121 88.5923C465.624 89.1605 465.376 89.9181 465.376 90.8651C465.376 92.179 465.861 93.1733 466.832 93.848C467.802 94.5109 469.039 94.8423 470.543 94.8423ZM490.298 108.727C489.505 108.727 488.783 108.662 488.132 108.532C487.481 108.414 486.995 108.283 486.676 108.141L487.954 103.791C488.925 104.052 489.789 104.164 490.546 104.129C491.304 104.093 491.973 103.809 492.553 103.276C493.145 102.744 493.665 101.874 494.115 100.666L494.772 98.8551L484.794 71.2273H490.475L497.382 92.392H497.666L504.573 71.2273H510.273L499.034 102.14C498.513 103.56 497.85 104.762 497.045 105.744C496.24 106.739 495.281 107.484 494.169 107.982C493.056 108.479 491.766 108.727 490.298 108.727ZM513.262 98.5V71.2273H518.358V75.6662H518.695C519.264 74.1629 520.193 72.991 521.483 72.1506C522.773 71.2983 524.318 70.8722 526.117 70.8722C527.94 70.8722 529.467 71.2983 530.698 72.1506C531.941 73.0028 532.859 74.1747 533.45 75.6662H533.735C534.386 74.2102 535.421 73.0502 536.842 72.1861C538.262 71.3101 539.955 70.8722 541.92 70.8722C544.394 70.8722 546.412 71.6475 547.975 73.1982C549.549 74.7488 550.336 77.0866 550.336 80.2116V98.5H545.027V80.7088C545.027 78.8622 544.524 77.5246 543.518 76.696C542.512 75.8674 541.31 75.4531 539.914 75.4531C538.185 75.4531 536.842 75.9858 535.883 77.0511C534.924 78.1046 534.445 79.46 534.445 81.1172V98.5H529.154V80.3714C529.154 78.8918 528.692 77.7022 527.769 76.8026C526.845 75.9029 525.644 75.4531 524.164 75.4531C523.158 75.4531 522.229 75.7195 521.377 76.2521C520.536 76.773 519.856 77.5009 519.335 78.4361C518.826 79.3712 518.571 80.4543 518.571 81.6854V98.5H513.262ZM567.206 99.0504C564.519 99.0504 562.205 98.4763 560.263 97.3281C558.334 96.1681 556.843 94.5405 555.789 92.4453C554.747 90.3383 554.227 87.8703 554.227 85.0412C554.227 82.2476 554.747 79.7855 555.789 77.6548C556.843 75.5241 558.31 73.861 560.192 72.6655C562.086 71.4699 564.3 70.8722 566.833 70.8722C568.372 70.8722 569.863 71.1267 571.308 71.6357C572.752 72.1446 574.048 72.9437 575.196 74.0327C576.344 75.1217 577.25 76.5362 577.913 78.2763C578.576 80.0045 578.907 82.1056 578.907 84.5795V86.4616H557.227V82.4844H573.705C573.705 81.0876 573.42 79.8506 572.852 78.7734C572.284 77.6844 571.485 76.8262 570.455 76.1989C569.437 75.5715 568.242 75.2578 566.869 75.2578C565.377 75.2578 564.075 75.6248 562.962 76.3587C561.862 77.0807 561.009 78.0277 560.406 79.1996C559.814 80.3596 559.518 81.6203 559.518 82.9815V86.0888C559.518 87.9117 559.837 89.4624 560.477 90.7408C561.128 92.0192 562.033 92.9957 563.193 93.6705C564.353 94.3333 565.709 94.6648 567.259 94.6648C568.265 94.6648 569.183 94.5227 570.011 94.2386C570.84 93.9427 571.556 93.5047 572.16 92.9247C572.763 92.3447 573.225 91.6286 573.545 90.7763L578.57 91.6818C578.167 93.1615 577.445 94.4576 576.403 95.5703C575.374 96.6712 574.077 97.5294 572.515 98.1449C570.964 98.7486 569.195 99.0504 567.206 99.0504ZM588.106 82.3068V98.5H582.797V71.2273H587.893V75.6662H588.231C588.858 74.2221 589.84 73.062 591.178 72.1861C592.528 71.3101 594.226 70.8722 596.274 70.8722C598.132 70.8722 599.76 71.2628 601.157 72.044C602.554 72.8134 603.637 73.9616 604.406 75.4886C605.175 77.0156 605.56 78.9036 605.56 81.1527V98.5H600.251V81.7919C600.251 79.8151 599.736 78.2704 598.706 77.1577C597.677 76.0331 596.262 75.4709 594.463 75.4709C593.232 75.4709 592.137 75.7372 591.178 76.2699C590.231 76.8026 589.479 77.5838 588.923 78.6136C588.379 79.6316 588.106 80.8627 588.106 82.3068ZM623.411 71.2273V75.4886H608.514V71.2273H623.411ZM612.509 64.6932H617.818V90.4922C617.818 91.522 617.972 92.2973 618.28 92.8182C618.587 93.3272 618.984 93.6764 619.469 93.8658C619.966 94.0433 620.505 94.1321 621.085 94.1321C621.511 94.1321 621.884 94.1025 622.204 94.0433C622.523 93.9841 622.772 93.9368 622.949 93.9013L623.908 98.2869C623.6 98.4053 623.162 98.5237 622.594 98.642C622.026 98.7723 621.316 98.8433 620.464 98.8551C619.067 98.8788 617.765 98.6302 616.557 98.1094C615.35 97.5885 614.373 96.7836 613.628 95.6946C612.882 94.6056 612.509 93.2384 612.509 91.593V64.6932ZM206.191 159.5V123.136H219.153C221.982 123.136 224.326 123.651 226.184 124.681C228.043 125.711 229.434 127.12 230.357 128.907C231.28 130.683 231.742 132.683 231.742 134.908C231.742 137.146 231.274 139.158 230.339 140.945C229.416 142.721 228.019 144.129 226.149 145.171C224.29 146.201 221.952 146.716 219.135 146.716H210.222V142.064H218.638C220.425 142.064 221.876 141.756 222.988 141.141C224.101 140.513 224.918 139.661 225.438 138.584C225.959 137.507 226.22 136.281 226.22 134.908C226.22 133.535 225.959 132.316 225.438 131.251C224.918 130.185 224.095 129.351 222.97 128.747C221.858 128.143 220.39 127.842 218.567 127.842H211.678V159.5H206.191ZM235.748 159.5V132.227H240.879V136.56H241.163C241.66 135.092 242.536 133.938 243.791 133.097C245.057 132.245 246.49 131.819 248.088 131.819C248.419 131.819 248.81 131.831 249.26 131.854C249.721 131.878 250.082 131.908 250.343 131.943V137.021C250.13 136.962 249.751 136.897 249.206 136.826C248.662 136.743 248.117 136.702 247.573 136.702C246.318 136.702 245.2 136.968 244.217 137.501C243.246 138.022 242.477 138.75 241.909 139.685C241.341 140.608 241.057 141.661 241.057 142.845V159.5H235.748ZM263.448 160.05C260.892 160.05 258.66 159.464 256.755 158.293C254.849 157.121 253.369 155.481 252.316 153.374C251.262 151.267 250.735 148.805 250.735 145.988C250.735 143.159 251.262 140.685 252.316 138.566C253.369 136.447 254.849 134.802 256.755 133.63C258.66 132.458 260.892 131.872 263.448 131.872C266.005 131.872 268.237 132.458 270.142 133.63C272.048 134.802 273.528 136.447 274.581 138.566C275.635 140.685 276.161 143.159 276.161 145.988C276.161 148.805 275.635 151.267 274.581 153.374C273.528 155.481 272.048 157.121 270.142 158.293C268.237 159.464 266.005 160.05 263.448 160.05ZM263.466 155.594C265.123 155.594 266.496 155.156 267.585 154.28C268.675 153.404 269.479 152.238 270 150.782C270.533 149.326 270.799 147.722 270.799 145.97C270.799 144.23 270.533 142.632 270 141.176C269.479 139.708 268.675 138.531 267.585 137.643C266.496 136.755 265.123 136.311 263.466 136.311C261.797 136.311 260.412 136.755 259.311 137.643C258.222 138.531 257.411 139.708 256.879 141.176C256.358 142.632 256.098 144.23 256.098 145.97C256.098 147.722 256.358 149.326 256.879 150.782C257.411 152.238 258.222 153.404 259.311 154.28C260.412 155.156 261.797 155.594 263.466 155.594ZM291.575 160.05C288.936 160.05 286.663 159.453 284.757 158.257C282.863 157.05 281.407 155.387 280.389 153.268C279.371 151.149 278.862 148.722 278.862 145.988C278.862 143.218 279.383 140.774 280.425 138.655C281.466 136.524 282.934 134.861 284.828 133.665C286.722 132.47 288.953 131.872 291.522 131.872C293.594 131.872 295.44 132.257 297.062 133.026C298.684 133.784 299.992 134.849 300.986 136.222C301.992 137.595 302.59 139.199 302.779 141.034H297.612C297.328 139.756 296.677 138.655 295.659 137.732C294.653 136.808 293.304 136.347 291.611 136.347C290.131 136.347 288.835 136.737 287.722 137.518C286.622 138.288 285.763 139.389 285.148 140.821C284.532 142.241 284.225 143.922 284.225 145.864C284.225 147.852 284.526 149.569 285.13 151.013C285.734 152.457 286.586 153.576 287.687 154.369C288.8 155.162 290.108 155.558 291.611 155.558C292.617 155.558 293.528 155.375 294.345 155.008C295.174 154.629 295.866 154.09 296.423 153.392C296.991 152.694 297.387 151.853 297.612 150.871H302.779C302.59 152.634 302.016 154.209 301.057 155.594C300.098 156.979 298.814 158.068 297.204 158.861C295.606 159.654 293.73 160.05 291.575 160.05ZM318.211 160.05C315.524 160.05 313.21 159.476 311.268 158.328C309.339 157.168 307.847 155.54 306.794 153.445C305.752 151.338 305.231 148.87 305.231 146.041C305.231 143.248 305.752 140.786 306.794 138.655C307.847 136.524 309.315 134.861 311.197 133.665C313.091 132.47 315.305 131.872 317.838 131.872C319.377 131.872 320.868 132.127 322.312 132.636C323.757 133.145 325.053 133.944 326.201 135.033C327.349 136.122 328.255 137.536 328.918 139.276C329.58 141.004 329.912 143.106 329.912 145.58V147.462H308.232V143.484H324.709C324.709 142.088 324.425 140.851 323.857 139.773C323.289 138.684 322.49 137.826 321.46 137.199C320.442 136.571 319.247 136.258 317.873 136.258C316.382 136.258 315.08 136.625 313.967 137.359C312.866 138.081 312.014 139.028 311.41 140.2C310.819 141.36 310.523 142.62 310.523 143.982V147.089C310.523 148.912 310.842 150.462 311.481 151.741C312.132 153.019 313.038 153.996 314.198 154.67C315.358 155.333 316.713 155.665 318.264 155.665C319.27 155.665 320.188 155.523 321.016 155.239C321.845 154.943 322.561 154.505 323.165 153.925C323.768 153.345 324.23 152.629 324.55 151.776L329.574 152.682C329.172 154.161 328.45 155.458 327.408 156.57C326.378 157.671 325.082 158.529 323.52 159.145C321.969 159.749 320.199 160.05 318.211 160.05ZM354.239 138.886L349.427 139.738C349.226 139.122 348.906 138.536 348.468 137.98C348.042 137.424 347.462 136.968 346.728 136.613C345.995 136.258 345.077 136.08 343.976 136.08C342.473 136.08 341.218 136.418 340.212 137.092C339.206 137.755 338.703 138.613 338.703 139.667C338.703 140.578 339.04 141.312 339.715 141.869C340.39 142.425 341.479 142.881 342.982 143.236L347.314 144.23C349.824 144.81 351.694 145.704 352.925 146.911C354.156 148.119 354.772 149.687 354.772 151.616C354.772 153.25 354.298 154.706 353.351 155.984C352.416 157.251 351.108 158.245 349.427 158.967C347.758 159.689 345.823 160.05 343.621 160.05C340.567 160.05 338.075 159.399 336.146 158.097C334.217 156.783 333.033 154.919 332.595 152.504L337.726 151.723C338.046 153.061 338.703 154.073 339.697 154.759C340.691 155.434 341.988 155.771 343.586 155.771C345.326 155.771 346.717 155.41 347.758 154.688C348.8 153.954 349.321 153.061 349.321 152.007C349.321 151.155 349.001 150.439 348.362 149.859C347.735 149.279 346.77 148.841 345.468 148.545L340.851 147.533C338.306 146.953 336.424 146.029 335.205 144.763C333.998 143.496 333.394 141.892 333.394 139.951C333.394 138.341 333.844 136.933 334.743 135.725C335.643 134.518 336.886 133.577 338.472 132.902C340.058 132.215 341.875 131.872 343.923 131.872C346.87 131.872 349.191 132.511 350.883 133.79C352.576 135.056 353.695 136.755 354.239 138.886ZM379.046 138.886L374.234 139.738C374.033 139.122 373.713 138.536 373.275 137.98C372.849 137.424 372.269 136.968 371.535 136.613C370.801 136.258 369.884 136.08 368.783 136.08C367.28 136.08 366.025 136.418 365.019 137.092C364.013 137.755 363.509 138.613 363.509 139.667C363.509 140.578 363.847 141.312 364.522 141.869C365.196 142.425 366.285 142.881 367.789 143.236L372.121 144.23C374.63 144.81 376.501 145.704 377.732 146.911C378.963 148.119 379.578 149.687 379.578 151.616C379.578 153.25 379.105 154.706 378.158 155.984C377.223 157.251 375.915 158.245 374.234 158.967C372.565 159.689 370.63 160.05 368.428 160.05C365.374 160.05 362.882 159.399 360.953 158.097C359.023 156.783 357.84 154.919 357.402 152.504L362.533 151.723C362.853 153.061 363.509 154.073 364.504 154.759C365.498 155.434 366.794 155.771 368.392 155.771C370.132 155.771 371.523 155.41 372.565 154.688C373.607 153.954 374.127 153.061 374.127 152.007C374.127 151.155 373.808 150.439 373.169 149.859C372.541 149.279 371.576 148.841 370.274 148.545L365.658 147.533C363.113 146.953 361.231 146.029 360.012 144.763C358.804 143.496 358.201 141.892 358.201 139.951C358.201 138.341 358.65 136.933 359.55 135.725C360.45 134.518 361.693 133.577 363.279 132.902C364.865 132.215 366.682 131.872 368.73 131.872C371.677 131.872 373.997 132.511 375.69 133.79C377.383 135.056 378.501 136.755 379.046 138.886ZM383.416 159.5V132.227H388.725V159.5H383.416ZM386.097 128.019C385.173 128.019 384.38 127.711 383.717 127.096C383.066 126.469 382.741 125.723 382.741 124.859C382.741 123.983 383.066 123.237 383.717 122.621C384.38 121.994 385.173 121.68 386.097 121.68C387.02 121.68 387.807 121.994 388.458 122.621C389.121 123.237 389.453 123.983 389.453 124.859C389.453 125.723 389.121 126.469 388.458 127.096C387.807 127.711 387.02 128.019 386.097 128.019ZM399.176 143.307V159.5H393.867V132.227H398.963V136.666H399.3C399.927 135.222 400.91 134.062 402.247 133.186C403.597 132.31 405.295 131.872 407.343 131.872C409.202 131.872 410.829 132.263 412.226 133.044C413.623 133.813 414.706 134.962 415.475 136.489C416.245 138.016 416.63 139.904 416.63 142.153V159.5H411.321V142.792C411.321 140.815 410.806 139.27 409.776 138.158C408.746 137.033 407.331 136.471 405.532 136.471C404.301 136.471 403.206 136.737 402.247 137.27C401.3 137.803 400.549 138.584 399.992 139.614C399.448 140.632 399.176 141.863 399.176 143.307ZM433.184 170.295C431.018 170.295 429.154 170.011 427.591 169.443C426.041 168.875 424.774 168.123 423.791 167.188C422.809 166.253 422.075 165.229 421.59 164.116L426.153 162.234C426.473 162.755 426.899 163.306 427.431 163.886C427.976 164.478 428.71 164.981 429.633 165.395C430.568 165.809 431.77 166.016 433.237 166.016C435.25 166.016 436.913 165.525 438.227 164.543C439.541 163.572 440.198 162.021 440.198 159.891V154.528H439.86C439.541 155.108 439.079 155.754 438.475 156.464C437.884 157.174 437.067 157.79 436.025 158.31C434.983 158.831 433.628 159.092 431.959 159.092C429.805 159.092 427.863 158.589 426.135 157.582C424.419 156.564 423.058 155.067 422.051 153.09C421.057 151.102 420.56 148.657 420.56 145.757C420.56 142.857 421.051 140.371 422.034 138.3C423.028 136.228 424.389 134.642 426.117 133.541C427.846 132.429 429.805 131.872 431.995 131.872C433.687 131.872 435.054 132.156 436.096 132.724C437.138 133.281 437.949 133.932 438.529 134.678C439.121 135.423 439.576 136.08 439.896 136.648H440.286V132.227H445.489V160.104C445.489 162.447 444.944 164.371 443.855 165.874C442.766 167.378 441.293 168.49 439.434 169.212C437.588 169.934 435.504 170.295 433.184 170.295ZM433.131 154.688C434.658 154.688 435.948 154.333 437.002 153.623C438.067 152.901 438.872 151.871 439.416 150.533C439.973 149.184 440.251 147.568 440.251 145.686C440.251 143.851 439.979 142.236 439.434 140.839C438.89 139.442 438.091 138.353 437.037 137.572C435.984 136.779 434.682 136.382 433.131 136.382C431.533 136.382 430.201 136.796 429.136 137.625C428.071 138.442 427.266 139.554 426.721 140.963C426.188 142.372 425.922 143.946 425.922 145.686C425.922 147.473 426.194 149.042 426.739 150.391C427.283 151.741 428.088 152.794 429.154 153.552C430.231 154.309 431.557 154.688 433.131 154.688ZM474.821 132.227V136.489H459.409V132.227H474.821ZM463.635 159.5V129.067C463.635 127.362 464.008 125.948 464.753 124.823C465.499 123.687 466.487 122.84 467.718 122.284C468.95 121.716 470.287 121.432 471.731 121.432C472.797 121.432 473.708 121.521 474.466 121.698C475.223 121.864 475.785 122.018 476.152 122.16L474.91 126.457C474.661 126.386 474.341 126.303 473.951 126.208C473.56 126.102 473.087 126.048 472.53 126.048C471.24 126.048 470.317 126.368 469.76 127.007C469.216 127.646 468.944 128.57 468.944 129.777V159.5H463.635ZM488.712 160.05C486.155 160.05 483.924 159.464 482.018 158.293C480.112 157.121 478.633 155.481 477.579 153.374C476.526 151.267 475.999 148.805 475.999 145.988C475.999 143.159 476.526 140.685 477.579 138.566C478.633 136.447 480.112 134.802 482.018 133.63C483.924 132.458 486.155 131.872 488.712 131.872C491.269 131.872 493.5 132.458 495.406 133.63C497.312 134.802 498.791 136.447 499.845 138.566C500.898 140.685 501.425 143.159 501.425 145.988C501.425 148.805 500.898 151.267 499.845 153.374C498.791 155.481 497.312 157.121 495.406 158.293C493.5 159.464 491.269 160.05 488.712 160.05ZM488.73 155.594C490.387 155.594 491.76 155.156 492.849 154.28C493.938 153.404 494.743 152.238 495.264 150.782C495.797 149.326 496.063 147.722 496.063 145.97C496.063 144.23 495.797 142.632 495.264 141.176C494.743 139.708 493.938 138.531 492.849 137.643C491.76 136.755 490.387 136.311 488.73 136.311C487.061 136.311 485.676 136.755 484.575 137.643C483.486 138.531 482.675 139.708 482.142 141.176C481.622 142.632 481.361 144.23 481.361 145.97C481.361 147.722 481.622 149.326 482.142 150.782C482.675 152.238 483.486 153.404 484.575 154.28C485.676 155.156 487.061 155.594 488.73 155.594ZM505.351 159.5V132.227H510.483V136.56H510.767C511.264 135.092 512.14 133.938 513.394 133.097C514.661 132.245 516.093 131.819 517.691 131.819C518.023 131.819 518.413 131.831 518.863 131.854C519.325 131.878 519.686 131.908 519.946 131.943V137.021C519.733 136.962 519.354 136.897 518.81 136.826C518.265 136.743 517.721 136.702 517.176 136.702C515.922 136.702 514.803 136.968 513.821 137.501C512.85 138.022 512.081 138.75 511.512 139.685C510.944 140.608 510.66 141.661 510.66 142.845V159.5H505.351ZM531.394 123.136H537.626L547.125 139.667H547.516L557.015 123.136H563.247L550.055 145.224V159.5H544.586V145.224L531.394 123.136ZM572.997 160.05C570.44 160.05 568.209 159.464 566.303 158.293C564.398 157.121 562.918 155.481 561.864 153.374C560.811 151.267 560.284 148.805 560.284 145.988C560.284 143.159 560.811 140.685 561.864 138.566C562.918 136.447 564.398 134.802 566.303 133.63C568.209 132.458 570.44 131.872 572.997 131.872C575.554 131.872 577.785 132.458 579.691 133.63C581.597 134.802 583.077 136.447 584.13 138.566C585.184 140.685 585.71 143.159 585.71 145.988C585.71 148.805 585.184 151.267 584.13 153.374C583.077 155.481 581.597 157.121 579.691 158.293C577.785 159.464 575.554 160.05 572.997 160.05ZM573.015 155.594C574.672 155.594 576.045 155.156 577.134 154.28C578.223 153.404 579.028 152.238 579.549 150.782C580.082 149.326 580.348 147.722 580.348 145.97C580.348 144.23 580.082 142.632 579.549 141.176C579.028 139.708 578.223 138.531 577.134 137.643C576.045 136.755 574.672 136.311 573.015 136.311C571.346 136.311 569.961 136.755 568.86 137.643C567.771 138.531 566.96 139.708 566.428 141.176C565.907 142.632 565.646 144.23 565.646 145.97C565.646 147.722 565.907 149.326 566.428 150.782C566.96 152.238 567.771 153.404 568.86 154.28C569.961 155.156 571.346 155.594 573.015 155.594ZM606.913 148.19V132.227H612.239V159.5H607.019V154.777H606.735C606.108 156.233 605.101 157.446 603.717 158.417C602.343 159.376 600.633 159.855 598.585 159.855C596.833 159.855 595.283 159.47 593.933 158.701C592.596 157.92 591.542 156.766 590.773 155.239C590.015 153.712 589.636 151.824 589.636 149.575V132.227H594.945V148.935C594.945 150.794 595.46 152.273 596.49 153.374C597.52 154.475 598.857 155.026 600.503 155.026C601.497 155.026 602.485 154.777 603.468 154.28C604.462 153.783 605.285 153.031 605.936 152.025C606.599 151.019 606.924 149.74 606.913 148.19Z" fill="url(#paint1_linear_28_1712)"/>
<g opacity="0.8" clip-path="url(#clip0_28_1712)">
<path d="M880.125 82L641.375 82L584.875 25.5L518.875 25.5" stroke="url(#paint2_linear_28_1712)" stroke-opacity="0.05"/>
<path d="M880.125 82L641.375 82L584.875 25.5L518.875 25.5" stroke="url(#paint3_linear_28_1712)"/>
<path d="M-61.125 82.5L177.625 82.5L234.125 26L300.125 26" stroke="url(#paint4_linear_28_1712)" stroke-opacity="0.05"/>
<path d="M-61.125 82.5L177.625 82.5L234.125 26L300.125 26" stroke="url(#paint5_linear_28_1712)"/>
</g>
<defs>
<linearGradient id="paint0_linear_28_1712" x1="348.75" y1="10.5" x2="397.706" y2="101.39" gradientUnits="userSpaceOnUse">
<stop stop-color="white"/>
<stop offset="1" stop-color="white" stop-opacity="0"/>
</linearGradient>
<linearGradient id="paint1_linear_28_1712" x1="22.1387" y1="49.4999" x2="838.632" y2="74.3594" gradientUnits="userSpaceOnUse">
<stop stop-color="white"/>
<stop offset="1" stop-color="white" stop-opacity="0"/>
</linearGradient>
<linearGradient id="paint2_linear_28_1712" x1="519.125" y1="25.2498" x2="885.125" y2="99.2498" gradientUnits="userSpaceOnUse">
<stop stop-color="white"/>
<stop offset="1" stop-color="white" stop-opacity="0"/>
</linearGradient>
<linearGradient id="paint3_linear_28_1712" x1="518.875" y1="53.75" x2="614.875" y2="53.75" gradientUnits="userSpaceOnUse">
<stop stop-color="#C9DDFA" stop-opacity="0.38"/>
<stop offset="1" stop-color="white" stop-opacity="0"/>
</linearGradient>
<linearGradient id="paint4_linear_28_1712" x1="299.875" y1="25.7498" x2="-66.125" y2="99.7498" gradientUnits="userSpaceOnUse">
<stop stop-color="white"/>
<stop offset="1" stop-color="white" stop-opacity="0"/>
</linearGradient>
<linearGradient id="paint5_linear_28_1712" x1="300.125" y1="54.25" x2="204.125" y2="54.25" gradientUnits="userSpaceOnUse">
<stop stop-color="#C9DDFA" stop-opacity="0.38"/>
<stop offset="1" stop-color="white" stop-opacity="0"/>
</linearGradient>
<clipPath id="clip0_28_1712">
<rect width="819" height="138" fill="white" transform="translate(0 0.5)"/>
</clipPath>
</defs>
</svg>
