<svg width="15" height="15" viewBox="0 0 15 15" fill="none" xmlns="http://www.w3.org/2000/svg">
<path d="M8.84701 1.4401L10.0687 3.90375C10.2353 4.24669 10.6796 4.57564 11.0545 4.63863L13.2688 5.00958C14.6849 5.24755 15.0182 6.2834 13.9977 7.30525L12.2762 9.04099C11.9846 9.33493 11.825 9.90184 11.9152 10.3078L12.4081 12.4565C12.7968 14.1572 11.9013 14.8152 10.4089 13.9263L8.33334 12.6875C7.95853 12.4635 7.34072 12.4635 6.95889 12.6875L4.88337 13.9263C3.39786 14.8152 2.49546 14.1502 2.88419 12.4565L3.37704 10.3078C3.46728 9.90184 3.30763 9.33493 3.01607 9.04099L1.29456 7.30525C0.281081 6.2834 0.607339 5.24755 2.02343 5.00958L4.2378 4.63863C4.60571 4.57564 5.04997 4.24669 5.21657 3.90375L6.43828 1.4401C7.10468 0.103299 8.18755 0.103299 8.84701 1.4401Z" fill="url(#paint0_linear_28_5699)"/>
<defs>
<linearGradient id="paint0_linear_28_5699" x1="7.64765" y1="0.4375" x2="7.64765" y2="14.3223" gradientUnits="userSpaceOnUse">
<stop stop-color="#3D47AD"/>
<stop offset="1" stop-color="#6973DA"/>
</linearGradient>
</defs>
</svg>
