<svg width="564" height="325" viewBox="0 0 564 325" fill="none" xmlns="http://www.w3.org/2000/svg">
<path d="M24 1H539.19C552.169 1.00026 562.69 11.5215 562.69 24.5V300.5C562.69 313.479 552.169 324 539.19 324H24C11.0213 324 0.5 313.479 0.5 300.5V24.5C0.500003 11.5213 11.0213 1 24 1Z" stroke="#222222"/>
<g clip-path="url(#clip0_28_1070)">
<g clip-path="url(#clip1_28_1070)">
<g clip-path="url(#clip2_28_1070)">
<path d="M26.0869 231.821C26.0869 225.398 31.2942 220.191 37.7178 220.191H215.72C222.143 220.191 227.351 225.398 227.351 231.821V276.322C227.351 282.745 222.143 287.953 215.72 287.953H37.7178C31.2942 287.953 26.0869 282.745 26.0869 276.322V231.821Z" stroke="#313138"/>
<path d="M183.356 264.186H43.786C40.4346 264.186 37.7178 266.902 37.7178 270.254C37.7178 273.605 40.4346 276.322 43.786 276.322H183.356C186.708 276.322 189.424 273.605 189.424 270.254C189.424 266.902 186.708 264.186 183.356 264.186Z" fill="white" fill-opacity="0.06"/>
<path d="M51.8771 231.821H43.786C40.4346 231.821 37.7178 234.538 37.7178 237.89V245.981C37.7178 249.332 40.4346 252.049 43.786 252.049H51.8771C55.2285 252.049 57.9453 249.332 57.9453 245.981V237.89C57.9453 234.538 55.2285 231.821 51.8771 231.821Z" fill="#313138"/>
<path d="M140.878 235.867H72.1046C68.7532 235.867 66.0363 238.584 66.0363 241.935C66.0363 245.287 68.7532 248.003 72.1046 248.003H140.878C144.23 248.003 146.947 245.287 146.947 241.935C146.947 238.584 144.23 235.867 140.878 235.867Z" fill="white" fill-opacity="0.06"/>
<path d="M26.0869 37.6365C26.0869 31.213 31.2942 26.0057 37.7178 26.0057H215.72C222.143 26.0057 227.351 31.213 227.351 37.6365V82.1372C227.351 88.5608 222.143 93.7681 215.72 93.7681H37.7178C31.2942 93.7681 26.0869 88.5608 26.0869 82.1372V37.6365Z" stroke="#313138"/>
<path d="M183.356 70.0007H43.786C40.4346 70.0007 37.7178 72.7175 37.7178 76.0689C37.7178 79.4204 40.4346 82.1372 43.786 82.1372H183.356C186.708 82.1372 189.424 79.4204 189.424 76.0689C189.424 72.7175 186.708 70.0007 183.356 70.0007Z" fill="white" fill-opacity="0.06"/>
<path d="M51.8771 37.6365H43.786C40.4346 37.6365 37.7178 40.3534 37.7178 43.7048V51.7958C37.7178 55.1473 40.4346 57.8641 43.786 57.8641H51.8771C55.2285 57.8641 57.9453 55.1473 57.9453 51.7958V43.7048C57.9453 40.3534 55.2285 37.6365 51.8771 37.6365Z" fill="#313138"/>
<path d="M140.878 41.6821H72.1046C68.7532 41.6821 66.0363 44.3989 66.0363 47.7503C66.0363 51.1018 68.7532 53.8186 72.1046 53.8186H140.878C144.23 53.8186 146.947 51.1018 146.947 47.7503C146.947 44.3989 144.23 41.6821 140.878 41.6821Z" fill="white" fill-opacity="0.06"/>
<path d="M26.0869 134.729C26.0869 128.306 31.2942 123.098 37.7178 123.098H215.72C222.143 123.098 227.351 128.306 227.351 134.729V179.23C227.351 185.653 222.143 190.86 215.72 190.86H37.7178C31.2942 190.86 26.0869 185.653 26.0869 179.23V134.729Z" fill="#041E28" stroke="#44C7FC" stroke-opacity="0.46"/>
<path d="M68.874 148.591C68.276 148.591 67.7387 148.487 67.262 148.279C66.794 148.062 66.4257 147.768 66.157 147.395C65.8883 147.014 65.7497 146.576 65.741 146.082H67.002C67.0453 146.507 67.2187 146.866 67.522 147.161C67.834 147.447 68.2847 147.59 68.874 147.59C69.4373 147.59 69.8793 147.451 70.2 147.174C70.5293 146.888 70.694 146.524 70.694 146.082C70.694 145.735 70.5987 145.454 70.408 145.237C70.2173 145.02 69.979 144.856 69.693 144.743C69.407 144.63 69.0213 144.509 68.536 144.379C67.938 144.223 67.457 144.067 67.093 143.911C66.7377 143.755 66.43 143.512 66.17 143.183C65.9187 142.845 65.793 142.394 65.793 141.831C65.793 141.337 65.9187 140.899 66.17 140.518C66.4213 140.137 66.7723 139.842 67.223 139.634C67.6823 139.426 68.2067 139.322 68.796 139.322C69.6453 139.322 70.3387 139.534 70.876 139.959C71.422 140.384 71.7297 140.947 71.799 141.649H70.499C70.4557 141.302 70.2737 140.999 69.953 140.739C69.6323 140.47 69.2077 140.336 68.679 140.336C68.185 140.336 67.782 140.466 67.47 140.726C67.158 140.977 67.002 141.333 67.002 141.792C67.002 142.121 67.093 142.39 67.275 142.598C67.4657 142.806 67.6953 142.966 67.964 143.079C68.2413 143.183 68.627 143.304 69.121 143.443C69.719 143.608 70.2 143.772 70.564 143.937C70.928 144.093 71.24 144.34 71.5 144.678C71.76 145.007 71.89 145.458 71.89 146.03C71.89 146.472 71.773 146.888 71.539 147.278C71.305 147.668 70.9583 147.984 70.499 148.227C70.0397 148.47 69.498 148.591 68.874 148.591ZM73.1889 144.912C73.1889 144.184 73.3362 143.547 73.6309 143.001C73.9255 142.446 74.3285 142.017 74.8399 141.714C75.3599 141.411 75.9362 141.259 76.5689 141.259C77.1929 141.259 77.7345 141.393 78.1939 141.662C78.6532 141.931 78.9955 142.269 79.2209 142.676V141.376H80.4169V148.5H79.2209V147.174C78.9869 147.59 78.6359 147.937 78.1679 148.214C77.7085 148.483 77.1712 148.617 76.5559 148.617C75.9232 148.617 75.3512 148.461 74.8399 148.149C74.3285 147.837 73.9255 147.399 73.6309 146.836C73.3362 146.273 73.1889 145.631 73.1889 144.912ZM79.2209 144.925C79.2209 144.388 79.1125 143.92 78.8959 143.521C78.6792 143.122 78.3845 142.819 78.0119 142.611C77.6479 142.394 77.2449 142.286 76.8029 142.286C76.3609 142.286 75.9579 142.39 75.5939 142.598C75.2299 142.806 74.9395 143.109 74.7229 143.508C74.5062 143.907 74.3979 144.375 74.3979 144.912C74.3979 145.458 74.5062 145.935 74.7229 146.342C74.9395 146.741 75.2299 147.048 75.5939 147.265C75.9579 147.473 76.3609 147.577 76.8029 147.577C77.2449 147.577 77.6479 147.473 78.0119 147.265C78.3845 147.048 78.6792 146.741 78.8959 146.342C79.1125 145.935 79.2209 145.462 79.2209 144.925ZM85.887 141.246C86.7537 141.246 87.4557 141.51 87.993 142.039C88.5304 142.559 88.799 143.313 88.799 144.301V148.5H87.629V144.47C87.629 143.759 87.4514 143.218 87.096 142.845C86.7407 142.464 86.2554 142.273 85.64 142.273C85.016 142.273 84.5177 142.468 84.145 142.858C83.781 143.248 83.599 143.816 83.599 144.561V148.5H82.416V141.376H83.599V142.39C83.833 142.026 84.1494 141.744 84.548 141.545C84.9554 141.346 85.4017 141.246 85.887 141.246ZM90.2895 144.912C90.2895 144.184 90.4368 143.547 90.7315 143.001C91.0261 142.446 91.4291 142.017 91.9405 141.714C92.4605 141.411 93.0411 141.259 93.6825 141.259C94.2371 141.259 94.7528 141.389 95.2295 141.649C95.7061 141.9 96.0701 142.234 96.3215 142.65V138.88H97.5175V148.5H96.3215V147.161C96.0875 147.586 95.7408 147.937 95.2815 148.214C94.8221 148.483 94.2848 148.617 93.6695 148.617C93.0368 148.617 92.4605 148.461 91.9405 148.149C91.4291 147.837 91.0261 147.399 90.7315 146.836C90.4368 146.273 90.2895 145.631 90.2895 144.912ZM96.3215 144.925C96.3215 144.388 96.2131 143.92 95.9965 143.521C95.7798 143.122 95.4851 142.819 95.1125 142.611C94.7485 142.394 94.3455 142.286 93.9035 142.286C93.4615 142.286 93.0585 142.39 92.6945 142.598C92.3305 142.806 92.0401 143.109 91.8235 143.508C91.6068 143.907 91.4985 144.375 91.4985 144.912C91.4985 145.458 91.6068 145.935 91.8235 146.342C92.0401 146.741 92.3305 147.048 92.6945 147.265C93.0585 147.473 93.4615 147.577 93.9035 147.577C94.3455 147.577 94.7485 147.473 95.1125 147.265C95.4851 147.048 95.7798 146.741 95.9965 146.342C96.2131 145.935 96.3215 145.462 96.3215 144.925ZM100.7 142.702C100.942 142.277 101.298 141.931 101.766 141.662C102.234 141.393 102.767 141.259 103.365 141.259C104.006 141.259 104.582 141.411 105.094 141.714C105.605 142.017 106.008 142.446 106.303 143.001C106.597 143.547 106.745 144.184 106.745 144.912C106.745 145.631 106.597 146.273 106.303 146.836C106.008 147.399 105.601 147.837 105.081 148.149C104.569 148.461 103.997 148.617 103.365 148.617C102.749 148.617 102.208 148.483 101.74 148.214C101.28 147.945 100.934 147.603 100.7 147.187V148.5H99.5166V138.88H100.7V142.702ZM105.536 144.912C105.536 144.375 105.427 143.907 105.211 143.508C104.994 143.109 104.699 142.806 104.327 142.598C103.963 142.39 103.56 142.286 103.118 142.286C102.684 142.286 102.281 142.394 101.909 142.611C101.545 142.819 101.25 143.127 101.025 143.534C100.808 143.933 100.7 144.396 100.7 144.925C100.7 145.462 100.808 145.935 101.025 146.342C101.25 146.741 101.545 147.048 101.909 147.265C102.281 147.473 102.684 147.577 103.118 147.577C103.56 147.577 103.963 147.473 104.327 147.265C104.699 147.048 104.994 146.741 105.211 146.342C105.427 145.935 105.536 145.458 105.536 144.912ZM111.409 148.617C110.741 148.617 110.135 148.465 109.589 148.162C109.051 147.859 108.627 147.43 108.315 146.875C108.011 146.312 107.86 145.662 107.86 144.925C107.86 144.197 108.016 143.556 108.328 143.001C108.648 142.438 109.082 142.009 109.628 141.714C110.174 141.411 110.785 141.259 111.461 141.259C112.137 141.259 112.748 141.411 113.294 141.714C113.84 142.009 114.269 142.433 114.581 142.988C114.901 143.543 115.062 144.188 115.062 144.925C115.062 145.662 114.897 146.312 114.568 146.875C114.247 147.43 113.809 147.859 113.255 148.162C112.7 148.465 112.085 148.617 111.409 148.617ZM111.409 147.577C111.833 147.577 112.232 147.477 112.605 147.278C112.977 147.079 113.276 146.78 113.502 146.381C113.736 145.982 113.853 145.497 113.853 144.925C113.853 144.353 113.74 143.868 113.515 143.469C113.289 143.07 112.995 142.776 112.631 142.585C112.267 142.386 111.872 142.286 111.448 142.286C111.014 142.286 110.616 142.386 110.252 142.585C109.896 142.776 109.61 143.07 109.394 143.469C109.177 143.868 109.069 144.353 109.069 144.925C109.069 145.506 109.173 145.995 109.381 146.394C109.597 146.793 109.883 147.092 110.239 147.291C110.594 147.482 110.984 147.577 111.409 147.577ZM120.335 148.5L118.645 145.848L117.02 148.5H115.785L118.086 144.964L115.785 141.376H117.124L118.814 144.015L120.426 141.376H121.661L119.373 144.899L121.674 148.5H120.335ZM127.487 140.401V143.43H130.789V144.405H127.487V147.525H131.179V148.5H126.304V139.426H131.179V140.401H127.487ZM136.44 141.246C137.306 141.246 138.008 141.51 138.546 142.039C139.083 142.559 139.352 143.313 139.352 144.301V148.5H138.182V144.47C138.182 143.759 138.004 143.218 137.649 142.845C137.293 142.464 136.808 142.273 136.193 142.273C135.569 142.273 135.07 142.468 134.698 142.858C134.334 143.248 134.152 143.816 134.152 144.561V148.5H132.969V141.376H134.152V142.39C134.386 142.026 134.702 141.744 135.101 141.545C135.508 141.346 135.954 141.246 136.44 141.246ZM143.936 147.408L146.146 141.376H147.407L144.612 148.5H143.234L140.439 141.376H141.713L143.936 147.408ZM149.182 140.219C148.957 140.219 148.766 140.141 148.61 139.985C148.454 139.829 148.376 139.638 148.376 139.413C148.376 139.188 148.454 138.997 148.61 138.841C148.766 138.685 148.957 138.607 149.182 138.607C149.399 138.607 149.581 138.685 149.728 138.841C149.884 138.997 149.962 139.188 149.962 139.413C149.962 139.638 149.884 139.829 149.728 139.985C149.581 140.141 149.399 140.219 149.182 140.219ZM149.754 141.376V148.5H148.571V141.376H149.754ZM152.954 142.533C153.162 142.126 153.456 141.809 153.838 141.584C154.228 141.359 154.7 141.246 155.255 141.246V142.468H154.943C153.617 142.468 152.954 143.187 152.954 144.626V148.5H151.771V141.376H152.954V142.533ZM159.727 148.617C159.06 148.617 158.453 148.465 157.907 148.162C157.37 147.859 156.945 147.43 156.633 146.875C156.33 146.312 156.178 145.662 156.178 144.925C156.178 144.197 156.334 143.556 156.646 143.001C156.967 142.438 157.4 142.009 157.946 141.714C158.492 141.411 159.103 141.259 159.779 141.259C160.455 141.259 161.066 141.411 161.612 141.714C162.158 142.009 162.587 142.433 162.899 142.988C163.22 143.543 163.38 144.188 163.38 144.925C163.38 145.662 163.215 146.312 162.886 146.875C162.565 147.43 162.128 147.859 161.573 148.162C161.018 148.465 160.403 148.617 159.727 148.617ZM159.727 147.577C160.152 147.577 160.55 147.477 160.923 147.278C161.296 147.079 161.595 146.78 161.82 146.381C162.054 145.982 162.171 145.497 162.171 144.925C162.171 144.353 162.058 143.868 161.833 143.469C161.608 143.07 161.313 142.776 160.949 142.585C160.585 142.386 160.191 142.286 159.766 142.286C159.333 142.286 158.934 142.386 158.57 142.585C158.215 142.776 157.929 143.07 157.712 143.469C157.495 143.868 157.387 144.353 157.387 144.925C157.387 145.506 157.491 145.995 157.699 146.394C157.916 146.793 158.202 147.092 158.557 147.291C158.912 147.482 159.302 147.577 159.727 147.577ZM168.407 141.246C169.273 141.246 169.975 141.51 170.513 142.039C171.05 142.559 171.319 143.313 171.319 144.301V148.5H170.149V144.47C170.149 143.759 169.971 143.218 169.616 142.845C169.26 142.464 168.775 142.273 168.16 142.273C167.536 142.273 167.037 142.468 166.665 142.858C166.301 143.248 166.119 143.816 166.119 144.561V148.5H164.936V141.376H166.119V142.39C166.353 142.026 166.669 141.744 167.068 141.545C167.475 141.346 167.921 141.246 168.407 141.246ZM181.818 141.246C182.373 141.246 182.867 141.363 183.3 141.597C183.733 141.822 184.076 142.165 184.327 142.624C184.578 143.083 184.704 143.642 184.704 144.301V148.5H183.534V144.47C183.534 143.759 183.356 143.218 183.001 142.845C182.654 142.464 182.182 142.273 181.584 142.273C180.969 142.273 180.479 142.472 180.115 142.871C179.751 143.261 179.569 143.829 179.569 144.574V148.5H178.399V144.47C178.399 143.759 178.221 143.218 177.866 142.845C177.519 142.464 177.047 142.273 176.449 142.273C175.834 142.273 175.344 142.472 174.98 142.871C174.616 143.261 174.434 143.829 174.434 144.574V148.5H173.251V141.376H174.434V142.403C174.668 142.03 174.98 141.744 175.37 141.545C175.769 141.346 176.206 141.246 176.683 141.246C177.281 141.246 177.81 141.38 178.269 141.649C178.728 141.918 179.071 142.312 179.296 142.832C179.495 142.329 179.825 141.939 180.284 141.662C180.743 141.385 181.255 141.246 181.818 141.246ZM193.145 144.665C193.145 144.89 193.132 145.129 193.106 145.38H187.412C187.455 146.082 187.693 146.632 188.127 147.031C188.569 147.421 189.102 147.616 189.726 147.616C190.237 147.616 190.662 147.499 191 147.265C191.346 147.022 191.589 146.702 191.728 146.303H193.002C192.811 146.988 192.43 147.547 191.858 147.98C191.286 148.405 190.575 148.617 189.726 148.617C189.05 148.617 188.443 148.465 187.906 148.162C187.377 147.859 186.961 147.43 186.658 146.875C186.354 146.312 186.203 145.662 186.203 144.925C186.203 144.188 186.35 143.543 186.645 142.988C186.939 142.433 187.351 142.009 187.88 141.714C188.417 141.411 189.032 141.259 189.726 141.259C190.402 141.259 191 141.406 191.52 141.701C192.04 141.996 192.438 142.403 192.716 142.923C193.002 143.434 193.145 144.015 193.145 144.665ZM191.923 144.418C191.923 143.967 191.823 143.582 191.624 143.261C191.424 142.932 191.151 142.685 190.805 142.52C190.467 142.347 190.09 142.26 189.674 142.26C189.076 142.26 188.564 142.451 188.14 142.832C187.724 143.213 187.485 143.742 187.425 144.418H191.923ZM198.177 141.246C199.044 141.246 199.746 141.51 200.283 142.039C200.82 142.559 201.089 143.313 201.089 144.301V148.5H199.919V144.47C199.919 143.759 199.741 143.218 199.386 142.845C199.031 142.464 198.545 142.273 197.93 142.273C197.306 142.273 196.808 142.468 196.435 142.858C196.071 143.248 195.889 143.816 195.889 144.561V148.5H194.706V141.376H195.889V142.39C196.123 142.026 196.439 141.744 196.838 141.545C197.245 141.346 197.692 141.246 198.177 141.246ZM204.465 142.351V146.55C204.465 146.897 204.538 147.144 204.686 147.291C204.833 147.43 205.089 147.499 205.453 147.499H206.324V148.5H205.258C204.599 148.5 204.105 148.348 203.776 148.045C203.446 147.742 203.282 147.243 203.282 146.55V142.351H202.359V141.376H203.282V139.582H204.465V141.376H206.324V142.351H204.465Z" fill="white"/>
<path d="M53.8998 133.718H41.7633C39.529 133.718 37.7178 135.529 37.7178 137.763V149.9C37.7178 152.134 39.529 153.945 41.7633 153.945H53.8998C56.1341 153.945 57.9453 152.134 57.9453 149.9V137.763C57.9453 135.529 56.1341 133.718 53.8998 133.718Z" fill="url(#paint0_linear_28_1070)"/>
<path d="M48.9009 139.219C48.8999 138.8 48.3702 138.615 48.1065 138.941L44.1375 143.869C43.9493 144.102 44.0415 144.45 44.3208 144.561L46.1123 145.27L46.083 149.071C46.0797 149.491 46.6074 149.681 46.8744 149.357L50.8906 144.476C51.0811 144.244 50.9927 143.895 50.7149 143.781L48.9099 143.044L48.9009 139.219Z" fill="white"/>
<path d="M43.4419 138.773C43.2358 138.845 43.2358 139.149 43.4419 139.221L43.8083 139.347C44.0782 139.441 44.2901 139.661 44.3801 139.942L44.5022 140.323C44.5708 140.537 44.8623 140.537 44.9311 140.323L45.0532 139.942C45.1432 139.661 45.3551 139.441 45.625 139.347L45.9913 139.221C46.1974 139.149 46.1974 138.845 45.9913 138.773L45.625 138.647C45.3551 138.553 45.1432 138.333 45.0532 138.052L44.9311 137.671C44.8623 137.457 44.5708 137.457 44.5022 137.671L44.3801 138.052C44.2901 138.333 44.0782 138.553 43.8083 138.647L43.4419 138.773Z" fill="white" fill-opacity="0.6"/>
<path d="M41.6342 141.822C41.4692 141.765 41.4692 141.522 41.6342 141.466L41.864 141.386C41.9991 141.338 42.1049 141.229 42.15 141.089L42.2266 140.849C42.2815 140.678 42.5148 140.678 42.5697 140.849L42.6463 141.089C42.6913 141.229 42.7972 141.338 42.9323 141.386L43.1621 141.466C43.327 141.522 43.327 141.765 43.1621 141.822L42.9323 141.902C42.7972 141.949 42.6913 142.059 42.6463 142.199L42.5697 142.439C42.5148 142.61 42.2815 142.61 42.2266 142.439L42.15 142.199C42.1049 142.059 41.9991 141.949 41.864 141.902L41.6342 141.822Z" fill="white" fill-opacity="0.6"/>
<path d="M53.0991 138.353C53.3597 138.353 53.4744 138.62 53.607 138.928C53.7102 139.168 53.8242 139.434 54.0262 139.617C54.2283 139.801 54.52 139.904 54.7842 139.998C55.1233 140.119 55.4169 140.223 55.4169 140.46C55.4169 140.697 55.1233 140.801 54.7842 140.922C54.52 141.016 54.2283 141.119 54.0262 141.303C53.8242 141.487 53.7102 141.752 53.607 141.992C53.4744 142.3 53.3597 142.567 53.0991 142.567C52.8386 142.567 52.7238 142.3 52.5913 141.992C52.4881 141.752 52.3742 141.487 52.1721 141.303C51.97 141.119 51.6782 141.016 51.4141 140.922C51.075 140.801 50.7814 140.697 50.7814 140.46C50.7814 140.223 51.075 140.119 51.4141 139.998C51.6782 139.904 51.97 139.801 52.1721 139.617C52.3742 139.434 52.4881 139.168 52.5913 138.928C52.7238 138.62 52.8386 138.353 53.0991 138.353Z" fill="white" fill-opacity="0.6"/>
<path d="M126.719 121.581L129.639 116.524H123.799L126.719 121.581ZM126.213 95.2852V117.03H127.225V95.2852H126.213Z" fill="#545454"/>
<path d="M126.719 218.673L129.639 213.617H123.799L126.719 218.673ZM126.213 192.378V214.122H127.225V192.378H126.213Z" fill="#545454"/>
<g filter="url(#filter0_d_28_1070)">
<path d="M268.312 41.6821C268.312 32.745 275.556 25.5 284.494 25.5H567.679C576.617 25.5 583.862 32.745 583.862 41.6821V327.902H268.312V41.6821Z" fill="url(#paint1_linear_28_1070)"/>
<path d="M268.818 41.6821C268.818 33.0242 275.836 26.0057 284.494 26.0057H567.68C576.337 26.0057 583.356 33.0242 583.356 41.6821V327.397H268.818V41.6821Z" stroke="#313138"/>
</g>
<path d="M284.494 116.524C284.494 113.173 287.21 110.456 290.562 110.456H569.702C573.054 110.456 575.771 113.173 575.771 116.524V186.309C575.771 189.661 573.054 192.378 569.702 192.378H290.562C287.21 192.378 284.494 189.661 284.494 186.309V116.524Z" fill="#222222"/>
<path d="M294.608 124.615C294.608 122.381 296.419 120.57 298.653 120.57H333.04C335.274 120.57 337.086 122.381 337.086 124.615C337.086 126.849 335.274 128.661 333.04 128.661H298.653C296.419 128.661 294.608 126.849 294.608 124.615Z" fill="white" fill-opacity="0.06"/>
<path d="M341.131 124.615C341.131 122.381 342.942 120.57 345.176 120.57H411.927C414.162 120.57 415.973 122.381 415.973 124.615C415.973 126.849 414.162 128.661 411.927 128.661H345.176C342.942 128.661 341.131 126.849 341.131 124.615Z" fill="white" fill-opacity="0.06"/>
<path d="M420.018 124.615C420.018 122.381 421.83 120.57 424.064 120.57H490.815C493.049 120.57 494.86 122.381 494.86 124.615C494.86 126.849 493.049 128.661 490.815 128.661H424.064C421.83 128.661 420.018 126.849 420.018 124.615Z" fill="white" fill-opacity="0.06"/>
<path d="M498.906 124.615C498.906 122.381 500.717 120.57 502.951 120.57H569.702C571.936 120.57 573.748 122.381 573.748 124.615C573.748 126.849 571.936 128.661 569.702 128.661H502.951C500.717 128.661 498.906 126.849 498.906 124.615Z" fill="white" fill-opacity="0.06"/>
<path d="M294.608 140.797C294.608 138.563 296.419 136.752 298.653 136.752H322.926C325.16 136.752 326.972 138.563 326.972 140.797C326.972 143.031 325.16 144.843 322.926 144.843H298.653C296.419 144.843 294.608 143.031 294.608 140.797Z" fill="white" fill-opacity="0.06"/>
<path d="M331.017 140.797C331.017 138.563 332.829 136.752 335.063 136.752H381.586C383.82 136.752 385.632 138.563 385.632 140.797C385.632 143.031 383.82 144.843 381.586 144.843H335.063C332.829 144.843 331.017 143.031 331.017 140.797Z" fill="white" fill-opacity="0.06"/>
<path d="M389.677 140.797C389.677 138.563 391.489 136.752 393.723 136.752H410.916C413.15 136.752 414.962 138.563 414.962 140.797C414.962 143.031 413.15 144.843 410.916 144.843H393.723C391.489 144.843 389.677 143.031 389.677 140.797Z" fill="white" fill-opacity="0.06"/>
<path d="M419.007 140.797C419.007 138.563 420.818 136.752 423.053 136.752H464.519C466.753 136.752 468.565 138.563 468.565 140.797C468.565 143.031 466.753 144.843 464.519 144.843H423.053C420.818 144.843 419.007 143.031 419.007 140.797Z" fill="white" fill-opacity="0.06"/>
<path d="M472.61 140.797C472.61 138.563 474.421 136.752 476.656 136.752H559.589C561.823 136.752 563.634 138.563 563.634 140.797C563.634 143.031 561.823 144.843 559.589 144.843H476.656C474.421 144.843 472.61 143.031 472.61 140.797Z" fill="white" fill-opacity="0.06"/>
<path d="M308.767 41.6821H292.585C288.116 41.6821 284.494 45.3045 284.494 49.7731V65.9552C284.494 70.4237 288.116 74.0462 292.585 74.0462H308.767C313.235 74.0462 316.858 70.4237 316.858 65.9552V49.7731C316.858 45.3045 313.235 41.6821 308.767 41.6821Z" fill="#9A39E6"/>
<path d="M302.387 50.4851C302.385 49.8133 301.537 49.517 301.116 50.0406L294.765 57.9233C294.464 58.2971 294.612 58.8548 295.059 59.0316L297.925 60.1655L297.878 66.2472C297.873 66.9189 298.717 67.2238 299.145 66.7047L305.57 58.8949C305.875 58.5244 305.734 57.9657 305.289 57.7839L302.401 56.6034L302.387 50.4851Z" fill="white"/>
<path d="M293.653 49.7722C293.323 49.8866 293.323 50.3716 293.653 50.486L294.239 50.6892C294.67 50.839 295.009 51.1915 295.154 51.6409L295.349 52.2506C295.459 52.5936 295.925 52.5936 296.035 52.2506L296.231 51.6409C296.375 51.1915 296.713 50.839 297.145 50.6892L297.732 50.486C298.062 50.3716 298.062 49.8866 297.732 49.7722L297.145 49.569C296.713 49.4192 296.375 49.0665 296.231 48.6172L296.035 48.0075C295.925 47.6646 295.459 47.6646 295.349 48.0075L295.154 48.6172C295.009 49.0665 294.67 49.4192 294.239 49.569L293.653 49.7722Z" fill="white" fill-opacity="0.6"/>
<path d="M290.76 54.6496C290.496 54.558 290.496 54.17 290.76 54.0784L291.127 53.9509C291.344 53.8761 291.513 53.6998 291.586 53.4751L291.708 53.0924C291.796 52.8181 292.169 52.8181 292.257 53.0924L292.38 53.4751C292.451 53.6998 292.621 53.8761 292.837 53.9509L293.205 54.0784C293.469 54.17 293.469 54.558 293.205 54.6496L292.837 54.7771C292.621 54.8519 292.451 55.0282 292.38 55.253L292.257 55.6356C292.169 55.9099 291.796 55.9099 291.708 55.6356L291.586 55.253C291.513 55.0282 291.344 54.8519 291.127 54.7771L290.76 54.6496Z" fill="white" fill-opacity="0.6"/>
<path d="M309.104 49.0988C309.521 49.0988 309.704 49.5259 309.917 50.0192C310.082 50.4034 310.264 50.8277 310.587 51.1216C310.911 51.4156 311.377 51.5813 311.8 51.7314C312.342 51.9242 312.812 52.0911 312.812 52.4701C312.812 52.8491 312.342 53.016 311.8 53.2088C311.377 53.3588 310.911 53.5247 310.587 53.8186C310.264 54.1125 310.082 54.5369 309.917 54.921C309.704 55.4143 309.521 55.8414 309.104 55.8414C308.687 55.8414 308.504 55.4143 308.292 54.921C308.127 54.5369 307.944 54.1125 307.621 53.8186C307.297 53.5247 306.831 53.3588 306.408 53.2088C305.865 53.016 305.396 52.8491 305.396 52.4701C305.396 52.0911 305.865 51.9242 306.408 51.7314C306.831 51.5813 307.297 51.4156 307.621 51.1216C307.944 50.8277 308.127 50.4034 308.292 50.0192C308.504 49.5259 308.687 49.0988 309.104 49.0988Z" fill="white" fill-opacity="0.6"/>
<path d="M334.54 64.48L332.455 62.395C331.945 62.535 331.425 62.605 330.895 62.605C329.925 62.605 329.04 62.38 328.24 61.93C327.44 61.47 326.805 60.835 326.335 60.025C325.875 59.205 325.645 58.285 325.645 57.265C325.645 56.245 325.875 55.33 326.335 54.52C326.805 53.7 327.44 53.065 328.24 52.615C329.04 52.155 329.925 51.925 330.895 51.925C331.875 51.925 332.765 52.155 333.565 52.615C334.365 53.065 334.995 53.695 335.455 54.505C335.915 55.315 336.145 56.235 336.145 57.265C336.145 58.265 335.925 59.165 335.485 59.965C335.045 60.765 334.44 61.395 333.67 61.855L336.31 64.48H334.54ZM327.04 57.265C327.04 58.095 327.205 58.825 327.535 59.455C327.875 60.085 328.335 60.57 328.915 60.91C329.505 61.25 330.165 61.42 330.895 61.42C331.625 61.42 332.28 61.25 332.86 60.91C333.45 60.57 333.91 60.085 334.24 59.455C334.58 58.825 334.75 58.095 334.75 57.265C334.75 56.425 334.58 55.695 334.24 55.075C333.91 54.445 333.455 53.96 332.875 53.62C332.295 53.28 331.635 53.11 330.895 53.11C330.155 53.11 329.495 53.28 328.915 53.62C328.335 53.96 327.875 54.445 327.535 55.075C327.205 55.695 327.04 56.425 327.04 57.265ZM345.266 54.28V62.5H343.901V61.285C343.641 61.705 343.276 62.035 342.806 62.275C342.346 62.505 341.836 62.62 341.276 62.62C340.636 62.62 340.061 62.49 339.551 62.23C339.041 61.96 338.636 61.56 338.336 61.03C338.046 60.5 337.901 59.855 337.901 59.095V54.28H339.251V58.915C339.251 59.725 339.456 60.35 339.866 60.79C340.276 61.22 340.836 61.435 341.546 61.435C342.276 61.435 342.851 61.21 343.271 60.76C343.691 60.31 343.901 59.655 343.901 58.795V54.28H345.266ZM348.276 52.945C348.016 52.945 347.796 52.855 347.616 52.675C347.436 52.495 347.346 52.275 347.346 52.015C347.346 51.755 347.436 51.535 347.616 51.355C347.796 51.175 348.016 51.085 348.276 51.085C348.526 51.085 348.736 51.175 348.906 51.355C349.086 51.535 349.176 51.755 349.176 52.015C349.176 52.275 349.086 52.495 348.906 52.675C348.736 52.855 348.526 52.945 348.276 52.945ZM348.936 54.28V62.5H347.571V54.28H348.936ZM350.752 58.375C350.752 57.525 350.922 56.785 351.262 56.155C351.602 55.515 352.072 55.02 352.672 54.67C353.282 54.32 353.977 54.145 354.757 54.145C355.767 54.145 356.597 54.39 357.247 54.88C357.907 55.37 358.342 56.05 358.552 56.92H357.082C356.942 56.42 356.667 56.025 356.257 55.735C355.857 55.445 355.357 55.3 354.757 55.3C353.977 55.3 353.347 55.57 352.867 56.11C352.387 56.64 352.147 57.395 352.147 58.375C352.147 59.365 352.387 60.13 352.867 60.67C353.347 61.21 353.977 61.48 354.757 61.48C355.357 61.48 355.857 61.34 356.257 61.06C356.657 60.78 356.932 60.38 357.082 59.86H358.552C358.332 60.7 357.892 61.375 357.232 61.885C356.572 62.385 355.747 62.635 354.757 62.635C353.977 62.635 353.282 62.46 352.672 62.11C352.072 61.76 351.602 61.265 351.262 60.625C350.922 59.985 350.752 59.235 350.752 58.375ZM364.964 62.5L361.739 58.87V62.5H360.374V51.4H361.739V57.925L364.904 54.28H366.809L362.939 58.375L366.824 62.5H364.964ZM375.408 62.605C374.718 62.605 374.098 62.485 373.548 62.245C373.008 61.995 372.583 61.655 372.273 61.225C371.963 60.785 371.803 60.28 371.793 59.71H373.248C373.298 60.2 373.498 60.615 373.848 60.955C374.208 61.285 374.728 61.45 375.408 61.45C376.058 61.45 376.568 61.29 376.938 60.97C377.318 60.64 377.508 60.22 377.508 59.71C377.508 59.31 377.398 58.985 377.178 58.735C376.958 58.485 376.683 58.295 376.353 58.165C376.023 58.035 375.578 57.895 375.018 57.745C374.328 57.565 373.773 57.385 373.353 57.205C372.943 57.025 372.588 56.745 372.288 56.365C371.998 55.975 371.853 55.455 371.853 54.805C371.853 54.235 371.998 53.73 372.288 53.29C372.578 52.85 372.983 52.51 373.503 52.27C374.033 52.03 374.638 51.91 375.318 51.91C376.298 51.91 377.098 52.155 377.718 52.645C378.348 53.135 378.703 53.785 378.783 54.595H377.283C377.233 54.195 377.023 53.845 376.653 53.545C376.283 53.235 375.793 53.08 375.183 53.08C374.613 53.08 374.148 53.23 373.788 53.53C373.428 53.82 373.248 54.23 373.248 54.76C373.248 55.14 373.353 55.45 373.563 55.69C373.783 55.93 374.048 56.115 374.358 56.245C374.678 56.365 375.123 56.505 375.693 56.665C376.383 56.855 376.938 57.045 377.358 57.235C377.778 57.415 378.138 57.7 378.438 58.09C378.738 58.47 378.888 58.99 378.888 59.65C378.888 60.16 378.753 60.64 378.483 61.09C378.213 61.54 377.813 61.905 377.283 62.185C376.753 62.465 376.128 62.605 375.408 62.605ZM382.561 55.405V60.25C382.561 60.65 382.646 60.935 382.816 61.105C382.986 61.265 383.281 61.345 383.701 61.345H384.706V62.5H383.476C382.716 62.5 382.146 62.325 381.766 61.975C381.386 61.625 381.196 61.05 381.196 60.25V55.405H380.131V54.28H381.196V52.21H382.561V54.28H384.706V55.405H382.561ZM385.85 58.36C385.85 57.52 386.02 56.785 386.36 56.155C386.7 55.515 387.165 55.02 387.755 54.67C388.355 54.32 389.02 54.145 389.75 54.145C390.47 54.145 391.095 54.3 391.625 54.61C392.155 54.92 392.55 55.31 392.81 55.78V54.28H394.19V62.5H392.81V60.97C392.54 61.45 392.135 61.85 391.595 62.17C391.065 62.48 390.445 62.635 389.735 62.635C389.005 62.635 388.345 62.455 387.755 62.095C387.165 61.735 386.7 61.23 386.36 60.58C386.02 59.93 385.85 59.19 385.85 58.36ZM392.81 58.375C392.81 57.755 392.685 57.215 392.435 56.755C392.185 56.295 391.845 55.945 391.415 55.705C390.995 55.455 390.53 55.33 390.02 55.33C389.51 55.33 389.045 55.45 388.625 55.69C388.205 55.93 387.87 56.28 387.62 56.74C387.37 57.2 387.245 57.74 387.245 58.36C387.245 58.99 387.37 59.54 387.62 60.01C387.87 60.47 388.205 60.825 388.625 61.075C389.045 61.315 389.51 61.435 390.02 61.435C390.53 61.435 390.995 61.315 391.415 61.075C391.845 60.825 392.185 60.47 392.435 60.01C392.685 59.54 392.81 58.995 392.81 58.375ZM397.862 55.615C398.102 55.145 398.442 54.78 398.882 54.52C399.332 54.26 399.877 54.13 400.517 54.13V55.54H400.157C398.627 55.54 397.862 56.37 397.862 58.03V62.5H396.497V54.28H397.862V55.615ZM403.758 55.405V60.25C403.758 60.65 403.843 60.935 404.013 61.105C404.183 61.265 404.478 61.345 404.897 61.345H405.903V62.5H404.673C403.913 62.5 403.343 62.325 402.963 61.975C402.583 61.625 402.393 61.05 402.393 60.25V55.405H401.328V54.28H402.393V52.21H403.758V54.28H405.903V55.405H403.758ZM414.87 62.605C414.18 62.605 413.56 62.485 413.01 62.245C412.47 61.995 412.045 61.655 411.735 61.225C411.425 60.785 411.265 60.28 411.255 59.71H412.71C412.76 60.2 412.96 60.615 413.31 60.955C413.67 61.285 414.19 61.45 414.87 61.45C415.52 61.45 416.03 61.29 416.4 60.97C416.78 60.64 416.97 60.22 416.97 59.71C416.97 59.31 416.86 58.985 416.64 58.735C416.42 58.485 416.145 58.295 415.815 58.165C415.485 58.035 415.04 57.895 414.48 57.745C413.79 57.565 413.235 57.385 412.815 57.205C412.405 57.025 412.05 56.745 411.75 56.365C411.46 55.975 411.315 55.455 411.315 54.805C411.315 54.235 411.46 53.73 411.75 53.29C412.04 52.85 412.445 52.51 412.965 52.27C413.495 52.03 414.1 51.91 414.78 51.91C415.76 51.91 416.56 52.155 417.18 52.645C417.81 53.135 418.165 53.785 418.245 54.595H416.745C416.695 54.195 416.485 53.845 416.115 53.545C415.745 53.235 415.255 53.08 414.645 53.08C414.075 53.08 413.61 53.23 413.25 53.53C412.89 53.82 412.71 54.23 412.71 54.76C412.71 55.14 412.815 55.45 413.025 55.69C413.245 55.93 413.51 56.115 413.82 56.245C414.14 56.365 414.585 56.505 415.155 56.665C415.845 56.855 416.4 57.045 416.82 57.235C417.24 57.415 417.6 57.7 417.9 58.09C418.2 58.47 418.35 58.99 418.35 59.65C418.35 60.16 418.215 60.64 417.945 61.09C417.675 61.54 417.275 61.905 416.745 62.185C416.215 62.465 415.59 62.605 414.87 62.605ZM423.614 52.045C424.754 52.045 425.739 52.26 426.569 52.69C427.409 53.11 428.049 53.715 428.489 54.505C428.939 55.295 429.164 56.225 429.164 57.295C429.164 58.365 428.939 59.295 428.489 60.085C428.049 60.865 427.409 61.465 426.569 61.885C425.739 62.295 424.754 62.5 423.614 62.5H420.359V52.045H423.614ZM423.614 61.375C424.964 61.375 425.994 61.02 426.704 60.31C427.414 59.59 427.769 58.585 427.769 57.295C427.769 55.995 427.409 54.98 426.689 54.25C425.979 53.52 424.954 53.155 423.614 53.155H421.724V61.375H423.614ZM436.635 62.5L432.33 57.73V62.5H430.965V52.045H432.33V56.89L436.65 52.045H438.375L433.635 57.28L438.42 62.5H436.635ZM442.854 62.635C442.224 62.635 441.659 62.53 441.159 62.32C440.659 62.1 440.264 61.8 439.974 61.42C439.684 61.03 439.524 60.585 439.494 60.085H440.904C440.944 60.495 441.134 60.83 441.474 61.09C441.824 61.35 442.279 61.48 442.839 61.48C443.359 61.48 443.769 61.365 444.069 61.135C444.369 60.905 444.519 60.615 444.519 60.265C444.519 59.905 444.359 59.64 444.039 59.47C443.719 59.29 443.224 59.115 442.554 58.945C441.944 58.785 441.444 58.625 441.054 58.465C440.674 58.295 440.344 58.05 440.064 57.73C439.794 57.4 439.659 56.97 439.659 56.44C439.659 56.02 439.784 55.635 440.034 55.285C440.284 54.935 440.639 54.66 441.099 54.46C441.559 54.25 442.084 54.145 442.674 54.145C443.584 54.145 444.319 54.375 444.879 54.835C445.439 55.295 445.739 55.925 445.779 56.725H444.414C444.384 56.295 444.209 55.95 443.889 55.69C443.579 55.43 443.159 55.3 442.629 55.3C442.139 55.3 441.749 55.405 441.459 55.615C441.169 55.825 441.024 56.1 441.024 56.44C441.024 56.71 441.109 56.935 441.279 57.115C441.459 57.285 441.679 57.425 441.939 57.535C442.209 57.635 442.579 57.75 443.049 57.88C443.639 58.04 444.119 58.2 444.489 58.36C444.859 58.51 445.174 58.74 445.434 59.05C445.704 59.36 445.844 59.765 445.854 60.265C445.854 60.715 445.729 61.12 445.479 61.48C445.229 61.84 444.874 62.125 444.414 62.335C443.964 62.535 443.444 62.635 442.854 62.635Z" fill="white"/>
<path d="M291.43 98.57C291.43 99.15 291.23 99.6333 290.83 100.02C290.437 100.4 289.833 100.59 289.02 100.59H287.68V103.5H286.77V96.53H289.02C289.807 96.53 290.403 96.72 290.81 97.1C291.223 97.48 291.43 97.97 291.43 98.57ZM289.02 99.84C289.527 99.84 289.9 99.73 290.14 99.51C290.38 99.29 290.5 98.9767 290.5 98.57C290.5 97.71 290.007 97.28 289.02 97.28H287.68V99.84H289.02ZM293.471 98.91C293.631 98.5967 293.858 98.3533 294.151 98.18C294.451 98.0067 294.814 97.92 295.241 97.92V98.86H295.001C293.981 98.86 293.471 99.4133 293.471 100.52V103.5H292.561V98.02H293.471V98.91ZM298.681 103.59C298.168 103.59 297.701 103.473 297.281 103.24C296.868 103.007 296.541 102.677 296.301 102.25C296.068 101.817 295.951 101.317 295.951 100.75C295.951 100.19 296.071 99.6967 296.311 99.27C296.558 98.8367 296.891 98.5067 297.311 98.28C297.731 98.0467 298.201 97.93 298.721 97.93C299.241 97.93 299.711 98.0467 300.131 98.28C300.551 98.5067 300.881 98.8333 301.121 99.26C301.368 99.6867 301.491 100.183 301.491 100.75C301.491 101.317 301.365 101.817 301.111 102.25C300.865 102.677 300.528 103.007 300.101 103.24C299.675 103.473 299.201 103.59 298.681 103.59ZM298.681 102.79C299.008 102.79 299.315 102.713 299.601 102.56C299.888 102.407 300.118 102.177 300.291 101.87C300.471 101.563 300.561 101.19 300.561 100.75C300.561 100.31 300.475 99.9367 300.301 99.63C300.128 99.3233 299.901 99.0967 299.621 98.95C299.341 98.7967 299.038 98.72 298.711 98.72C298.378 98.72 298.071 98.7967 297.791 98.95C297.518 99.0967 297.298 99.3233 297.131 99.63C296.965 99.9367 296.881 100.31 296.881 100.75C296.881 101.197 296.961 101.573 297.121 101.88C297.288 102.187 297.508 102.417 297.781 102.57C298.055 102.717 298.355 102.79 298.681 102.79ZM304.948 97.93C305.421 97.93 305.835 98.0333 306.188 98.24C306.548 98.4467 306.815 98.7067 306.988 99.02V98.02H307.908V103.62C307.908 104.12 307.801 104.563 307.588 104.95C307.375 105.343 307.068 105.65 306.668 105.87C306.275 106.09 305.815 106.2 305.288 106.2C304.568 106.2 303.968 106.03 303.488 105.69C303.008 105.35 302.725 104.887 302.638 104.3H303.538C303.638 104.633 303.845 104.9 304.158 105.1C304.471 105.307 304.848 105.41 305.288 105.41C305.788 105.41 306.195 105.253 306.508 104.94C306.828 104.627 306.988 104.187 306.988 103.62V102.47C306.808 102.79 306.541 103.057 306.188 103.27C305.835 103.483 305.421 103.59 304.948 103.59C304.461 103.59 304.018 103.47 303.618 103.23C303.225 102.99 302.915 102.653 302.688 102.22C302.461 101.787 302.348 101.293 302.348 100.74C302.348 100.18 302.461 99.69 302.688 99.27C302.915 98.8433 303.225 98.5133 303.618 98.28C304.018 98.0467 304.461 97.93 304.948 97.93ZM306.988 100.75C306.988 100.337 306.905 99.9767 306.738 99.67C306.571 99.3633 306.345 99.13 306.058 98.97C305.778 98.8033 305.468 98.72 305.128 98.72C304.788 98.72 304.478 98.8 304.198 98.96C303.918 99.12 303.695 99.3533 303.528 99.66C303.361 99.9667 303.278 100.327 303.278 100.74C303.278 101.16 303.361 101.527 303.528 101.84C303.695 102.147 303.918 102.383 304.198 102.55C304.478 102.71 304.788 102.79 305.128 102.79C305.468 102.79 305.778 102.71 306.058 102.55C306.345 102.383 306.571 102.147 306.738 101.84C306.905 101.527 306.988 101.163 306.988 100.75ZM310.356 98.91C310.516 98.5967 310.742 98.3533 311.036 98.18C311.336 98.0067 311.699 97.92 312.126 97.92V98.86H311.886C310.866 98.86 310.356 99.4133 310.356 100.52V103.5H309.446V98.02H310.356V98.91ZM312.836 100.74C312.836 100.18 312.95 99.69 313.176 99.27C313.403 98.8433 313.713 98.5133 314.106 98.28C314.506 98.0467 314.95 97.93 315.436 97.93C315.916 97.93 316.333 98.0333 316.686 98.24C317.04 98.4467 317.303 98.7067 317.476 99.02V98.02H318.396V103.5H317.476V102.48C317.296 102.8 317.026 103.067 316.666 103.28C316.313 103.487 315.9 103.59 315.426 103.59C314.94 103.59 314.5 103.47 314.106 103.23C313.713 102.99 313.403 102.653 313.176 102.22C312.95 101.787 312.836 101.293 312.836 100.74ZM317.476 100.75C317.476 100.337 317.393 99.9767 317.226 99.67C317.06 99.3633 316.833 99.13 316.546 98.97C316.266 98.8033 315.956 98.72 315.616 98.72C315.276 98.72 314.966 98.8 314.686 98.96C314.406 99.12 314.183 99.3533 314.016 99.66C313.85 99.9667 313.766 100.327 313.766 100.74C313.766 101.16 313.85 101.527 314.016 101.84C314.183 102.147 314.406 102.383 314.686 102.55C314.966 102.71 315.276 102.79 315.616 102.79C315.956 102.79 316.266 102.71 316.546 102.55C316.833 102.383 317.06 102.147 317.226 101.84C317.393 101.527 317.476 101.163 317.476 100.75ZM326.524 97.92C326.951 97.92 327.331 98.01 327.664 98.19C327.997 98.3633 328.261 98.6267 328.454 98.98C328.647 99.3333 328.744 99.7633 328.744 100.27V103.5H327.844V100.4C327.844 99.8533 327.707 99.4367 327.434 99.15C327.167 98.8567 326.804 98.71 326.344 98.71C325.871 98.71 325.494 98.8633 325.214 99.17C324.934 99.47 324.794 99.9067 324.794 100.48V103.5H323.894V100.4C323.894 99.8533 323.757 99.4367 323.484 99.15C323.217 98.8567 322.854 98.71 322.394 98.71C321.921 98.71 321.544 98.8633 321.264 99.17C320.984 99.47 320.844 99.9067 320.844 100.48V103.5H319.934V98.02H320.844V98.81C321.024 98.5233 321.264 98.3033 321.564 98.15C321.871 97.9967 322.207 97.92 322.574 97.92C323.034 97.92 323.441 98.0233 323.794 98.23C324.147 98.4367 324.411 98.74 324.584 99.14C324.737 98.7533 324.991 98.4533 325.344 98.24C325.697 98.0267 326.091 97.92 326.524 97.92ZM336.827 97.92C337.253 97.92 337.633 98.01 337.967 98.19C338.3 98.3633 338.563 98.6267 338.757 98.98C338.95 99.3333 339.047 99.7633 339.047 100.27V103.5H338.147V100.4C338.147 99.8533 338.01 99.4367 337.737 99.15C337.47 98.8567 337.107 98.71 336.647 98.71C336.173 98.71 335.797 98.8633 335.517 99.17C335.237 99.47 335.097 99.9067 335.097 100.48V103.5H334.197V100.4C334.197 99.8533 334.06 99.4367 333.787 99.15C333.52 98.8567 333.157 98.71 332.697 98.71C332.223 98.71 331.847 98.8633 331.567 99.17C331.287 99.47 331.147 99.9067 331.147 100.48V103.5H330.237V98.02H331.147V98.81C331.327 98.5233 331.567 98.3033 331.867 98.15C332.173 97.9967 332.51 97.92 332.877 97.92C333.337 97.92 333.743 98.0233 334.097 98.23C334.45 98.4367 334.713 98.74 334.887 99.14C335.04 98.7533 335.293 98.4533 335.647 98.24C336 98.0267 336.393 97.92 336.827 97.92ZM341.01 97.13C340.836 97.13 340.69 97.07 340.57 96.95C340.45 96.83 340.39 96.6833 340.39 96.51C340.39 96.3367 340.45 96.19 340.57 96.07C340.69 95.95 340.836 95.89 341.01 95.89C341.176 95.89 341.316 95.95 341.43 96.07C341.55 96.19 341.61 96.3367 341.61 96.51C341.61 96.6833 341.55 96.83 341.43 96.95C341.316 97.07 341.176 97.13 341.01 97.13ZM341.45 98.02V103.5H340.54V98.02H341.45ZM345.67 97.92C346.337 97.92 346.877 98.1233 347.29 98.53C347.704 98.93 347.91 99.51 347.91 100.27V103.5H347.01V100.4C347.01 99.8533 346.874 99.4367 346.6 99.15C346.327 98.8567 345.954 98.71 345.48 98.71C345 98.71 344.617 98.86 344.33 99.16C344.05 99.46 343.91 99.8967 343.91 100.47V103.5H343V98.02H343.91V98.8C344.09 98.52 344.334 98.3033 344.64 98.15C344.954 97.9967 345.297 97.92 345.67 97.92ZM351.657 97.93C352.13 97.93 352.544 98.0333 352.897 98.24C353.257 98.4467 353.524 98.7067 353.697 99.02V98.02H354.617V103.62C354.617 104.12 354.51 104.563 354.297 104.95C354.084 105.343 353.777 105.65 353.377 105.87C352.984 106.09 352.524 106.2 351.997 106.2C351.277 106.2 350.677 106.03 350.197 105.69C349.717 105.35 349.434 104.887 349.347 104.3H350.247C350.347 104.633 350.554 104.9 350.867 105.1C351.18 105.307 351.557 105.41 351.997 105.41C352.497 105.41 352.904 105.253 353.217 104.94C353.537 104.627 353.697 104.187 353.697 103.62V102.47C353.517 102.79 353.25 103.057 352.897 103.27C352.544 103.483 352.13 103.59 351.657 103.59C351.17 103.59 350.727 103.47 350.327 103.23C349.934 102.99 349.624 102.653 349.397 102.22C349.17 101.787 349.057 101.293 349.057 100.74C349.057 100.18 349.17 99.69 349.397 99.27C349.624 98.8433 349.934 98.5133 350.327 98.28C350.727 98.0467 351.17 97.93 351.657 97.93ZM353.697 100.75C353.697 100.337 353.614 99.9767 353.447 99.67C353.28 99.3633 353.054 99.13 352.767 98.97C352.487 98.8033 352.177 98.72 351.837 98.72C351.497 98.72 351.187 98.8 350.907 98.96C350.627 99.12 350.404 99.3533 350.237 99.66C350.07 99.9667 349.987 100.327 349.987 100.74C349.987 101.16 350.07 101.527 350.237 101.84C350.404 102.147 350.627 102.383 350.907 102.55C351.187 102.71 351.497 102.79 351.837 102.79C352.177 102.79 352.487 102.71 352.767 102.55C353.054 102.383 353.28 102.147 353.447 101.84C353.614 101.527 353.697 101.163 353.697 100.75ZM359.731 102.76H362.171V103.5H358.821V96.53H359.731V102.76ZM362.797 100.74C362.797 100.18 362.911 99.69 363.137 99.27C363.364 98.8433 363.674 98.5133 364.067 98.28C364.467 98.0467 364.911 97.93 365.397 97.93C365.877 97.93 366.294 98.0333 366.647 98.24C367.001 98.4467 367.264 98.7067 367.437 99.02V98.02H368.357V103.5H367.437V102.48C367.257 102.8 366.987 103.067 366.627 103.28C366.274 103.487 365.861 103.59 365.387 103.59C364.901 103.59 364.461 103.47 364.067 103.23C363.674 102.99 363.364 102.653 363.137 102.22C362.911 101.787 362.797 101.293 362.797 100.74ZM367.437 100.75C367.437 100.337 367.354 99.9767 367.187 99.67C367.021 99.3633 366.794 99.13 366.507 98.97C366.227 98.8033 365.917 98.72 365.577 98.72C365.237 98.72 364.927 98.8 364.647 98.96C364.367 99.12 364.144 99.3533 363.977 99.66C363.811 99.9667 363.727 100.327 363.727 100.74C363.727 101.16 363.811 101.527 363.977 101.84C364.144 102.147 364.367 102.383 364.647 102.55C364.927 102.71 365.237 102.79 365.577 102.79C365.917 102.79 366.227 102.71 366.507 102.55C366.794 102.383 367.021 102.147 367.187 101.84C367.354 101.527 367.437 101.163 367.437 100.75ZM372.565 97.92C373.232 97.92 373.772 98.1233 374.185 98.53C374.598 98.93 374.805 99.51 374.805 100.27V103.5H373.905V100.4C373.905 99.8533 373.768 99.4367 373.495 99.15C373.222 98.8567 372.848 98.71 372.375 98.71C371.895 98.71 371.512 98.86 371.225 99.16C370.945 99.46 370.805 99.8967 370.805 100.47V103.5H369.895V98.02H370.805V98.8C370.985 98.52 371.228 98.3033 371.535 98.15C371.848 97.9967 372.192 97.92 372.565 97.92ZM378.551 97.93C379.025 97.93 379.438 98.0333 379.791 98.24C380.151 98.4467 380.418 98.7067 380.591 99.02V98.02H381.511V103.62C381.511 104.12 381.405 104.563 381.191 104.95C380.978 105.343 380.671 105.65 380.271 105.87C379.878 106.09 379.418 106.2 378.891 106.2C378.171 106.2 377.571 106.03 377.091 105.69C376.611 105.35 376.328 104.887 376.241 104.3H377.141C377.241 104.633 377.448 104.9 377.761 105.1C378.075 105.307 378.451 105.41 378.891 105.41C379.391 105.41 379.798 105.253 380.111 104.94C380.431 104.627 380.591 104.187 380.591 103.62V102.47C380.411 102.79 380.145 103.057 379.791 103.27C379.438 103.483 379.025 103.59 378.551 103.59C378.065 103.59 377.621 103.47 377.221 103.23C376.828 102.99 376.518 102.653 376.291 102.22C376.065 101.787 375.951 101.293 375.951 100.74C375.951 100.18 376.065 99.69 376.291 99.27C376.518 98.8433 376.828 98.5133 377.221 98.28C377.621 98.0467 378.065 97.93 378.551 97.93ZM380.591 100.75C380.591 100.337 380.508 99.9767 380.341 99.67C380.175 99.3633 379.948 99.13 379.661 98.97C379.381 98.8033 379.071 98.72 378.731 98.72C378.391 98.72 378.081 98.8 377.801 98.96C377.521 99.12 377.298 99.3533 377.131 99.66C376.965 99.9667 376.881 100.327 376.881 100.74C376.881 101.16 376.965 101.527 377.131 101.84C377.298 102.147 377.521 102.383 377.801 102.55C378.081 102.71 378.391 102.79 378.731 102.79C379.071 102.79 379.381 102.71 379.661 102.55C379.948 102.383 380.175 102.147 380.341 101.84C380.508 101.527 380.591 101.163 380.591 100.75ZM387.909 98.02V103.5H386.999V102.69C386.826 102.97 386.583 103.19 386.269 103.35C385.963 103.503 385.623 103.58 385.249 103.58C384.823 103.58 384.439 103.493 384.099 103.32C383.759 103.14 383.489 102.873 383.289 102.52C383.096 102.167 382.999 101.737 382.999 101.23V98.02H383.899V101.11C383.899 101.65 384.036 102.067 384.309 102.36C384.583 102.647 384.956 102.79 385.429 102.79C385.916 102.79 386.299 102.64 386.579 102.34C386.859 102.04 386.999 101.603 386.999 101.03V98.02H387.909ZM389.106 100.74C389.106 100.18 389.219 99.69 389.446 99.27C389.672 98.8433 389.982 98.5133 390.376 98.28C390.776 98.0467 391.219 97.93 391.706 97.93C392.186 97.93 392.602 98.0333 392.956 98.24C393.309 98.4467 393.572 98.7067 393.746 99.02V98.02H394.666V103.5H393.746V102.48C393.566 102.8 393.296 103.067 392.936 103.28C392.582 103.487 392.169 103.59 391.696 103.59C391.209 103.59 390.769 103.47 390.376 103.23C389.982 102.99 389.672 102.653 389.446 102.22C389.219 101.787 389.106 101.293 389.106 100.74ZM393.746 100.75C393.746 100.337 393.662 99.9767 393.496 99.67C393.329 99.3633 393.102 99.13 392.816 98.97C392.536 98.8033 392.226 98.72 391.886 98.72C391.546 98.72 391.236 98.8 390.956 98.96C390.676 99.12 390.452 99.3533 390.286 99.66C390.119 99.9667 390.036 100.327 390.036 100.74C390.036 101.16 390.119 101.527 390.286 101.84C390.452 102.147 390.676 102.383 390.956 102.55C391.236 102.71 391.546 102.79 391.886 102.79C392.226 102.79 392.536 102.71 392.816 102.55C393.102 102.383 393.329 102.147 393.496 101.84C393.662 101.527 393.746 101.163 393.746 100.75ZM398.464 97.93C398.937 97.93 399.35 98.0333 399.704 98.24C400.064 98.4467 400.33 98.7067 400.504 99.02V98.02H401.424V103.62C401.424 104.12 401.317 104.563 401.104 104.95C400.89 105.343 400.584 105.65 400.184 105.87C399.79 106.09 399.33 106.2 398.804 106.2C398.084 106.2 397.484 106.03 397.004 105.69C396.524 105.35 396.24 104.887 396.154 104.3H397.054C397.154 104.633 397.36 104.9 397.674 105.1C397.987 105.307 398.364 105.41 398.804 105.41C399.304 105.41 399.71 105.253 400.024 104.94C400.344 104.627 400.504 104.187 400.504 103.62V102.47C400.324 102.79 400.057 103.057 399.704 103.27C399.35 103.483 398.937 103.59 398.464 103.59C397.977 103.59 397.534 103.47 397.134 103.23C396.74 102.99 396.43 102.653 396.204 102.22C395.977 101.787 395.864 101.293 395.864 100.74C395.864 100.18 395.977 99.69 396.204 99.27C396.43 98.8433 396.74 98.5133 397.134 98.28C397.534 98.0467 397.977 97.93 398.464 97.93ZM400.504 100.75C400.504 100.337 400.42 99.9767 400.254 99.67C400.087 99.3633 399.86 99.13 399.574 98.97C399.294 98.8033 398.984 98.72 398.644 98.72C398.304 98.72 397.994 98.8 397.714 98.96C397.434 99.12 397.21 99.3533 397.044 99.66C396.877 99.9667 396.794 100.327 396.794 100.74C396.794 101.16 396.877 101.527 397.044 101.84C397.21 102.147 397.434 102.383 397.714 102.55C397.994 102.71 398.304 102.79 398.644 102.79C398.984 102.79 399.294 102.71 399.574 102.55C399.86 102.383 400.087 102.147 400.254 101.84C400.42 101.527 400.504 101.163 400.504 100.75ZM407.961 100.55C407.961 100.723 407.951 100.907 407.931 101.1H403.551C403.585 101.64 403.768 102.063 404.101 102.37C404.441 102.67 404.851 102.82 405.331 102.82C405.725 102.82 406.051 102.73 406.311 102.55C406.578 102.363 406.765 102.117 406.871 101.81H407.851C407.705 102.337 407.411 102.767 406.971 103.1C406.531 103.427 405.985 103.59 405.331 103.59C404.811 103.59 404.345 103.473 403.931 103.24C403.525 103.007 403.205 102.677 402.971 102.25C402.738 101.817 402.621 101.317 402.621 100.75C402.621 100.183 402.735 99.6867 402.961 99.26C403.188 98.8333 403.505 98.5067 403.911 98.28C404.325 98.0467 404.798 97.93 405.331 97.93C405.851 97.93 406.311 98.0433 406.711 98.27C407.111 98.4967 407.418 98.81 407.631 99.21C407.851 99.6033 407.961 100.05 407.961 100.55ZM407.021 100.36C407.021 100.013 406.945 99.7167 406.791 99.47C406.638 99.2167 406.428 99.0267 406.161 98.9C405.901 98.7667 405.611 98.7 405.291 98.7C404.831 98.7 404.438 98.8467 404.111 99.14C403.791 99.4333 403.608 99.84 403.561 100.36H407.021ZM411.103 103.59C410.683 103.59 410.306 103.52 409.973 103.38C409.639 103.233 409.376 103.033 409.183 102.78C408.989 102.52 408.883 102.223 408.863 101.89H409.803C409.829 102.163 409.956 102.387 410.183 102.56C410.416 102.733 410.719 102.82 411.093 102.82C411.439 102.82 411.713 102.743 411.913 102.59C412.113 102.437 412.213 102.243 412.213 102.01C412.213 101.77 412.106 101.593 411.893 101.48C411.679 101.36 411.349 101.243 410.903 101.13C410.496 101.023 410.163 100.917 409.903 100.81C409.649 100.697 409.429 100.533 409.243 100.32C409.063 100.1 408.973 99.8133 408.973 99.46C408.973 99.18 409.056 98.9233 409.223 98.69C409.389 98.4567 409.626 98.2733 409.933 98.14C410.239 98 410.589 97.93 410.983 97.93C411.589 97.93 412.079 98.0833 412.453 98.39C412.826 98.6967 413.026 99.1167 413.053 99.65H412.143C412.123 99.3633 412.006 99.1333 411.793 98.96C411.586 98.7867 411.306 98.7 410.953 98.7C410.626 98.7 410.366 98.77 410.173 98.91C409.979 99.05 409.883 99.2333 409.883 99.46C409.883 99.64 409.939 99.79 410.053 99.91C410.173 100.023 410.319 100.117 410.493 100.19C410.673 100.257 410.919 100.333 411.233 100.42C411.626 100.527 411.946 100.633 412.193 100.74C412.439 100.84 412.649 100.993 412.823 101.2C413.003 101.407 413.096 101.677 413.103 102.01C413.103 102.31 413.019 102.58 412.853 102.82C412.686 103.06 412.449 103.25 412.143 103.39C411.843 103.523 411.496 103.59 411.103 103.59Z" fill="white"/>
<path d="M284.494 238.901C284.494 235.549 287.21 232.833 290.562 232.833H570.714C574.065 232.833 576.782 235.549 576.782 238.901V259.129C576.782 262.48 574.065 265.197 570.714 265.197H290.562C287.21 265.197 284.494 262.48 284.494 259.129V238.901Z" fill="#222222"/>
<path d="M286.98 223.57C286.52 223.57 286.107 223.49 285.74 223.33C285.38 223.163 285.097 222.937 284.89 222.65C284.683 222.357 284.577 222.02 284.57 221.64H285.54C285.573 221.967 285.707 222.243 285.94 222.47C286.18 222.69 286.527 222.8 286.98 222.8C287.413 222.8 287.753 222.693 288 222.48C288.253 222.26 288.38 221.98 288.38 221.64C288.38 221.373 288.307 221.157 288.16 220.99C288.013 220.823 287.83 220.697 287.61 220.61C287.39 220.523 287.093 220.43 286.72 220.33C286.26 220.21 285.89 220.09 285.61 219.97C285.337 219.85 285.1 219.663 284.9 219.41C284.707 219.15 284.61 218.803 284.61 218.37C284.61 217.99 284.707 217.653 284.9 217.36C285.093 217.067 285.363 216.84 285.71 216.68C286.063 216.52 286.467 216.44 286.92 216.44C287.573 216.44 288.107 216.603 288.52 216.93C288.94 217.257 289.177 217.69 289.23 218.23H288.23C288.197 217.963 288.057 217.73 287.81 217.53C287.563 217.323 287.237 217.22 286.83 217.22C286.45 217.22 286.14 217.32 285.9 217.52C285.66 217.713 285.54 217.987 285.54 218.34C285.54 218.593 285.61 218.8 285.75 218.96C285.897 219.12 286.073 219.243 286.28 219.33C286.493 219.41 286.79 219.503 287.17 219.61C287.63 219.737 288 219.863 288.28 219.99C288.56 220.11 288.8 220.3 289 220.56C289.2 220.813 289.3 221.16 289.3 221.6C289.3 221.94 289.21 222.26 289.03 222.56C288.85 222.86 288.583 223.103 288.23 223.29C287.877 223.477 287.46 223.57 286.98 223.57ZM290.299 220.74C290.299 220.18 290.412 219.69 290.639 219.27C290.866 218.843 291.176 218.513 291.569 218.28C291.969 218.047 292.412 217.93 292.899 217.93C293.379 217.93 293.796 218.033 294.149 218.24C294.502 218.447 294.766 218.707 294.939 219.02V218.02H295.859V223.5H294.939V222.48C294.759 222.8 294.489 223.067 294.129 223.28C293.776 223.487 293.362 223.59 292.889 223.59C292.402 223.59 291.962 223.47 291.569 223.23C291.176 222.99 290.866 222.653 290.639 222.22C290.412 221.787 290.299 221.293 290.299 220.74ZM294.939 220.75C294.939 220.337 294.856 219.977 294.689 219.67C294.522 219.363 294.296 219.13 294.009 218.97C293.729 218.803 293.419 218.72 293.079 218.72C292.739 218.72 292.429 218.8 292.149 218.96C291.869 219.12 291.646 219.353 291.479 219.66C291.312 219.967 291.229 220.327 291.229 220.74C291.229 221.16 291.312 221.527 291.479 221.84C291.646 222.147 291.869 222.383 292.149 222.55C292.429 222.71 292.739 222.79 293.079 222.79C293.419 222.79 293.729 222.71 294.009 222.55C294.296 222.383 294.522 222.147 294.689 221.84C294.856 221.527 294.939 221.163 294.939 220.75ZM300.067 217.92C300.734 217.92 301.274 218.123 301.687 218.53C302.1 218.93 302.307 219.51 302.307 220.27V223.5H301.407V220.4C301.407 219.853 301.27 219.437 300.997 219.15C300.724 218.857 300.35 218.71 299.877 218.71C299.397 218.71 299.014 218.86 298.727 219.16C298.447 219.46 298.307 219.897 298.307 220.47V223.5H297.397V218.02H298.307V218.8C298.487 218.52 298.73 218.303 299.037 218.15C299.35 217.997 299.694 217.92 300.067 217.92ZM303.453 220.74C303.453 220.18 303.567 219.69 303.793 219.27C304.02 218.843 304.33 218.513 304.723 218.28C305.123 218.047 305.57 217.93 306.063 217.93C306.49 217.93 306.887 218.03 307.253 218.23C307.62 218.423 307.9 218.68 308.093 219V216.1H309.013V223.5H308.093V222.47C307.913 222.797 307.647 223.067 307.293 223.28C306.94 223.487 306.527 223.59 306.053 223.59C305.567 223.59 305.123 223.47 304.723 223.23C304.33 222.99 304.02 222.653 303.793 222.22C303.567 221.787 303.453 221.293 303.453 220.74ZM308.093 220.75C308.093 220.337 308.01 219.977 307.843 219.67C307.677 219.363 307.45 219.13 307.163 218.97C306.883 218.803 306.573 218.72 306.233 218.72C305.893 218.72 305.583 218.8 305.303 218.96C305.023 219.12 304.8 219.353 304.633 219.66C304.467 219.967 304.383 220.327 304.383 220.74C304.383 221.16 304.467 221.527 304.633 221.84C304.8 222.147 305.023 222.383 305.303 222.55C305.583 222.71 305.893 222.79 306.233 222.79C306.573 222.79 306.883 222.71 307.163 222.55C307.45 222.383 307.677 222.147 307.843 221.84C308.01 221.527 308.093 221.163 308.093 220.75ZM311.461 219.04C311.648 218.713 311.921 218.447 312.281 218.24C312.641 218.033 313.051 217.93 313.511 217.93C314.005 217.93 314.448 218.047 314.841 218.28C315.235 218.513 315.545 218.843 315.771 219.27C315.998 219.69 316.111 220.18 316.111 220.74C316.111 221.293 315.998 221.787 315.771 222.22C315.545 222.653 315.231 222.99 314.831 223.23C314.438 223.47 313.998 223.59 313.511 223.59C313.038 223.59 312.621 223.487 312.261 223.28C311.908 223.073 311.641 222.81 311.461 222.49V223.5H310.551V216.1H311.461V219.04ZM315.181 220.74C315.181 220.327 315.098 219.967 314.931 219.66C314.765 219.353 314.538 219.12 314.251 218.96C313.971 218.8 313.661 218.72 313.321 218.72C312.988 218.72 312.678 218.803 312.391 218.97C312.111 219.13 311.885 219.367 311.711 219.68C311.545 219.987 311.461 220.343 311.461 220.75C311.461 221.163 311.545 221.527 311.711 221.84C311.885 222.147 312.111 222.383 312.391 222.55C312.678 222.71 312.988 222.79 313.321 222.79C313.661 222.79 313.971 222.71 314.251 222.55C314.538 222.383 314.765 222.147 314.931 221.84C315.098 221.527 315.181 221.16 315.181 220.74ZM319.699 223.59C319.186 223.59 318.719 223.473 318.299 223.24C317.886 223.007 317.559 222.677 317.319 222.25C317.086 221.817 316.969 221.317 316.969 220.75C316.969 220.19 317.089 219.697 317.329 219.27C317.576 218.837 317.909 218.507 318.329 218.28C318.749 218.047 319.219 217.93 319.739 217.93C320.259 217.93 320.729 218.047 321.149 218.28C321.569 218.507 321.899 218.833 322.139 219.26C322.386 219.687 322.509 220.183 322.509 220.75C322.509 221.317 322.382 221.817 322.129 222.25C321.882 222.677 321.546 223.007 321.119 223.24C320.692 223.473 320.219 223.59 319.699 223.59ZM319.699 222.79C320.026 222.79 320.332 222.713 320.619 222.56C320.906 222.407 321.136 222.177 321.309 221.87C321.489 221.563 321.579 221.19 321.579 220.75C321.579 220.31 321.492 219.937 321.319 219.63C321.146 219.323 320.919 219.097 320.639 218.95C320.359 218.797 320.056 218.72 319.729 218.72C319.396 218.72 319.089 218.797 318.809 218.95C318.536 219.097 318.316 219.323 318.149 219.63C317.982 219.937 317.899 220.31 317.899 220.75C317.899 221.197 317.979 221.573 318.139 221.88C318.306 222.187 318.526 222.417 318.799 222.57C319.072 222.717 319.372 222.79 319.699 222.79ZM326.566 223.5L325.266 221.46L324.016 223.5H323.066L324.836 220.78L323.066 218.02H324.096L325.396 220.05L326.636 218.02H327.586L325.826 220.73L327.596 223.5H326.566ZM332.067 217.27V219.6H334.607V220.35H332.067V222.75H334.907V223.5H331.157V216.52H334.907V217.27H332.067ZM338.954 217.92C339.62 217.92 340.16 218.123 340.574 218.53C340.987 218.93 341.194 219.51 341.194 220.27V223.5H340.294V220.4C340.294 219.853 340.157 219.437 339.884 219.15C339.61 218.857 339.237 218.71 338.764 218.71C338.284 218.71 337.9 218.86 337.614 219.16C337.334 219.46 337.194 219.897 337.194 220.47V223.5H336.284V218.02H337.194V218.8C337.374 218.52 337.617 218.303 337.924 218.15C338.237 217.997 338.58 217.92 338.954 217.92ZM344.72 222.66L346.42 218.02H347.39L345.24 223.5H344.18L342.03 218.02H343.01L344.72 222.66ZM348.756 217.13C348.582 217.13 348.436 217.07 348.316 216.95C348.196 216.83 348.136 216.683 348.136 216.51C348.136 216.337 348.196 216.19 348.316 216.07C348.436 215.95 348.582 215.89 348.756 215.89C348.922 215.89 349.062 215.95 349.176 216.07C349.296 216.19 349.356 216.337 349.356 216.51C349.356 216.683 349.296 216.83 349.176 216.95C349.062 217.07 348.922 217.13 348.756 217.13ZM349.196 218.02V223.5H348.286V218.02H349.196ZM351.657 218.91C351.817 218.597 352.043 218.353 352.337 218.18C352.637 218.007 353 217.92 353.427 217.92V218.86H353.187C352.167 218.86 351.657 219.413 351.657 220.52V223.5H350.747V218.02H351.657V218.91ZM356.867 223.59C356.354 223.59 355.887 223.473 355.467 223.24C355.054 223.007 354.727 222.677 354.487 222.25C354.254 221.817 354.137 221.317 354.137 220.75C354.137 220.19 354.257 219.697 354.497 219.27C354.744 218.837 355.077 218.507 355.497 218.28C355.917 218.047 356.387 217.93 356.907 217.93C357.427 217.93 357.897 218.047 358.317 218.28C358.737 218.507 359.067 218.833 359.307 219.26C359.554 219.687 359.677 220.183 359.677 220.75C359.677 221.317 359.55 221.817 359.297 222.25C359.05 222.677 358.714 223.007 358.287 223.24C357.86 223.473 357.387 223.59 356.867 223.59ZM356.867 222.79C357.194 222.79 357.5 222.713 357.787 222.56C358.074 222.407 358.304 222.177 358.477 221.87C358.657 221.563 358.747 221.19 358.747 220.75C358.747 220.31 358.66 219.937 358.487 219.63C358.314 219.323 358.087 219.097 357.807 218.95C357.527 218.797 357.224 218.72 356.897 218.72C356.564 218.72 356.257 218.797 355.977 218.95C355.704 219.097 355.484 219.323 355.317 219.63C355.15 219.937 355.067 220.31 355.067 220.75C355.067 221.197 355.147 221.573 355.307 221.88C355.474 222.187 355.694 222.417 355.967 222.57C356.24 222.717 356.54 222.79 356.867 222.79ZM363.544 217.92C364.21 217.92 364.75 218.123 365.164 218.53C365.577 218.93 365.784 219.51 365.784 220.27V223.5H364.884V220.4C364.884 219.853 364.747 219.437 364.474 219.15C364.2 218.857 363.827 218.71 363.354 218.71C362.874 218.71 362.49 218.86 362.204 219.16C361.924 219.46 361.784 219.897 361.784 220.47V223.5H360.874V218.02H361.784V218.8C361.964 218.52 362.207 218.303 362.514 218.15C362.827 217.997 363.17 217.92 363.544 217.92ZM373.86 217.92C374.287 217.92 374.667 218.01 375 218.19C375.333 218.363 375.597 218.627 375.79 218.98C375.983 219.333 376.08 219.763 376.08 220.27V223.5H375.18V220.4C375.18 219.853 375.043 219.437 374.77 219.15C374.503 218.857 374.14 218.71 373.68 218.71C373.207 218.71 372.83 218.863 372.55 219.17C372.27 219.47 372.13 219.907 372.13 220.48V223.5H371.23V220.4C371.23 219.853 371.093 219.437 370.82 219.15C370.553 218.857 370.19 218.71 369.73 218.71C369.257 218.71 368.88 218.863 368.6 219.17C368.32 219.47 368.18 219.907 368.18 220.48V223.5H367.27V218.02H368.18V218.81C368.36 218.523 368.6 218.303 368.9 218.15C369.207 217.997 369.543 217.92 369.91 217.92C370.37 217.92 370.777 218.023 371.13 218.23C371.483 218.437 371.747 218.74 371.92 219.14C372.073 218.753 372.327 218.453 372.68 218.24C373.033 218.027 373.427 217.92 373.86 217.92ZM382.573 220.55C382.573 220.723 382.563 220.907 382.543 221.1H378.163C378.196 221.64 378.379 222.063 378.713 222.37C379.053 222.67 379.463 222.82 379.943 222.82C380.336 222.82 380.663 222.73 380.923 222.55C381.189 222.363 381.376 222.117 381.483 221.81H382.463C382.316 222.337 382.023 222.767 381.583 223.1C381.143 223.427 380.596 223.59 379.943 223.59C379.423 223.59 378.956 223.473 378.543 223.24C378.136 223.007 377.816 222.677 377.583 222.25C377.349 221.817 377.233 221.317 377.233 220.75C377.233 220.183 377.346 219.687 377.573 219.26C377.799 218.833 378.116 218.507 378.523 218.28C378.936 218.047 379.409 217.93 379.943 217.93C380.463 217.93 380.923 218.043 381.323 218.27C381.723 218.497 382.029 218.81 382.243 219.21C382.463 219.603 382.573 220.05 382.573 220.55ZM381.633 220.36C381.633 220.013 381.556 219.717 381.403 219.47C381.249 219.217 381.039 219.027 380.773 218.9C380.513 218.767 380.223 218.7 379.903 218.7C379.443 218.7 379.049 218.847 378.723 219.14C378.403 219.433 378.219 219.84 378.173 220.36H381.633ZM386.444 217.92C387.111 217.92 387.651 218.123 388.064 218.53C388.477 218.93 388.684 219.51 388.684 220.27V223.5H387.784V220.4C387.784 219.853 387.647 219.437 387.374 219.15C387.101 218.857 386.727 218.71 386.254 218.71C385.774 218.71 385.391 218.86 385.104 219.16C384.824 219.46 384.684 219.897 384.684 220.47V223.5H383.774V218.02H384.684V218.8C384.864 218.52 385.107 218.303 385.414 218.15C385.727 217.997 386.071 217.92 386.444 217.92ZM391.28 218.77V222C391.28 222.267 391.337 222.457 391.45 222.57C391.564 222.677 391.76 222.73 392.04 222.73H392.71V223.5H391.89C391.384 223.5 391.004 223.383 390.75 223.15C390.497 222.917 390.37 222.533 390.37 222V218.77H389.66V218.02H390.37V216.64H391.28V218.02H392.71V218.77H391.28Z" fill="white"/>
<path d="M294.68 246.27V248.6H297.22V249.35H294.68V251.75H297.52V252.5H293.77V245.52H297.52V246.27H294.68ZM301.567 246.92C302.234 246.92 302.774 247.123 303.187 247.53C303.6 247.93 303.807 248.51 303.807 249.27V252.5H302.907V249.4C302.907 248.853 302.77 248.437 302.497 248.15C302.224 247.857 301.85 247.71 301.377 247.71C300.897 247.71 300.514 247.86 300.227 248.16C299.947 248.46 299.807 248.897 299.807 249.47V252.5H298.897V247.02H299.807V247.8C299.987 247.52 300.23 247.303 300.537 247.15C300.85 246.997 301.194 246.92 301.567 246.92ZM307.333 251.66L309.033 247.02H310.003L307.853 252.5H306.793L304.643 247.02H305.623L307.333 251.66ZM311.369 246.13C311.196 246.13 311.049 246.07 310.929 245.95C310.809 245.83 310.749 245.683 310.749 245.51C310.749 245.337 310.809 245.19 310.929 245.07C311.049 244.95 311.196 244.89 311.369 244.89C311.536 244.89 311.676 244.95 311.789 245.07C311.909 245.19 311.969 245.337 311.969 245.51C311.969 245.683 311.909 245.83 311.789 245.95C311.676 246.07 311.536 246.13 311.369 246.13ZM311.809 247.02V252.5H310.899V247.02H311.809ZM314.27 247.91C314.43 247.597 314.657 247.353 314.95 247.18C315.25 247.007 315.613 246.92 316.04 246.92V247.86H315.8C314.78 247.86 314.27 248.413 314.27 249.52V252.5H313.36V247.02H314.27V247.91ZM319.48 252.59C318.967 252.59 318.5 252.473 318.08 252.24C317.667 252.007 317.34 251.677 317.1 251.25C316.867 250.817 316.75 250.317 316.75 249.75C316.75 249.19 316.87 248.697 317.11 248.27C317.357 247.837 317.69 247.507 318.11 247.28C318.53 247.047 319 246.93 319.52 246.93C320.04 246.93 320.51 247.047 320.93 247.28C321.35 247.507 321.68 247.833 321.92 248.26C322.167 248.687 322.29 249.183 322.29 249.75C322.29 250.317 322.164 250.817 321.91 251.25C321.664 251.677 321.327 252.007 320.9 252.24C320.474 252.473 320 252.59 319.48 252.59ZM319.48 251.79C319.807 251.79 320.114 251.713 320.4 251.56C320.687 251.407 320.917 251.177 321.09 250.87C321.27 250.563 321.36 250.19 321.36 249.75C321.36 249.31 321.274 248.937 321.1 248.63C320.927 248.323 320.7 248.097 320.42 247.95C320.14 247.797 319.837 247.72 319.51 247.72C319.177 247.72 318.87 247.797 318.59 247.95C318.317 248.097 318.097 248.323 317.93 248.63C317.764 248.937 317.68 249.31 317.68 249.75C317.68 250.197 317.76 250.573 317.92 250.88C318.087 251.187 318.307 251.417 318.58 251.57C318.854 251.717 319.154 251.79 319.48 251.79ZM326.157 246.92C326.823 246.92 327.363 247.123 327.777 247.53C328.19 247.93 328.397 248.51 328.397 249.27V252.5H327.497V249.4C327.497 248.853 327.36 248.437 327.087 248.15C326.813 247.857 326.44 247.71 325.967 247.71C325.487 247.71 325.103 247.86 324.817 248.16C324.537 248.46 324.397 248.897 324.397 249.47V252.5H323.487V247.02H324.397V247.8C324.577 247.52 324.82 247.303 325.127 247.15C325.44 246.997 325.783 246.92 326.157 246.92ZM336.473 246.92C336.9 246.92 337.28 247.01 337.613 247.19C337.947 247.363 338.21 247.627 338.403 247.98C338.597 248.333 338.693 248.763 338.693 249.27V252.5H337.793V249.4C337.793 248.853 337.657 248.437 337.383 248.15C337.117 247.857 336.753 247.71 336.293 247.71C335.82 247.71 335.443 247.863 335.163 248.17C334.883 248.47 334.743 248.907 334.743 249.48V252.5H333.843V249.4C333.843 248.853 333.707 248.437 333.433 248.15C333.167 247.857 332.803 247.71 332.343 247.71C331.87 247.71 331.493 247.863 331.213 248.17C330.933 248.47 330.793 248.907 330.793 249.48V252.5H329.883V247.02H330.793V247.81C330.973 247.523 331.213 247.303 331.513 247.15C331.82 246.997 332.157 246.92 332.523 246.92C332.983 246.92 333.39 247.023 333.743 247.23C334.097 247.437 334.36 247.74 334.533 248.14C334.687 247.753 334.94 247.453 335.293 247.24C335.647 247.027 336.04 246.92 336.473 246.92ZM345.186 249.55C345.186 249.723 345.176 249.907 345.156 250.1H340.776C340.809 250.64 340.993 251.063 341.326 251.37C341.666 251.67 342.076 251.82 342.556 251.82C342.949 251.82 343.276 251.73 343.536 251.55C343.803 251.363 343.989 251.117 344.096 250.81H345.076C344.929 251.337 344.636 251.767 344.196 252.1C343.756 252.427 343.209 252.59 342.556 252.59C342.036 252.59 341.569 252.473 341.156 252.24C340.749 252.007 340.429 251.677 340.196 251.25C339.963 250.817 339.846 250.317 339.846 249.75C339.846 249.183 339.959 248.687 340.186 248.26C340.413 247.833 340.729 247.507 341.136 247.28C341.549 247.047 342.023 246.93 342.556 246.93C343.076 246.93 343.536 247.043 343.936 247.27C344.336 247.497 344.643 247.81 344.856 248.21C345.076 248.603 345.186 249.05 345.186 249.55ZM344.246 249.36C344.246 249.013 344.169 248.717 344.016 248.47C343.863 248.217 343.653 248.027 343.386 247.9C343.126 247.767 342.836 247.7 342.516 247.7C342.056 247.7 341.663 247.847 341.336 248.14C341.016 248.433 340.833 248.84 340.786 249.36H344.246ZM349.057 246.92C349.724 246.92 350.264 247.123 350.677 247.53C351.091 247.93 351.297 248.51 351.297 249.27V252.5H350.397V249.4C350.397 248.853 350.261 248.437 349.987 248.15C349.714 247.857 349.341 247.71 348.867 247.71C348.387 247.71 348.004 247.86 347.717 248.16C347.437 248.46 347.297 248.897 347.297 249.47V252.5H346.387V247.02H347.297V247.8C347.477 247.52 347.721 247.303 348.027 247.15C348.341 246.997 348.684 246.92 349.057 246.92ZM353.894 247.77V251C353.894 251.267 353.95 251.457 354.064 251.57C354.177 251.677 354.374 251.73 354.654 251.73H355.324V252.5H354.504C353.997 252.5 353.617 252.383 353.364 252.15C353.11 251.917 352.984 251.533 352.984 251V247.77H352.274V247.02H352.984V245.64H353.894V247.02H355.324V247.77H353.894ZM361.302 252.57C360.842 252.57 360.429 252.49 360.062 252.33C359.702 252.163 359.419 251.937 359.212 251.65C359.006 251.357 358.899 251.02 358.892 250.64H359.862C359.896 250.967 360.029 251.243 360.262 251.47C360.502 251.69 360.849 251.8 361.302 251.8C361.736 251.8 362.076 251.693 362.322 251.48C362.576 251.26 362.702 250.98 362.702 250.64C362.702 250.373 362.629 250.157 362.482 249.99C362.336 249.823 362.152 249.697 361.932 249.61C361.712 249.523 361.416 249.43 361.042 249.33C360.582 249.21 360.212 249.09 359.932 248.97C359.659 248.85 359.422 248.663 359.222 248.41C359.029 248.15 358.932 247.803 358.932 247.37C358.932 246.99 359.029 246.653 359.222 246.36C359.416 246.067 359.686 245.84 360.032 245.68C360.386 245.52 360.789 245.44 361.242 245.44C361.896 245.44 362.429 245.603 362.842 245.93C363.262 246.257 363.499 246.69 363.552 247.23H362.552C362.519 246.963 362.379 246.73 362.132 246.53C361.886 246.323 361.559 246.22 361.152 246.22C360.772 246.22 360.462 246.32 360.222 246.52C359.982 246.713 359.862 246.987 359.862 247.34C359.862 247.593 359.932 247.8 360.072 247.96C360.219 248.12 360.396 248.243 360.602 248.33C360.816 248.41 361.112 248.503 361.492 248.61C361.952 248.737 362.322 248.863 362.602 248.99C362.882 249.11 363.122 249.3 363.322 249.56C363.522 249.813 363.622 250.16 363.622 250.6C363.622 250.94 363.532 251.26 363.352 251.56C363.172 251.86 362.906 252.103 362.552 252.29C362.199 252.477 361.782 252.57 361.302 252.57ZM369.961 249.55C369.961 249.723 369.951 249.907 369.931 250.1H365.551C365.585 250.64 365.768 251.063 366.101 251.37C366.441 251.67 366.851 251.82 367.331 251.82C367.725 251.82 368.051 251.73 368.311 251.55C368.578 251.363 368.765 251.117 368.871 250.81H369.851C369.705 251.337 369.411 251.767 368.971 252.1C368.531 252.427 367.985 252.59 367.331 252.59C366.811 252.59 366.345 252.473 365.931 252.24C365.525 252.007 365.205 251.677 364.971 251.25C364.738 250.817 364.621 250.317 364.621 249.75C364.621 249.183 364.735 248.687 364.961 248.26C365.188 247.833 365.505 247.507 365.911 247.28C366.325 247.047 366.798 246.93 367.331 246.93C367.851 246.93 368.311 247.043 368.711 247.27C369.111 247.497 369.418 247.81 369.631 248.21C369.851 248.603 369.961 249.05 369.961 249.55ZM369.021 249.36C369.021 249.013 368.945 248.717 368.791 248.47C368.638 248.217 368.428 248.027 368.161 247.9C367.901 247.767 367.611 247.7 367.291 247.7C366.831 247.7 366.438 247.847 366.111 248.14C365.791 248.433 365.608 248.84 365.561 249.36H369.021ZM372.273 247.77V251C372.273 251.267 372.329 251.457 372.443 251.57C372.556 251.677 372.753 251.73 373.033 251.73H373.703V252.5H372.883C372.376 252.5 371.996 252.383 371.743 252.15C371.489 251.917 371.363 251.533 371.363 251V247.77H370.653V247.02H371.363V245.64H372.273V247.02H373.703V247.77H372.273ZM379.665 247.02V252.5H378.755V251.69C378.582 251.97 378.338 252.19 378.025 252.35C377.718 252.503 377.378 252.58 377.005 252.58C376.578 252.58 376.195 252.493 375.855 252.32C375.515 252.14 375.245 251.873 375.045 251.52C374.852 251.167 374.755 250.737 374.755 250.23V247.02H375.655V250.11C375.655 250.65 375.792 251.067 376.065 251.36C376.338 251.647 376.712 251.79 377.185 251.79C377.672 251.79 378.055 251.64 378.335 251.34C378.615 251.04 378.755 250.603 378.755 250.03V247.02H379.665ZM382.112 248.03C382.292 247.717 382.558 247.457 382.912 247.25C383.272 247.037 383.688 246.93 384.162 246.93C384.648 246.93 385.088 247.047 385.482 247.28C385.882 247.513 386.195 247.843 386.422 248.27C386.648 248.69 386.762 249.18 386.762 249.74C386.762 250.293 386.648 250.787 386.422 251.22C386.195 251.653 385.882 251.99 385.482 252.23C385.088 252.47 384.648 252.59 384.162 252.59C383.695 252.59 383.282 252.487 382.922 252.28C382.568 252.067 382.298 251.803 382.112 251.49V255.1H381.202V247.02H382.112V248.03ZM385.832 249.74C385.832 249.327 385.748 248.967 385.582 248.66C385.415 248.353 385.188 248.12 384.902 247.96C384.622 247.8 384.312 247.72 383.972 247.72C383.638 247.72 383.328 247.803 383.042 247.97C382.762 248.13 382.535 248.367 382.362 248.68C382.195 248.987 382.112 249.343 382.112 249.75C382.112 250.163 382.195 250.527 382.362 250.84C382.535 251.147 382.762 251.383 383.042 251.55C383.328 251.71 383.638 251.79 383.972 251.79C384.312 251.79 384.622 251.71 384.902 251.55C385.188 251.383 385.415 251.147 385.582 250.84C385.748 250.527 385.832 250.16 385.832 249.74Z" fill="white"/>
</g>
</g>
</g>
<defs>
<filter id="filter0_d_28_1070" x="236.312" y="25.5" width="355.55" height="342.402" filterUnits="userSpaceOnUse" color-interpolation-filters="sRGB">
<feFlood flood-opacity="0" result="BackgroundImageFix"/>
<feColorMatrix in="SourceAlpha" type="matrix" values="0 0 0 0 0 0 0 0 0 0 0 0 0 0 0 0 0 0 127 0" result="hardAlpha"/>
<feOffset dx="-12" dy="20"/>
<feGaussianBlur stdDeviation="10"/>
<feComposite in2="hardAlpha" operator="out"/>
<feColorMatrix type="matrix" values="0 0 0 0 0 0 0 0 0 0 0 0 0 0 0 0 0 0 0.4 0"/>
<feBlend mode="normal" in2="BackgroundImageFix" result="effect1_dropShadow_28_1070"/>
<feBlend mode="normal" in="SourceGraphic" in2="effect1_dropShadow_28_1070" result="shape"/>
</filter>
<linearGradient id="paint0_linear_28_1070" x1="47.8315" y1="133.718" x2="47.8315" y2="153.945" gradientUnits="userSpaceOnUse">
<stop stop-color="#3B1C4B"/>
<stop offset="1" stop-color="#4043D9"/>
</linearGradient>
<linearGradient id="paint1_linear_28_1070" x1="275.391" y1="25.5" x2="569.133" y2="149.222" gradientUnits="userSpaceOnUse">
<stop stop-color="white" stop-opacity="0.06"/>
<stop offset="1" stop-color="white" stop-opacity="0"/>
</linearGradient>
<clipPath id="clip0_28_1070">
<rect width="561.19" height="320.66" fill="white" transform="translate(1 1.5)"/>
</clipPath>
<clipPath id="clip1_28_1070">
<rect width="537.19" height="293.3" fill="white" transform="translate(25 25.5)"/>
</clipPath>
<clipPath id="clip2_28_1070">
<rect width="536.03" height="293.3" fill="white" transform="translate(25.5812 25.5)"/>
</clipPath>
</defs>
</svg>
