<svg width="819" height="139" viewBox="0 0 819 139" fill="none" xmlns="http://www.w3.org/2000/svg">
<path d="M310.922 33.5V16.0455H316.82C318.183 16.0455 319.303 16.2784 320.178 16.7443C321.053 17.2045 321.7 17.8381 322.121 18.6449C322.541 19.4517 322.752 20.3693 322.752 21.3977C322.752 22.4261 322.541 23.3381 322.121 24.1335C321.7 24.929 321.056 25.554 320.186 26.0085C319.317 26.4574 318.206 26.6818 316.854 26.6818H312.081V24.7727H316.786C317.718 24.7727 318.468 24.6364 319.036 24.3636C319.61 24.0909 320.024 23.7045 320.28 23.2045C320.541 22.6989 320.672 22.0966 320.672 21.3977C320.672 20.6989 320.541 20.0881 320.28 19.5653C320.019 19.0426 319.601 18.6392 319.027 18.3551C318.453 18.0653 317.695 17.9205 316.752 17.9205H313.036V33.5H310.922ZM319.138 25.6591L323.433 33.5H320.979L316.752 25.6591H319.138ZM330.389 33.7727C329.128 33.7727 328.04 33.4943 327.125 32.9375C326.216 32.375 325.514 31.5909 325.02 30.5852C324.531 29.5739 324.287 28.3977 324.287 27.0568C324.287 25.7159 324.531 24.5341 325.02 23.5114C325.514 22.483 326.201 21.6818 327.082 21.108C327.968 20.5284 329.003 20.2386 330.184 20.2386C330.866 20.2386 331.54 20.3523 332.204 20.5795C332.869 20.8068 333.474 21.1761 334.02 21.6875C334.565 22.1932 335 22.8636 335.324 23.6989C335.647 24.5341 335.809 25.5625 335.809 26.7841V27.6364H325.718V25.8977H333.764C333.764 25.1591 333.616 24.5 333.321 23.9205C333.031 23.3409 332.616 22.8835 332.076 22.5483C331.542 22.2131 330.912 22.0455 330.184 22.0455C329.383 22.0455 328.69 22.2443 328.105 22.642C327.525 23.0341 327.079 23.5455 326.767 24.1761C326.454 24.8068 326.298 25.483 326.298 26.2045V27.3636C326.298 28.3523 326.468 29.1903 326.809 29.8778C327.156 30.5597 327.636 31.0795 328.25 31.4375C328.863 31.7898 329.576 31.9659 330.389 31.9659C330.917 31.9659 331.395 31.892 331.821 31.7443C332.253 31.5909 332.625 31.3636 332.937 31.0625C333.25 30.7557 333.491 30.375 333.662 29.9205L335.605 30.4659C335.4 31.125 335.057 31.7045 334.574 32.2045C334.091 32.6989 333.494 33.0852 332.784 33.3636C332.074 33.6364 331.275 33.7727 330.389 33.7727ZM341.761 33.8068C340.932 33.8068 340.179 33.6506 339.503 33.3381C338.827 33.0199 338.29 32.5625 337.892 31.9659C337.494 31.3636 337.295 30.6364 337.295 29.7841C337.295 29.0341 337.443 28.4261 337.739 27.9602C338.034 27.4886 338.429 27.1193 338.923 26.8523C339.418 26.5852 339.963 26.3864 340.56 26.2557C341.162 26.1193 341.767 26.0114 342.375 25.9318C343.17 25.8295 343.815 25.7528 344.31 25.7017C344.81 25.6449 345.173 25.5511 345.401 25.4205C345.633 25.2898 345.75 25.0625 345.75 24.7386V24.6705C345.75 23.8295 345.52 23.1761 345.06 22.7102C344.605 22.2443 343.915 22.0114 342.989 22.0114C342.028 22.0114 341.276 22.2216 340.73 22.642C340.185 23.0625 339.801 23.5114 339.579 23.9886L337.67 23.3068C338.011 22.5114 338.466 21.892 339.034 21.4489C339.608 21 340.233 20.6875 340.909 20.5114C341.591 20.3295 342.261 20.2386 342.92 20.2386C343.341 20.2386 343.824 20.2898 344.369 20.392C344.92 20.4886 345.452 20.6903 345.963 20.9972C346.48 21.304 346.909 21.767 347.25 22.3864C347.591 23.0057 347.761 23.8352 347.761 24.875V33.5H345.75V31.7273H345.648C345.511 32.0114 345.284 32.3153 344.966 32.6392C344.648 32.9631 344.224 33.2386 343.696 33.4659C343.168 33.6932 342.523 33.8068 341.761 33.8068ZM342.068 32C342.864 32 343.534 31.8438 344.079 31.5312C344.631 31.2188 345.045 30.8153 345.324 30.321C345.608 29.8267 345.75 29.3068 345.75 28.7614V26.9205C345.665 27.0227 345.477 27.1165 345.187 27.2017C344.903 27.2812 344.574 27.3523 344.199 27.4148C343.829 27.4716 343.469 27.5227 343.116 27.5682C342.77 27.608 342.489 27.642 342.273 27.6705C341.75 27.7386 341.261 27.8494 340.807 28.0028C340.358 28.1506 339.994 28.375 339.716 28.6761C339.443 28.9716 339.307 29.375 339.307 29.8864C339.307 30.5852 339.565 31.1136 340.082 31.4716C340.605 31.8239 341.267 32 342.068 32ZM359.745 23.3409L357.938 23.8523C357.825 23.5511 357.657 23.2585 357.436 22.9744C357.22 22.6847 356.924 22.446 356.549 22.2585C356.174 22.071 355.694 21.9773 355.109 21.9773C354.308 21.9773 353.64 22.1619 353.106 22.5312C352.578 22.8949 352.313 23.358 352.313 23.9205C352.313 24.4205 352.495 24.8153 352.859 25.1051C353.222 25.3949 353.791 25.6364 354.563 25.8295L356.507 26.3068C357.677 26.5909 358.549 27.0256 359.123 27.6108C359.697 28.1903 359.984 28.9375 359.984 29.8523C359.984 30.6023 359.768 31.2727 359.336 31.8636C358.91 32.4545 358.313 32.9205 357.546 33.2614C356.779 33.6023 355.887 33.7727 354.87 33.7727C353.535 33.7727 352.43 33.483 351.555 32.9034C350.68 32.3239 350.126 31.4773 349.893 30.3636L351.802 29.8864C351.984 30.5909 352.328 31.1193 352.833 31.4716C353.345 31.8239 354.012 32 354.836 32C355.774 32 356.518 31.8011 357.069 31.4034C357.626 31 357.904 30.517 357.904 29.9545C357.904 29.5 357.745 29.1193 357.427 28.8125C357.109 28.5 356.62 28.267 355.961 28.1136L353.779 27.6023C352.58 27.3182 351.7 26.8778 351.137 26.2812C350.58 25.679 350.302 24.9261 350.302 24.0227C350.302 23.2841 350.509 22.6307 350.924 22.0625C351.345 21.4943 351.916 21.0483 352.637 20.7244C353.365 20.4006 354.188 20.2386 355.109 20.2386C356.404 20.2386 357.421 20.5227 358.16 21.0909C358.904 21.6591 359.433 22.4091 359.745 23.3409ZM367.37 33.7727C366.188 33.7727 365.151 33.4915 364.259 32.929C363.373 32.3665 362.679 31.5795 362.179 30.5682C361.685 29.5568 361.438 28.375 361.438 27.0227C361.438 25.6591 361.685 24.4687 362.179 23.4517C362.679 22.4347 363.373 21.6449 364.259 21.0824C365.151 20.5199 366.188 20.2386 367.37 20.2386C368.552 20.2386 369.586 20.5199 370.472 21.0824C371.364 21.6449 372.057 22.4347 372.552 23.4517C373.052 24.4687 373.302 25.6591 373.302 27.0227C373.302 28.375 373.052 29.5568 372.552 30.5682C372.057 31.5795 371.364 32.3665 370.472 32.929C369.586 33.4915 368.552 33.7727 367.37 33.7727ZM367.37 31.9659C368.267 31.9659 369.006 31.7358 369.586 31.2756C370.165 30.8153 370.594 30.2102 370.873 29.4602C371.151 28.7102 371.29 27.8977 371.29 27.0227C371.29 26.1477 371.151 25.3324 370.873 24.5767C370.594 23.821 370.165 23.2102 369.586 22.7443C369.006 22.2784 368.267 22.0455 367.37 22.0455C366.472 22.0455 365.733 22.2784 365.154 22.7443C364.574 23.2102 364.145 23.821 363.867 24.5767C363.588 25.3324 363.449 26.1477 363.449 27.0227C363.449 27.8977 363.588 28.7102 363.867 29.4602C364.145 30.2102 364.574 30.8153 365.154 31.2756C365.733 31.7358 366.472 31.9659 367.37 31.9659ZM377.423 25.625V33.5H375.412V20.4091H377.355V22.4545H377.525C377.832 21.7898 378.298 21.2557 378.923 20.8523C379.548 20.4432 380.355 20.2386 381.344 20.2386C382.23 20.2386 383.006 20.4205 383.67 20.7841C384.335 21.142 384.852 21.6875 385.221 22.4205C385.591 23.1477 385.775 24.0682 385.775 25.1818V33.5H383.764V25.3182C383.764 24.2898 383.497 23.4886 382.963 22.9148C382.429 22.3352 381.696 22.0455 380.764 22.0455C380.122 22.0455 379.548 22.1847 379.043 22.4631C378.543 22.7415 378.148 23.1477 377.858 23.6818C377.568 24.2159 377.423 24.8636 377.423 25.625ZM397.764 23.3409L395.957 23.8523C395.843 23.5511 395.676 23.2585 395.454 22.9744C395.238 22.6847 394.943 22.446 394.568 22.2585C394.193 22.071 393.712 21.9773 393.127 21.9773C392.326 21.9773 391.659 22.1619 391.124 22.5312C390.596 22.8949 390.332 23.358 390.332 23.9205C390.332 24.4205 390.514 24.8153 390.877 25.1051C391.241 25.3949 391.809 25.6364 392.582 25.8295L394.525 26.3068C395.695 26.5909 396.568 27.0256 397.141 27.6108C397.715 28.1903 398.002 28.9375 398.002 29.8523C398.002 30.6023 397.786 31.2727 397.355 31.8636C396.928 32.4545 396.332 32.9205 395.565 33.2614C394.798 33.6023 393.906 33.7727 392.889 33.7727C391.553 33.7727 390.448 33.483 389.573 32.9034C388.698 32.3239 388.144 31.4773 387.911 30.3636L389.82 29.8864C390.002 30.5909 390.346 31.1193 390.852 31.4716C391.363 31.8239 392.031 32 392.855 32C393.792 32 394.536 31.8011 395.087 31.4034C395.644 31 395.923 30.517 395.923 29.9545C395.923 29.5 395.764 29.1193 395.445 28.8125C395.127 28.5 394.639 28.267 393.98 28.1136L391.798 27.6023C390.599 27.3182 389.718 26.8778 389.156 26.2812C388.599 25.679 388.32 24.9261 388.32 24.0227C388.32 23.2841 388.528 22.6307 388.943 22.0625C389.363 21.4943 389.934 21.0483 390.656 20.7244C391.383 20.4006 392.207 20.2386 393.127 20.2386C394.423 20.2386 395.44 20.5227 396.178 21.0909C396.923 21.6591 397.451 22.4091 397.764 23.3409ZM411.553 20.4091V22.1136H404.769V20.4091H411.553ZM406.746 17.2727H408.758V29.75C408.758 30.3182 408.84 30.7443 409.005 31.0284C409.175 31.3068 409.391 31.4943 409.653 31.5909C409.92 31.6818 410.201 31.7273 410.496 31.7273C410.718 31.7273 410.9 31.7159 411.042 31.6932C411.184 31.6648 411.297 31.642 411.383 31.625L411.792 33.4318C411.655 33.483 411.465 33.5341 411.221 33.5852C410.976 33.642 410.667 33.6705 410.292 33.6705C409.724 33.6705 409.167 33.5483 408.621 33.304C408.082 33.0597 407.633 32.6875 407.275 32.1875C406.922 31.6875 406.746 31.0568 406.746 30.2955V17.2727ZM418.796 33.7727C417.614 33.7727 416.578 33.4915 415.686 32.929C414.799 32.3665 414.106 31.5795 413.606 30.5682C413.112 29.5568 412.864 28.375 412.864 27.0227C412.864 25.6591 413.112 24.4687 413.606 23.4517C414.106 22.4347 414.799 21.6449 415.686 21.0824C416.578 20.5199 417.614 20.2386 418.796 20.2386C419.978 20.2386 421.012 20.5199 421.899 21.0824C422.791 21.6449 423.484 22.4347 423.978 23.4517C424.478 24.4687 424.728 25.6591 424.728 27.0227C424.728 28.375 424.478 29.5568 423.978 30.5682C423.484 31.5795 422.791 32.3665 421.899 32.929C421.012 33.4915 419.978 33.7727 418.796 33.7727ZM418.796 31.9659C419.694 31.9659 420.433 31.7358 421.012 31.2756C421.592 30.8153 422.021 30.2102 422.299 29.4602C422.578 28.7102 422.717 27.8977 422.717 27.0227C422.717 26.1477 422.578 25.3324 422.299 24.5767C422.021 23.821 421.592 23.2102 421.012 22.7443C420.433 22.2784 419.694 22.0455 418.796 22.0455C417.899 22.0455 417.16 22.2784 416.58 22.7443C416.001 23.2102 415.572 23.821 415.293 24.5767C415.015 25.3324 414.876 26.1477 414.876 27.0227C414.876 27.8977 415.015 28.7102 415.293 29.4602C415.572 30.2102 416.001 30.8153 416.58 31.2756C417.16 31.7358 417.899 31.9659 418.796 31.9659ZM432.901 33.5V16.0455H438.799C440.168 16.0455 441.288 16.2926 442.157 16.7869C443.032 17.2756 443.68 17.9375 444.1 18.7727C444.52 19.608 444.731 20.5398 444.731 21.5682C444.731 22.5966 444.52 23.5312 444.1 24.3722C443.685 25.2131 443.043 25.8835 442.174 26.3835C441.305 26.8778 440.191 27.125 438.833 27.125H434.606V25.25H438.765C439.702 25.25 440.455 25.0881 441.023 24.7642C441.591 24.4403 442.003 24.0028 442.259 23.4517C442.52 22.8949 442.651 22.267 442.651 21.5682C442.651 20.8693 442.52 20.2443 442.259 19.6932C442.003 19.142 441.589 18.7102 441.015 18.3977C440.441 18.0795 439.68 17.9205 438.731 17.9205H435.015V33.5H432.901ZM450.755 33.8068C449.926 33.8068 449.173 33.6506 448.497 33.3381C447.82 33.0199 447.283 32.5625 446.886 31.9659C446.488 31.3636 446.289 30.6364 446.289 29.7841C446.289 29.0341 446.437 28.4261 446.732 27.9602C447.028 27.4886 447.423 27.1193 447.917 26.8523C448.411 26.5852 448.957 26.3864 449.553 26.2557C450.156 26.1193 450.761 26.0114 451.369 25.9318C452.164 25.8295 452.809 25.7528 453.303 25.7017C453.803 25.6449 454.167 25.5511 454.394 25.4205C454.627 25.2898 454.744 25.0625 454.744 24.7386V24.6705C454.744 23.8295 454.514 23.1761 454.053 22.7102C453.599 22.2443 452.908 22.0114 451.982 22.0114C451.022 22.0114 450.269 22.2216 449.724 22.642C449.178 23.0625 448.795 23.5114 448.573 23.9886L446.664 23.3068C447.005 22.5114 447.46 21.892 448.028 21.4489C448.602 21 449.227 20.6875 449.903 20.5114C450.585 20.3295 451.255 20.2386 451.914 20.2386C452.335 20.2386 452.818 20.2898 453.363 20.392C453.914 20.4886 454.445 20.6903 454.957 20.9972C455.474 21.304 455.903 21.767 456.244 22.3864C456.585 23.0057 456.755 23.8352 456.755 24.875V33.5H454.744V31.7273H454.641C454.505 32.0114 454.278 32.3153 453.96 32.6392C453.641 32.9631 453.218 33.2386 452.69 33.4659C452.161 33.6932 451.516 33.8068 450.755 33.8068ZM451.062 32C451.857 32 452.528 31.8438 453.073 31.5312C453.624 31.2188 454.039 30.8153 454.318 30.321C454.602 29.8267 454.744 29.3068 454.744 28.7614V26.9205C454.658 27.0227 454.471 27.1165 454.181 27.2017C453.897 27.2812 453.568 27.3523 453.193 27.4148C452.823 27.4716 452.462 27.5227 452.11 27.5682C451.764 27.608 451.482 27.642 451.266 27.6705C450.744 27.7386 450.255 27.8494 449.801 28.0028C449.352 28.1506 448.988 28.375 448.71 28.6761C448.437 28.9716 448.301 29.375 448.301 29.8864C448.301 30.5852 448.559 31.1136 449.076 31.4716C449.599 31.8239 450.261 32 451.062 32ZM459.466 33.5V20.4091H461.409V22.3864H461.546C461.784 21.7386 462.216 21.2131 462.841 20.8097C463.466 20.4062 464.171 20.2045 464.955 20.2045C465.103 20.2045 465.287 20.2074 465.509 20.2131C465.73 20.2187 465.898 20.2273 466.012 20.2386V22.2841C465.943 22.267 465.787 22.2415 465.543 22.2074C465.304 22.1676 465.051 22.1477 464.784 22.1477C464.148 22.1477 463.58 22.2812 463.08 22.5483C462.586 22.8097 462.193 23.1733 461.904 23.6392C461.62 24.0994 461.478 24.625 461.478 25.2159V33.5H459.466ZM473.949 20.4091V22.1136H467.165V20.4091H473.949ZM469.143 17.2727H471.154V29.75C471.154 30.3182 471.236 30.7443 471.401 31.0284C471.572 31.3068 471.787 31.4943 472.049 31.5909C472.316 31.6818 472.597 31.7273 472.893 31.7273C473.114 31.7273 473.296 31.7159 473.438 31.6932C473.58 31.6648 473.694 31.642 473.779 31.625L474.188 33.4318C474.052 33.483 473.861 33.5341 473.617 33.5852C473.373 33.642 473.063 33.6705 472.688 33.6705C472.12 33.6705 471.563 33.5483 471.018 33.304C470.478 33.0597 470.029 32.6875 469.671 32.1875C469.319 31.6875 469.143 31.0568 469.143 30.2955V17.2727ZM478.026 25.625V33.5H476.015V20.4091H477.958V22.4545H478.129C478.435 21.7898 478.901 21.2557 479.526 20.8523C480.151 20.4432 480.958 20.2386 481.947 20.2386C482.833 20.2386 483.609 20.4205 484.274 20.7841C484.938 21.142 485.455 21.6875 485.825 22.4205C486.194 23.1477 486.379 24.0682 486.379 25.1818V33.5H484.367V25.3182C484.367 24.2898 484.1 23.4886 483.566 22.9148C483.032 22.3352 482.299 22.0455 481.367 22.0455C480.725 22.0455 480.151 22.1847 479.646 22.4631C479.146 22.7415 478.751 23.1477 478.461 23.6818C478.171 24.2159 478.026 24.8636 478.026 25.625ZM494.583 33.7727C493.321 33.7727 492.233 33.4943 491.318 32.9375C490.409 32.375 489.708 31.5909 489.213 30.5852C488.725 29.5739 488.48 28.3977 488.48 27.0568C488.48 25.7159 488.725 24.5341 489.213 23.5114C489.708 22.483 490.395 21.6818 491.276 21.108C492.162 20.5284 493.196 20.2386 494.378 20.2386C495.06 20.2386 495.733 20.3523 496.398 20.5795C497.063 20.8068 497.668 21.1761 498.213 21.6875C498.759 22.1932 499.193 22.8636 499.517 23.6989C499.841 24.5341 500.003 25.5625 500.003 26.7841V27.6364H489.912V25.8977H497.958C497.958 25.1591 497.81 24.5 497.514 23.9205C497.225 23.3409 496.81 22.8835 496.27 22.5483C495.736 22.2131 495.105 22.0455 494.378 22.0455C493.577 22.0455 492.884 22.2443 492.299 22.642C491.719 23.0341 491.273 23.5455 490.96 24.1761C490.648 24.8068 490.492 25.483 490.492 26.2045V27.3636C490.492 28.3523 490.662 29.1903 491.003 29.8778C491.35 30.5597 491.83 31.0795 492.443 31.4375C493.057 31.7898 493.77 31.9659 494.583 31.9659C495.111 31.9659 495.588 31.892 496.014 31.7443C496.446 31.5909 496.818 31.3636 497.131 31.0625C497.443 30.7557 497.685 30.375 497.855 29.9205L499.799 30.4659C499.594 31.125 499.25 31.7045 498.767 32.2045C498.284 32.6989 497.688 33.0852 496.978 33.3636C496.267 33.6364 495.469 33.7727 494.583 33.7727ZM502.103 33.5V20.4091H504.046V22.3864H504.182C504.421 21.7386 504.853 21.2131 505.478 20.8097C506.103 20.4062 506.807 20.2045 507.591 20.2045C507.739 20.2045 507.924 20.2074 508.145 20.2131C508.367 20.2187 508.535 20.2273 508.648 20.2386V22.2841C508.58 22.267 508.424 22.2415 508.18 22.2074C507.941 22.1676 507.688 22.1477 507.421 22.1477C506.785 22.1477 506.216 22.2812 505.716 22.5483C505.222 22.8097 504.83 23.1733 504.54 23.6392C504.256 24.0994 504.114 24.625 504.114 25.2159V33.5H502.103Z" fill="url(#paint0_linear_28_1600)"/>
<g opacity="0.8" clip-path="url(#clip0_28_1600)">
<path d="M880.125 82L641.375 82L584.875 25.5L518.875 25.5" stroke="url(#paint1_linear_28_1600)" stroke-opacity="0.05"/>
<path d="M880.125 82L641.375 82L584.875 25.5L518.875 25.5" stroke="url(#paint2_linear_28_1600)"/>
<path d="M-61.125 82.5L177.625 82.5L234.125 26L300.125 26" stroke="url(#paint3_linear_28_1600)" stroke-opacity="0.05"/>
<path d="M-61.125 82.5L177.625 82.5L234.125 26L300.125 26" stroke="url(#paint4_linear_28_1600)"/>
</g>
<defs>
<linearGradient id="paint0_linear_28_1600" x1="348.75" y1="10.5" x2="397.706" y2="101.39" gradientUnits="userSpaceOnUse">
<stop stop-color="white"/>
<stop offset="1" stop-color="white" stop-opacity="0"/>
</linearGradient>
<linearGradient id="paint1_linear_28_1600" x1="519.125" y1="25.2498" x2="885.125" y2="99.2498" gradientUnits="userSpaceOnUse">
<stop stop-color="white"/>
<stop offset="1" stop-color="white" stop-opacity="0"/>
</linearGradient>
<linearGradient id="paint2_linear_28_1600" x1="518.875" y1="53.75" x2="614.875" y2="53.75" gradientUnits="userSpaceOnUse">
<stop stop-color="#C9DDFA" stop-opacity="0.38"/>
<stop offset="1" stop-color="white" stop-opacity="0"/>
</linearGradient>
<linearGradient id="paint3_linear_28_1600" x1="299.875" y1="25.7498" x2="-66.125" y2="99.7498" gradientUnits="userSpaceOnUse">
<stop stop-color="white"/>
<stop offset="1" stop-color="white" stop-opacity="0"/>
</linearGradient>
<linearGradient id="paint4_linear_28_1600" x1="300.125" y1="54.25" x2="204.125" y2="54.25" gradientUnits="userSpaceOnUse">
<stop stop-color="#C9DDFA" stop-opacity="0.38"/>
<stop offset="1" stop-color="white" stop-opacity="0"/>
</linearGradient>
<clipPath id="clip0_28_1600">
<rect width="819" height="138" fill="white" transform="translate(0 0.5)"/>
</clipPath>
</defs>
</svg>
