<svg width="307" height="438" viewBox="0 0 307 438" fill="none" xmlns="http://www.w3.org/2000/svg">
<path d="M302.493 350.662L301.61 350.193L302.493 350.662ZM302.493 350.662L301.61 350.193L264.142 420.721L265.025 421.19L265.908 421.659L303.376 351.131L302.493 350.662ZM238.531 437.115V436.115H31V437.115V438.115H238.531V437.115ZM1 407.115H2V30.5H1H0V407.115H1ZM31 0.5V1.5H276V0.5V-0.5H31V0.5ZM306 30.5H305V336.587H306H307V30.5H306ZM276 0.5V1.5C292.016 1.5 305 14.4837 305 30.5H306H307C307 13.3792 293.121 -0.5 276 -0.5V0.5ZM1 30.5H2C2 14.4837 14.9837 1.5 31 1.5V0.5V-0.5C13.8792 -0.5 0 13.3792 0 30.5H1ZM31 437.115V436.115C14.9837 436.115 2 423.132 2 407.115H1H0C0 424.236 13.8792 438.115 31 438.115V437.115ZM265.025 421.19L264.142 420.721C259.109 430.194 249.258 436.115 238.531 436.115V437.115V438.115C249.998 438.115 260.528 431.786 265.908 421.659L265.025 421.19ZM302.493 350.662L303.376 351.131C305.756 346.653 307 341.659 307 336.587H306H305C305 341.332 303.836 346.003 301.61 350.193L302.493 350.662Z" fill="url(#paint0_linear_24105_1815)"/>
<path d="M195.94 140.313L222.735 155.576C225.042 157.048 226.542 159.418 222.735 161.445L124.919 217.39C121.363 219.443 118.684 218.353 113.636 215.28L72.539 191.647C69.1977 189.729 71.6699 187.071 72.5388 186.59L169.6 130.862C171.512 129.86 173.674 127.465 178.869 130.476L195.94 140.313Z" fill="url(#paint1_linear_24105_1815)"/>
<path d="M174.077 93.7506L198.456 107.36C200.365 108.394 201.853 113.511 199.488 116.733L127.061 215.622C121.974 220.494 116.359 217.973 111.312 214.901L73.0575 192.857C69.7162 190.939 72.6854 187.076 73.9075 185.357L147.33 85.126C148.964 82.8547 151.847 80.9674 157.042 83.9777L174.077 93.7506Z" fill="url(#paint2_linear_24105_1815)"/>
<path d="M173.825 91.6581L195.985 104.396C197.894 105.429 200.78 109.262 198.416 112.484L125.758 211.442C122.293 217.288 115.11 214.792 112.253 213.032L71.6374 189.82C68.2961 187.902 70.4146 183.604 71.6373 181.885L144.3 83.7156C145.934 81.4443 150.208 78.6824 155.979 81.5827L173.825 91.6581Z" fill="url(#paint3_linear_24105_1815)"/>
<path opacity="0.848" d="M196.975 105.081C201.77 108.485 201.083 111.304 201.049 112.62C201.015 113.936 200.51 115.214 199.286 116.995C198.062 118.776 168.726 158.677 168.726 158.677L166.758 155.589L197.801 113.565C197.801 113.565 201.232 109.268 196.975 105.081Z" fill="url(#paint4_linear_24105_1815)"/>
<path opacity="0.499" d="M194.791 117.55C195.795 118.167 196.719 120.004 196.719 120.604L198.421 118.287C198.421 118.287 198.488 116.402 196.439 115.293C195.517 116.567 195.774 116.057 194.791 117.55Z" fill="url(#paint5_linear_24105_1815)"/>
<path opacity="0.499" d="M126.858 209.969C127.862 210.586 129.127 212.318 129.127 212.918L130.829 210.601C130.829 210.601 130.844 208.405 128.795 207.296C127.872 208.57 127.84 208.477 126.858 209.969Z" fill="url(#paint6_linear_24105_1815)"/>
<path opacity="0.499" d="M185.471 132.085C185.072 132.588 185.984 133.427 186.489 132.641C186.489 132.641 189.647 128.471 190.2 127.773C190.258 127.711 190.301 127.637 190.328 127.557C190.355 127.477 190.364 127.392 190.354 127.307C190.345 127.223 190.318 127.142 190.275 127.069C190.232 126.996 190.174 126.934 190.104 126.885C190.035 126.837 189.956 126.804 189.872 126.789C189.789 126.774 189.703 126.777 189.621 126.797C189.539 126.818 189.463 126.856 189.397 126.909C189.331 126.962 189.277 127.028 189.238 127.104C188.315 128.378 186.72 130.565 185.471 132.085Z" fill="url(#paint7_linear_24105_1815)"/>
<path opacity="0.499" d="M185.644 132.085C185.245 132.588 186.157 133.427 186.662 132.641C186.662 132.641 189.82 128.471 190.373 127.773C190.43 127.711 190.474 127.637 190.501 127.557C190.527 127.477 190.536 127.392 190.527 127.307C190.518 127.223 190.491 127.142 190.448 127.069C190.405 126.996 190.347 126.934 190.277 126.885C190.208 126.837 190.128 126.804 190.045 126.789C189.962 126.774 189.876 126.777 189.794 126.797C189.712 126.818 189.635 126.856 189.569 126.909C189.503 126.962 189.449 127.028 189.411 127.104C188.488 128.378 186.893 130.565 185.644 132.085Z" fill="url(#paint8_linear_24105_1815)"/>
<path opacity="0.499" d="M179.285 140.426C178.894 140.935 179.821 141.759 180.312 140.965C180.312 140.965 183.399 136.741 183.94 136.034C183.997 135.971 184.039 135.896 184.064 135.816C184.089 135.735 184.097 135.65 184.086 135.566C184.076 135.482 184.047 135.401 184.003 135.329C183.959 135.257 183.899 135.195 183.829 135.148C183.759 135.101 183.679 135.069 183.596 135.056C183.512 135.042 183.427 135.046 183.345 135.068C183.263 135.09 183.187 135.13 183.122 135.184C183.057 135.238 183.004 135.305 182.967 135.381C182.066 136.671 180.508 138.885 179.285 140.426Z" fill="url(#paint9_linear_24105_1815)"/>
<path opacity="0.499" d="M179.457 140.424C179.067 140.933 179.993 141.757 180.485 140.962C180.485 140.962 183.571 136.738 184.113 136.031C184.169 135.968 184.212 135.894 184.237 135.813C184.262 135.732 184.27 135.647 184.259 135.563C184.249 135.479 184.22 135.399 184.176 135.326C184.131 135.254 184.072 135.193 184.002 135.146C183.931 135.098 183.852 135.067 183.768 135.053C183.685 135.039 183.599 135.044 183.518 135.066C183.436 135.088 183.36 135.127 183.295 135.181C183.23 135.235 183.177 135.303 183.14 135.379C182.239 136.669 180.681 138.883 179.457 140.424Z" fill="url(#paint10_linear_24105_1815)"/>
<path opacity="0.848" d="M69.8059 186.388C69.7708 187.031 69.919 187.671 70.2333 188.233C70.5475 188.796 71.0149 189.257 71.5811 189.564C73.5643 190.65 72.0974 189.894 73.9968 190.924C75.8961 191.955 114.586 214.344 114.586 214.344L115.2 217.09L73.41 193.027C73.41 193.027 71.2576 191.921 70.5356 190.581C69.8135 189.241 69.8059 186.388 69.8059 186.388Z" fill="url(#paint11_linear_24105_1815)"/>
<path d="M169.546 93.0742L175.539 96.5343C175.606 96.5645 175.665 96.6092 175.713 96.6652C175.761 96.7211 175.796 96.787 175.815 96.858C175.835 96.929 175.838 97.0034 175.825 97.0758C175.813 97.1483 175.784 97.2171 175.742 97.2773C175.539 97.5573 175.253 97.6365 174.991 97.485L168.962 94.0456C168.898 94.0132 168.842 93.9677 168.797 93.9121C168.752 93.8565 168.719 93.7921 168.701 93.7229C168.682 93.6538 168.679 93.5816 168.69 93.5111C168.702 93.4405 168.728 93.3732 168.768 93.3135C168.841 93.1808 168.963 93.0819 169.108 93.0373C169.254 92.9927 169.41 93.0059 169.546 93.0742Z" fill="#2536EB"/>
<path d="M169.579 93.0353L175.568 96.4936C175.831 96.645 175.98 96.9449 175.788 97.2057C175.751 97.2654 175.703 97.3175 175.647 97.3587C175.59 97.4 175.526 97.4297 175.458 97.4461C175.39 97.4625 175.32 97.4654 175.25 97.4545C175.181 97.4436 175.115 97.4192 175.055 97.3826L169.031 93.9439C168.968 93.9146 168.913 93.8723 168.867 93.8199C168.822 93.7675 168.788 93.7062 168.768 93.6399C168.748 93.5736 168.743 93.5038 168.752 93.4351C168.761 93.3665 168.784 93.3004 168.82 93.2414C168.895 93.1156 169.016 93.0239 169.158 92.9855C169.299 92.9471 169.45 92.965 169.579 93.0353Z" fill="#303789"/>
<path d="M90.6615 201.237L95.595 204.097C95.6507 204.124 95.7001 204.162 95.7398 204.21C95.7796 204.257 95.8087 204.313 95.8254 204.372C95.842 204.432 95.8457 204.494 95.8363 204.555C95.8268 204.616 95.8045 204.675 95.7706 204.727C95.6093 204.968 95.3782 205.039 95.1623 204.914L90.2002 202.072C90.1473 202.044 90.1006 202.005 90.0632 201.958C90.0257 201.911 89.9982 201.857 89.9824 201.799C89.9666 201.741 89.9627 201.68 89.9711 201.621C89.9794 201.561 89.9999 201.504 90.0311 201.453C90.058 201.397 90.0958 201.347 90.1422 201.306C90.1885 201.265 90.2426 201.233 90.3013 201.213C90.3599 201.193 90.422 201.185 90.4838 201.189C90.5456 201.193 90.606 201.209 90.6615 201.237Z" fill="#2536EB"/>
<path d="M90.4994 201.047L95.5216 203.978C95.7374 204.103 95.9327 204.363 95.7804 204.588C95.6281 204.813 95.5395 204.956 95.3241 204.83L90.2551 201.985C90.0393 201.86 89.757 201.456 89.8846 201.233C89.9124 201.181 89.9504 201.134 89.9965 201.096C90.0426 201.058 90.0958 201.029 90.153 201.012C90.2102 200.994 90.2702 200.988 90.3297 200.995C90.3892 201.001 90.4468 201.018 90.4994 201.047Z" fill="#1C247B"/>
<path opacity="0.309" d="M180.018 99.9728C180.657 99.4729 180.818 98.6102 180.377 98.0459C179.936 97.4816 179.06 97.4294 178.42 97.9293C177.781 98.4292 177.62 99.2919 178.061 99.8562C178.502 100.42 179.378 100.473 180.018 99.9728Z" fill="url(#paint12_linear_24105_1815)"/>
<path opacity="0.522" d="M179.577 99.4148C179.878 99.1795 179.955 98.7753 179.749 98.512C179.543 98.2487 179.133 98.2259 178.832 98.4612C178.531 98.6965 178.454 99.1007 178.659 99.364C178.865 99.6273 179.276 99.6501 179.577 99.4148Z" fill="url(#paint13_linear_24105_1815)"/>
<path opacity="0.309" d="M166.361 92.194C167 91.6941 167.161 90.8314 166.72 90.2671C166.279 89.7028 165.403 89.6506 164.763 90.1505C164.124 90.6504 163.963 91.5131 164.404 92.0774C164.845 92.6417 165.721 92.6939 166.361 92.194Z" fill="url(#paint14_linear_24105_1815)"/>
<path opacity="0.522" d="M165.92 91.636C166.221 91.4007 166.298 90.9965 166.092 90.7332C165.887 90.4699 165.476 90.4471 165.175 90.6824C164.874 90.9177 164.797 91.3219 165.003 91.5852C165.208 91.8485 165.619 91.8712 165.92 91.636Z" fill="url(#paint15_linear_24105_1815)"/>
<path d="M101.806 207.692L103.295 208.564C103.354 208.603 103.526 208.65 103.38 209.083C103.234 209.516 103.138 209.448 103.08 209.41L101.534 208.526C101.475 208.488 101.433 208.338 101.512 208.049C101.591 207.76 101.747 207.654 101.806 207.692Z" fill="#1C247B"/>
<path d="M104.399 209.248L105.888 210.12C105.947 210.158 106.119 210.206 105.973 210.639C105.827 211.072 105.731 211.004 105.673 210.965L104.127 210.081C104.068 210.043 104.026 209.894 104.105 209.605C104.184 209.316 104.34 209.209 104.399 209.248Z" fill="#1C247B"/>
<path d="M107.165 210.803L108.654 211.676C108.713 211.714 108.885 211.762 108.739 212.195C108.593 212.628 108.497 212.56 108.439 212.521L106.893 211.637C106.834 211.599 106.792 211.45 106.871 211.161C106.95 210.872 107.106 210.765 107.165 210.803Z" fill="#1C247B"/>
<path d="M77.258 193.689L78.7474 194.562C78.806 194.6 78.9785 194.648 78.8323 195.081C78.6862 195.514 78.5906 195.446 78.5317 195.407L76.9859 194.523C76.9276 194.485 76.8854 194.336 76.9641 194.047C77.0428 193.758 77.1994 193.651 77.258 193.689Z" fill="#1C247B"/>
<path d="M80.024 195.245L81.5134 196.118C81.572 196.156 81.7445 196.204 81.5983 196.637C81.4522 197.07 81.3566 197.001 81.2977 196.963L79.7519 196.079C79.6936 196.041 79.6514 195.892 79.7301 195.603C79.8088 195.314 79.9654 195.207 80.024 195.245Z" fill="#1C247B"/>
<path d="M82.7898 196.801L84.2792 197.673C84.3378 197.712 84.5103 197.759 84.3642 198.192C84.218 198.625 84.1225 198.557 84.0636 198.519L82.5177 197.635C82.4594 197.597 82.4173 197.447 82.4959 197.158C82.5746 196.869 82.7312 196.762 82.7898 196.801Z" fill="#1C247B"/>
<path d="M123.539 217.374C124.806 216.67 126.215 216.762 129.23 212.736C132.245 208.71 197.179 119.898 197.179 119.898C197.179 119.898 201.188 115.473 201.074 111.939C201.546 111.889 198.722 116.082 198.722 116.082L178.253 144.584C178.253 144.584 129.261 211.723 127.722 213.096C126.184 214.47 125.796 215.249 122.081 216.412C118.367 217.576 122.271 218.079 123.539 217.374Z" fill="url(#paint16_linear_24105_1815)"/>
<path d="M162.826 92.9886C166.319 94.8902 174.821 99.8126 178.724 101.94C182.627 104.068 183.895 100.048 187.664 102.179C191.433 104.311 191.091 104.095 193.958 105.836C196.825 107.576 197.787 109.221 195.611 112.186L125.182 207.802C121.264 214.164 117.399 212.093 112.754 209.265L74.9333 187.516C71.8585 185.751 74.5908 182.196 75.7162 180.614L146.917 84.1469C147.87 82.9511 150.108 80.7941 154.8 83.1641C154.8 83.1641 154.871 83.2522 159.895 86.2435C164.919 89.2348 159.332 91.0872 162.826 92.9886Z" fill="url(#paint17_linear_24105_1815)"/>
<g opacity="0.218">
<path d="M180.442 102.782C180.442 102.782 177.909 101.481 173.624 99.0913C165.976 115.722 153.879 145.352 162.352 150.041C163.729 150.787 165.25 151.231 166.812 151.344C178.886 134.9 190.051 119.777 190.051 119.777C190.051 119.777 187.114 100.748 183.881 101.858C180.647 102.969 180.442 102.782 180.442 102.782Z" fill="url(#paint18_linear_24105_1815)"/>
<path d="M107.95 137.283C153.377 159.838 113.025 151.563 130.725 120.474C136.346 110.602 138.268 102.596 138.263 96.2389C131.118 105.756 111.77 132.042 107.95 137.283Z" fill="url(#paint19_linear_24105_1815)"/>
<path d="M144.148 181.96C139.222 161.315 126.455 127.54 98.5239 153.389C75.1064 175.061 78.9311 187 87.7572 194.798C94.1393 198.399 106.697 205.664 109.857 207.616C114.75 208.146 121.386 206.496 127.698 204.258C133.979 195.832 135.777 193.42 144.148 181.96Z" fill="url(#paint20_linear_24105_1815)"/>
</g>
<path d="M195.688 101.425C195.377 100.888 194.981 100.369 194.542 99.9241C194.136 99.5131 193.714 99.1832 193.32 98.9702L193.316 98.9678L171.545 86.4535L154.014 76.5561C152.704 75.8981 151.396 75.5055 150.127 75.3893C149.016 75.2874 147.929 75.3962 146.898 75.7127C146.006 75.9864 145.171 76.4085 144.416 76.9674C143.772 77.4437 143.208 78.0066 142.784 78.5952L142.783 78.5973L71.3919 175.048C71.2022 175.314 70.9141 175.753 70.6173 176.327C70.3276 176.887 70.0989 177.443 69.9377 177.98C69.7475 178.612 69.6555 179.206 69.664 179.745C69.6736 180.357 69.8144 180.903 70.0823 181.367C70.3594 181.847 70.78 182.251 71.3326 182.568L112.869 206.525L112.967 206.586C114.769 207.696 117.237 209.217 119.618 208.63C120.287 208.465 120.923 208.136 121.508 207.654C122.159 207.118 122.769 206.373 123.321 205.442L123.326 205.434L123.331 205.427L195.645 106.637C196.239 105.828 196.52 104.926 196.479 103.958C196.444 103.137 196.17 102.261 195.688 101.425ZM195.852 101.33C196.765 102.911 197.135 104.929 195.798 106.75L123.484 205.539C120.08 211.283 115.577 208.416 112.769 206.687L71.2376 182.733C67.9548 180.848 70.0361 176.626 71.2376 174.937L142.63 78.4842C144.235 76.2527 148.434 73.5391 154.104 76.3883L171.638 86.2879L193.411 98.803C194.208 99.2343 195.178 100.163 195.852 101.33Z" fill="#06D6D5"/>
<path d="M155.463 148.861C159.757 151.307 159.778 151.341 157.116 155.211L144.988 171.458C141.651 176.174 140.468 175.253 136.399 172.758L96.5561 149.978C93.4814 148.213 95.6972 145.825 96.8227 144.243L108.873 127.719C112.003 123.743 111.98 123.662 116.306 126.189C116.306 126.189 151.17 146.416 155.463 148.861Z" fill="url(#paint21_linear_24105_1815)"/>
<path opacity="0.349" d="M138.694 180.324C142.988 182.769 143.009 182.804 140.348 186.674L128.22 202.921C124.883 207.637 123.699 206.716 119.63 204.221L79.7876 181.441C76.7128 179.676 78.9286 177.288 80.0541 175.706L92.1046 159.182C95.2348 155.206 95.2117 155.125 99.5371 157.652C99.5371 157.652 134.401 177.879 138.694 180.324Z" fill="url(#paint22_linear_24105_1815)"/>
<g opacity="0.309">
<path d="M195.515 99.3506C195.204 98.813 194.808 98.2939 194.369 97.8494C193.963 97.4384 193.541 97.1085 193.147 96.8955L193.143 96.8931L171.372 84.3788L153.841 74.4814C152.531 73.8234 151.223 73.4308 149.954 73.3146C148.843 73.2127 147.756 73.3215 146.725 73.638C145.833 73.9117 144.998 74.3338 144.243 74.8927C143.599 75.369 143.035 75.9319 142.611 76.5205L142.61 76.5226L71.2189 172.973C71.0292 173.24 70.7411 173.678 70.4442 174.252C70.1546 174.813 69.9259 175.369 69.7647 175.905C69.5745 176.537 69.4825 177.131 69.491 177.67C69.5006 178.282 69.6414 178.828 69.9093 179.292C70.1864 179.772 70.607 180.177 71.1596 180.494L112.696 204.45L112.794 204.511C114.596 205.621 117.064 207.142 119.445 206.555C120.114 206.39 120.75 206.062 121.335 205.579C121.986 205.043 122.596 204.299 123.148 203.367L123.152 203.359L123.158 203.352L195.472 104.562C196.066 103.753 196.347 102.852 196.306 101.883C196.271 101.062 195.997 100.186 195.515 99.3506ZM195.679 99.2556C196.592 100.836 196.962 102.855 195.625 104.675L123.311 203.464C119.907 209.208 115.404 206.341 112.596 204.612L71.0646 180.658C67.7818 178.774 69.8631 174.551 71.0646 172.862L142.457 76.4095C144.062 74.1779 148.261 71.4644 153.931 74.3136L171.465 84.2132L193.238 96.7283C194.035 97.1596 195.005 98.0879 195.679 99.2556Z" fill="#06D6D5"/>
</g>
<path d="M171.886 116.706C176.18 119.152 176.201 119.187 173.539 123.057L161.411 139.304C158.074 144.02 156.891 143.099 152.822 140.603L112.979 117.824C109.904 116.059 112.12 113.67 113.246 112.089L125.296 95.5647C128.426 91.5887 128.403 91.5074 132.729 94.0351C132.729 94.0351 167.593 114.262 171.886 116.706Z" fill="url(#paint23_linear_24105_1815)"/>
<defs>
<linearGradient id="paint0_linear_24105_1815" x1="-72.5429" y1="-111.822" x2="504.982" y2="42.258" gradientUnits="userSpaceOnUse">
<stop offset="0.180668" stop-color="#5952EA" stop-opacity="0"/>
<stop offset="0.353858" stop-color="#3B09B2" stop-opacity="0.28"/>
<stop offset="0.669966" stop-color="#211A3D"/>
<stop offset="0.817188" stop-color="#759EF7" stop-opacity="0"/>
</linearGradient>
<linearGradient id="paint1_linear_24105_1815" x1="212.608" y1="136.509" x2="83.1815" y2="211.234" gradientUnits="userSpaceOnUse">
<stop stop-color="#0BB5E3" stop-opacity="0"/>
<stop offset="1" stop-color="#2AF698" stop-opacity="0.275"/>
</linearGradient>
<linearGradient id="paint2_linear_24105_1815" x1="202.031" y1="112.747" x2="70.2027" y2="188.858" gradientUnits="userSpaceOnUse">
<stop stop-color="#0BB5E3"/>
<stop offset="1" stop-color="#2AF698" stop-opacity="0.275"/>
</linearGradient>
<linearGradient id="paint3_linear_24105_1815" x1="200.278" y1="110.099" x2="68.8296" y2="185.99" gradientUnits="userSpaceOnUse">
<stop stop-color="#0BB5E3"/>
<stop offset="1" stop-color="#2AF698"/>
</linearGradient>
<linearGradient id="paint4_linear_24105_1815" x1="207.76" y1="102.867" x2="143.987" y2="120.343" gradientUnits="userSpaceOnUse">
<stop stop-color="#BDA0FF"/>
<stop offset="0.286" stop-color="#1A12ED"/>
<stop offset="0.837" stop-color="#1B1786" stop-opacity="0"/>
<stop offset="1"/>
</linearGradient>
<linearGradient id="paint5_linear_24105_1815" x1="196.606" y1="115.293" x2="196.606" y2="120.604" gradientUnits="userSpaceOnUse">
<stop stop-color="#0BB5E3"/>
<stop offset="1" stop-color="#2AF698"/>
</linearGradient>
<linearGradient id="paint6_linear_24105_1815" x1="128.844" y1="207.296" x2="128.844" y2="212.918" gradientUnits="userSpaceOnUse">
<stop stop-color="#0BB5E3"/>
<stop offset="1" stop-color="#2AF698"/>
</linearGradient>
<linearGradient id="paint7_linear_24105_1815" x1="187.865" y1="126.779" x2="187.865" y2="132.962" gradientUnits="userSpaceOnUse">
<stop stop-color="#0BB5E3"/>
<stop offset="1" stop-color="#2AF698"/>
</linearGradient>
<linearGradient id="paint8_linear_24105_1815" x1="188.038" y1="126.779" x2="188.038" y2="132.962" gradientUnits="userSpaceOnUse">
<stop stop-color="#0BB5E3"/>
<stop offset="1" stop-color="#2AF698"/>
</linearGradient>
<linearGradient id="paint9_linear_24105_1815" x1="181.588" y1="135.08" x2="181.694" y2="141.263" gradientUnits="userSpaceOnUse">
<stop stop-color="#0BB5E3"/>
<stop offset="1" stop-color="#2AF698"/>
</linearGradient>
<linearGradient id="paint10_linear_24105_1815" x1="181.761" y1="135.078" x2="181.866" y2="141.26" gradientUnits="userSpaceOnUse">
<stop stop-color="#0BB5E3"/>
<stop offset="1" stop-color="#2AF698"/>
</linearGradient>
<linearGradient id="paint11_linear_24105_1815" x1="67.0553" y1="180.687" x2="96.5736" y2="239.329" gradientUnits="userSpaceOnUse">
<stop stop-color="#BDA0FF"/>
<stop offset="0.286" stop-color="#1A12ED"/>
<stop offset="0.837" stop-color="#1B1786" stop-opacity="0"/>
<stop offset="1"/>
</linearGradient>
<linearGradient id="paint12_linear_24105_1815" x1="178.42" y1="97.9293" x2="180.018" y2="99.9728" gradientUnits="userSpaceOnUse">
<stop stop-color="#BDA0FF"/>
<stop offset="0.568" stop-color="#1A12ED"/>
<stop offset="1"/>
</linearGradient>
<linearGradient id="paint13_linear_24105_1815" x1="178.832" y1="98.4612" x2="179.577" y2="99.4148" gradientUnits="userSpaceOnUse">
<stop stop-color="#BDA0FF"/>
<stop offset="0.568" stop-color="#1A12ED"/>
<stop offset="1"/>
</linearGradient>
<linearGradient id="paint14_linear_24105_1815" x1="164.763" y1="90.1505" x2="166.361" y2="92.194" gradientUnits="userSpaceOnUse">
<stop stop-color="#BDA0FF"/>
<stop offset="0.568" stop-color="#1A12ED"/>
<stop offset="1"/>
</linearGradient>
<linearGradient id="paint15_linear_24105_1815" x1="165.175" y1="90.6824" x2="165.92" y2="91.636" gradientUnits="userSpaceOnUse">
<stop stop-color="#BDA0FF"/>
<stop offset="0.568" stop-color="#1A12ED"/>
<stop offset="1"/>
</linearGradient>
<linearGradient id="paint16_linear_24105_1815" x1="106.491" y1="237.369" x2="224.71" y2="145.701" gradientUnits="userSpaceOnUse">
<stop stop-color="#0BB5E3" stop-opacity="0.431"/>
<stop offset="1" stop-color="#2AF698" stop-opacity="0.243"/>
</linearGradient>
<linearGradient id="paint17_linear_24105_1815" x1="58.3843" y1="157.978" x2="273.709" y2="111.403" gradientUnits="userSpaceOnUse">
<stop stop-color="#37364E"/>
<stop offset="1" stop-color="#0B0B10"/>
</linearGradient>
<linearGradient id="paint18_linear_24105_1815" x1="130.001" y1="142.879" x2="228.742" y2="131.012" gradientUnits="userSpaceOnUse">
<stop stop-color="#BDA0FF"/>
<stop offset="0.315" stop-color="#37364E"/>
<stop offset="0.514" stop-color="#262536"/>
<stop offset="1" stop-color="#222222"/>
</linearGradient>
<linearGradient id="paint19_linear_24105_1815" x1="75.6098" y1="139.177" x2="143.025" y2="133.605" gradientUnits="userSpaceOnUse">
<stop stop-color="#BDA0FF"/>
<stop offset="0.315" stop-color="#37364E"/>
<stop offset="0.65" stop-color="#262536"/>
<stop offset="1" stop-color="#222222"/>
</linearGradient>
<linearGradient id="paint20_linear_24105_1815" x1="127.175" y1="102.884" x2="93.1201" y2="236.187" gradientUnits="userSpaceOnUse">
<stop stop-color="#BDA0FF"/>
<stop offset="0.388" stop-color="#37364E"/>
<stop offset="0.628" stop-color="#262536"/>
<stop offset="1" stop-color="#222222"/>
</linearGradient>
<linearGradient id="paint21_linear_24105_1815" x1="95.1846" y1="148.021" x2="174.702" y2="121.087" gradientUnits="userSpaceOnUse">
<stop stop-color="#BDA0FF" stop-opacity="0.129"/>
<stop offset="0.151" stop-color="#173586" stop-opacity="0.294"/>
<stop offset="0.736" stop-color="#7A31C3"/>
<stop offset="1"/>
</linearGradient>
<linearGradient id="paint22_linear_24105_1815" x1="78.416" y1="179.484" x2="157.933" y2="152.55" gradientUnits="userSpaceOnUse">
<stop stop-color="#BDA0FF" stop-opacity="0.129"/>
<stop offset="0.151" stop-color="#173586" stop-opacity="0.294"/>
<stop offset="0.736" stop-color="#7A31C3"/>
<stop offset="1"/>
</linearGradient>
<linearGradient id="paint23_linear_24105_1815" x1="111.608" y1="115.866" x2="191.125" y2="88.9325" gradientUnits="userSpaceOnUse">
<stop stop-color="#BDA0FF"/>
<stop offset="0.41" stop-color="#1A12ED"/>
<stop offset="0.935" stop-color="#1B1786" stop-opacity="0"/>
<stop offset="1"/>
</linearGradient>
</defs>
</svg>
