<svg width="56" height="56" viewBox="0 0 56 56" fill="none" xmlns="http://www.w3.org/2000/svg">
<g filter="url(#filter0_ddd_28_6081)">
<rect x="10" width="36" height="36" rx="18" fill="black" fill-opacity="0.6" shape-rendering="crispEdges"/>
<rect x="10.5" y="0.5" width="35" height="35" rx="17.5" stroke="white" stroke-opacity="0.1" shape-rendering="crispEdges"/>
<mask id="path-3-inside-1_28_6081" fill="white">
<path d="M29.2665 17.4654L33.3949 12.6665H32.4166L28.8319 16.8333L25.9689 12.6665H22.6667L26.9962 18.9675L22.6667 23.9998H23.645L27.4305 19.5995L30.4541 23.9998H33.7563L29.2663 17.4654H29.2665ZM27.9265 19.023L27.4879 18.3955L23.9975 13.403H25.5002L28.3169 17.4321L28.7556 18.0596L32.417 23.2968H30.9144L27.9265 19.0232V19.023Z"/>
</mask>
<path d="M29.2665 17.4654L33.3949 12.6665H32.4166L28.8319 16.8333L25.9689 12.6665H22.6667L26.9962 18.9675L22.6667 23.9998H23.645L27.4305 19.5995L30.4541 23.9998H33.7563L29.2663 17.4654H29.2665ZM27.9265 19.023L27.4879 18.3955L23.9975 13.403H25.5002L28.3169 17.4321L28.7556 18.0596L32.417 23.2968H30.9144L27.9265 19.0232V19.023Z" fill="white"/>
<path d="M29.2665 17.4654V18.9654H29.9548L30.4036 18.4436L29.2665 17.4654ZM33.3949 12.6665L34.532 13.6447L36.664 11.1665H33.3949V12.6665ZM32.4166 12.6665V11.1665H31.7283L31.2795 11.6883L32.4166 12.6665ZM28.8319 16.8333L27.5956 17.6828L28.6987 19.2882L29.969 17.8116L28.8319 16.8333ZM25.9689 12.6665L27.2052 11.817L26.7582 11.1665H25.9689V12.6665ZM22.6667 12.6665V11.1665H19.816L21.4304 13.516L22.6667 12.6665ZM26.9962 18.9675L28.1333 19.9457L28.8866 19.0701L28.2325 18.118L26.9962 18.9675ZM22.6667 23.9998L21.5296 23.0216L19.3974 25.4998H22.6667V23.9998ZM23.645 23.9998V25.4998H24.3333L24.7821 24.9781L23.645 23.9998ZM27.4305 19.5995L28.6668 18.7501L27.5637 17.1447L26.2934 18.6213L27.4305 19.5995ZM30.4541 23.9998L29.2178 24.8493L29.6648 25.4998H30.4541V23.9998ZM33.7563 23.9998V25.4998H36.607L34.9926 23.1504L33.7563 23.9998ZM29.2663 17.4654V15.9654H26.4156L28.03 18.3149L29.2663 17.4654ZM27.9265 19.023H29.4265V18.5506L29.1559 18.1635L27.9265 19.023ZM27.4879 18.3955L26.2585 19.255L26.2585 19.255L27.4879 18.3955ZM23.9975 13.403V11.903H21.1187L22.7682 14.2624L23.9975 13.403ZM25.5002 13.403L26.7296 12.5435L26.2818 11.903H25.5002V13.403ZM28.3169 17.4321L27.0876 18.2916L27.0876 18.2916L28.3169 17.4321ZM28.7556 18.0596L29.985 17.2001L29.985 17.2001L28.7556 18.0596ZM32.417 23.2968V24.7968H35.2959L33.6464 22.4374L32.417 23.2968ZM30.9144 23.2968L29.685 24.1563L30.1328 24.7968H30.9144V23.2968ZM27.9265 19.0232H26.4265V19.4956L26.6972 19.8827L27.9265 19.0232ZM29.2665 17.4654L30.4036 18.4436L34.532 13.6447L33.3949 12.6665L32.2577 11.6883L28.1294 16.4872L29.2665 17.4654ZM33.3949 12.6665V11.1665H32.4166V12.6665V14.1665H33.3949V12.6665ZM32.4166 12.6665L31.2795 11.6883L27.6948 15.8551L28.8319 16.8333L29.969 17.8116L33.5537 13.6448L32.4166 12.6665ZM28.8319 16.8333L30.0682 15.9838L27.2052 11.817L25.9689 12.6665L24.7326 13.516L27.5956 17.6828L28.8319 16.8333ZM25.9689 12.6665V11.1665H22.6667V12.6665V14.1665H25.9689V12.6665ZM22.6667 12.6665L21.4304 13.516L25.7599 19.8169L26.9962 18.9675L28.2325 18.118L23.903 11.817L22.6667 12.6665ZM26.9962 18.9675L25.8591 17.9892L21.5296 23.0216L22.6667 23.9998L23.8038 24.9781L28.1333 19.9457L26.9962 18.9675ZM22.6667 23.9998V25.4998H23.645V23.9998V22.4998H22.6667V23.9998ZM23.645 23.9998L24.7821 24.9781L28.5676 20.5778L27.4305 19.5995L26.2934 18.6213L22.5079 23.0216L23.645 23.9998ZM27.4305 19.5995L26.1942 20.449L29.2178 24.8493L30.4541 23.9998L31.6904 23.1503L28.6668 18.7501L27.4305 19.5995ZM30.4541 23.9998V25.4998H33.7563V23.9998V22.4998H30.4541V23.9998ZM33.7563 23.9998L34.9926 23.1504L30.5025 16.6159L29.2663 17.4654L28.03 18.3149L32.52 24.8493L33.7563 23.9998ZM29.2663 17.4654V18.9654H29.2665V17.4654V15.9654H29.2663V17.4654ZM27.9265 19.023L29.1559 18.1635L28.7172 17.5361L27.4879 18.3955L26.2585 19.255L26.6972 19.8825L27.9265 19.023ZM27.4879 18.3955L28.7172 17.5361L25.2269 12.5435L23.9975 13.403L22.7682 14.2624L26.2585 19.255L27.4879 18.3955ZM23.9975 13.403V14.903H25.5002V13.403V11.903H23.9975V13.403ZM25.5002 13.403L24.2708 14.2624L27.0876 18.2916L28.3169 17.4321L29.5463 16.5727L26.7296 12.5435L25.5002 13.403ZM28.3169 17.4321L27.0876 18.2916L27.5263 18.9191L28.7556 18.0596L29.985 17.2001L29.5463 16.5726L28.3169 17.4321ZM28.7556 18.0596L27.5263 18.919L31.1877 24.1563L32.417 23.2968L33.6464 22.4374L29.985 17.2001L28.7556 18.0596ZM32.417 23.2968V21.7968H30.9144V23.2968V24.7968H32.417V23.2968ZM30.9144 23.2968L32.1437 22.4374L29.1559 18.1637L27.9265 19.0232L26.6972 19.8827L29.685 24.1563L30.9144 23.2968ZM27.9265 19.0232H29.4265V19.023H27.9265H26.4265V19.0232H27.9265Z" fill="white" mask="url(#path-3-inside-1_28_6081)"/>
</g>
<defs>
<filter id="filter0_ddd_28_6081" x="-10" y="-20" width="76" height="76" filterUnits="userSpaceOnUse" color-interpolation-filters="sRGB">
<feFlood flood-opacity="0" result="BackgroundImageFix"/>
<feColorMatrix in="SourceAlpha" type="matrix" values="0 0 0 0 0 0 0 0 0 0 0 0 0 0 0 0 0 0 127 0" result="hardAlpha"/>
<feOffset dy="10"/>
<feGaussianBlur stdDeviation="5"/>
<feComposite in2="hardAlpha" operator="out"/>
<feColorMatrix type="matrix" values="0 0 0 0 0 0 0 0 0 0 0 0 0 0 0 0 0 0 0.1 0"/>
<feBlend mode="normal" in2="BackgroundImageFix" result="effect1_dropShadow_28_6081"/>
<feColorMatrix in="SourceAlpha" type="matrix" values="0 0 0 0 0 0 0 0 0 0 0 0 0 0 0 0 0 0 127 0" result="hardAlpha"/>
<feOffset dy="4"/>
<feGaussianBlur stdDeviation="2"/>
<feComposite in2="hardAlpha" operator="out"/>
<feColorMatrix type="matrix" values="0 0 0 0 0 0 0 0 0 0 0 0 0 0 0 0 0 0 0.05 0"/>
<feBlend mode="normal" in2="effect1_dropShadow_28_6081" result="effect2_dropShadow_28_6081"/>
<feColorMatrix in="SourceAlpha" type="matrix" values="0 0 0 0 0 0 0 0 0 0 0 0 0 0 0 0 0 0 127 0" result="hardAlpha"/>
<feOffset dy="1"/>
<feComposite in2="hardAlpha" operator="out"/>
<feColorMatrix type="matrix" values="0 0 0 0 0 0 0 0 0 0 0 0 0 0 0 0 0 0 0.05 0"/>
<feBlend mode="normal" in2="effect2_dropShadow_28_6081" result="effect3_dropShadow_28_6081"/>
<feBlend mode="normal" in="SourceGraphic" in2="effect3_dropShadow_28_6081" result="shape"/>
</filter>
</defs>
</svg>
